<svg id="Camada_1" data-name="Camada 1" xmlns="http://www.w3.org/2000/svg" xmlns:xlink="http://www.w3.org/1999/xlink" viewBox="0 0 24.02 22.86"><defs><style>.cls-1,.cls-2,.cls-37,.cls-7,.cls-8{fill:#A7A7A8;}.cls-1,.cls-4,.cls-5,.cls-6,.cls-7{clip-rule:evenodd;}.cls-3,.cls-4{fill:none;}.cls-25,.cls-27,.cls-5{fill:#579a64;}.cls-28,.cls-30,.cls-6{fill:#8c8c8c;}.cls-37,.cls-7{opacity:0.2;}.cls-25,.cls-28,.cls-37,.cls-8{fill-rule:evenodd;}.cls-9{clip-path:url(#clip-path);}.cls-10{clip-path:url(#clip-path-2);}.cls-11{clip-path:url(#clip-path-3);}.cls-12{clip-path:url(#clip-path-4);}.cls-13{clip-path:url(#clip-path-5);}.cls-14{clip-path:url(#clip-path-6);}.cls-15{clip-path:url(#clip-path-7);}.cls-16{clip-path:url(#clip-path-8);}.cls-17{clip-path:url(#clip-path-9);}.cls-18{clip-path:url(#clip-path-10);}.cls-19{clip-path:url(#clip-path-11);}.cls-20{clip-path:url(#clip-path-12);}.cls-21{clip-path:url(#clip-path-13);}.cls-22{clip-path:url(#clip-path-15);}.cls-23{clip-path:url(#clip-path-16);}.cls-24{clip-path:url(#clip-path-17);}.cls-26{clip-path:url(#clip-path-18);}.cls-29{clip-path:url(#clip-path-20);}.cls-31{clip-path:url(#clip-path-21);}.cls-32{clip-path:url(#clip-path-22);}.cls-33{clip-path:url(#clip-path-23);}.cls-34{clip-path:url(#clip-path-24);}.cls-35{clip-path:url(#clip-path-25);}.cls-36{clip-path:url(#clip-path-26);}.cls-38{clip-path:url(#clip-path-27);}.cls-39{clip-path:url(#clip-path-28);}.cls-40{clip-path:url(#clip-path-29);}</style><clipPath id="clip-path"><path class="cls-1" d="M-157.12,14H-171L-172.37,19h16.67Zm-12.55-2.53a7.55,7.55,0,0,1-1.93-5A7.58,7.58,0,0,1-164-1.21a7.58,7.58,0,0,1,7.58,7.58,7.55,7.55,0,0,1-1.93,5.05h1.91a1.75,1.75,0,0,1,1.6,1.22l2.14,7.67a.92.92,0,0,1-.93,1.22l-20.76,0a.92.92,0,0,1-.94-1.22l2.13-7.69a1.75,1.75,0,0,1,1.59-1.22Zm.62-4.59a5.06,5.06,0,0,0,5,4.59,5,5,0,0,0,5.05-5,5,5,0,0,0-.74-2.64c-1.54,1.38-5,1.38-6.74,1.38A3.17,3.17,0,0,0-169,6.83Z"/></clipPath><clipPath id="clip-path-2"><path class="cls-1" d="M-28.72,17.94a3.14,3.14,0,0,0,3.14-3.14,3.14,3.14,0,0,0-3.14-3.15,3.14,3.14,0,0,0-3.14,3.15A3.14,3.14,0,0,0-28.72,17.94Zm0-12.81a.81.81,0,0,1,.81-.81h1.52a.81.81,0,0,1,.81.81V5.6a.81.81,0,0,1-.81.81h-1.52a.81.81,0,0,1-.81-.81Zm-11.53,6.29a.82.82,0,0,1,.81-.82h1.53a.82.82,0,0,1,.81.82v.46a.81.81,0,0,1-.81.82h-1.53a.82.82,0,0,1-.81-.82Zm15.83,6.38a3.19,3.19,0,0,0,.94.14,3.15,3.15,0,0,0,3.14-3.14,3.15,3.15,0,0,0-3.14-3.15,2.89,2.89,0,0,0-.94.15,5.24,5.24,0,0,1,.94,3A5.26,5.26,0,0,1-24.42,17.8Zm-9.43-4.05a5.07,5.07,0,0,1,.94-2.1,3.14,3.14,0,0,1-3.15-3.14,3.14,3.14,0,0,1,3.15-3.14,3.14,3.14,0,0,1,3.14,3.14A3,3,0,0,1-30,9.72a5,5,0,0,1,1.29-.16,5.18,5.18,0,0,1,2.62.7,5.32,5.32,0,0,1,1.57-.6V3.27H-41.29V13.75Zm0,2.09h-6.28a3.26,3.26,0,0,1-3.26-3.25V4.43a3.26,3.26,0,0,1,3.26-3.26H-25.7a3.26,3.26,0,0,1,3.27,3.26V9.66a5.25,5.25,0,0,1,4.19,5.14A5.25,5.25,0,0,1-23.48,20a5.26,5.26,0,0,1-2.62-.7,5.29,5.29,0,0,1-2.62.7A5.23,5.23,0,0,1-33.85,15.84Z"/></clipPath><clipPath id="clip-path-3"><path class="cls-1" d="M103.8,14.3V9.52a5.76,5.76,0,1,0-11.52,0V14.3a1.13,1.13,0,0,1-.79,1,1,1,0,0,0-.78,1,1,1,0,0,0,1.05,1.05h12.57a1,1,0,0,0,.26-2.06A1.11,1.11,0,0,1,103.8,14.3ZM97,19.47h0a1.05,1.05,0,0,0,2.1,0Zm-2.09,0H91.76a3.14,3.14,0,0,1-1.57-5.86c0-.32,0-4.09,0-4.09A7.86,7.86,0,0,1,96,1.94a2.64,2.64,0,0,1,0-.28,2.1,2.1,0,1,1,4.2,0,2.64,2.64,0,0,1,0,.28,7.86,7.86,0,0,1,5.78,7.58v4.09a3.14,3.14,0,0,1-1.57,5.86h-3.15a3.14,3.14,0,1,1-6.28,0Z"/></clipPath><clipPath id="clip-path-4"><path class="cls-1" d="M-126.36,16.26l-1.17-1.17a1.17,1.17,0,0,1,0-1.66,1.18,1.18,0,0,1,1.65,0l.35.35,1.51-1.52a1.17,1.17,0,0,1,1.66,0,1.19,1.19,0,0,1,0,1.66l-2.35,2.34A1.16,1.16,0,0,1-126.36,16.26Zm0-6.44-1.17-1.17a1.17,1.17,0,0,1,0-1.66,1.16,1.16,0,0,1,1.65,0l.35.34L-124,5.82a1.17,1.17,0,0,1,1.66,0,1.19,1.19,0,0,1,0,1.66l-2.35,2.34A1.16,1.16,0,0,1-126.36,9.82Zm5.51,5.61a1.18,1.18,0,0,1,1.18-1.17H-115a1.17,1.17,0,0,1,1.18,1.17A1.17,1.17,0,0,1-115,16.6h-4.67A1.17,1.17,0,0,1-120.85,15.43Zm0-6.44a1.17,1.17,0,0,1,1.18-1.17H-115A1.17,1.17,0,0,1-113.82,9,1.17,1.17,0,0,1-115,10.16h-4.67A1.17,1.17,0,0,1-120.85,9Zm3.52-6.44h-2.35a1.17,1.17,0,0,1-1.17,1.17A1.17,1.17,0,0,1-122,2.55h-2.34a1.17,1.17,0,0,1-1.17,1.17,1.17,1.17,0,0,1-1.18-1.17H-129V21.29h16.4V2.55H-115a1.17,1.17,0,0,1-1.17,1.17,1.17,1.17,0,0,1-1.17-1.17Zm0-2.35h0A1.17,1.17,0,0,1-116.16-1,1.17,1.17,0,0,1-115,.2h2.34a2.35,2.35,0,0,1,2.34,2.35V21.29a2.33,2.33,0,0,1-2.34,2.34H-129a2.34,2.34,0,0,1-2.34-2.34V2.55A2.35,2.35,0,0,1-129,.2h2.34A1.17,1.17,0,0,1-125.53-1,1.17,1.17,0,0,1-124.36.2H-122A1.17,1.17,0,0,1-120.85-1,1.17,1.17,0,0,1-119.68.2h2.35Z"/></clipPath><clipPath id="clip-path-5"><path class="cls-1" d="M-77.77,11.88a1.21,1.21,0,0,0,1.2-1.21,1.2,1.2,0,0,0-1.2-1.2,1.2,1.2,0,0,0-1.2,1.2A1.2,1.2,0,0,0-77.77,11.88Zm0,2.41a3.61,3.61,0,0,1-3.61-3.62,3.61,3.61,0,0,1,3.61-3.61,3.61,3.61,0,0,1,3.61,3.61A3.62,3.62,0,0,1-77.77,14.29Zm-7.16-3.87a.61.61,0,0,0,0,.56l4.43,6.44a1.51,1.51,0,0,0,.92.48h16.26V3.45H-79.58a1.46,1.46,0,0,0-.92.48Zm2.47,8.4-4.42-6.48a3,3,0,0,1,0-3.37l4.42-6.44A3.81,3.81,0,0,1-79.58,1h16.26a2.4,2.4,0,0,1,2.4,2.4V17.9a2.41,2.41,0,0,1-2.4,2.41H-79.58A3.81,3.81,0,0,1-82.46,18.82Z"/></clipPath><clipPath id="clip-path-6"><path class="cls-1" d="M59.8,20A5.77,5.77,0,1,0,54,14.24,5.76,5.76,0,0,0,59.8,20ZM63.47,7.28a7.86,7.86,0,1,1-7.59,13.77h-8a3.26,3.26,0,0,1-3.26-3.27V3.35A3.26,3.26,0,0,1,47.87.09H60.21a3.26,3.26,0,0,1,3.26,3.26Zm-11.53,7a5.23,5.23,0,0,1-3.14-4.8V8.19a2.09,2.09,0,1,1,2.1,0V9.52a3.16,3.16,0,0,0,1.34,2.58A7.87,7.87,0,0,1,56.3,7.2a2.26,2.26,0,0,1-.16-.82,2.1,2.1,0,1,1,4.19,0h0a9.44,9.44,0,0,1,1.05.14V2.18H46.71V19h6.81A7.83,7.83,0,0,1,51.94,14.32Zm8.91-1.13h1.57a1,1,0,1,1,0,2.09H60.85v1.57a1,1,0,1,1-2.09,0V15.28H57.19a1,1,0,1,1,0-2.09h1.57V11.62a1,1,0,1,1,2.09,0Z"/></clipPath><clipPath id="clip-path-7"><path class="cls-1" d="M135.7.8h7.66a1.45,1.45,0,0,1,.89.37L150,6.93a1.5,1.5,0,0,1,.37.89V19.67a2.1,2.1,0,0,1-2.1,2.09H135.71a2.1,2.1,0,0,1-2.1-2.09V2.9A2.1,2.1,0,0,1,135.7.8ZM143,2.9V8.14h5.24Zm-2.1,0H135.7s0,16.77,0,16.77h12.57V10.24H142a1,1,0,0,1-1.05-1.05Z"/></clipPath><clipPath id="clip-path-8"><path class="cls-1" d="M21.24,5.13a4.4,4.4,0,0,0-.78-.65,5.8,5.8,0,0,0-3.28-1,4.29,4.29,0,0,0-3.11,1.4,13.32,13.32,0,0,0-1,1.23V19a9.79,9.79,0,0,1,4-1,9.88,9.88,0,0,1,4.08.91Zm-18.57,0V18.94A9.88,9.88,0,0,1,6.75,18a9.79,9.79,0,0,1,4,1V6.15a13.32,13.32,0,0,0-.95-1.23,4.29,4.29,0,0,0-3.11-1.4,5.8,5.8,0,0,0-3.28,1A4.4,4.4,0,0,0,2.67,5.13Zm8.58,16.72-.31-.2a9.59,9.59,0,0,0-1-.54,7.92,7.92,0,0,0-3.17-.76,8,8,0,0,0-3.2.76,10.67,10.67,0,0,0-1,.54l-.34.22a1.16,1.16,0,0,1-1.84-.94V4.68A1.14,1.14,0,0,1,.58,4,6.39,6.39,0,0,1,2.16,2.55,8.11,8.11,0,0,1,6.73,1.2a6.61,6.61,0,0,1,4.76,2.08l.47.51c.14-.17.3-.34.47-.51A6.57,6.57,0,0,1,17.18,1.2a8.11,8.11,0,0,1,4.57,1.35A6.39,6.39,0,0,1,23.33,4a1.14,1.14,0,0,1,.23.69V20.93a1.16,1.16,0,0,1-1.84.94,3.47,3.47,0,0,0-.34-.22,10.67,10.67,0,0,0-1-.54,8,8,0,0,0-3.2-.76,7.92,7.92,0,0,0-3.17.76,9.59,9.59,0,0,0-1,.54l-.31.2-.08,0a1.12,1.12,0,0,1-1.25,0Z"/></clipPath><clipPath id="clip-path-9"><rect class="cls-2" x="-242" y="-1910.35" width="1301.12" height="2540.8"/></clipPath><clipPath id="clip-path-10"><path class="cls-2" d="M229.48-.19a1.28,1.28,0,0,1,1.29-1.29,1.29,1.29,0,0,1,1.3,1.29V10.19a1.3,1.3,0,0,1-2.59,0Zm-4.57,3.12a1.29,1.29,0,1,1,1.47,2.13,7.78,7.78,0,1,0,8.89.07A1.29,1.29,0,0,1,236.77,3a10.37,10.37,0,1,1-11.86-.09Z"/></clipPath><clipPath id="clip-path-11"><path class="cls-1" d="M190.37,14.12a1.53,1.53,0,1,1,1.52-1.52A1.52,1.52,0,0,1,190.37,14.12Zm-5.1,0a1.53,1.53,0,1,1,1.53-1.52A1.53,1.53,0,0,1,185.27,14.12Zm11.72.52V11.58a.51.51,0,0,0-.51-.51H196v4.07h.51A.5.5,0,0,0,197,14.64Zm-17.83-3.57a.51.51,0,0,0-.51.51v3.06a.51.51,0,0,0,1,0V11.07Zm10.42,10.19a2,2,0,1,1,0-2h2.32a2,2,0,0,0,2-2V9a6.11,6.11,0,0,0-12.22,0v5.61a2.55,2.55,0,0,1-5.09,0V11.58A2.55,2.55,0,0,1,179.16,9h.51A8.15,8.15,0,0,1,196,9h.51A2.55,2.55,0,0,1,199,11.58v3.06a2.54,2.54,0,0,1-2.54,2.54H196a4.08,4.08,0,0,1-4.07,4.08Z"/></clipPath><clipPath id="clip-path-12"><path id="_Caminho_de_recorte_composto_" data-name="&lt;Caminho de recorte composto&gt;" class="cls-3" d="M120.92,99.62c0-2.39,3.18-3.84,7.87-4.43a1.34,1.34,0,1,1,.34,2.65A16.41,16.41,0,0,0,124.69,99c-.47.21-.22.11-.22.11a.61.61,0,0,0,0,1.11s-.16.08,1.33.54a28.44,28.44,0,0,0,14.35,0c1.48-.46,1.33-.54,1.33-.54a.61.61,0,0,0,0-1.12s.26.11-.2-.1a15.93,15.93,0,0,0-4.41-1.1,1.34,1.34,0,0,1,.34-2.66c4.67.6,7.83,2,7.83,4.43,0,3-5.37,4.69-12.06,4.69S120.92,102.63,120.92,99.62ZM137,84.21a4,4,0,1,0-4,4A4,4,0,0,0,137,84.21Zm-2.68,6.57V99a1.34,1.34,0,0,1-2.68,0v-8s0-.09,0-.13a6.7,6.7,0,1,1,2.67,0Z"/></clipPath><clipPath id="clip-path-13"><path id="_Caminho_de_recorte_composto_2" data-name="&lt;Caminho de recorte composto&gt;" class="cls-1" d="M120.92,99.62c0-2.39,3.18-3.84,7.87-4.43a1.34,1.34,0,1,1,.34,2.65A16.41,16.41,0,0,0,124.69,99c-.47.21-.22.11-.22.11a.61.61,0,0,0,0,1.11s-.16.08,1.33.54a28.44,28.44,0,0,0,14.35,0c1.48-.46,1.33-.54,1.33-.54a.61.61,0,0,0,0-1.12s.26.11-.2-.1a15.93,15.93,0,0,0-4.41-1.1,1.34,1.34,0,0,1,.34-2.66c4.67.6,7.83,2,7.83,4.43,0,3-5.37,4.69-12.06,4.69S120.92,102.63,120.92,99.62ZM137,84.21a4,4,0,1,0-4,4A4,4,0,0,0,137,84.21Zm-2.68,6.57V99a1.34,1.34,0,0,1-2.68,0v-8s0-.09,0-.13a6.7,6.7,0,1,1,2.67,0Z"/></clipPath><clipPath id="clip-path-15"><path id="_Caminho_de_recorte_composto_4" data-name="&lt;Caminho de recorte composto&gt;" class="cls-1" d="M62.88,105.44a2.77,2.77,0,1,1,2.77-2.77A2.77,2.77,0,0,1,62.88,105.44Zm12.45,0a2.77,2.77,0,1,1,2.77-2.77A2.77,2.77,0,0,1,75.33,105.44ZM61.64,91.6H77.88l1.31-7L59.75,83.39Zm-2.54-11,22,1.35a1.18,1.18,0,0,1,1.12,1.43L80.43,93a1.73,1.73,0,0,1-1.63,1.36H62.28l.32,1.38H78.1a1.39,1.39,0,1,1,0,2.77H61.5a1.38,1.38,0,0,1-1.35-1.08l-4-17.34L54,79a1.38,1.38,0,1,1,1.24-2.47L58,77.9a1.4,1.4,0,0,1,.73.93Z"/></clipPath><clipPath id="clip-path-16"><path class="cls-4" d="M469.6,93.22a2.32,2.32,0,1,1,2.31-2.31A2.31,2.31,0,0,1,469.6,93.22Zm-12.37,0a2.32,2.32,0,1,1,2.32-2.31A2.31,2.31,0,0,1,457.23,93.22Zm6.18,0a2.32,2.32,0,1,1,2.32-2.31A2.3,2.3,0,0,1,463.41,93.22Zm6.14,8.47,5.87,1.26-1.23-5.9.44-.93a12.35,12.35,0,1,0-6,6Zm-6.14,4.67a15.44,15.44,0,1,1,14-8.93l1.35,6.49a1.86,1.86,0,0,1-2.38,2.39l-6.48-1.38A15.39,15.39,0,0,1,463.41,106.36Z"/></clipPath><clipPath id="clip-path-17"><path class="cls-3" d="M523.48,98.87A1.55,1.55,0,1,1,525,97.32,1.54,1.54,0,0,1,523.48,98.87Zm9.28,0a1.55,1.55,0,1,1,1.54-1.55A1.54,1.54,0,0,1,532.76,98.87Zm-4.64,0a1.55,1.55,0,1,1,1.55-1.55A1.54,1.54,0,0,1,528.12,98.87Zm-6.89,3.6-.79,2.56,2.57-.79,1.14.6a8.51,8.51,0,1,0-3.52-3.5Zm18-1.76a11.15,11.15,0,0,0,1.66-.64l1-.46,5.23,1.21-1.18-5.28.46-1a11.55,11.55,0,1,0-21.46-8.38,11.6,11.6,0,0,1,14.83,11.12A11.84,11.84,0,0,1,539.21,100.71ZM521.4,87.88a14.62,14.62,0,1,1,27.72,8l1.33,6a1.79,1.79,0,0,1-2.32,2.33l-5.94-1.35a14.53,14.53,0,0,1-4.75,1.34,11.6,11.6,0,0,1-14.74,3.36l-3.94,1.22c-1.64.5-2.56-.41-2.06-2l1.2-4a11.58,11.58,0,0,1,3.5-14.9Z"/></clipPath><clipPath id="clip-path-18"><path class="cls-5" d="M523.48,98.87A1.55,1.55,0,1,1,525,97.32,1.54,1.54,0,0,1,523.48,98.87Zm9.28,0a1.55,1.55,0,1,1,1.54-1.55A1.54,1.54,0,0,1,532.76,98.87Zm-4.64,0a1.55,1.55,0,1,1,1.55-1.55A1.54,1.54,0,0,1,528.12,98.87Zm-6.89,3.6-.79,2.56,2.57-.79,1.14.6a8.51,8.51,0,1,0-3.52-3.5Zm18-1.76a11.15,11.15,0,0,0,1.66-.64l1-.46,5.23,1.21-1.18-5.28.46-1a11.55,11.55,0,1,0-21.46-8.38,11.6,11.6,0,0,1,14.83,11.12A11.84,11.84,0,0,1,539.21,100.71ZM521.4,87.88a14.62,14.62,0,1,1,27.72,8l1.33,6a1.79,1.79,0,0,1-2.32,2.33l-5.94-1.35a14.53,14.53,0,0,1-4.75,1.34,11.6,11.6,0,0,1-14.74,3.36l-3.94,1.22c-1.64.5-2.56-.41-2.06-2l1.2-4a11.58,11.58,0,0,1,3.5-14.9Z"/></clipPath><clipPath id="clip-path-20"><path class="cls-6" d="M-169.24,92.84A2.24,2.24,0,0,1-167,90.59h1.28a2.25,2.25,0,0,1,2.25,2.25v1.27a2.25,2.25,0,0,1-2.25,2.25H-167a2.24,2.24,0,0,1-2.24-2.25Zm10.1-3.8-7.22-8.46L-173.57,89v12.38h14.42V89.15S-159.14,89.07-159.14,89Zm2.88,4.43v5h.72a2.16,2.16,0,0,1,2.16,2.17v.72h1.44a1.44,1.44,0,0,1,1.45,1.44,1.44,1.44,0,0,1-1.45,1.44h-21.35a3,3,0,0,1-3.16-2.87v-9l-.15.17a1.43,1.43,0,0,1-2,.16,1.43,1.43,0,0,1-.16-2l10.4-12.2a2.6,2.6,0,0,1,4,0L-154,90.59h2.1A1.43,1.43,0,0,1-150.49,92a1.44,1.44,0,0,1-1.44,1.44Z"/></clipPath><clipPath id="clip-path-21"><path class="cls-6" d="M-86.77,88.82v13.72A1.46,1.46,0,0,1-88.23,104h-20.35a1.46,1.46,0,0,1-1.46-1.46V88.82a4,4,0,0,1-1.52-4.91l1.51-4.7a2.1,2.1,0,0,1,1.9-1.38h19.5a2.14,2.14,0,0,1,1.9,1.38l1.51,4.7A4,4,0,0,1-86.77,88.82Zm-16-2.27h2.91V85.1a1.46,1.46,0,0,1,1.46-1.46,1.45,1.45,0,0,1,1.45,1.46v1.45H-94V85.1a1.45,1.45,0,0,1,1.45-1.46,1.46,1.46,0,0,1,1.46,1.46v1.45h1.85c1.24,0,1.65-.56,1.27-1.75l-1.31-4.07h-18.21l-1.26,4.07c-.38,1.19,0,1.75,1.26,1.75h1.86V85.1a1.45,1.45,0,0,1,1.45-1.46,1.45,1.45,0,0,1,1.45,1.46Zm0,2.91a1.44,1.44,0,0,1-1.45,1.45,1.44,1.44,0,0,1-1.45-1.45h-1.46v11.63h6a2.15,2.15,0,0,1-.15-.8V94.63A2.26,2.26,0,0,1-99,92.37h1.29a2.27,2.27,0,0,1,2.27,2.26v5.66a2.37,2.37,0,0,1-.15.8h6V89.46h-1.45a1.45,1.45,0,0,1-1.46,1.45A1.44,1.44,0,0,1-94,89.46h-2.91a1.44,1.44,0,0,1-1.45,1.45,1.45,1.45,0,0,1-1.46-1.45Z"/></clipPath><clipPath id="clip-path-22"><path class="cls-1" d="M-216.53-293a1.48,1.48,0,0,1,1.49-1.49h14.87a1.48,1.48,0,0,1,1.49,1.49,1.47,1.47,0,0,1-1.49,1.48H-215A1.49,1.49,0,0,1-216.53-293Zm22.32-2.44.14.05a4.32,4.32,0,0,1,2.83,3.87v20.84a3,3,0,0,1-3,3H-221a3,3,0,0,1-3-3v-20.84a4.32,4.32,0,0,1,2.83-3.87l.14-.05v-3.51a1.49,1.49,0,0,1,1.49-1.49h23.8a1.49,1.49,0,0,1,1.49,1.49Zm-3,4.81v-6.84H-218v6.84l10.41,10.45Zm3,17.84v-16.62l-8.31,8.31Zm-26.78,0,8.31-8.31-8.31-8.31Zm2.1,2.1h22.58l-8.32-8.32-1.92,1.93a1.48,1.48,0,0,1-2.1,0l-1.93-1.93Z"/></clipPath><clipPath id="clip-path-23"><path class="cls-2" d="M-125.95-297.43l-2.88,2.89a4.83,4.83,0,0,0-.66,5s.27.56.44.86c.3.56.71,1.22,1.23,2a54,54,0,0,0,6.52,7.71,52.51,52.51,0,0,0,7.66,6.48,22.81,22.81,0,0,0,2,1.21c.29.16.91.46.91.46a4.78,4.78,0,0,0,5-.7l2.88-2.89-4.61-4.61-.58.58a5.7,5.7,0,0,1-8.07,0l-5.75-5.76a5.7,5.7,0,0,1,0-8.07l.57-.58Zm8.07,3.46a1.63,1.63,0,0,1,0,2.31l-1.73,1.73a2.45,2.45,0,0,0,0,3.46l5.75,5.75a2.45,2.45,0,0,0,3.46,0l1.73-1.73a1.62,1.62,0,0,1,2.3,0l6.34,6.33a2.45,2.45,0,0,1,0,3.47l-3.46,3.45a7.76,7.76,0,0,1-9,1.2s-4.33-1.82-11.15-8.65-8.72-11.24-8.72-11.24a7.85,7.85,0,0,1,1.18-9l3.46-3.45a2.44,2.44,0,0,1,3.46,0Z"/></clipPath><clipPath id="clip-path-24"><path class="cls-1" d="M-298.94-282.42a1.63,1.63,0,0,0,1.63-1.63,1.63,1.63,0,0,0-1.63-1.63,1.63,1.63,0,0,0-1.63,1.63A1.63,1.63,0,0,0-298.94-282.42Zm0,3.26a4.89,4.89,0,0,1-4.89-4.89,4.89,4.89,0,0,1,4.89-4.89A4.89,4.89,0,0,1-294-284,4.89,4.89,0,0,1-298.94-279.16Zm2.81-13.44-.22-.73c-.32-1.06-.66-2-1-2.91-.12-.3-.23-.57-.33-.79a7.79,7.79,0,0,0-2.55,0l-.32.79c-.33.87-.67,1.85-1,2.91l-.22.73-.7.3a9.11,9.11,0,0,0-1.87,1.08l-.62.46-.74-.17c-1.08-.26-2.1-.46-3-.6l-.85-.12a8.73,8.73,0,0,0-1.28,2.21l.53.68c.59.73,1.26,1.51,2,2.32l.52.55-.09.76a9.79,9.79,0,0,0-.07,1.08,9.48,9.48,0,0,0,.07,1.08l.09.76-.52.56c-.77.81-1.44,1.59-2,2.32l-.53.67a8.39,8.39,0,0,0,1.28,2.21l.85-.12c.92-.14,1.94-.33,3-.59l.74-.18.62.46a8.28,8.28,0,0,0,1.87,1.08l.7.3.22.73c.32,1.07.66,2,1,2.92l.32.79a8.39,8.39,0,0,0,2.55,0c.1-.23.21-.49.33-.79.33-.87.67-1.85,1-2.92l.22-.73.7-.3a8.5,8.5,0,0,0,1.87-1.08l.61-.46.75.18c1.08.25,2.1.45,3,.59l.85.12a10.25,10.25,0,0,0,1.27-2.21l-.52-.67c-.59-.73-1.27-1.51-2-2.32l-.52-.56.09-.76A9.51,9.51,0,0,0-290-284a9.77,9.77,0,0,0-.06-1.08l-.09-.76.52-.55c.76-.81,1.44-1.59,2-2.32.2-.25.38-.48.52-.68a8.4,8.4,0,0,0-1.27-2.21l-.85.12c-.92.14-1.94.34-3,.6l-.75.17-.61-.46a9.38,9.38,0,0,0-1.87-1.08Zm1.82-4.82c.37.94.87,2.45.87,2.45l1.21.7s1.55-.32,2.55-.48l1.27-.17a3,3,0,0,1,2.82,1.41l1.52,2.63a2.93,2.93,0,0,1-.16,3.11c-.15.21-.42.57-.81,1-.51.63-1.69,2-1.69,2s0,.21,0,.7c0,.24,0,.71,0,.71s1.06,1.17,1.7,2c.39.48.66.84.78,1a3,3,0,0,1,.19,3.15l-1.52,2.63a3,3,0,0,1-2.78,1.41h-.1l-.26,0-.95-.14c-.8-.12-2.57-.48-2.57-.48l-1.19.7s-.5,1.51-.87,2.46c-.22.57-.4,1-.49,1.18a2.93,2.93,0,0,1-2.62,1.74h-3a2.93,2.93,0,0,1-2.61-1.7c-.1-.23-.28-.65-.51-1.22-.29-.76-.86-2.47-.86-2.47l-1.22-.69s-1.54.33-2.55.48c-.61.1-1.06.15-1.26.17a3,3,0,0,1-2.83-1.4l-1.51-2.63a2.91,2.91,0,0,1,.16-3.11c.15-.21.42-.57.81-1.05s1.69-2,1.69-2,0-.2,0-.7c0-.23,0-.69,0-.69s-1.06-1.19-1.7-2c-.39-.48-.66-.84-.78-1a3,3,0,0,1-.19-3.14l1.51-2.63a2.93,2.93,0,0,1,2.78-1.41c.25,0,.7.08,1.31.17.81.12,2.59.49,2.59.49l1.19-.71s.49-1.51.85-2.45c.23-.58.41-1,.49-1.19a3,3,0,0,1,2.63-1.74h3a2.94,2.94,0,0,1,2.61,1.7C-294.71-298.41-294.53-298-294.31-297.42Z"/></clipPath><clipPath id="clip-path-25"><path class="cls-1" d="M-26.59-291.2a1.75,1.75,0,0,1,1.75-1.75,1.74,1.74,0,0,1,1.74,1.75v8.7a1.74,1.74,0,0,1-1.74,1.75,1.75,1.75,0,0,1-1.75-1.75Zm1.75,15.68a1.75,1.75,0,0,1-1.75-1.74A1.75,1.75,0,0,1-24.84-279a1.74,1.74,0,0,1,1.74,1.75A1.74,1.74,0,0,1-24.84-275.52ZM-23.79-298c-.76-1.34-1.51-1.08-2.1,0L-38.4-275.75c-.6,1.17-.42,2,1.14,2h24.85c1.14,0,1.91-.61,1.14-2Zm-5.14-1.71h0c2.09-3.71,6.09-3.71,8.17,0l12.53,22.26c2.07,3.68,0,7.16-4.18,7.16H-37.26c-4.22,0-6.25-3.48-4.18-7.16Z"/></clipPath><clipPath id="clip-path-26"><path class="cls-1" d="M162.86-273.23a5.23,5.23,0,0,0,5.23-5.23,5.23,5.23,0,0,0-5.23-5.23,5.23,5.23,0,0,0-5.23,5.23A5.23,5.23,0,0,0,162.86-273.23Zm0-21.3a1.35,1.35,0,0,1,1.34-1.36h2.54a1.36,1.36,0,0,1,1.35,1.36v.77a1.35,1.35,0,0,1-1.35,1.36H164.2a1.35,1.35,0,0,1-1.34-1.36Zm-19.17,10.46a1.35,1.35,0,0,1,1.34-1.36h2.54a1.35,1.35,0,0,1,1.34,1.36v.77a1.35,1.35,0,0,1-1.34,1.36H145a1.35,1.35,0,0,1-1.34-1.36ZM170-273.47a5.15,5.15,0,0,0,1.57.24,5.23,5.23,0,0,0,5.23-5.23,5.23,5.23,0,0,0-5.23-5.23,5.48,5.48,0,0,0-1.57.24,8.7,8.7,0,0,1,1.57,5A8.65,8.65,0,0,1,170-273.47Zm-15.68-6.73a8.58,8.58,0,0,1,1.57-3.49,5.23,5.23,0,0,1-5.23-5.23,5.23,5.23,0,0,1,5.23-5.22,5.22,5.22,0,0,1,5.22,5.22,5.29,5.29,0,0,1-.39,2,8.83,8.83,0,0,1,2.14-.26,8.67,8.67,0,0,1,4.35,1.16,8.71,8.71,0,0,1,2.62-1v-10.63H141.94v17.43Zm0,3.49H143.88a5.42,5.42,0,0,1-5.42-5.42V-295.7a5.42,5.42,0,0,1,5.42-5.42h24a5.42,5.42,0,0,1,5.42,5.42v8.7a8.73,8.73,0,0,1,7,8.54,8.72,8.72,0,0,1-8.72,8.72,8.72,8.72,0,0,1-4.36-1.17,8.68,8.68,0,0,1-4.35,1.17A8.72,8.72,0,0,1,154.32-276.71Z"/></clipPath><clipPath id="clip-path-27"><path class="cls-7" d="M76.2-282.44v-7.94a9.59,9.59,0,0,0-9.59-9.6A9.59,9.59,0,0,0,57-290.39v7.95a1.83,1.83,0,0,1-1.3,1.69,1.74,1.74,0,0,0-1.31,1.69,1.74,1.74,0,0,0,1.75,1.74h20.9a1.74,1.74,0,0,0,1.75-1.74,1.74,1.74,0,0,0-1.31-1.69A1.84,1.84,0,0,1,76.2-282.44Zm-11.33,8.61h0a1.74,1.74,0,0,0,1.74,1.74,1.74,1.74,0,0,0,1.74-1.74Zm-3.49,0H56.16a5.24,5.24,0,0,1-5.24-5.23,5.21,5.21,0,0,1,2.63-4.53c0-.53,0-6.8,0-6.8A13.06,13.06,0,0,1,63.16-303a3.55,3.55,0,0,1,0-.46,3.48,3.48,0,0,1,3.48-3.49,3.49,3.49,0,0,1,3.49,3.49,3.55,3.55,0,0,1,0,.46,13.08,13.08,0,0,1,9.61,12.62v6.8a5.22,5.22,0,0,1,2.62,4.52,5.23,5.23,0,0,1-5.24,5.23H71.84a5.23,5.23,0,0,1-5.23,5.23,5.23,5.23,0,0,1-5.23-5.23Z"/></clipPath><clipPath id="clip-path-28"><path class="cls-1" d="M239.27-284.32a1.74,1.74,0,0,1-.66-2.37,1.74,1.74,0,0,1,2.37-.67l4.34,2.44a1.75,1.75,0,0,1,.67,2.38,1.75,1.75,0,0,1-2.38.66ZM234-296.61l15.69-8.71a1.75,1.75,0,0,1,1.69,0l15.69,8.71a1.76,1.76,0,0,1,.89,1.53v17.43a1.74,1.74,0,0,1-.89,1.52l-15.69,8.72a1.75,1.75,0,0,1-1.69,0L234-276.13a1.74,1.74,0,0,1-.89-1.52v-17.43A1.76,1.76,0,0,1,234-296.61Zm14.79,24.72v-13.45l-12.2-6.78v13.46Zm3.49,0,12.2-6.79v-13.38l-12.2,6.73Zm2.5-27.54-4.25-2.36-12.09,6.72,4.37,2.43Zm3.57,2-12,6.79,4.17,2.32,12.13-6.7Z"/></clipPath><clipPath id="clip-path-29"><path id="_Caminho_de_recorte_composto_5" data-name="&lt;Caminho de recorte composto&gt;" class="cls-4" d="M-45.18,79.64h11.26a1.14,1.14,0,0,1,1.13,1.13v20.29a1.13,1.13,0,0,1-1.13,1.12H-45.18a1.12,1.12,0,0,1-1.13-1.12V80.77A1.13,1.13,0,0,1-45.18,79.64ZM-35,84.15V81.9h-9v2.25Zm0,2.26h-9v9h9Zm-3.39,13.52H-35V97.67h-9v2.26h3.38a1.13,1.13,0,0,1,1.13-1.13,1.12,1.12,0,0,1,1.12,1.13Z"/></clipPath></defs><title>Agendamento</title><path class="cls-8" d="M-157.12,14H-171L-172.37,19h16.67Zm-12.55-2.53a7.55,7.55,0,0,1-1.93-5A7.58,7.58,0,0,1-164-1.21a7.58,7.58,0,0,1,7.58,7.58,7.55,7.55,0,0,1-1.93,5.05h1.91a1.75,1.75,0,0,1,1.6,1.22l2.14,7.67a.92.92,0,0,1-.93,1.22l-20.76,0a.92.92,0,0,1-.94-1.22l2.13-7.69a1.75,1.75,0,0,1,1.59-1.22Zm.62-4.59a5.06,5.06,0,0,0,5,4.59,5,5,0,0,0,5.05-5,5,5,0,0,0-.74-2.64c-1.54,1.38-5,1.38-6.74,1.38A3.17,3.17,0,0,0-169,6.83Z"/><g class="cls-9"><rect class="cls-2" x="-379.85" y="-566" width="1416.48" height="2766.07"/></g><path class="cls-8" d="M-28.72,17.94a3.14,3.14,0,0,0,3.14-3.14,3.14,3.14,0,0,0-3.14-3.15,3.14,3.14,0,0,0-3.14,3.15A3.14,3.14,0,0,0-28.72,17.94Zm0-12.81a.81.81,0,0,1,.81-.81h1.52a.81.81,0,0,1,.81.81V5.6a.81.81,0,0,1-.81.81h-1.52a.81.81,0,0,1-.81-.81Zm-11.53,6.29a.82.82,0,0,1,.81-.82h1.53a.82.82,0,0,1,.81.82v.46a.81.81,0,0,1-.81.82h-1.53a.82.82,0,0,1-.81-.82Zm15.83,6.38a3.19,3.19,0,0,0,.94.14,3.15,3.15,0,0,0,3.14-3.14,3.15,3.15,0,0,0-3.14-3.15,2.89,2.89,0,0,0-.94.15,5.24,5.24,0,0,1,.94,3A5.26,5.26,0,0,1-24.42,17.8Zm-9.43-4.05a5.07,5.07,0,0,1,.94-2.1,3.14,3.14,0,0,1-3.15-3.14,3.14,3.14,0,0,1,3.15-3.14,3.14,3.14,0,0,1,3.14,3.14A3,3,0,0,1-30,9.72a5,5,0,0,1,1.29-.16,5.18,5.18,0,0,1,2.62.7,5.32,5.32,0,0,1,1.57-.6V3.27H-41.29V13.75Zm0,2.09h-6.28a3.26,3.26,0,0,1-3.26-3.25V4.43a3.26,3.26,0,0,1,3.26-3.26H-25.7a3.26,3.26,0,0,1,3.27,3.26V9.66a5.25,5.25,0,0,1,4.19,5.14A5.25,5.25,0,0,1-23.48,20a5.26,5.26,0,0,1-2.62-.7,5.29,5.29,0,0,1-2.62.7A5.23,5.23,0,0,1-33.85,15.84Z"/><g class="cls-10"><rect class="cls-2" x="-461.3" y="-1272.05" width="1174.78" height="2294.09"/></g><path class="cls-8" d="M103.8,14.3V9.52a5.76,5.76,0,1,0-11.52,0V14.3a1.13,1.13,0,0,1-.79,1,1,1,0,0,0-.78,1,1,1,0,0,0,1.05,1.05h12.57a1,1,0,0,0,.26-2.06A1.11,1.11,0,0,1,103.8,14.3ZM97,19.47h0a1.05,1.05,0,0,0,2.1,0Zm-2.09,0H91.76a3.14,3.14,0,0,1-1.57-5.86c0-.32,0-4.09,0-4.09A7.86,7.86,0,0,1,96,1.94a2.64,2.64,0,0,1,0-.28,2.1,2.1,0,1,1,4.2,0,2.64,2.64,0,0,1,0,.28,7.86,7.86,0,0,1,5.78,7.58v4.09a3.14,3.14,0,0,1-1.57,5.86h-3.15a3.14,3.14,0,1,1-6.28,0Z"/><g class="cls-11"><rect class="cls-2" x="-634.22" y="-1623.67" width="1174.78" height="2294.09"/></g><path class="cls-8" d="M-126.36,16.26l-1.17-1.17a1.17,1.17,0,0,1,0-1.66,1.18,1.18,0,0,1,1.65,0l.35.35,1.51-1.52a1.17,1.17,0,0,1,1.66,0,1.19,1.19,0,0,1,0,1.66l-2.35,2.34A1.16,1.16,0,0,1-126.36,16.26Zm0-6.44-1.17-1.17a1.17,1.17,0,0,1,0-1.66,1.16,1.16,0,0,1,1.65,0l.35.34L-124,5.82a1.17,1.17,0,0,1,1.66,0,1.19,1.19,0,0,1,0,1.66l-2.35,2.34A1.16,1.16,0,0,1-126.36,9.82Zm5.51,5.61a1.18,1.18,0,0,1,1.18-1.17H-115a1.17,1.17,0,0,1,1.18,1.17A1.17,1.17,0,0,1-115,16.6h-4.67A1.17,1.17,0,0,1-120.85,15.43Zm0-6.44a1.17,1.17,0,0,1,1.18-1.17H-115A1.17,1.17,0,0,1-113.82,9,1.17,1.17,0,0,1-115,10.16h-4.67A1.17,1.17,0,0,1-120.85,9Zm3.52-6.44h-2.35a1.17,1.17,0,0,1-1.17,1.17A1.17,1.17,0,0,1-122,2.55h-2.34a1.17,1.17,0,0,1-1.17,1.17,1.17,1.17,0,0,1-1.18-1.17H-129V21.29h16.4V2.55H-115a1.17,1.17,0,0,1-1.17,1.17,1.17,1.17,0,0,1-1.17-1.17Zm0-2.35h0A1.17,1.17,0,0,1-116.16-1,1.17,1.17,0,0,1-115,.2h2.34a2.35,2.35,0,0,1,2.34,2.35V21.29a2.33,2.33,0,0,1-2.34,2.34H-129a2.34,2.34,0,0,1-2.34-2.34V2.55A2.35,2.35,0,0,1-129,.2h2.34A1.17,1.17,0,0,1-125.53-1,1.17,1.17,0,0,1-124.36.2H-122A1.17,1.17,0,0,1-120.85-1,1.17,1.17,0,0,1-119.68.2h2.35Z"/><g class="cls-12"><rect class="cls-2" x="-545.84" y="-1534.37" width="1313.23" height="2564.46"/></g><path class="cls-8" d="M-77.77,11.88a1.21,1.21,0,0,0,1.2-1.21,1.2,1.2,0,0,0-1.2-1.2,1.2,1.2,0,0,0-1.2,1.2A1.2,1.2,0,0,0-77.77,11.88Zm0,2.41a3.61,3.61,0,0,1-3.61-3.62,3.61,3.61,0,0,1,3.61-3.61,3.61,3.61,0,0,1,3.61,3.61A3.62,3.62,0,0,1-77.77,14.29Zm-7.16-3.87a.61.61,0,0,0,0,.56l4.43,6.44a1.51,1.51,0,0,0,.92.48h16.26V3.45H-79.58a1.46,1.46,0,0,0-.92.48Zm2.47,8.4-4.42-6.48a3,3,0,0,1,0-3.37l4.42-6.44A3.81,3.81,0,0,1-79.58,1h16.26a2.4,2.4,0,0,1,2.4,2.4V17.9a2.41,2.41,0,0,1-2.4,2.41H-79.58A3.81,3.81,0,0,1-82.46,18.82Z"/><g class="cls-13"><rect class="cls-2" x="-568.76" y="-2040.96" width="1349.76" height="2635.78"/></g><path class="cls-8" d="M59.8,20A5.77,5.77,0,1,0,54,14.24,5.76,5.76,0,0,0,59.8,20ZM63.47,7.28a7.86,7.86,0,1,1-7.59,13.77h-8a3.26,3.26,0,0,1-3.26-3.27V3.35A3.26,3.26,0,0,1,47.87.09H60.21a3.26,3.26,0,0,1,3.26,3.26Zm-11.53,7a5.23,5.23,0,0,1-3.14-4.8V8.19a2.09,2.09,0,1,1,2.1,0V9.52a3.16,3.16,0,0,0,1.34,2.58A7.87,7.87,0,0,1,56.3,7.2a2.26,2.26,0,0,1-.16-.82,2.1,2.1,0,1,1,4.19,0h0a9.44,9.44,0,0,1,1.05.14V2.18H46.71V19h6.81A7.83,7.83,0,0,1,51.94,14.32Zm8.91-1.13h1.57a1,1,0,1,1,0,2.09H60.85v1.57a1,1,0,1,1-2.09,0V15.28H57.19a1,1,0,1,1,0-2.09h1.57V11.62a1,1,0,1,1,2.09,0Z"/><g class="cls-14"><rect class="cls-2" x="-424.64" y="-1322.39" width="1174.78" height="2294.09"/></g><path class="cls-8" d="M135.7.8h7.66a1.45,1.45,0,0,1,.89.37L150,6.93a1.5,1.5,0,0,1,.37.89V19.67a2.1,2.1,0,0,1-2.1,2.09H135.71a2.1,2.1,0,0,1-2.1-2.09V2.9A2.1,2.1,0,0,1,135.7.8ZM143,2.9V8.14h5.24Zm-2.1,0H135.7s0,16.77,0,16.77h12.57V10.24H142a1,1,0,0,1-1.05-1.05Z"/><g class="cls-15"><rect class="cls-2" x="-37.01" y="-1975.59" width="1174.78" height="2294.09"/></g><path class="cls-8" d="M21.24,5.13a4.4,4.4,0,0,0-.78-.65,5.8,5.8,0,0,0-3.28-1,4.29,4.29,0,0,0-3.11,1.4,13.32,13.32,0,0,0-1,1.23V19a9.79,9.79,0,0,1,4-1,9.88,9.88,0,0,1,4.08.91Zm-18.57,0V18.94A9.88,9.88,0,0,1,6.75,18a9.79,9.79,0,0,1,4,1V6.15a13.32,13.32,0,0,0-.95-1.23,4.29,4.29,0,0,0-3.11-1.4,5.8,5.8,0,0,0-3.28,1A4.4,4.4,0,0,0,2.67,5.13Zm8.58,16.72-.31-.2a9.59,9.59,0,0,0-1-.54,7.92,7.92,0,0,0-3.17-.76,8,8,0,0,0-3.2.76,10.67,10.67,0,0,0-1,.54l-.34.22a1.16,1.16,0,0,1-1.84-.94V4.68A1.14,1.14,0,0,1,.58,4,6.39,6.39,0,0,1,2.16,2.55,8.11,8.11,0,0,1,6.73,1.2a6.61,6.61,0,0,1,4.76,2.08l.47.51c.14-.17.3-.34.47-.51A6.57,6.57,0,0,1,17.18,1.2a8.11,8.11,0,0,1,4.57,1.35A6.39,6.39,0,0,1,23.33,4a1.14,1.14,0,0,1,.23.69V20.93a1.16,1.16,0,0,1-1.84.94,3.47,3.47,0,0,0-.34-.22,10.67,10.67,0,0,0-1-.54,8,8,0,0,0-3.2-.76,7.92,7.92,0,0,0-3.17.76,9.59,9.59,0,0,0-1,.54l-.31.2-.08,0a1.12,1.12,0,0,1-1.25,0Z"/><g class="cls-16"><rect class="cls-2" x="-242" y="-1910.35" width="1301.12" height="2540.8"/><g class="cls-17"><rect class="cls-2" x="-4.17" y="-3.32" width="32.25" height="29.93"/></g></g><path class="cls-2" d="M229.48-.19a1.28,1.28,0,0,1,1.29-1.29,1.29,1.29,0,0,1,1.3,1.29V10.19a1.3,1.3,0,0,1-2.59,0Zm-4.57,3.12a1.29,1.29,0,1,1,1.47,2.13,7.78,7.78,0,1,0,8.89.07A1.29,1.29,0,0,1,236.77,3a10.37,10.37,0,1,1-11.86-.09Z"/><g class="cls-18"><rect class="cls-2" x="-488.12" y="-1949.09" width="1452.68" height="2836.75"/></g><path class="cls-8" d="M190.37,14.12a1.53,1.53,0,1,1,1.52-1.52A1.52,1.52,0,0,1,190.37,14.12Zm-5.1,0a1.53,1.53,0,1,1,1.53-1.52A1.53,1.53,0,0,1,185.27,14.12Zm11.72.52V11.58a.51.51,0,0,0-.51-.51H196v4.07h.51A.5.5,0,0,0,197,14.64Zm-17.83-3.57a.51.51,0,0,0-.51.51v3.06a.51.51,0,0,0,1,0V11.07Zm10.42,10.19a2,2,0,1,1,0-2h2.32a2,2,0,0,0,2-2V9a6.11,6.11,0,0,0-12.22,0v5.61a2.55,2.55,0,0,1-5.09,0V11.58A2.55,2.55,0,0,1,179.16,9h.51A8.15,8.15,0,0,1,196,9h.51A2.55,2.55,0,0,1,199,11.58v3.06a2.54,2.54,0,0,1-2.54,2.54H196a4.08,4.08,0,0,1-4.07,4.08Z"/><g class="cls-19"><rect class="cls-2" x="-621.72" y="-1284.06" width="1141.89" height="2229.86"/></g><g id="_Grupo_" data-name="&lt;Grupo&gt;"><path id="_Caminho_de_recorte_composto_6" data-name="&lt;Caminho de recorte composto&gt;" class="cls-8" d="M120.92,99.62c0-2.39,3.18-3.84,7.87-4.43a1.34,1.34,0,1,1,.34,2.65A16.41,16.41,0,0,0,124.69,99c-.47.21-.22.11-.22.11a.61.61,0,0,0,0,1.11s-.16.08,1.33.54a28.44,28.44,0,0,0,14.35,0c1.48-.46,1.33-.54,1.33-.54a.61.61,0,0,0,0-1.12s.26.11-.2-.1a15.93,15.93,0,0,0-4.41-1.1,1.34,1.34,0,0,1,.34-2.66c4.67.6,7.83,2,7.83,4.43,0,3-5.37,4.69-12.06,4.69S120.92,102.63,120.92,99.62ZM137,84.21a4,4,0,1,0-4,4A4,4,0,0,0,137,84.21Zm-2.68,6.57V99a1.34,1.34,0,0,1-2.68,0v-8s0-.09,0-.13a6.7,6.7,0,1,1,2.67,0Z"/><g class="cls-21"><g id="_Grupo_de_clipes_2" data-name="&lt;Grupo de clipes&gt;"><rect id="_Caminho_de_recorte_" data-name="&lt;Caminho de recorte&gt;" class="cls-2" x="-610.32" y="-2256.4" width="1501.97" height="2933.02"/></g></g></g><g id="_Grupo_de_clipes_4" data-name="&lt;Grupo de clipes&gt;"><path id="_Caminho_de_recorte_composto_7" data-name="&lt;Caminho de recorte composto&gt;" class="cls-8" d="M62.88,105.44a2.77,2.77,0,1,1,2.77-2.77A2.77,2.77,0,0,1,62.88,105.44Zm12.45,0a2.77,2.77,0,1,1,2.77-2.77A2.77,2.77,0,0,1,75.33,105.44ZM61.64,91.6H77.88l1.31-7L59.75,83.39Zm-2.54-11,22,1.35a1.18,1.18,0,0,1,1.12,1.43L80.43,93a1.73,1.73,0,0,1-1.63,1.36H62.28l.32,1.38H78.1a1.39,1.39,0,1,1,0,2.77H61.5a1.38,1.38,0,0,1-1.35-1.08l-4-17.34L54,79a1.38,1.38,0,1,1,1.24-2.47L58,77.9a1.4,1.4,0,0,1,.73.93Z"/><g class="cls-22"><g id="_Grupo_de_clipes_5" data-name="&lt;Grupo de clipes&gt;"><rect id="_Caminho_de_recorte_2" data-name="&lt;Caminho de recorte&gt;" class="cls-2" x="-766.45" y="-1669.39" width="1551.41" height="3029.55"/></g></g></g><path class="cls-25" d="M523.48,98.87A1.55,1.55,0,1,1,525,97.32,1.54,1.54,0,0,1,523.48,98.87Zm9.28,0a1.55,1.55,0,1,1,1.54-1.55A1.54,1.54,0,0,1,532.76,98.87Zm-4.64,0a1.55,1.55,0,1,1,1.55-1.55A1.54,1.54,0,0,1,528.12,98.87Zm-6.89,3.6-.79,2.56,2.57-.79,1.14.6a8.51,8.51,0,1,0-3.52-3.5Zm18-1.76a11.15,11.15,0,0,0,1.66-.64l1-.46,5.23,1.21-1.18-5.28.46-1a11.55,11.55,0,1,0-21.46-8.38,11.6,11.6,0,0,1,14.83,11.12A11.84,11.84,0,0,1,539.21,100.71ZM521.4,87.88a14.62,14.62,0,1,1,27.72,8l1.33,6a1.79,1.79,0,0,1-2.32,2.33l-5.94-1.35a14.53,14.53,0,0,1-4.75,1.34,11.6,11.6,0,0,1-14.74,3.36l-3.94,1.22c-1.64.5-2.56-.41-2.06-2l1.2-4a11.58,11.58,0,0,1,3.5-14.9Z"/><g class="cls-26"><rect class="cls-27" x="-398.12" y="-2690.13" width="1732.68" height="3383.54"/></g><path class="cls-28" d="M-169.24,92.84A2.24,2.24,0,0,1-167,90.59h1.28a2.25,2.25,0,0,1,2.25,2.25v1.27a2.25,2.25,0,0,1-2.25,2.25H-167a2.24,2.24,0,0,1-2.24-2.25Zm10.1-3.8-7.22-8.46L-173.57,89v12.38h14.42V89.15S-159.14,89.07-159.14,89Zm2.88,4.43v5h.72a2.16,2.16,0,0,1,2.16,2.17v.72h1.44a1.44,1.44,0,0,1,1.45,1.44,1.44,1.44,0,0,1-1.45,1.44h-21.35a3,3,0,0,1-3.16-2.87v-9l-.15.17a1.43,1.43,0,0,1-2,.16,1.43,1.43,0,0,1-.16-2l10.4-12.2a2.6,2.6,0,0,1,4,0L-154,90.59h2.1A1.43,1.43,0,0,1-150.49,92a1.44,1.44,0,0,1-1.44,1.44Z"/><g class="cls-29"><rect class="cls-30" x="-411.31" y="-428.69" width="1617.1" height="3157.83"/></g><path class="cls-28" d="M-86.77,88.82v13.72A1.46,1.46,0,0,1-88.23,104h-20.35a1.46,1.46,0,0,1-1.46-1.46V88.82a4,4,0,0,1-1.52-4.91l1.51-4.7a2.1,2.1,0,0,1,1.9-1.38h19.5a2.14,2.14,0,0,1,1.9,1.38l1.51,4.7A4,4,0,0,1-86.77,88.82Zm-16-2.27h2.91V85.1a1.46,1.46,0,0,1,1.46-1.46,1.45,1.45,0,0,1,1.45,1.46v1.45H-94V85.1a1.45,1.45,0,0,1,1.45-1.46,1.46,1.46,0,0,1,1.46,1.46v1.45h1.85c1.24,0,1.65-.56,1.27-1.75l-1.31-4.07h-18.21l-1.26,4.07c-.38,1.19,0,1.75,1.26,1.75h1.86V85.1a1.45,1.45,0,0,1,1.45-1.46,1.45,1.45,0,0,1,1.45,1.46Zm0,2.91a1.44,1.44,0,0,1-1.45,1.45,1.44,1.44,0,0,1-1.45-1.45h-1.46v11.63h6a2.15,2.15,0,0,1-.15-.8V94.63A2.26,2.26,0,0,1-99,92.37h1.29a2.27,2.27,0,0,1,2.27,2.26v5.66a2.37,2.37,0,0,1-.15.8h6V89.46h-1.45a1.45,1.45,0,0,1-1.46,1.45A1.44,1.44,0,0,1-94,89.46h-2.91a1.44,1.44,0,0,1-1.45,1.45,1.45,1.45,0,0,1-1.46-1.45Z"/><g class="cls-31"><rect class="cls-30" x="-486.4" y="-433.32" width="1630.25" height="3183.51"/></g><path class="cls-8" d="M-216.53-293a1.48,1.48,0,0,1,1.49-1.49h14.87a1.48,1.48,0,0,1,1.49,1.49,1.47,1.47,0,0,1-1.49,1.48H-215A1.49,1.49,0,0,1-216.53-293Zm22.32-2.44.14.05a4.32,4.32,0,0,1,2.83,3.87v20.84a3,3,0,0,1-3,3H-221a3,3,0,0,1-3-3v-20.84a4.32,4.32,0,0,1,2.83-3.87l.14-.05v-3.51a1.49,1.49,0,0,1,1.49-1.49h23.8a1.49,1.49,0,0,1,1.49,1.49Zm-3,4.81v-6.84H-218v6.84l10.41,10.45Zm3,17.84v-16.62l-8.31,8.31Zm-26.78,0,8.31-8.31-8.31-8.31Zm2.1,2.1h22.58l-8.32-8.32-1.92,1.93a1.48,1.48,0,0,1-2.1,0l-1.93-1.93Z"/><g class="cls-32"><rect class="cls-2" x="-604.53" y="-2961.92" width="1667.8" height="3256.84"/></g><path class="cls-2" d="M-125.95-297.43l-2.88,2.89a4.83,4.83,0,0,0-.66,5s.27.56.44.86c.3.56.71,1.22,1.23,2a54,54,0,0,0,6.52,7.71,52.51,52.51,0,0,0,7.66,6.48,22.81,22.81,0,0,0,2,1.21c.29.16.91.46.91.46a4.78,4.78,0,0,0,5-.7l2.88-2.89-4.61-4.61-.58.58a5.7,5.7,0,0,1-8.07,0l-5.75-5.76a5.7,5.7,0,0,1,0-8.07l.57-.58Zm8.07,3.46a1.63,1.63,0,0,1,0,2.31l-1.73,1.73a2.45,2.45,0,0,0,0,3.46l5.75,5.75a2.45,2.45,0,0,0,3.46,0l1.73-1.73a1.62,1.62,0,0,1,2.3,0l6.34,6.33a2.45,2.45,0,0,1,0,3.47l-3.46,3.45a7.76,7.76,0,0,1-9,1.2s-4.33-1.82-11.15-8.65-8.72-11.24-8.72-11.24a7.85,7.85,0,0,1,1.18-9l3.46-3.45a2.44,2.44,0,0,1,3.46,0Z"/><g class="cls-33"><rect class="cls-2" x="-1489.85" y="-2670.22" width="1827.18" height="3568.09"/></g><path class="cls-8" d="M-298.94-282.42a1.63,1.63,0,0,0,1.63-1.63,1.63,1.63,0,0,0-1.63-1.63,1.63,1.63,0,0,0-1.63,1.63A1.63,1.63,0,0,0-298.94-282.42Zm0,3.26a4.89,4.89,0,0,1-4.89-4.89,4.89,4.89,0,0,1,4.89-4.89A4.89,4.89,0,0,1-294-284,4.89,4.89,0,0,1-298.94-279.16Zm2.81-13.44-.22-.73c-.32-1.06-.66-2-1-2.91-.12-.3-.23-.57-.33-.79a7.79,7.79,0,0,0-2.55,0l-.32.79c-.33.87-.67,1.85-1,2.91l-.22.73-.7.3a9.11,9.11,0,0,0-1.87,1.08l-.62.46-.74-.17c-1.08-.26-2.1-.46-3-.6l-.85-.12a8.73,8.73,0,0,0-1.28,2.21l.53.68c.59.73,1.26,1.51,2,2.32l.52.55-.09.76a9.79,9.79,0,0,0-.07,1.08,9.48,9.48,0,0,0,.07,1.08l.09.76-.52.56c-.77.81-1.44,1.59-2,2.32l-.53.67a8.39,8.39,0,0,0,1.28,2.21l.85-.12c.92-.14,1.94-.33,3-.59l.74-.18.62.46a8.28,8.28,0,0,0,1.87,1.08l.7.3.22.73c.32,1.07.66,2,1,2.92l.32.79a8.39,8.39,0,0,0,2.55,0c.1-.23.21-.49.33-.79.33-.87.67-1.85,1-2.92l.22-.73.7-.3a8.5,8.5,0,0,0,1.87-1.08l.61-.46.75.18c1.08.25,2.1.45,3,.59l.85.12a10.25,10.25,0,0,0,1.27-2.21l-.52-.67c-.59-.73-1.27-1.51-2-2.32l-.52-.56.09-.76A9.51,9.51,0,0,0-290-284a9.77,9.77,0,0,0-.06-1.08l-.09-.76.52-.55c.76-.81,1.44-1.59,2-2.32.2-.25.38-.48.52-.68a8.4,8.4,0,0,0-1.27-2.21l-.85.12c-.92.14-1.94.34-3,.6l-.75.17-.61-.46a9.38,9.38,0,0,0-1.87-1.08Zm1.82-4.82c.37.94.87,2.45.87,2.45l1.21.7s1.55-.32,2.55-.48l1.27-.17a3,3,0,0,1,2.82,1.41l1.52,2.63a2.93,2.93,0,0,1-.16,3.11c-.15.21-.42.57-.81,1-.51.63-1.69,2-1.69,2s0,.21,0,.7c0,.24,0,.71,0,.71s1.06,1.17,1.7,2c.39.48.66.84.78,1a3,3,0,0,1,.19,3.15l-1.52,2.63a3,3,0,0,1-2.78,1.41h-.1l-.26,0-.95-.14c-.8-.12-2.57-.48-2.57-.48l-1.19.7s-.5,1.51-.87,2.46c-.22.57-.4,1-.49,1.18a2.93,2.93,0,0,1-2.62,1.74h-3a2.93,2.93,0,0,1-2.61-1.7c-.1-.23-.28-.65-.51-1.22-.29-.76-.86-2.47-.86-2.47l-1.22-.69s-1.54.33-2.55.48c-.61.1-1.06.15-1.26.17a3,3,0,0,1-2.83-1.4l-1.51-2.63a2.91,2.91,0,0,1,.16-3.11c.15-.21.42-.57.81-1.05s1.69-2,1.69-2,0-.2,0-.7c0-.23,0-.69,0-.69s-1.06-1.19-1.7-2c-.39-.48-.66-.84-.78-1a3,3,0,0,1-.19-3.14l1.51-2.63a2.93,2.93,0,0,1,2.78-1.41c.25,0,.7.08,1.31.17.81.12,2.59.49,2.59.49l1.19-.71s.49-1.51.85-2.45c.23-.58.41-1,.49-1.19a3,3,0,0,1,2.63-1.74h3a2.94,2.94,0,0,1,2.61,1.7C-294.71-298.41-294.53-298-294.31-297.42Z"/><g class="cls-34"><rect class="cls-2" x="-1594.31" y="-2983.13" width="1827.18" height="3568.09"/></g><path class="cls-8" d="M-26.59-291.2a1.75,1.75,0,0,1,1.75-1.75,1.74,1.74,0,0,1,1.74,1.75v8.7a1.74,1.74,0,0,1-1.74,1.75,1.75,1.75,0,0,1-1.75-1.75Zm1.75,15.68a1.75,1.75,0,0,1-1.75-1.74A1.75,1.75,0,0,1-24.84-279a1.74,1.74,0,0,1,1.74,1.75A1.74,1.74,0,0,1-24.84-275.52ZM-23.79-298c-.76-1.34-1.51-1.08-2.1,0L-38.4-275.75c-.6,1.17-.42,2,1.14,2h24.85c1.14,0,1.91-.61,1.14-2Zm-5.14-1.71h0c2.09-3.71,6.09-3.71,8.17,0l12.53,22.26c2.07,3.68,0,7.16-4.18,7.16H-37.26c-4.22,0-6.25-3.48-4.18-7.16Z"/><g class="cls-35"><rect class="cls-2" x="-406.23" y="-3088.75" width="1954.02" height="3815.76"/></g><path class="cls-8" d="M162.86-273.23a5.23,5.23,0,0,0,5.23-5.23,5.23,5.23,0,0,0-5.23-5.23,5.23,5.23,0,0,0-5.23,5.23A5.23,5.23,0,0,0,162.86-273.23Zm0-21.3a1.35,1.35,0,0,1,1.34-1.36h2.54a1.36,1.36,0,0,1,1.35,1.36v.77a1.35,1.35,0,0,1-1.35,1.36H164.2a1.35,1.35,0,0,1-1.34-1.36Zm-19.17,10.46a1.35,1.35,0,0,1,1.34-1.36h2.54a1.35,1.35,0,0,1,1.34,1.36v.77a1.35,1.35,0,0,1-1.34,1.36H145a1.35,1.35,0,0,1-1.34-1.36ZM170-273.47a5.15,5.15,0,0,0,1.57.24,5.23,5.23,0,0,0,5.23-5.23,5.23,5.23,0,0,0-5.23-5.23,5.48,5.48,0,0,0-1.57.24,8.7,8.7,0,0,1,1.57,5A8.65,8.65,0,0,1,170-273.47Zm-15.68-6.73a8.58,8.58,0,0,1,1.57-3.49,5.23,5.23,0,0,1-5.23-5.23,5.23,5.23,0,0,1,5.23-5.22,5.22,5.22,0,0,1,5.22,5.22,5.29,5.29,0,0,1-.39,2,8.83,8.83,0,0,1,2.14-.26,8.67,8.67,0,0,1,4.35,1.16,8.71,8.71,0,0,1,2.62-1v-10.63H141.94v17.43Zm0,3.49H143.88a5.42,5.42,0,0,1-5.42-5.42V-295.7a5.42,5.42,0,0,1,5.42-5.42h24a5.42,5.42,0,0,1,5.42,5.42v8.7a8.73,8.73,0,0,1,7,8.54,8.72,8.72,0,0,1-8.72,8.72,8.72,8.72,0,0,1-4.36-1.17,8.68,8.68,0,0,1-4.35,1.17A8.72,8.72,0,0,1,154.32-276.71Z"/><g class="cls-36"><rect class="cls-2" x="-556.65" y="-2418.88" width="1954.02" height="3815.76"/></g><path class="cls-37" d="M76.2-282.44v-7.94a9.59,9.59,0,0,0-9.59-9.6A9.59,9.59,0,0,0,57-290.39v7.95a1.83,1.83,0,0,1-1.3,1.69,1.74,1.74,0,0,0-1.31,1.69,1.74,1.74,0,0,0,1.75,1.74h20.9a1.74,1.74,0,0,0,1.75-1.74,1.74,1.74,0,0,0-1.31-1.69A1.84,1.84,0,0,1,76.2-282.44Zm-11.33,8.61h0a1.74,1.74,0,0,0,1.74,1.74,1.74,1.74,0,0,0,1.74-1.74Zm-3.49,0H56.16a5.24,5.24,0,0,1-5.24-5.23,5.21,5.21,0,0,1,2.63-4.53c0-.53,0-6.8,0-6.8A13.06,13.06,0,0,1,63.16-303a3.55,3.55,0,0,1,0-.46,3.48,3.48,0,0,1,3.48-3.49,3.49,3.49,0,0,1,3.49,3.49,3.55,3.55,0,0,1,0,.46,13.08,13.08,0,0,1,9.61,12.62v6.8a5.22,5.22,0,0,1,2.62,4.52,5.23,5.23,0,0,1-5.24,5.23H71.84a5.23,5.23,0,0,1-5.23,5.23,5.23,5.23,0,0,1-5.23-5.23Z"/><g class="cls-38"><rect class="cls-2" x="-1151.36" y="-3006.88" width="1954.02" height="3815.76"/></g><path class="cls-8" d="M239.27-284.32a1.74,1.74,0,0,1-.66-2.37,1.74,1.74,0,0,1,2.37-.67l4.34,2.44a1.75,1.75,0,0,1,.67,2.38,1.75,1.75,0,0,1-2.38.66ZM234-296.61l15.69-8.71a1.75,1.75,0,0,1,1.69,0l15.69,8.71a1.76,1.76,0,0,1,.89,1.53v17.43a1.74,1.74,0,0,1-.89,1.52l-15.69,8.72a1.75,1.75,0,0,1-1.69,0L234-276.13a1.74,1.74,0,0,1-.89-1.52v-17.43A1.76,1.76,0,0,1,234-296.61Zm14.79,24.72v-13.45l-12.2-6.78v13.46Zm3.49,0,12.2-6.79v-13.38l-12.2,6.73Zm2.5-27.54-4.25-2.36-12.09,6.72,4.37,2.43Zm3.57,2-12,6.79,4.17,2.32,12.13-6.7Z"/><g class="cls-39"><rect class="cls-2" x="-1302.04" y="-2503.48" width="1954.02" height="3815.76"/></g></svg>