<svg id="Camada_1" data-name="Camada 1" xmlns="http://www.w3.org/2000/svg" xmlns:xlink="http://www.w3.org/1999/xlink" viewBox="0 0 26.65 20.23"><defs><style>.cls-1,.cls-2,.cls-37,.cls-7,.cls-8{fill:#A7A7A8;}.cls-1,.cls-4,.cls-5,.cls-6,.cls-7{clip-rule:evenodd;}.cls-3,.cls-4{fill:none;}.cls-25,.cls-27,.cls-5{fill:#579a64;}.cls-28,.cls-30,.cls-6{fill:#8c8c8c;}.cls-37,.cls-7{opacity:0.2;}.cls-25,.cls-28,.cls-37,.cls-8{fill-rule:evenodd;}.cls-9{clip-path:url(#clip-path);}.cls-10{clip-path:url(#clip-path-2);}.cls-11{clip-path:url(#clip-path-3);}.cls-12{clip-path:url(#clip-path-4);}.cls-13{clip-path:url(#clip-path-5);}.cls-14{clip-path:url(#clip-path-6);}.cls-15{clip-path:url(#clip-path-7);}.cls-16{clip-path:url(#clip-path-8);}.cls-17{clip-path:url(#clip-path-9);}.cls-18{clip-path:url(#clip-path-10);}.cls-19{clip-path:url(#clip-path-11);}.cls-20{clip-path:url(#clip-path-12);}.cls-21{clip-path:url(#clip-path-13);}.cls-22{clip-path:url(#clip-path-15);}.cls-23{clip-path:url(#clip-path-16);}.cls-24{clip-path:url(#clip-path-17);}.cls-26{clip-path:url(#clip-path-18);}.cls-29{clip-path:url(#clip-path-20);}.cls-31{clip-path:url(#clip-path-21);}.cls-32{clip-path:url(#clip-path-22);}.cls-33{clip-path:url(#clip-path-23);}.cls-34{clip-path:url(#clip-path-24);}.cls-35{clip-path:url(#clip-path-25);}.cls-36{clip-path:url(#clip-path-26);}.cls-38{clip-path:url(#clip-path-27);}.cls-39{clip-path:url(#clip-path-28);}.cls-40{clip-path:url(#clip-path-29);}</style><clipPath id="clip-path"><path class="cls-1" d="M-113.1,13.82h-13.84l-1.41,5h16.67Zm-12.55-2.52a7.59,7.59,0,0,1-1.93-5.06A7.58,7.58,0,0,1-120-1.34a7.58,7.58,0,0,1,7.58,7.58,7.59,7.59,0,0,1-1.93,5.06h1.92a1.75,1.75,0,0,1,1.59,1.21l2.14,7.67a.91.91,0,0,1-.93,1.22l-20.76,0a.91.91,0,0,1-.93-1.22l2.12-7.68a1.73,1.73,0,0,1,1.59-1.22Zm.62-4.6a5.06,5.06,0,0,0,5,4.6,5.07,5.07,0,0,0,5.06-5.06,5,5,0,0,0-.75-2.64C-117.23,5-120.66,5-122.42,5A3.18,3.18,0,0,0-125,6.7Z"/></clipPath><clipPath id="clip-path-2"><path class="cls-1" d="M15.3,17.82a3.15,3.15,0,1,0-3.14-3.15A3.14,3.14,0,0,0,15.3,17.82ZM15.3,5a.82.82,0,0,1,.81-.82h1.52a.82.82,0,0,1,.81.82v.46a.82.82,0,0,1-.81.82H16.11a.82.82,0,0,1-.81-.82ZM3.77,11.3a.82.82,0,0,1,.81-.82H6.11a.82.82,0,0,1,.81.82v.46a.82.82,0,0,1-.81.82H4.58a.82.82,0,0,1-.81-.82ZM19.6,17.67a2.89,2.89,0,0,0,.94.15,3.15,3.15,0,0,0,0-6.29,3.19,3.19,0,0,0-.94.14,5.26,5.26,0,0,1,0,6Zm-9.43-4.05a5.09,5.09,0,0,1,.94-2.09,3.15,3.15,0,1,1,3.14-3.15A3,3,0,0,1,14,9.59a5.49,5.49,0,0,1,1.29-.16,5.26,5.26,0,0,1,2.62.7,5,5,0,0,1,1.57-.59V3.14H2.73V13.62Zm0,2.1H3.89A3.26,3.26,0,0,1,.63,12.46V4.3A3.26,3.26,0,0,1,3.89,1.05H18.32A3.26,3.26,0,0,1,21.59,4.3V9.54a5.24,5.24,0,0,1-1.05,10.37,5.18,5.18,0,0,1-2.62-.7,5.16,5.16,0,0,1-2.62.7A5.24,5.24,0,0,1,10.17,15.72Z"/></clipPath><clipPath id="clip-path-3"><rect class="cls-2" x="-417.28" y="-1272.18" width="1174.78" height="2294.09"/></clipPath><clipPath id="clip-path-4"><path class="cls-1" d="M147.82,14.18V9.4a5.76,5.76,0,1,0-11.52,0v4.79a1.1,1.1,0,0,1-.79,1,1,1,0,0,0,.27,2.06h12.57a1,1,0,0,0,1.05-1,1.06,1.06,0,0,0-.79-1A1.11,1.11,0,0,1,147.82,14.18ZM141,19.35h0a1.05,1.05,0,1,0,2.1,0Zm-2.09,0h-3.14a3.14,3.14,0,0,1-1.57-5.87c0-.32,0-4.09,0-4.09A7.86,7.86,0,0,1,140,1.81a2.44,2.44,0,0,1,0-.27,2.1,2.1,0,1,1,4.19,0,2.45,2.45,0,0,1,0,.27,7.87,7.87,0,0,1,5.78,7.59v4.09a3.14,3.14,0,0,1-1.57,5.86h-3.14a3.15,3.15,0,0,1-6.29,0Z"/></clipPath><clipPath id="clip-path-5"><path class="cls-1" d="M-82.34,16.14-83.51,15a1.17,1.17,0,0,1,0-1.66,1.16,1.16,0,0,1,1.65,0l.35.34L-80,12.14a1.17,1.17,0,0,1,1.66,0,1.16,1.16,0,0,1,0,1.65l-2.34,2.35A1.19,1.19,0,0,1-82.34,16.14Zm0-6.45-1.17-1.17a1.16,1.16,0,0,1,0-1.65,1.16,1.16,0,0,1,1.65,0l.35.34L-80,5.69a1.19,1.19,0,0,1,1.66,0,1.17,1.17,0,0,1,0,1.66l-2.34,2.34A1.17,1.17,0,0,1-82.34,9.69Zm5.51,5.62a1.17,1.17,0,0,1,1.18-1.17H-71a1.17,1.17,0,0,1,1.18,1.17A1.17,1.17,0,0,1-71,16.48h-4.67A1.17,1.17,0,0,1-76.83,15.31Zm0-6.44a1.18,1.18,0,0,1,1.18-1.18H-71A1.18,1.18,0,0,1-69.8,8.87,1.18,1.18,0,0,1-71,10h-4.67A1.17,1.17,0,0,1-76.83,8.87Zm3.52-6.45h-2.35a1.17,1.17,0,0,1-1.17,1.17A1.17,1.17,0,0,1-78,2.42h-2.34a1.17,1.17,0,0,1-1.17,1.17,1.17,1.17,0,0,1-1.17-1.17H-85V21.17h16.4V2.42H-71a1.17,1.17,0,0,1-1.17,1.17,1.17,1.17,0,0,1-1.17-1.17Zm0-2.34h0a1.17,1.17,0,0,1,1.17-1.17A1.17,1.17,0,0,1-71,.08h2.34a2.35,2.35,0,0,1,2.35,2.34V21.17a2.35,2.35,0,0,1-2.35,2.34H-85a2.34,2.34,0,0,1-2.34-2.34V2.42A2.34,2.34,0,0,1-85,.08h2.35a1.17,1.17,0,0,1,1.17-1.17A1.17,1.17,0,0,1-80.34.08H-78a1.17,1.17,0,0,1,1.17-1.17A1.17,1.17,0,0,1-75.66.08h2.35Z"/></clipPath><clipPath id="clip-path-6"><path class="cls-1" d="M-33.75,11.75a1.2,1.2,0,0,0,1.2-1.2,1.2,1.2,0,0,0-1.2-1.21,1.21,1.21,0,0,0-1.2,1.21A1.2,1.2,0,0,0-33.75,11.75Zm0,2.41a3.61,3.61,0,0,1-3.61-3.61,3.61,3.61,0,0,1,3.61-3.61,3.6,3.6,0,0,1,3.61,3.61A3.61,3.61,0,0,1-33.75,14.16Zm-7.16-3.87a.64.64,0,0,0,0,.57l4.43,6.43a1.46,1.46,0,0,0,.92.48s16.26,0,16.26,0V3.32H-35.56a1.51,1.51,0,0,0-.92.48Zm2.47,8.4-4.41-6.48a3,3,0,0,1,0-3.36l4.41-6.45A3.83,3.83,0,0,1-35.56.92H-19.3a2.41,2.41,0,0,1,2.41,2.4V17.78a2.41,2.41,0,0,1-2.41,2.4H-35.56A3.81,3.81,0,0,1-38.44,18.69Z"/></clipPath><clipPath id="clip-path-7"><path class="cls-1" d="M103.82,19.87a5.76,5.76,0,1,0-5.76-5.76A5.76,5.76,0,0,0,103.82,19.87Zm3.67-12.71A7.86,7.86,0,1,1,99.9,20.92h-8a3.26,3.26,0,0,1-3.26-3.26V3.23A3.27,3.27,0,0,1,91.89,0h12.34a3.26,3.26,0,0,1,3.26,3.27ZM96,14.2a5.26,5.26,0,0,1-3.15-4.81V8.07a2.12,2.12,0,0,1-1-1.82,2.1,2.1,0,0,1,4.2,0,2.12,2.12,0,0,1-1,1.82V9.39A3.14,3.14,0,0,0,96.26,12a7.89,7.89,0,0,1,4.06-4.9,2.22,2.22,0,0,1-.16-.82,2.1,2.1,0,0,1,4.19,0v0a7.56,7.56,0,0,1,1.05.14V2.06H90.73V18.83h6.81A7.87,7.87,0,0,1,96,14.2Zm8.9-1.14h1.57a1.05,1.05,0,0,1,0,2.1h-1.57v1.57a1,1,0,1,1-2.09,0V15.16h-1.57a1.05,1.05,0,1,1,0-2.1h1.57V11.49a1,1,0,1,1,2.09,0Z"/></clipPath><clipPath id="clip-path-8"><path class="cls-1" d="M179.72.68h7.66a1.45,1.45,0,0,1,.89.37L194,6.81a1.48,1.48,0,0,1,.37.89V19.54a2.1,2.1,0,0,1-2.1,2.1H179.73a2.1,2.1,0,0,1-2.1-2.1V2.77A2.1,2.1,0,0,1,179.72.68Zm7.34,2.09V8h5.24Zm-2.09,0h-5.25s0,16.77,0,16.77H192.3V10.11H186a1,1,0,0,1-1-1Z"/></clipPath><clipPath id="clip-path-9"><path class="cls-1" d="M65.26,5a4.4,4.4,0,0,0-.78-.65,5.7,5.7,0,0,0-3.28-1,4.33,4.33,0,0,0-3.11,1.4,13.32,13.32,0,0,0-1,1.23V18.87a9.19,9.19,0,0,1,8.12-.05ZM46.69,5V18.82a9.22,9.22,0,0,1,8.13.05V6a14,14,0,0,0-1-1.23,4.33,4.33,0,0,0-3.11-1.4,5.73,5.73,0,0,0-3.28,1A4.4,4.4,0,0,0,46.69,5Zm8.58,16.71-.31-.2a9.62,9.62,0,0,0-1-.53,7.93,7.93,0,0,0-3.17-.77,8.07,8.07,0,0,0-3.2.77,10.7,10.7,0,0,0-1,.53l-.34.22a1.16,1.16,0,0,1-1.84-.94V4.55a1.14,1.14,0,0,1,.23-.68,6.21,6.21,0,0,1,1.58-1.44,8,8,0,0,1,4.57-1.36,6.61,6.61,0,0,1,4.76,2.08c.17.17.32.35.47.51.14-.16.3-.34.47-.51A6.57,6.57,0,0,1,61.2,1.07a8,8,0,0,1,4.57,1.36,6.29,6.29,0,0,1,1.59,1.44,1.2,1.2,0,0,1,.22.68V20.8a1.16,1.16,0,0,1-1.84.94l-.34-.22a9.62,9.62,0,0,0-1-.53A7,7,0,0,0,58,21a8.55,8.55,0,0,0-1,.53l-.32.2-.08.06a1.18,1.18,0,0,1-1.25,0Z"/></clipPath><clipPath id="clip-path-10"><path class="cls-2" d="M273.5-.32a1.29,1.29,0,0,1,1.29-1.29,1.3,1.3,0,0,1,1.3,1.29V10.06a1.3,1.3,0,0,1-2.59,0ZM268.93,2.8a1.3,1.3,0,0,1,1.47,2.14,7.78,7.78,0,1,0,8.89.07,1.29,1.29,0,0,1,1.5-2.11,10.36,10.36,0,1,1-11.86-.1Z"/></clipPath><clipPath id="clip-path-11"><path class="cls-1" d="M234.39,14a1.53,1.53,0,1,1,1.52-1.53A1.52,1.52,0,0,1,234.39,14Zm-5.1,0a1.53,1.53,0,1,1,1.53-1.53A1.52,1.52,0,0,1,229.29,14Zm11.72.51V11.45a.51.51,0,0,0-.51-.51H240V15h.51A.51.51,0,0,0,241,14.51Zm-17.83-3.57a.51.51,0,0,0-.51.51v3.06a.51.51,0,0,0,1,0V10.94ZM233.6,21.13a2,2,0,1,1,0-2h2.32a2,2,0,0,0,2-2V8.9a6.11,6.11,0,1,0-12.22,0v5.61a2.55,2.55,0,1,1-5.09,0V11.45a2.54,2.54,0,0,1,2.54-2.54h.51a8.15,8.15,0,0,1,16.3,0h.51A2.54,2.54,0,0,1,243,11.45v3.06a2.55,2.55,0,0,1-2.54,2.55H240a4.08,4.08,0,0,1-4.07,4.07Z"/></clipPath><clipPath id="clip-path-12"><path id="_Caminho_de_recorte_composto_" data-name="&lt;Caminho de recorte composto&gt;" class="cls-3" d="M164.94,99.5c0-2.4,3.18-3.85,7.87-4.44a1.34,1.34,0,0,1,.34,2.66,16.18,16.18,0,0,0-4.44,1.1c-.46.21-.21.11-.21.11a.61.61,0,0,0,0,1.12s-.15.07,1.33.54a28.44,28.44,0,0,0,14.35,0c1.49-.47,1.33-.54,1.33-.54a.61.61,0,0,0,0-1.12s.26.11-.2-.1a16.26,16.26,0,0,0-4.41-1.11,1.34,1.34,0,1,1,.34-2.65c4.67.59,7.83,2,7.83,4.43,0,3-5.37,4.69-12.05,4.69S164.94,102.51,164.94,99.5ZM181,84.09a4,4,0,1,0-4,4A4,4,0,0,0,181,84.09Zm-2.68,6.57s0,.08,0,.12v8a1.34,1.34,0,0,1-2.68,0V90.66a6.7,6.7,0,1,1,2.67,0Z"/></clipPath><clipPath id="clip-path-13"><path id="_Caminho_de_recorte_composto_2" data-name="&lt;Caminho de recorte composto&gt;" class="cls-1" d="M164.94,99.5c0-2.4,3.18-3.85,7.87-4.44a1.34,1.34,0,0,1,.34,2.66,16.18,16.18,0,0,0-4.44,1.1c-.46.21-.21.11-.21.11a.61.61,0,0,0,0,1.12s-.15.07,1.33.54a28.44,28.44,0,0,0,14.35,0c1.49-.47,1.33-.54,1.33-.54a.61.61,0,0,0,0-1.12s.26.11-.2-.1a16.26,16.26,0,0,0-4.41-1.11,1.34,1.34,0,1,1,.34-2.65c4.67.59,7.83,2,7.83,4.43,0,3-5.37,4.69-12.05,4.69S164.94,102.51,164.94,99.5ZM181,84.09a4,4,0,1,0-4,4A4,4,0,0,0,181,84.09Zm-2.68,6.57s0,.08,0,.12v8a1.34,1.34,0,0,1-2.68,0V90.66a6.7,6.7,0,1,1,2.67,0Z"/></clipPath><clipPath id="clip-path-15"><path id="_Caminho_de_recorte_composto_4" data-name="&lt;Caminho de recorte composto&gt;" class="cls-1" d="M106.9,105.31a2.77,2.77,0,1,1,2.77-2.77A2.77,2.77,0,0,1,106.9,105.31Zm12.46,0a2.77,2.77,0,1,1,2.76-2.77A2.77,2.77,0,0,1,119.36,105.31Zm-13.7-13.84H121.9l1.31-7-19.44-1.19Zm-2.54-11,22,1.35a1.19,1.19,0,0,1,1.12,1.44l-1.8,9.64a1.73,1.73,0,0,1-1.63,1.36H106.3l.32,1.39h15.5a1.38,1.38,0,1,1,0,2.76h-16.6a1.37,1.37,0,0,1-1.35-1.07l-4-17.35L98,78.89a1.39,1.39,0,1,1,1.24-2.48L102,77.78a1.39,1.39,0,0,1,.74.93Z"/></clipPath><clipPath id="clip-path-16"><path class="cls-4" d="M513.62,93.1a2.32,2.32,0,1,1,2.32-2.32A2.32,2.32,0,0,1,513.62,93.1Zm-12.37,0a2.32,2.32,0,1,1,2.32-2.32A2.31,2.31,0,0,1,501.25,93.1Zm6.19,0a2.32,2.32,0,1,1,2.31-2.32A2.32,2.32,0,0,1,507.44,93.1Zm6.13,8.47,5.88,1.26-1.24-5.9.44-.93a12.37,12.37,0,1,0-11.21,7.15,12.26,12.26,0,0,0,5.19-1.15Zm-6.13,4.67a15.45,15.45,0,1,1,14-8.94l1.36,6.5a1.86,1.86,0,0,1-2.39,2.38l-6.48-1.37A15.53,15.53,0,0,1,507.44,106.24Z"/></clipPath><clipPath id="clip-path-17"><path class="cls-3" d="M567.51,98.74a1.55,1.55,0,1,1,1.54-1.54A1.54,1.54,0,0,1,567.51,98.74Zm9.27,0a1.55,1.55,0,1,1,1.54-1.54A1.54,1.54,0,0,1,576.78,98.74Zm-4.64,0a1.55,1.55,0,1,1,1.55-1.54A1.54,1.54,0,0,1,572.14,98.74Zm-6.89,3.6-.79,2.56,2.57-.79,1.14.61a8.54,8.54,0,1,0-3.52-3.51Zm18-1.76a11.15,11.15,0,0,0,1.66-.64l1-.46,5.23,1.21-1.18-5.28.46-1a11.55,11.55,0,1,0-21.46-8.39,12,12,0,0,1,3.24-.45,11.6,11.6,0,0,1,11.09,15ZM565.42,87.75a14.62,14.62,0,1,1,27.72,8l1.33,6a1.79,1.79,0,0,1-2.32,2.33l-5.94-1.35a14.3,14.3,0,0,1-4.74,1.34,11.62,11.62,0,0,1-14.75,3.36l-3.94,1.22c-1.64.51-2.56-.41-2.06-2.05l1.2-3.94a11.59,11.59,0,0,1,3.5-14.91Z"/></clipPath><clipPath id="clip-path-18"><path class="cls-5" d="M567.51,98.74a1.55,1.55,0,1,1,1.54-1.54A1.54,1.54,0,0,1,567.51,98.74Zm9.27,0a1.55,1.55,0,1,1,1.54-1.54A1.54,1.54,0,0,1,576.78,98.74Zm-4.64,0a1.55,1.55,0,1,1,1.55-1.54A1.54,1.54,0,0,1,572.14,98.74Zm-6.89,3.6-.79,2.56,2.57-.79,1.14.61a8.54,8.54,0,1,0-3.52-3.51Zm18-1.76a11.15,11.15,0,0,0,1.66-.64l1-.46,5.23,1.21-1.18-5.28.46-1a11.55,11.55,0,1,0-21.46-8.39,12,12,0,0,1,3.24-.45,11.6,11.6,0,0,1,11.09,15ZM565.42,87.75a14.62,14.62,0,1,1,27.72,8l1.33,6a1.79,1.79,0,0,1-2.32,2.33l-5.94-1.35a14.3,14.3,0,0,1-4.74,1.34,11.62,11.62,0,0,1-14.75,3.36l-3.94,1.22c-1.64.51-2.56-.41-2.06-2.05l1.2-3.94a11.59,11.59,0,0,1,3.5-14.91Z"/></clipPath><clipPath id="clip-path-20"><path class="cls-6" d="M-125.22,92.71A2.25,2.25,0,0,1-123,90.46h1.27a2.25,2.25,0,0,1,2.25,2.25V94a2.24,2.24,0,0,1-2.25,2.24H-123A2.24,2.24,0,0,1-125.22,94Zm10.1-3.8-7.22-8.45-7.21,8.45v12.38h14.43V88.91Zm2.88,4.44V98.4h.72a2.15,2.15,0,0,1,2.16,2.16v.72h1.44a1.44,1.44,0,0,1,1.45,1.45,1.45,1.45,0,0,1-1.45,1.44h-21.35a3,3,0,0,1-3.16-2.88v-9l-.15.17a1.44,1.44,0,0,1-2,.16,1.43,1.43,0,0,1-.16-2l10.4-12.2a2.59,2.59,0,0,1,4.05,0L-110,90.46h2.09a1.44,1.44,0,0,1,1.44,1.45,1.45,1.45,0,0,1-1.44,1.44Z"/></clipPath><clipPath id="clip-path-21"><path class="cls-6" d="M-42.75,88.7v13.72a1.46,1.46,0,0,1-1.45,1.46H-64.56A1.46,1.46,0,0,1-66,102.42V88.69a4,4,0,0,1-1.53-4.9L-66,79.08a2.12,2.12,0,0,1,1.9-1.38h19.5a2.15,2.15,0,0,1,1.9,1.38l1.51,4.71A4,4,0,0,1-42.75,88.7Zm-16-2.27h2.9V85a1.45,1.45,0,0,1,1.46-1.45A1.44,1.44,0,0,1-52.93,85v1.46H-50V85a1.45,1.45,0,0,1,1.45-1.45A1.45,1.45,0,0,1-47.11,85v1.46h1.85c1.24,0,1.65-.56,1.27-1.75l-1.31-4.07H-63.51l-1.26,4.07c-.38,1.19,0,1.75,1.26,1.75h1.86V85a1.44,1.44,0,0,1,1.45-1.45A1.45,1.45,0,0,1-58.74,85Zm0,2.9a1.46,1.46,0,0,1-1.46,1.46,1.45,1.45,0,0,1-1.45-1.46h-1.46V101h6a2.16,2.16,0,0,1-.15-.81V94.5A2.26,2.26,0,0,1-55,92.24h1.28a2.27,2.27,0,0,1,2.27,2.26v5.66a2.38,2.38,0,0,1-.15.81h6V89.33h-1.45a1.46,1.46,0,0,1-1.46,1.46A1.45,1.45,0,0,1-50,89.33h-2.91a1.45,1.45,0,0,1-1.45,1.46,1.46,1.46,0,0,1-1.46-1.46Z"/></clipPath><clipPath id="clip-path-22"><path class="cls-1" d="M-172.51-293.1a1.49,1.49,0,0,1,1.5-1.49h14.86a1.49,1.49,0,0,1,1.5,1.49,1.49,1.49,0,0,1-1.5,1.49H-171A1.49,1.49,0,0,1-172.51-293.1Zm22.32-2.43.14,0a4.33,4.33,0,0,1,2.83,3.87v20.84a3,3,0,0,1-3,3H-177a3,3,0,0,1-3-3v-20.84a4.33,4.33,0,0,1,2.83-3.87l.14,0V-299a1.49,1.49,0,0,1,1.49-1.49h23.8a1.49,1.49,0,0,1,1.49,1.49Zm-3,4.8v-6.83H-174v6.83l10.41,10.45Zm3,17.84v-16.62l-8.31,8.31Zm-26.78,0,8.31-8.31-8.31-8.31Zm2.11,2.11h22.57l-8.31-8.31-1.93,1.92a1.48,1.48,0,0,1-2.1,0l-1.93-1.92Z"/></clipPath><clipPath id="clip-path-23"><path class="cls-2" d="M-81.93-297.55l-2.88,2.88a4.83,4.83,0,0,0-.66,5s.27.56.44.86c.3.56.71,1.23,1.23,2a54,54,0,0,0,6.52,7.7,53.85,53.85,0,0,0,7.66,6.49c.76.51,1.42.91,2,1.21l.91.46a4.78,4.78,0,0,0,5-.71l2.88-2.88-4.61-4.61-.57.58a5.72,5.72,0,0,1-8.08,0l-5.75-5.75a5.7,5.7,0,0,1,0-8.07l.57-.58Zm8.07,3.46a1.62,1.62,0,0,1,0,2.3l-1.73,1.73a2.45,2.45,0,0,0,0,3.46l5.75,5.76a2.44,2.44,0,0,0,3.46,0l1.73-1.73a1.64,1.64,0,0,1,2.31,0l6.33,6.34a2.44,2.44,0,0,1,0,3.46l-3.46,3.46a7.78,7.78,0,0,1-9,1.19s-4.33-1.82-11.15-8.64S-88.3-288-88.3-288a7.85,7.85,0,0,1,1.18-9l3.46-3.46a2.45,2.45,0,0,1,3.46,0Z"/></clipPath><clipPath id="clip-path-24"><path class="cls-1" d="M-254.92-282.54a1.63,1.63,0,0,0,1.63-1.63,1.63,1.63,0,0,0-1.63-1.63,1.63,1.63,0,0,0-1.63,1.63A1.63,1.63,0,0,0-254.92-282.54Zm0,3.26a4.89,4.89,0,0,1-4.89-4.89,4.89,4.89,0,0,1,4.89-4.89,4.89,4.89,0,0,1,4.89,4.89A4.89,4.89,0,0,1-254.92-279.28Zm2.81-13.44-.22-.73c-.32-1.07-.66-2.05-1-2.92l-.32-.79a8.39,8.39,0,0,0-2.55,0c-.1.23-.21.49-.33.79-.33.87-.67,1.85-1,2.92l-.22.73-.7.3a8.28,8.28,0,0,0-1.87,1.08l-.61.46-.75-.18c-1.08-.25-2.1-.45-3-.59l-.85-.12a8.1,8.1,0,0,0-1.27,2.21l.52.67c.59.73,1.26,1.51,2,2.32l.52.56-.09.76a9.51,9.51,0,0,0-.06,1.08,9.77,9.77,0,0,0,.06,1.08l.09.76-.52.55c-.77.81-1.44,1.59-2,2.32-.2.25-.38.48-.52.68a8.4,8.4,0,0,0,1.27,2.21l.85-.12c.92-.14,1.94-.34,3-.6l.75-.17.61.46a9.11,9.11,0,0,0,1.87,1.08l.7.3.22.73c.32,1.06.66,2,1,2.91.12.3.23.57.33.8a8.39,8.39,0,0,0,2.55,0l.32-.8c.33-.87.67-1.85,1-2.91l.22-.73.7-.3a9.11,9.11,0,0,0,1.87-1.08l.61-.46.75.17c1.08.26,2.1.46,3,.6l.85.12a10.49,10.49,0,0,0,1.27-2.21c-.14-.2-.32-.43-.52-.68-.59-.73-1.26-1.51-2-2.32l-.52-.55.09-.76a9.77,9.77,0,0,0,.06-1.08,9.51,9.51,0,0,0-.06-1.08l-.09-.76.52-.56c.77-.81,1.44-1.59,2-2.32l.52-.67a8.1,8.1,0,0,0-1.27-2.21l-.85.12c-.92.14-1.94.34-3,.59l-.75.18-.61-.46a8.28,8.28,0,0,0-1.87-1.08Zm1.82-4.83c.37.95.87,2.45.87,2.45l1.21.71s1.55-.33,2.55-.48c.62-.1,1.06-.15,1.27-.17a3,3,0,0,1,2.83,1.4L-240-291a2.91,2.91,0,0,1-.16,3.11c-.15.21-.42.57-.81,1-.5.63-1.69,2-1.69,2s0,.2,0,.7c0,.24,0,.71,0,.71s1.06,1.17,1.7,2c.39.48.66.84.78,1a3,3,0,0,1,.19,3.14l-1.51,2.63a2.93,2.93,0,0,1-2.79,1.41h-.09l-.27,0-.95-.13c-.8-.12-2.57-.48-2.57-.48l-1.19.7s-.5,1.51-.87,2.45c-.22.58-.4,1-.48,1.19a3,3,0,0,1-2.63,1.74h-3a2.94,2.94,0,0,1-2.61-1.7c-.1-.24-.28-.65-.5-1.23-.3-.75-.87-2.46-.87-2.46l-1.22-.7s-1.54.33-2.54.49l-1.27.17a3,3,0,0,1-2.83-1.41l-1.51-2.63a2.91,2.91,0,0,1,.16-3.11c.15-.21.42-.57.81-1.05s1.69-2,1.69-2,0-.21,0-.7c0-.24,0-.7,0-.7s-1.06-1.18-1.7-2c-.39-.48-.66-.84-.78-1a3,3,0,0,1-.19-3.15l1.51-2.63A3,3,0,0,1-265.5-295c.26,0,.71.08,1.32.18.8.12,2.58.48,2.58.48l1.2-.71s.48-1.5.85-2.45c.22-.57.4-1,.48-1.18a3,3,0,0,1,2.63-1.74h3a2.94,2.94,0,0,1,2.61,1.7C-250.69-298.54-250.51-298.12-250.29-297.55Z"/></clipPath><clipPath id="clip-path-25"><path class="cls-1" d="M17.44-291.33a1.74,1.74,0,0,1,1.74-1.75,1.74,1.74,0,0,1,1.74,1.75v8.71a1.73,1.73,0,0,1-1.74,1.74,1.74,1.74,0,0,1-1.74-1.74Zm1.74,15.68a1.74,1.74,0,0,1-1.74-1.74,1.74,1.74,0,0,1,1.74-1.74,1.74,1.74,0,0,1,1.74,1.74A1.74,1.74,0,0,1,19.18-275.65Zm1.05-22.48c-.76-1.34-1.51-1.08-2.1,0L5.62-275.87c-.59,1.17-.41,2,1.14,2H31.61c1.14,0,1.91-.61,1.14-2Zm-5.14-1.71h0c2.09-3.7,6.09-3.71,8.18,0l12.52,22.26c2.07,3.68,0,7.16-4.18,7.16H6.76c-4.22,0-6.25-3.47-4.18-7.16Z"/></clipPath><clipPath id="clip-path-26"><path class="cls-1" d="M206.88-273.35a5.23,5.23,0,0,0,5.23-5.23,5.23,5.23,0,0,0-5.23-5.23,5.23,5.23,0,0,0-5.23,5.23A5.23,5.23,0,0,0,206.88-273.35Zm0-21.3a1.35,1.35,0,0,1,1.35-1.36h2.53a1.36,1.36,0,0,1,1.35,1.36v.77a1.34,1.34,0,0,1-1.35,1.35h-2.53a1.34,1.34,0,0,1-1.35-1.35ZM187.71-284.2a1.34,1.34,0,0,1,1.34-1.35h2.54a1.35,1.35,0,0,1,1.35,1.35v.77a1.35,1.35,0,0,1-1.35,1.36h-2.54a1.35,1.35,0,0,1-1.34-1.36ZM214-273.59a5.48,5.48,0,0,0,1.57.24,5.23,5.23,0,0,0,5.23-5.23,5.23,5.23,0,0,0-5.23-5.23,5.15,5.15,0,0,0-1.57.24,8.65,8.65,0,0,1,1.57,5A8.7,8.7,0,0,1,214-273.59Zm-15.68-6.73a8.66,8.66,0,0,1,1.57-3.49,5.23,5.23,0,0,1-5.23-5.23,5.23,5.23,0,0,1,5.23-5.23,5.23,5.23,0,0,1,5.23,5.23,5.38,5.38,0,0,1-.4,2,8.83,8.83,0,0,1,2.14-.27,8.72,8.72,0,0,1,4.36,1.17,8.76,8.76,0,0,1,2.61-1v-10.64H186v17.44Zm0,3.48H187.91a5.42,5.42,0,0,1-5.43-5.41v-13.58a5.41,5.41,0,0,1,5.43-5.41h24a5.42,5.42,0,0,1,5.43,5.41v8.71a8.71,8.71,0,0,1,7,8.54,8.71,8.71,0,0,1-8.72,8.71,8.67,8.67,0,0,1-4.35-1.16,8.71,8.71,0,0,1-4.36,1.16A8.71,8.71,0,0,1,198.34-276.84Z"/></clipPath><clipPath id="clip-path-27"><path class="cls-7" d="M120.22-282.56v-7.95a9.59,9.59,0,0,0-9.59-9.59,9.58,9.58,0,0,0-9.58,9.58v8a1.85,1.85,0,0,1-1.31,1.69,1.72,1.72,0,0,0-1.31,1.68,1.75,1.75,0,0,0,1.75,1.75h20.91a1.74,1.74,0,0,0,1.74-1.75,1.73,1.73,0,0,0-1.31-1.68A1.86,1.86,0,0,1,120.22-282.56ZM108.89-274h0a1.74,1.74,0,0,0,1.74,1.74,1.76,1.76,0,0,0,1.75-1.75Zm-3.49,0h-5.22A5.23,5.23,0,0,1,95-279.19a5.21,5.21,0,0,1,2.62-4.53c0-.53,0-6.8,0-6.8a13.08,13.08,0,0,1,9.62-12.61,3.44,3.44,0,0,1,0-.46,3.48,3.48,0,0,1,3.48-3.48,3.48,3.48,0,0,1,3.49,3.48,3.44,3.44,0,0,1,0,.46,13.08,13.08,0,0,1,9.61,12.62v6.81a5.19,5.19,0,0,1,2.62,4.51,5.23,5.23,0,0,1-5.23,5.23h-5.23a5.23,5.23,0,0,1-5.23,5.23,5.23,5.23,0,0,1-5.23-5.22Z"/></clipPath><clipPath id="clip-path-28"><path class="cls-1" d="M283.29-284.45a1.74,1.74,0,0,1-.66-2.37,1.73,1.73,0,0,1,2.37-.66l4.34,2.44a1.74,1.74,0,0,1,.67,2.37,1.74,1.74,0,0,1-2.37.67Zm-5.24-12.28,15.69-8.72a1.75,1.75,0,0,1,1.69,0l15.69,8.72a1.74,1.74,0,0,1,.89,1.52v17.43a1.75,1.75,0,0,1-.89,1.53l-15.69,8.71a1.75,1.75,0,0,1-1.69,0l-15.69-8.71a1.75,1.75,0,0,1-.89-1.53v-17.43A1.74,1.74,0,0,1,278.05-296.73ZM292.84-272v-13.45l-12.2-6.77v13.45Zm3.49,0,12.2-6.79v-13.38l-12.2,6.73Zm2.5-27.54-4.24-2.36-12.1,6.72,4.37,2.43Zm3.57,2-12,6.79,4.17,2.31,12.13-6.7Z"/></clipPath><clipPath id="clip-path-29"><path id="_Caminho_de_recorte_composto_5" data-name="&lt;Caminho de recorte composto&gt;" class="cls-4" d="M-1.16,79.52H10.1a1.13,1.13,0,0,1,1.13,1.12v20.29a1.13,1.13,0,0,1-1.13,1.13H-1.16a1.12,1.12,0,0,1-1.13-1.13V80.64A1.12,1.12,0,0,1-1.16,79.52ZM9,84V81.77H0V84Zm0,2.25H0v9H9ZM5.6,99.8H9V97.55H0V99.8H3.34a1.13,1.13,0,0,1,2.26,0Z"/></clipPath></defs><title>Créditos</title><path class="cls-8" d="M-113.1,13.82h-13.84l-1.41,5h16.67Zm-12.55-2.52a7.59,7.59,0,0,1-1.93-5.06A7.58,7.58,0,0,1-120-1.34a7.58,7.58,0,0,1,7.58,7.58,7.59,7.59,0,0,1-1.93,5.06h1.92a1.75,1.75,0,0,1,1.59,1.21l2.14,7.67a.91.91,0,0,1-.93,1.22l-20.76,0a.91.91,0,0,1-.93-1.22l2.12-7.68a1.73,1.73,0,0,1,1.59-1.22Zm.62-4.6a5.06,5.06,0,0,0,5,4.6,5.07,5.07,0,0,0,5.06-5.06,5,5,0,0,0-.75-2.64C-117.23,5-120.66,5-122.42,5A3.18,3.18,0,0,0-125,6.7Z"/><g class="cls-9"><rect class="cls-2" x="-335.83" y="-566.13" width="1416.48" height="2766.07"/></g><path class="cls-8" d="M15.3,17.82a3.15,3.15,0,1,0-3.14-3.15A3.14,3.14,0,0,0,15.3,17.82ZM15.3,5a.82.82,0,0,1,.81-.82h1.52a.82.82,0,0,1,.81.82v.46a.82.82,0,0,1-.81.82H16.11a.82.82,0,0,1-.81-.82ZM3.77,11.3a.82.82,0,0,1,.81-.82H6.11a.82.82,0,0,1,.81.82v.46a.82.82,0,0,1-.81.82H4.58a.82.82,0,0,1-.81-.82ZM19.6,17.67a2.89,2.89,0,0,0,.94.15,3.15,3.15,0,0,0,0-6.29,3.19,3.19,0,0,0-.94.14,5.26,5.26,0,0,1,0,6Zm-9.43-4.05a5.09,5.09,0,0,1,.94-2.09,3.15,3.15,0,1,1,3.14-3.15A3,3,0,0,1,14,9.59a5.49,5.49,0,0,1,1.29-.16,5.26,5.26,0,0,1,2.62.7,5,5,0,0,1,1.57-.59V3.14H2.73V13.62Zm0,2.1H3.89A3.26,3.26,0,0,1,.63,12.46V4.3A3.26,3.26,0,0,1,3.89,1.05H18.32A3.26,3.26,0,0,1,21.59,4.3V9.54a5.24,5.24,0,0,1-1.05,10.37,5.18,5.18,0,0,1-2.62-.7,5.16,5.16,0,0,1-2.62.7A5.24,5.24,0,0,1,10.17,15.72Z"/><g class="cls-10"><rect class="cls-2" x="-417.28" y="-1272.18" width="1174.78" height="2294.09"/><g class="cls-11"><rect class="cls-2" x="-3.45" y="-3.03" width="33.31" height="27.02"/></g></g><path class="cls-8" d="M147.82,14.18V9.4a5.76,5.76,0,1,0-11.52,0v4.79a1.1,1.1,0,0,1-.79,1,1,1,0,0,0,.27,2.06h12.57a1,1,0,0,0,1.05-1,1.06,1.06,0,0,0-.79-1A1.11,1.11,0,0,1,147.82,14.18ZM141,19.35h0a1.05,1.05,0,1,0,2.1,0Zm-2.09,0h-3.14a3.14,3.14,0,0,1-1.57-5.87c0-.32,0-4.09,0-4.09A7.86,7.86,0,0,1,140,1.81a2.44,2.44,0,0,1,0-.27,2.1,2.1,0,1,1,4.19,0,2.45,2.45,0,0,1,0,.27,7.87,7.87,0,0,1,5.78,7.59v4.09a3.14,3.14,0,0,1-1.57,5.86h-3.14a3.15,3.15,0,0,1-6.29,0Z"/><g class="cls-12"><rect class="cls-2" x="-590.2" y="-1623.8" width="1174.78" height="2294.09"/></g><path class="cls-8" d="M-82.34,16.14-83.51,15a1.17,1.17,0,0,1,0-1.66,1.16,1.16,0,0,1,1.65,0l.35.34L-80,12.14a1.17,1.17,0,0,1,1.66,0,1.16,1.16,0,0,1,0,1.65l-2.34,2.35A1.19,1.19,0,0,1-82.34,16.14Zm0-6.45-1.17-1.17a1.16,1.16,0,0,1,0-1.65,1.16,1.16,0,0,1,1.65,0l.35.34L-80,5.69a1.19,1.19,0,0,1,1.66,0,1.17,1.17,0,0,1,0,1.66l-2.34,2.34A1.17,1.17,0,0,1-82.34,9.69Zm5.51,5.62a1.17,1.17,0,0,1,1.18-1.17H-71a1.17,1.17,0,0,1,1.18,1.17A1.17,1.17,0,0,1-71,16.48h-4.67A1.17,1.17,0,0,1-76.83,15.31Zm0-6.44a1.18,1.18,0,0,1,1.18-1.18H-71A1.18,1.18,0,0,1-69.8,8.87,1.18,1.18,0,0,1-71,10h-4.67A1.17,1.17,0,0,1-76.83,8.87Zm3.52-6.45h-2.35a1.17,1.17,0,0,1-1.17,1.17A1.17,1.17,0,0,1-78,2.42h-2.34a1.17,1.17,0,0,1-1.17,1.17,1.17,1.17,0,0,1-1.17-1.17H-85V21.17h16.4V2.42H-71a1.17,1.17,0,0,1-1.17,1.17,1.17,1.17,0,0,1-1.17-1.17Zm0-2.34h0a1.17,1.17,0,0,1,1.17-1.17A1.17,1.17,0,0,1-71,.08h2.34a2.35,2.35,0,0,1,2.35,2.34V21.17a2.35,2.35,0,0,1-2.35,2.34H-85a2.34,2.34,0,0,1-2.34-2.34V2.42A2.34,2.34,0,0,1-85,.08h2.35a1.17,1.17,0,0,1,1.17-1.17A1.17,1.17,0,0,1-80.34.08H-78a1.17,1.17,0,0,1,1.17-1.17A1.17,1.17,0,0,1-75.66.08h2.35Z"/><g class="cls-13"><rect class="cls-2" x="-501.82" y="-1534.49" width="1313.23" height="2564.46"/></g><path class="cls-8" d="M-33.75,11.75a1.2,1.2,0,0,0,1.2-1.2,1.2,1.2,0,0,0-1.2-1.21,1.21,1.21,0,0,0-1.2,1.21A1.2,1.2,0,0,0-33.75,11.75Zm0,2.41a3.61,3.61,0,0,1-3.61-3.61,3.61,3.61,0,0,1,3.61-3.61,3.6,3.6,0,0,1,3.61,3.61A3.61,3.61,0,0,1-33.75,14.16Zm-7.16-3.87a.64.64,0,0,0,0,.57l4.43,6.43a1.46,1.46,0,0,0,.92.48s16.26,0,16.26,0V3.32H-35.56a1.51,1.51,0,0,0-.92.48Zm2.47,8.4-4.41-6.48a3,3,0,0,1,0-3.36l4.41-6.45A3.83,3.83,0,0,1-35.56.92H-19.3a2.41,2.41,0,0,1,2.41,2.4V17.78a2.41,2.41,0,0,1-2.41,2.4H-35.56A3.81,3.81,0,0,1-38.44,18.69Z"/><g class="cls-14"><rect class="cls-2" x="-524.74" y="-2041.08" width="1349.76" height="2635.78"/></g><path class="cls-8" d="M103.82,19.87a5.76,5.76,0,1,0-5.76-5.76A5.76,5.76,0,0,0,103.82,19.87Zm3.67-12.71A7.86,7.86,0,1,1,99.9,20.92h-8a3.26,3.26,0,0,1-3.26-3.26V3.23A3.27,3.27,0,0,1,91.89,0h12.34a3.26,3.26,0,0,1,3.26,3.27ZM96,14.2a5.26,5.26,0,0,1-3.15-4.81V8.07a2.12,2.12,0,0,1-1-1.82,2.1,2.1,0,0,1,4.2,0,2.12,2.12,0,0,1-1,1.82V9.39A3.14,3.14,0,0,0,96.26,12a7.89,7.89,0,0,1,4.06-4.9,2.22,2.22,0,0,1-.16-.82,2.1,2.1,0,0,1,4.19,0v0a7.56,7.56,0,0,1,1.05.14V2.06H90.73V18.83h6.81A7.87,7.87,0,0,1,96,14.2Zm8.9-1.14h1.57a1.05,1.05,0,0,1,0,2.1h-1.57v1.57a1,1,0,1,1-2.09,0V15.16h-1.57a1.05,1.05,0,1,1,0-2.1h1.57V11.49a1,1,0,1,1,2.09,0Z"/><g class="cls-15"><rect class="cls-2" x="-380.62" y="-1322.52" width="1174.78" height="2294.09"/></g><path class="cls-8" d="M179.72.68h7.66a1.45,1.45,0,0,1,.89.37L194,6.81a1.48,1.48,0,0,1,.37.89V19.54a2.1,2.1,0,0,1-2.1,2.1H179.73a2.1,2.1,0,0,1-2.1-2.1V2.77A2.1,2.1,0,0,1,179.72.68Zm7.34,2.09V8h5.24Zm-2.09,0h-5.25s0,16.77,0,16.77H192.3V10.11H186a1,1,0,0,1-1-1Z"/><g class="cls-16"><rect class="cls-2" x="7.01" y="-1975.71" width="1174.78" height="2294.09"/></g><path class="cls-8" d="M65.26,5a4.4,4.4,0,0,0-.78-.65,5.7,5.7,0,0,0-3.28-1,4.33,4.33,0,0,0-3.11,1.4,13.32,13.32,0,0,0-1,1.23V18.87a9.19,9.19,0,0,1,8.12-.05ZM46.69,5V18.82a9.22,9.22,0,0,1,8.13.05V6a14,14,0,0,0-1-1.23,4.33,4.33,0,0,0-3.11-1.4,5.73,5.73,0,0,0-3.28,1A4.4,4.4,0,0,0,46.69,5Zm8.58,16.71-.31-.2a9.62,9.62,0,0,0-1-.53,7.93,7.93,0,0,0-3.17-.77,8.07,8.07,0,0,0-3.2.77,10.7,10.7,0,0,0-1,.53l-.34.22a1.16,1.16,0,0,1-1.84-.94V4.55a1.14,1.14,0,0,1,.23-.68,6.21,6.21,0,0,1,1.58-1.44,8,8,0,0,1,4.57-1.36,6.61,6.61,0,0,1,4.76,2.08c.17.17.32.35.47.51.14-.16.3-.34.47-.51A6.57,6.57,0,0,1,61.2,1.07a8,8,0,0,1,4.57,1.36,6.29,6.29,0,0,1,1.59,1.44,1.2,1.2,0,0,1,.22.68V20.8a1.16,1.16,0,0,1-1.84.94l-.34-.22a9.62,9.62,0,0,0-1-.53A7,7,0,0,0,58,21a8.55,8.55,0,0,0-1,.53l-.32.2-.08.06a1.18,1.18,0,0,1-1.25,0Z"/><g class="cls-17"><rect class="cls-2" x="-197.98" y="-1910.47" width="1301.12" height="2540.8"/></g><path class="cls-2" d="M273.5-.32a1.29,1.29,0,0,1,1.29-1.29,1.3,1.3,0,0,1,1.3,1.29V10.06a1.3,1.3,0,0,1-2.59,0ZM268.93,2.8a1.3,1.3,0,0,1,1.47,2.14,7.78,7.78,0,1,0,8.89.07,1.29,1.29,0,0,1,1.5-2.11,10.36,10.36,0,1,1-11.86-.1Z"/><g class="cls-18"><rect class="cls-2" x="-444.1" y="-1949.21" width="1452.68" height="2836.75"/></g><path class="cls-8" d="M234.39,14a1.53,1.53,0,1,1,1.52-1.53A1.52,1.52,0,0,1,234.39,14Zm-5.1,0a1.53,1.53,0,1,1,1.53-1.53A1.52,1.52,0,0,1,229.29,14Zm11.72.51V11.45a.51.51,0,0,0-.51-.51H240V15h.51A.51.51,0,0,0,241,14.51Zm-17.83-3.57a.51.51,0,0,0-.51.51v3.06a.51.51,0,0,0,1,0V10.94ZM233.6,21.13a2,2,0,1,1,0-2h2.32a2,2,0,0,0,2-2V8.9a6.11,6.11,0,1,0-12.22,0v5.61a2.55,2.55,0,1,1-5.09,0V11.45a2.54,2.54,0,0,1,2.54-2.54h.51a8.15,8.15,0,0,1,16.3,0h.51A2.54,2.54,0,0,1,243,11.45v3.06a2.55,2.55,0,0,1-2.54,2.55H240a4.08,4.08,0,0,1-4.07,4.07Z"/><g class="cls-19"><rect class="cls-2" x="-577.7" y="-1284.19" width="1141.89" height="2229.86"/></g><g id="_Grupo_" data-name="&lt;Grupo&gt;"><path id="_Caminho_de_recorte_composto_6" data-name="&lt;Caminho de recorte composto&gt;" class="cls-8" d="M164.94,99.5c0-2.4,3.18-3.85,7.87-4.44a1.34,1.34,0,0,1,.34,2.66,16.18,16.18,0,0,0-4.44,1.1c-.46.21-.21.11-.21.11a.61.61,0,0,0,0,1.12s-.15.07,1.33.54a28.44,28.44,0,0,0,14.35,0c1.49-.47,1.33-.54,1.33-.54a.61.61,0,0,0,0-1.12s.26.11-.2-.1a16.26,16.26,0,0,0-4.41-1.11,1.34,1.34,0,1,1,.34-2.65c4.67.59,7.83,2,7.83,4.43,0,3-5.37,4.69-12.05,4.69S164.94,102.51,164.94,99.5ZM181,84.09a4,4,0,1,0-4,4A4,4,0,0,0,181,84.09Zm-2.68,6.57s0,.08,0,.12v8a1.34,1.34,0,0,1-2.68,0V90.66a6.7,6.7,0,1,1,2.67,0Z"/><g class="cls-21"><g id="_Grupo_de_clipes_2" data-name="&lt;Grupo de clipes&gt;"><rect id="_Caminho_de_recorte_" data-name="&lt;Caminho de recorte&gt;" class="cls-2" x="-566.3" y="-2256.52" width="1501.97" height="2933.02"/></g></g></g><g id="_Grupo_de_clipes_4" data-name="&lt;Grupo de clipes&gt;"><path id="_Caminho_de_recorte_composto_7" data-name="&lt;Caminho de recorte composto&gt;" class="cls-8" d="M106.9,105.31a2.77,2.77,0,1,1,2.77-2.77A2.77,2.77,0,0,1,106.9,105.31Zm12.46,0a2.77,2.77,0,1,1,2.76-2.77A2.77,2.77,0,0,1,119.36,105.31Zm-13.7-13.84H121.9l1.31-7-19.44-1.19Zm-2.54-11,22,1.35a1.19,1.19,0,0,1,1.12,1.44l-1.8,9.64a1.73,1.73,0,0,1-1.63,1.36H106.3l.32,1.39h15.5a1.38,1.38,0,1,1,0,2.76h-16.6a1.37,1.37,0,0,1-1.35-1.07l-4-17.35L98,78.89a1.39,1.39,0,1,1,1.24-2.48L102,77.78a1.39,1.39,0,0,1,.74.93Z"/><g class="cls-22"><g id="_Grupo_de_clipes_5" data-name="&lt;Grupo de clipes&gt;"><rect id="_Caminho_de_recorte_2" data-name="&lt;Caminho de recorte&gt;" class="cls-2" x="-722.43" y="-1669.52" width="1551.41" height="3029.55"/></g></g></g><path class="cls-25" d="M567.51,98.74a1.55,1.55,0,1,1,1.54-1.54A1.54,1.54,0,0,1,567.51,98.74Zm9.27,0a1.55,1.55,0,1,1,1.54-1.54A1.54,1.54,0,0,1,576.78,98.74Zm-4.64,0a1.55,1.55,0,1,1,1.55-1.54A1.54,1.54,0,0,1,572.14,98.74Zm-6.89,3.6-.79,2.56,2.57-.79,1.14.61a8.54,8.54,0,1,0-3.52-3.51Zm18-1.76a11.15,11.15,0,0,0,1.66-.64l1-.46,5.23,1.21-1.18-5.28.46-1a11.55,11.55,0,1,0-21.46-8.39,12,12,0,0,1,3.24-.45,11.6,11.6,0,0,1,11.09,15ZM565.42,87.75a14.62,14.62,0,1,1,27.72,8l1.33,6a1.79,1.79,0,0,1-2.32,2.33l-5.94-1.35a14.3,14.3,0,0,1-4.74,1.34,11.62,11.62,0,0,1-14.75,3.36l-3.94,1.22c-1.64.51-2.56-.41-2.06-2.05l1.2-3.94a11.59,11.59,0,0,1,3.5-14.91Z"/><g class="cls-26"><rect class="cls-27" x="-354.09" y="-2690.26" width="1732.68" height="3383.54"/></g><path class="cls-28" d="M-125.22,92.71A2.25,2.25,0,0,1-123,90.46h1.27a2.25,2.25,0,0,1,2.25,2.25V94a2.24,2.24,0,0,1-2.25,2.24H-123A2.24,2.24,0,0,1-125.22,94Zm10.1-3.8-7.22-8.45-7.21,8.45v12.38h14.43V88.91Zm2.88,4.44V98.4h.72a2.15,2.15,0,0,1,2.16,2.16v.72h1.44a1.44,1.44,0,0,1,1.45,1.45,1.45,1.45,0,0,1-1.45,1.44h-21.35a3,3,0,0,1-3.16-2.88v-9l-.15.17a1.44,1.44,0,0,1-2,.16,1.43,1.43,0,0,1-.16-2l10.4-12.2a2.59,2.59,0,0,1,4.05,0L-110,90.46h2.09a1.44,1.44,0,0,1,1.44,1.45,1.45,1.45,0,0,1-1.44,1.44Z"/><g class="cls-29"><rect class="cls-30" x="-367.29" y="-428.82" width="1617.1" height="3157.83"/></g><path class="cls-28" d="M-42.75,88.7v13.72a1.46,1.46,0,0,1-1.45,1.46H-64.56A1.46,1.46,0,0,1-66,102.42V88.69a4,4,0,0,1-1.53-4.9L-66,79.08a2.12,2.12,0,0,1,1.9-1.38h19.5a2.15,2.15,0,0,1,1.9,1.38l1.51,4.71A4,4,0,0,1-42.75,88.7Zm-16-2.27h2.9V85a1.45,1.45,0,0,1,1.46-1.45A1.44,1.44,0,0,1-52.93,85v1.46H-50V85a1.45,1.45,0,0,1,1.45-1.45A1.45,1.45,0,0,1-47.11,85v1.46h1.85c1.24,0,1.65-.56,1.27-1.75l-1.31-4.07H-63.51l-1.26,4.07c-.38,1.19,0,1.75,1.26,1.75h1.86V85a1.44,1.44,0,0,1,1.45-1.45A1.45,1.45,0,0,1-58.74,85Zm0,2.9a1.46,1.46,0,0,1-1.46,1.46,1.45,1.45,0,0,1-1.45-1.46h-1.46V101h6a2.16,2.16,0,0,1-.15-.81V94.5A2.26,2.26,0,0,1-55,92.24h1.28a2.27,2.27,0,0,1,2.27,2.26v5.66a2.38,2.38,0,0,1-.15.81h6V89.33h-1.45a1.46,1.46,0,0,1-1.46,1.46A1.45,1.45,0,0,1-50,89.33h-2.91a1.45,1.45,0,0,1-1.45,1.46,1.46,1.46,0,0,1-1.46-1.46Z"/><g class="cls-31"><rect class="cls-30" x="-442.37" y="-433.45" width="1630.25" height="3183.51"/></g><path class="cls-8" d="M-172.51-293.1a1.49,1.49,0,0,1,1.5-1.49h14.86a1.49,1.49,0,0,1,1.5,1.49,1.49,1.49,0,0,1-1.5,1.49H-171A1.49,1.49,0,0,1-172.51-293.1Zm22.32-2.43.14,0a4.33,4.33,0,0,1,2.83,3.87v20.84a3,3,0,0,1-3,3H-177a3,3,0,0,1-3-3v-20.84a4.33,4.33,0,0,1,2.83-3.87l.14,0V-299a1.49,1.49,0,0,1,1.49-1.49h23.8a1.49,1.49,0,0,1,1.49,1.49Zm-3,4.8v-6.83H-174v6.83l10.41,10.45Zm3,17.84v-16.62l-8.31,8.31Zm-26.78,0,8.31-8.31-8.31-8.31Zm2.11,2.11h22.57l-8.31-8.31-1.93,1.92a1.48,1.48,0,0,1-2.1,0l-1.93-1.92Z"/><g class="cls-32"><rect class="cls-2" x="-560.51" y="-2962.04" width="1667.8" height="3256.84"/></g><path class="cls-2" d="M-81.93-297.55l-2.88,2.88a4.83,4.83,0,0,0-.66,5s.27.56.44.86c.3.56.71,1.23,1.23,2a54,54,0,0,0,6.52,7.7,53.85,53.85,0,0,0,7.66,6.49c.76.51,1.42.91,2,1.21l.91.46a4.78,4.78,0,0,0,5-.71l2.88-2.88-4.61-4.61-.57.58a5.72,5.72,0,0,1-8.08,0l-5.75-5.75a5.7,5.7,0,0,1,0-8.07l.57-.58Zm8.07,3.46a1.62,1.62,0,0,1,0,2.3l-1.73,1.73a2.45,2.45,0,0,0,0,3.46l5.75,5.76a2.44,2.44,0,0,0,3.46,0l1.73-1.73a1.64,1.64,0,0,1,2.31,0l6.33,6.34a2.44,2.44,0,0,1,0,3.46l-3.46,3.46a7.78,7.78,0,0,1-9,1.19s-4.33-1.82-11.15-8.64S-88.3-288-88.3-288a7.85,7.85,0,0,1,1.18-9l3.46-3.46a2.45,2.45,0,0,1,3.46,0Z"/><g class="cls-33"><rect class="cls-2" x="-1445.83" y="-2670.34" width="1827.18" height="3568.09"/></g><path class="cls-8" d="M-254.92-282.54a1.63,1.63,0,0,0,1.63-1.63,1.63,1.63,0,0,0-1.63-1.63,1.63,1.63,0,0,0-1.63,1.63A1.63,1.63,0,0,0-254.92-282.54Zm0,3.26a4.89,4.89,0,0,1-4.89-4.89,4.89,4.89,0,0,1,4.89-4.89,4.89,4.89,0,0,1,4.89,4.89A4.89,4.89,0,0,1-254.92-279.28Zm2.81-13.44-.22-.73c-.32-1.07-.66-2.05-1-2.92l-.32-.79a8.39,8.39,0,0,0-2.55,0c-.1.23-.21.49-.33.79-.33.87-.67,1.85-1,2.92l-.22.73-.7.3a8.28,8.28,0,0,0-1.87,1.08l-.61.46-.75-.18c-1.08-.25-2.1-.45-3-.59l-.85-.12a8.1,8.1,0,0,0-1.27,2.21l.52.67c.59.73,1.26,1.51,2,2.32l.52.56-.09.76a9.51,9.51,0,0,0-.06,1.08,9.77,9.77,0,0,0,.06,1.08l.09.76-.52.55c-.77.81-1.44,1.59-2,2.32-.2.25-.38.48-.52.68a8.4,8.4,0,0,0,1.27,2.21l.85-.12c.92-.14,1.94-.34,3-.6l.75-.17.61.46a9.11,9.11,0,0,0,1.87,1.08l.7.3.22.73c.32,1.06.66,2,1,2.91.12.3.23.57.33.8a8.39,8.39,0,0,0,2.55,0l.32-.8c.33-.87.67-1.85,1-2.91l.22-.73.7-.3a9.11,9.11,0,0,0,1.87-1.08l.61-.46.75.17c1.08.26,2.1.46,3,.6l.85.12a10.49,10.49,0,0,0,1.27-2.21c-.14-.2-.32-.43-.52-.68-.59-.73-1.26-1.51-2-2.32l-.52-.55.09-.76a9.77,9.77,0,0,0,.06-1.08,9.51,9.51,0,0,0-.06-1.08l-.09-.76.52-.56c.77-.81,1.44-1.59,2-2.32l.52-.67a8.1,8.1,0,0,0-1.27-2.21l-.85.12c-.92.14-1.94.34-3,.59l-.75.18-.61-.46a8.28,8.28,0,0,0-1.87-1.08Zm1.82-4.83c.37.95.87,2.45.87,2.45l1.21.71s1.55-.33,2.55-.48c.62-.1,1.06-.15,1.27-.17a3,3,0,0,1,2.83,1.4L-240-291a2.91,2.91,0,0,1-.16,3.11c-.15.21-.42.57-.81,1-.5.63-1.69,2-1.69,2s0,.2,0,.7c0,.24,0,.71,0,.71s1.06,1.17,1.7,2c.39.48.66.84.78,1a3,3,0,0,1,.19,3.14l-1.51,2.63a2.93,2.93,0,0,1-2.79,1.41h-.09l-.27,0-.95-.13c-.8-.12-2.57-.48-2.57-.48l-1.19.7s-.5,1.51-.87,2.45c-.22.58-.4,1-.48,1.19a3,3,0,0,1-2.63,1.74h-3a2.94,2.94,0,0,1-2.61-1.7c-.1-.24-.28-.65-.5-1.23-.3-.75-.87-2.46-.87-2.46l-1.22-.7s-1.54.33-2.54.49l-1.27.17a3,3,0,0,1-2.83-1.41l-1.51-2.63a2.91,2.91,0,0,1,.16-3.11c.15-.21.42-.57.81-1.05s1.69-2,1.69-2,0-.21,0-.7c0-.24,0-.7,0-.7s-1.06-1.18-1.7-2c-.39-.48-.66-.84-.78-1a3,3,0,0,1-.19-3.15l1.51-2.63A3,3,0,0,1-265.5-295c.26,0,.71.08,1.32.18.8.12,2.58.48,2.58.48l1.2-.71s.48-1.5.85-2.45c.22-.57.4-1,.48-1.18a3,3,0,0,1,2.63-1.74h3a2.94,2.94,0,0,1,2.61,1.7C-250.69-298.54-250.51-298.12-250.29-297.55Z"/><g class="cls-34"><rect class="cls-2" x="-1550.29" y="-2983.26" width="1827.18" height="3568.09"/></g><path class="cls-8" d="M17.44-291.33a1.74,1.74,0,0,1,1.74-1.75,1.74,1.74,0,0,1,1.74,1.75v8.71a1.73,1.73,0,0,1-1.74,1.74,1.74,1.74,0,0,1-1.74-1.74Zm1.74,15.68a1.74,1.74,0,0,1-1.74-1.74,1.74,1.74,0,0,1,1.74-1.74,1.74,1.74,0,0,1,1.74,1.74A1.74,1.74,0,0,1,19.18-275.65Zm1.05-22.48c-.76-1.34-1.51-1.08-2.1,0L5.62-275.87c-.59,1.17-.41,2,1.14,2H31.61c1.14,0,1.91-.61,1.14-2Zm-5.14-1.71h0c2.09-3.7,6.09-3.71,8.18,0l12.52,22.26c2.07,3.68,0,7.16-4.18,7.16H6.76c-4.22,0-6.25-3.47-4.18-7.16Z"/><g class="cls-35"><rect class="cls-2" x="-362.21" y="-3088.88" width="1954.02" height="3815.76"/></g><path class="cls-8" d="M206.88-273.35a5.23,5.23,0,0,0,5.23-5.23,5.23,5.23,0,0,0-5.23-5.23,5.23,5.23,0,0,0-5.23,5.23A5.23,5.23,0,0,0,206.88-273.35Zm0-21.3a1.35,1.35,0,0,1,1.35-1.36h2.53a1.36,1.36,0,0,1,1.35,1.36v.77a1.34,1.34,0,0,1-1.35,1.35h-2.53a1.34,1.34,0,0,1-1.35-1.35ZM187.71-284.2a1.34,1.34,0,0,1,1.34-1.35h2.54a1.35,1.35,0,0,1,1.35,1.35v.77a1.35,1.35,0,0,1-1.35,1.36h-2.54a1.35,1.35,0,0,1-1.34-1.36ZM214-273.59a5.48,5.48,0,0,0,1.57.24,5.23,5.23,0,0,0,5.23-5.23,5.23,5.23,0,0,0-5.23-5.23,5.15,5.15,0,0,0-1.57.24,8.65,8.65,0,0,1,1.57,5A8.7,8.7,0,0,1,214-273.59Zm-15.68-6.73a8.66,8.66,0,0,1,1.57-3.49,5.23,5.23,0,0,1-5.23-5.23,5.23,5.23,0,0,1,5.23-5.23,5.23,5.23,0,0,1,5.23,5.23,5.38,5.38,0,0,1-.4,2,8.83,8.83,0,0,1,2.14-.27,8.72,8.72,0,0,1,4.36,1.17,8.76,8.76,0,0,1,2.61-1v-10.64H186v17.44Zm0,3.48H187.91a5.42,5.42,0,0,1-5.43-5.41v-13.58a5.41,5.41,0,0,1,5.43-5.41h24a5.42,5.42,0,0,1,5.43,5.41v8.71a8.71,8.71,0,0,1,7,8.54,8.71,8.71,0,0,1-8.72,8.71,8.67,8.67,0,0,1-4.35-1.16,8.71,8.71,0,0,1-4.36,1.16A8.71,8.71,0,0,1,198.34-276.84Z"/><g class="cls-36"><rect class="cls-2" x="-512.63" y="-2419" width="1954.02" height="3815.76"/></g><path class="cls-37" d="M120.22-282.56v-7.95a9.59,9.59,0,0,0-9.59-9.59,9.58,9.58,0,0,0-9.58,9.58v8a1.85,1.85,0,0,1-1.31,1.69,1.72,1.72,0,0,0-1.31,1.68,1.75,1.75,0,0,0,1.75,1.75h20.91a1.74,1.74,0,0,0,1.74-1.75,1.73,1.73,0,0,0-1.31-1.68A1.86,1.86,0,0,1,120.22-282.56ZM108.89-274h0a1.74,1.74,0,0,0,1.74,1.74,1.76,1.76,0,0,0,1.75-1.75Zm-3.49,0h-5.22A5.23,5.23,0,0,1,95-279.19a5.21,5.21,0,0,1,2.62-4.53c0-.53,0-6.8,0-6.8a13.08,13.08,0,0,1,9.62-12.61,3.44,3.44,0,0,1,0-.46,3.48,3.48,0,0,1,3.48-3.48,3.48,3.48,0,0,1,3.49,3.48,3.44,3.44,0,0,1,0,.46,13.08,13.08,0,0,1,9.61,12.62v6.81a5.19,5.19,0,0,1,2.62,4.51,5.23,5.23,0,0,1-5.23,5.23h-5.23a5.23,5.23,0,0,1-5.23,5.23,5.23,5.23,0,0,1-5.23-5.22Z"/><g class="cls-38"><rect class="cls-2" x="-1107.34" y="-3007.01" width="1954.02" height="3815.76"/></g><path class="cls-8" d="M283.29-284.45a1.74,1.74,0,0,1-.66-2.37,1.73,1.73,0,0,1,2.37-.66l4.34,2.44a1.74,1.74,0,0,1,.67,2.37,1.74,1.74,0,0,1-2.37.67Zm-5.24-12.28,15.69-8.72a1.75,1.75,0,0,1,1.69,0l15.69,8.72a1.74,1.74,0,0,1,.89,1.52v17.43a1.75,1.75,0,0,1-.89,1.53l-15.69,8.71a1.75,1.75,0,0,1-1.69,0l-15.69-8.71a1.75,1.75,0,0,1-.89-1.53v-17.43A1.74,1.74,0,0,1,278.05-296.73ZM292.84-272v-13.45l-12.2-6.77v13.45Zm3.49,0,12.2-6.79v-13.38l-12.2,6.73Zm2.5-27.54-4.24-2.36-12.1,6.72,4.37,2.43Zm3.57,2-12,6.79,4.17,2.31,12.13-6.7Z"/><g class="cls-39"><rect class="cls-2" x="-1258.02" y="-2503.61" width="1954.02" height="3815.76"/></g></svg>