<svg id="Camada_1" data-name="Camada 1" xmlns="http://www.w3.org/2000/svg" xmlns:xlink="http://www.w3.org/1999/xlink" viewBox="0 0 52.08 50.87"><defs><style>.cls-1,.cls-2,.cls-3,.cls-5,.cls-7{fill:#6b6b6b;}.cls-1,.cls-10,.cls-2,.cls-24,.cls-25,.cls-3,.cls-9{stroke:#fff;}.cls-1,.cls-10,.cls-14,.cls-15,.cls-2,.cls-24,.cls-25,.cls-3,.cls-4,.cls-9{stroke-miterlimit:10;}.cls-1,.cls-3,.cls-4{clip-rule:evenodd;}.cls-24,.cls-25,.cls-3{stroke-width:0.82px;}.cls-11,.cls-13,.cls-4{fill:#fff;}.cls-14,.cls-15,.cls-4{stroke:#579a64;stroke-width:0.7px;}.cls-10,.cls-11,.cls-15,.cls-25,.cls-5{fill-rule:evenodd;}.cls-6{clip-path:url(#clip-path);}.cls-8{clip-path:url(#clip-path-2);}.cls-10,.cls-14,.cls-15,.cls-24,.cls-25,.cls-9{fill:none;}.cls-12{clip-path:url(#clip-path-3);}.cls-16{clip-path:url(#clip-path-4);}.cls-17{clip-path:url(#clip-path-5);}.cls-18{clip-path:url(#clip-path-6);}.cls-19{clip-path:url(#clip-path-7);}.cls-20{clip-path:url(#clip-path-8);}.cls-21{clip-path:url(#clip-path-9);}.cls-22{clip-path:url(#clip-path-10);}.cls-23{clip-path:url(#clip-path-11);}.cls-26{clip-path:url(#clip-path-12);}.cls-27{clip-path:url(#clip-path-13);}.cls-28{clip-path:url(#clip-path-14);}.cls-29{clip-path:url(#clip-path-15);}.cls-30{clip-path:url(#clip-path-16);}.cls-31{clip-path:url(#clip-path-17);}.cls-32{clip-path:url(#clip-path-18);}.cls-33{clip-path:url(#clip-path-19);}</style><clipPath id="clip-path"><path class="cls-1" d="M39.41,32.31H15.53L13.11,41H41.86ZM17.77,27.95a13.07,13.07,0,1,1,19.49,0h3.3a3,3,0,0,1,2.75,2.1L47,43.28a1.57,1.57,0,0,1-1.6,2.11l-35.8,0A1.57,1.57,0,0,1,8,43.31l3.66-13.25a3,3,0,0,1,2.75-2.11ZM18.83,20a8.72,8.72,0,1,0,16.12-5.35c-2.66,2.37-8.57,2.37-11.62,2.37A5.48,5.48,0,0,0,18.83,20Z"/></clipPath><clipPath id="clip-path-2"><rect class="cls-2" x="-344.71" y="-967.88" width="2442.87" height="4770.39"/></clipPath><clipPath id="clip-path-3"><path class="cls-4" d="M120.41,32.31H96.53L94.11,41h28.74ZM98.77,27.95a13.07,13.07,0,1,1,19.49,0h3.3a3,3,0,0,1,2.75,2.1L128,43.28a1.57,1.57,0,0,1-1.6,2.11l-35.8,0A1.57,1.57,0,0,1,89,43.31l3.66-13.25a3,3,0,0,1,2.75-2.11ZM99.83,20a8.72,8.72,0,1,0,16.12-5.35c-2.66,2.37-8.57,2.37-11.62,2.37A5.48,5.48,0,0,0,99.83,20Z"/></clipPath><clipPath id="clip-path-4"><path class="cls-1" d="M31.1,354.52a5.42,5.42,0,1,0-5.42-5.42A5.42,5.42,0,0,0,31.1,354.52Zm0-22.09A1.4,1.4,0,0,1,32.5,331h2.63a1.4,1.4,0,0,1,1.4,1.41v.8a1.4,1.4,0,0,1-1.4,1.41H32.5a1.4,1.4,0,0,1-1.4-1.41ZM11.22,343.28a1.4,1.4,0,0,1,1.4-1.41h2.63a1.4,1.4,0,0,1,1.4,1.41v.8a1.4,1.4,0,0,1-1.4,1.41H12.62a1.4,1.4,0,0,1-1.4-1.41Zm27.29,11a5.42,5.42,0,1,0,0-10.35,9,9,0,0,1,0,10.35Zm-16.26-7a9,9,0,0,1,1.63-3.61,5.42,5.42,0,1,1,5-3.34,9.1,9.1,0,0,1,2.22-.27,9,9,0,0,1,4.52,1.21,9,9,0,0,1,2.71-1v-11H9.42v18.07Zm0,3.61H11.43a5.62,5.62,0,0,1-5.63-5.62V331.22a5.62,5.62,0,0,1,5.63-5.62H36.32a5.62,5.62,0,0,1,5.63,5.62v9a9,9,0,1,1-6.32,16.68,9,9,0,0,1-13.37-6Z"/></clipPath><clipPath id="clip-path-5"><path class="cls-1" d="M37.43,676.18v-8.24a9.94,9.94,0,1,0-19.88,0v8.25a1.91,1.91,0,0,1-1.36,1.75,1.81,1.81,0,0,0,.46,3.56H38.33a1.81,1.81,0,0,0,.46-3.56A1.91,1.91,0,0,1,37.43,676.18ZM25.68,685.1h0a1.81,1.81,0,0,0,3.61,0Zm-3.61,0H16.65A5.42,5.42,0,0,1,13.94,675c0-.55,0-7,0-7a13.56,13.56,0,0,1,10-13.07,3.66,3.66,0,0,1,0-.48,3.61,3.61,0,1,1,7.2.48,13.56,13.56,0,0,1,10,13.08V675a5.42,5.42,0,0,1-2.71,10.11H32.91a5.42,5.42,0,0,1-10.84,0Z"/></clipPath><clipPath id="clip-path-6"><path class="cls-1" d="M18,141.68l-2-2a2,2,0,0,1,2.86-2.86l.6.6L22,134.78a2,2,0,1,1,2.86,2.86l-4,4A2,2,0,0,1,18,141.68Zm0-11.11-2-2a2,2,0,1,1,2.86-2.86l.59.59L22,123.67a2,2,0,0,1,2.86,2.86l-4,4A2,2,0,0,1,18,130.56Zm9.51,9.68a2,2,0,0,1,2-2h8.06a2,2,0,1,1,0,4H29.52A2,2,0,0,1,27.49,140.25Zm0-11.11a2,2,0,0,1,2-2h8.06a2,2,0,1,1,0,4H29.52A2,2,0,0,1,27.49,129.14ZM33.55,118h-4a2,2,0,0,1-4,0h-4a2,2,0,0,1-4,0h-4s0,32.32,0,32.32H41.63s0-32.33,0-32.33h-4a2,2,0,0,1-4,0Zm0-4h0a2,2,0,0,1,4,0h4a4,4,0,0,1,4,4v32.33a4,4,0,0,1-4,4H13.35a4,4,0,0,1-4-4V118a4,4,0,0,1,4-4h4a2,2,0,0,1,4,0h4a2,2,0,0,1,4,0h4Z"/></clipPath><clipPath id="clip-path-7"><path class="cls-1" d="M21.25,241.67a2.08,2.08,0,1,0-2.08-2.08A2.08,2.08,0,0,0,21.25,241.67Zm0,4.15a6.23,6.23,0,1,1,6.23-6.23A6.23,6.23,0,0,1,21.25,245.83ZM8.9,239.15a1.1,1.1,0,0,0,0,1l7.64,11.1a2.54,2.54,0,0,0,1.59.83h28s0-24.93,0-24.93h-28a2.55,2.55,0,0,0-1.59.83Zm4.26,14.49L5.55,242.47a5.19,5.19,0,0,1,0-5.81l7.61-11.11a6.59,6.59,0,0,1,5-2.57h28a4.15,4.15,0,0,1,4.14,4.14v24.94a4.15,4.15,0,0,1-4.14,4.14h-28A6.58,6.58,0,0,1,13.16,253.64Z"/></clipPath><clipPath id="clip-path-8"><path class="cls-1" d="M33.81,577.14a9.94,9.94,0,1,0-9.94-9.94A9.94,9.94,0,0,0,33.81,577.14Zm6.32-21.93A13.56,13.56,0,1,1,27,578.94H13.24a5.62,5.62,0,0,1-5.63-5.63V548.43a5.63,5.63,0,0,1,5.63-5.63H34.51a5.62,5.62,0,0,1,5.63,5.63ZM20.26,567.35a9,9,0,0,1-5.42-8.28v-2.29a3.61,3.61,0,1,1,3.61,0v2.29a5.42,5.42,0,0,0,2.32,4.44,13.59,13.59,0,0,1,7-8.45,3.61,3.61,0,1,1,6.94-1.42v0a13.64,13.64,0,0,1,1.81.24v-7.5H11.22v28.92H23A13.5,13.5,0,0,1,20.26,567.35Zm15.36-2h2.71a1.81,1.81,0,1,1,0,3.61H35.62v2.71a1.81,1.81,0,1,1-3.61,0V569H29.3a1.81,1.81,0,1,1,0-3.61H32v-2.71a1.81,1.81,0,1,1,3.61,0Z"/></clipPath><clipPath id="clip-path-9"><path class="cls-1" d="M16.64,764.2H29.84a2.51,2.51,0,0,1,1.54.63l9.93,9.94a2.51,2.51,0,0,1,.63,1.54v20.42a3.61,3.61,0,0,1-3.62,3.61H16.65A3.62,3.62,0,0,1,13,796.73V767.81A3.61,3.61,0,0,1,16.64,764.2Zm12.66,3.61v9h9Zm-3.61,0h-9s0,28.92,0,28.92H38.33s0-10.53,0-16.27H27.49a1.81,1.81,0,0,1-1.81-1.81Z"/></clipPath><clipPath id="clip-path-10"><path class="cls-1" d="M42.69,442.68a7.24,7.24,0,0,0-1.27-1.06A9.45,9.45,0,0,0,36,440,7,7,0,0,0,31,442.33a22.66,22.66,0,0,0-1.56,2v21A16.25,16.25,0,0,1,36,463.79a16.3,16.3,0,0,1,6.67,1.5Zm-30.4,0v22.61a16.3,16.3,0,0,1,6.67-1.5,16.25,16.25,0,0,1,6.63,1.59v-21a22.67,22.67,0,0,0-1.56-2A7,7,0,0,0,18.94,440a9.45,9.45,0,0,0-5.38,1.58A7.25,7.25,0,0,0,12.28,442.68Zm14,27.37-.52-.33a15.58,15.58,0,0,0-1.66-.87,13.15,13.15,0,0,0-5.2-1.26,13.21,13.21,0,0,0-5.23,1.26,16,16,0,0,0-1.67.88c-.28.17-.47.3-.56.36a1.9,1.9,0,0,1-3-1.54V441.94a1.9,1.9,0,0,1,.37-1.13,10.54,10.54,0,0,1,2.59-2.35,13.24,13.24,0,0,1,7.49-2.22,10.78,10.78,0,0,1,7.78,3.41c.28.28.53.56.77.83.24-.27.49-.55.77-.83A10.78,10.78,0,0,1,36,436.24a13.24,13.24,0,0,1,7.49,2.22,10.54,10.54,0,0,1,2.59,2.35,1.9,1.9,0,0,1,.37,1.13v26.61a1.9,1.9,0,0,1-3,1.54c-.08-.06-.27-.19-.56-.36a16,16,0,0,0-1.67-.88A13.21,13.21,0,0,0,36,467.59a13.15,13.15,0,0,0-5.2,1.26,15.61,15.61,0,0,0-1.66.87l-.52.33-.13.09a1.88,1.88,0,0,1-2.05,0Z"/></clipPath><clipPath id="clip-path-11"><path class="cls-3" d="M32.22,900.09a2.84,2.84,0,1,1,2.84-2.84A2.84,2.84,0,0,1,32.22,900.09Zm-9.47,0a2.84,2.84,0,1,1,2.84-2.84A2.84,2.84,0,0,1,22.75,900.09Zm21.78.95v-5.69a1,1,0,0,0-.95-.94h-.95V902h.95A1,1,0,0,0,44.53,901Zm-33.14-6.63a1,1,0,0,0-.95.94V901a.95.95,0,0,0,1.89,0v-6.63Zm19.38,18.94a3.79,3.79,0,1,1,0-3.79h4.3a3.79,3.79,0,0,0,3.78-3.79V890.62a11.36,11.36,0,0,0-22.73,0V901a4.73,4.73,0,0,1-9.47,0v-5.69a4.74,4.74,0,0,1,4.73-4.73h.95a15.15,15.15,0,0,1,30.3,0h.95a4.74,4.74,0,0,1,4.73,4.73V901a4.73,4.73,0,0,1-4.73,4.73h-.95a7.58,7.58,0,0,1-7.57,7.58Z"/></clipPath><clipPath id="clip-path-12"><path class="cls-4" d="M112.1,354.52a5.42,5.42,0,1,0-5.42-5.42A5.42,5.42,0,0,0,112.1,354.52Zm0-22.09a1.4,1.4,0,0,1,1.4-1.41h2.63a1.4,1.4,0,0,1,1.4,1.41v.8a1.4,1.4,0,0,1-1.4,1.41H113.5a1.4,1.4,0,0,1-1.4-1.41ZM92.22,343.28a1.4,1.4,0,0,1,1.4-1.41h2.63a1.4,1.4,0,0,1,1.4,1.41v.8a1.4,1.4,0,0,1-1.4,1.41H93.62a1.4,1.4,0,0,1-1.4-1.41Zm27.29,11a5.42,5.42,0,1,0,0-10.35,9,9,0,0,1,0,10.35Zm-16.26-7a9,9,0,0,1,1.63-3.61,5.42,5.42,0,1,1,5-3.34,9.1,9.1,0,0,1,2.22-.27,9,9,0,0,1,4.52,1.21,9,9,0,0,1,2.71-1v-11H90.42v18.07Zm0,3.61H92.43a5.62,5.62,0,0,1-5.63-5.62V331.22a5.62,5.62,0,0,1,5.63-5.62h24.89a5.62,5.62,0,0,1,5.63,5.62v9a9,9,0,1,1-6.32,16.68,9,9,0,0,1-13.37-6Z"/></clipPath><clipPath id="clip-path-13"><path class="cls-4" d="M118.43,676.18v-8.24a9.94,9.94,0,1,0-19.88,0v8.25a1.91,1.91,0,0,1-1.36,1.75,1.81,1.81,0,0,0,.46,3.56h21.68a1.81,1.81,0,0,0,.46-3.56A1.91,1.91,0,0,1,118.43,676.18Zm-11.75,8.92h0a1.81,1.81,0,0,0,3.61,0Zm-3.61,0H97.65A5.42,5.42,0,0,1,94.94,675c0-.55,0-7,0-7a13.56,13.56,0,0,1,10-13.07,3.66,3.66,0,0,1,0-.48,3.61,3.61,0,1,1,7.2.48,13.56,13.56,0,0,1,10,13.08V675a5.42,5.42,0,0,1-2.71,10.11h-5.42a5.42,5.42,0,0,1-10.84,0Z"/></clipPath><clipPath id="clip-path-14"><path class="cls-4" d="M99,141.68l-2-2a2,2,0,0,1,2.86-2.86l.6.6,2.61-2.62a2,2,0,1,1,2.86,2.86l-4,4A2,2,0,0,1,99,141.68Zm0-11.11-2-2a2,2,0,0,1,2.86-2.86l.59.59,2.61-2.61a2,2,0,0,1,2.86,2.86l-4,4A2,2,0,0,1,99,130.56Zm9.51,9.68a2,2,0,0,1,2-2h8.06a2,2,0,1,1,0,4h-8.06A2,2,0,0,1,108.49,140.25Zm0-11.11a2,2,0,0,1,2-2h8.06a2,2,0,1,1,0,4h-8.06A2,2,0,0,1,108.49,129.14ZM114.55,118h-4a2,2,0,0,1-4,0h-4a2,2,0,0,1-4,0h-4s0,32.32,0,32.32h28.28s0-32.33,0-32.33h-4a2,2,0,0,1-4,0Zm0-4h0a2,2,0,0,1,4,0h4a4,4,0,0,1,4,4v32.33a4,4,0,0,1-4,4H94.35a4,4,0,0,1-4-4V118a4,4,0,0,1,4-4h4a2,2,0,0,1,4,0h4a2,2,0,0,1,4,0h4Z"/></clipPath><clipPath id="clip-path-15"><path class="cls-4" d="M102.25,241.67a2.08,2.08,0,1,0-2.08-2.08A2.08,2.08,0,0,0,102.25,241.67Zm0,4.15a6.23,6.23,0,1,1,6.23-6.23A6.23,6.23,0,0,1,102.25,245.83ZM89.9,239.15a1.1,1.1,0,0,0,0,1l7.64,11.1a2.54,2.54,0,0,0,1.59.83h28s0-24.93,0-24.93h-28a2.55,2.55,0,0,0-1.59.83Zm4.26,14.49-7.61-11.17a5.19,5.19,0,0,1,0-5.81l7.61-11.11a6.59,6.59,0,0,1,5-2.57h28a4.15,4.15,0,0,1,4.14,4.14v24.94a4.15,4.15,0,0,1-4.14,4.14h-28A6.58,6.58,0,0,1,94.16,253.64Z"/></clipPath><clipPath id="clip-path-16"><path class="cls-4" d="M114.81,577.14a9.94,9.94,0,1,0-9.94-9.94A9.94,9.94,0,0,0,114.81,577.14Zm6.32-21.93A13.56,13.56,0,1,1,108,578.94H94.24a5.62,5.62,0,0,1-5.63-5.63V548.43a5.63,5.63,0,0,1,5.63-5.63h21.27a5.62,5.62,0,0,1,5.63,5.63Zm-19.88,12.14a9,9,0,0,1-5.42-8.28v-2.29a3.61,3.61,0,1,1,3.61,0v2.29a5.42,5.42,0,0,0,2.32,4.44,13.59,13.59,0,0,1,7-8.45,3.61,3.61,0,1,1,6.94-1.42v0a13.64,13.64,0,0,1,1.81.24v-7.5H92.22v28.92H104A13.5,13.5,0,0,1,101.26,567.35Zm15.36-2h2.71a1.81,1.81,0,1,1,0,3.61h-2.71v2.71a1.81,1.81,0,1,1-3.61,0V569H110.3a1.81,1.81,0,1,1,0-3.61H113v-2.71a1.81,1.81,0,1,1,3.61,0Z"/></clipPath><clipPath id="clip-path-17"><path class="cls-4" d="M97.64,764.2h13.21a2.51,2.51,0,0,1,1.54.63l9.93,9.94a2.51,2.51,0,0,1,.63,1.54v20.42a3.61,3.61,0,0,1-3.62,3.61H97.65A3.62,3.62,0,0,1,94,796.73V767.81A3.61,3.61,0,0,1,97.64,764.2Zm12.66,3.61v9h9Zm-3.61,0h-9s0,28.92,0,28.92h21.68s0-10.53,0-16.27H108.49a1.81,1.81,0,0,1-1.81-1.81Z"/></clipPath><clipPath id="clip-path-18"><path class="cls-4" d="M123.69,442.68a7.24,7.24,0,0,0-1.27-1.06A9.45,9.45,0,0,0,117,440a7,7,0,0,0-5.09,2.29,22.66,22.66,0,0,0-1.56,2v21a15.07,15.07,0,0,1,13.3-.09Zm-30.4,0v22.61a15.07,15.07,0,0,1,13.3.09v-21a22.67,22.67,0,0,0-1.56-2A7,7,0,0,0,99.94,440a9.45,9.45,0,0,0-5.38,1.58A7.25,7.25,0,0,0,93.28,442.68Zm14,27.37-.52-.33a15.58,15.58,0,0,0-1.66-.87,11.45,11.45,0,0,0-10.43,0,16,16,0,0,0-1.67.88c-.28.17-.47.3-.56.36a1.9,1.9,0,0,1-3-1.54V441.94a1.9,1.9,0,0,1,.37-1.13,10.54,10.54,0,0,1,2.59-2.35,13.24,13.24,0,0,1,7.49-2.22,10.78,10.78,0,0,1,7.78,3.41c.28.28.53.56.77.83.24-.27.49-.55.77-.83a10.78,10.78,0,0,1,7.78-3.41,13.24,13.24,0,0,1,7.49,2.22,10.54,10.54,0,0,1,2.59,2.35,1.9,1.9,0,0,1,.37,1.13v26.61a1.9,1.9,0,0,1-3,1.54c-.08-.06-.27-.19-.56-.36a16,16,0,0,0-1.67-.88,11.45,11.45,0,0,0-10.43,0,15.61,15.61,0,0,0-1.66.87l-.52.33-.13.09a1.88,1.88,0,0,1-2.05,0Z"/></clipPath><clipPath id="clip-path-19"><path class="cls-4" d="M113.22,900.09a2.84,2.84,0,1,1,2.84-2.84A2.84,2.84,0,0,1,113.22,900.09Zm-9.47,0a2.84,2.84,0,1,1,2.84-2.84A2.84,2.84,0,0,1,103.75,900.09Zm21.78.95v-5.69a1,1,0,0,0-.95-.94h-.95V902h.95A1,1,0,0,0,125.53,901Zm-33.14-6.63a1,1,0,0,0-.95.94V901a.95.95,0,0,0,1.89,0v-6.63Zm19.38,18.94a3.79,3.79,0,1,1,0-3.79h4.3a3.79,3.79,0,0,0,3.78-3.79V890.62a11.36,11.36,0,0,0-22.73,0V901a4.73,4.73,0,0,1-9.47,0v-5.69a4.74,4.74,0,0,1,4.73-4.73h.95a15.15,15.15,0,0,1,30.3,0h.95a4.74,4.74,0,0,1,4.73,4.73V901a4.73,4.73,0,0,1-4.73,4.73h-.95a7.58,7.58,0,0,1-7.57,7.58Z"/></clipPath></defs><title>Minha-conta-black</title><path class="cls-5" d="M39.41,32.31H15.53L13.11,41H41.86ZM17.77,27.95a13.07,13.07,0,1,1,19.49,0h3.3a3,3,0,0,1,2.75,2.1L47,43.28a1.57,1.57,0,0,1-1.6,2.11l-35.8,0A1.57,1.57,0,0,1,8,43.31l3.66-13.25a3,3,0,0,1,2.75-2.11ZM18.83,20a8.72,8.72,0,1,0,16.12-5.35c-2.66,2.37-8.57,2.37-11.62,2.37A5.48,5.48,0,0,0,18.83,20Z"/><g class="cls-6"><rect class="cls-7" x="-344.71" y="-967.88" width="2442.87" height="4770.39"/><g class="cls-8"><rect class="cls-2" x="-0.58" y="-2.32" width="56.13" height="56.22"/></g><rect class="cls-9" x="-344.71" y="-967.88" width="2442.87" height="4770.39"/></g><path class="cls-10" d="M39.41,32.31H15.53L13.11,41H41.86ZM17.77,27.95a13.07,13.07,0,1,1,19.49,0h3.3a3,3,0,0,1,2.75,2.1L47,43.28a1.57,1.57,0,0,1-1.6,2.11l-35.8,0A1.57,1.57,0,0,1,8,43.31l3.66-13.25a3,3,0,0,1,2.75-2.11ZM18.83,20a8.72,8.72,0,1,0,16.12-5.35c-2.66,2.37-8.57,2.37-11.62,2.37A5.48,5.48,0,0,0,18.83,20Z"/><path class="cls-11" d="M120.41,32.31H96.53L94.11,41h28.74ZM98.77,27.95a13.07,13.07,0,1,1,19.49,0h3.3a3,3,0,0,1,2.75,2.1L128,43.28a1.57,1.57,0,0,1-1.6,2.11l-35.8,0A1.57,1.57,0,0,1,89,43.31l3.66-13.25a3,3,0,0,1,2.75-2.11ZM99.83,20a8.72,8.72,0,1,0,16.12-5.35c-2.66,2.37-8.57,2.37-11.62,2.37A5.48,5.48,0,0,0,99.83,20Z"/><g class="cls-12"><rect class="cls-13" x="-263.71" y="-967.88" width="2442.87" height="4770.39"/><rect class="cls-14" x="-263.71" y="-967.88" width="2442.87" height="4770.39"/></g><path class="cls-15" d="M120.41,32.31H96.53L94.11,41h28.74ZM98.77,27.95a13.07,13.07,0,1,1,19.49,0h3.3a3,3,0,0,1,2.75,2.1L128,43.28a1.57,1.57,0,0,1-1.6,2.11l-35.8,0A1.57,1.57,0,0,1,89,43.31l3.66-13.25a3,3,0,0,1,2.75-2.11ZM99.83,20a8.72,8.72,0,1,0,16.12-5.35c-2.66,2.37-8.57,2.37-11.62,2.37A5.48,5.48,0,0,0,99.83,20Z"/><path class="cls-5" d="M31.1,354.52a5.42,5.42,0,1,0-5.42-5.42A5.42,5.42,0,0,0,31.1,354.52Zm0-22.09A1.4,1.4,0,0,1,32.5,331h2.63a1.4,1.4,0,0,1,1.4,1.41v.8a1.4,1.4,0,0,1-1.4,1.41H32.5a1.4,1.4,0,0,1-1.4-1.41ZM11.22,343.28a1.4,1.4,0,0,1,1.4-1.41h2.63a1.4,1.4,0,0,1,1.4,1.41v.8a1.4,1.4,0,0,1-1.4,1.41H12.62a1.4,1.4,0,0,1-1.4-1.41Zm27.29,11a5.42,5.42,0,1,0,0-10.35,9,9,0,0,1,0,10.35Zm-16.26-7a9,9,0,0,1,1.63-3.61,5.42,5.42,0,1,1,5-3.34,9.1,9.1,0,0,1,2.22-.27,9,9,0,0,1,4.52,1.21,9,9,0,0,1,2.71-1v-11H9.42v18.07Zm0,3.61H11.43a5.62,5.62,0,0,1-5.63-5.62V331.22a5.62,5.62,0,0,1,5.63-5.62H36.32a5.62,5.62,0,0,1,5.63,5.62v9a9,9,0,1,1-6.32,16.68,9,9,0,0,1-13.37-6Z"/><g class="cls-16"><rect class="cls-7" x="-714.93" y="-1870.22" width="2026.04" height="3956.4"/><rect class="cls-9" x="-714.93" y="-1870.22" width="2026.04" height="3956.4"/></g><path class="cls-10" d="M31.1,354.52a5.42,5.42,0,1,0-5.42-5.42A5.42,5.42,0,0,0,31.1,354.52Zm0-22.09A1.4,1.4,0,0,1,32.5,331h2.63a1.4,1.4,0,0,1,1.4,1.41v.8a1.4,1.4,0,0,1-1.4,1.41H32.5a1.4,1.4,0,0,1-1.4-1.41ZM11.22,343.28a1.4,1.4,0,0,1,1.4-1.41h2.63a1.4,1.4,0,0,1,1.4,1.41v.8a1.4,1.4,0,0,1-1.4,1.41H12.62a1.4,1.4,0,0,1-1.4-1.41Zm27.29,11a5.42,5.42,0,1,0,0-10.35,9,9,0,0,1,0,10.35Zm-16.26-7a9,9,0,0,1,1.63-3.61,5.42,5.42,0,1,1,5-3.34,9.1,9.1,0,0,1,2.22-.27,9,9,0,0,1,4.52,1.21,9,9,0,0,1,2.71-1v-11H9.42v18.07Zm0,3.61H11.43a5.62,5.62,0,0,1-5.63-5.62V331.22a5.62,5.62,0,0,1,5.63-5.62H36.32a5.62,5.62,0,0,1,5.63,5.62v9a9,9,0,1,1-6.32,16.68,9,9,0,0,1-13.37-6Z"/><path class="cls-5" d="M37.43,676.18v-8.24a9.94,9.94,0,1,0-19.88,0v8.25a1.91,1.91,0,0,1-1.36,1.75,1.81,1.81,0,0,0,.46,3.56H38.33a1.81,1.81,0,0,0,.46-3.56A1.91,1.91,0,0,1,37.43,676.18ZM25.68,685.1h0a1.81,1.81,0,0,0,3.61,0Zm-3.61,0H16.65A5.42,5.42,0,0,1,13.94,675c0-.55,0-7,0-7a13.56,13.56,0,0,1,10-13.07,3.66,3.66,0,0,1,0-.48,3.61,3.61,0,1,1,7.2.48,13.56,13.56,0,0,1,10,13.08V675a5.42,5.42,0,0,1-2.71,10.11H32.91a5.42,5.42,0,0,1-10.84,0Z"/><g class="cls-17"><rect class="cls-7" x="-1235.38" y="-2148.68" width="2026.04" height="3956.4"/><rect class="cls-9" x="-1235.38" y="-2148.68" width="2026.04" height="3956.4"/></g><path class="cls-10" d="M37.43,676.18v-8.24a9.94,9.94,0,1,0-19.88,0v8.25a1.91,1.91,0,0,1-1.36,1.75,1.81,1.81,0,0,0,.46,3.56H38.33a1.81,1.81,0,0,0,.46-3.56A1.91,1.91,0,0,1,37.43,676.18ZM25.68,685.1h0a1.81,1.81,0,0,0,3.61,0Zm-3.61,0H16.65A5.42,5.42,0,0,1,13.94,675c0-.55,0-7,0-7a13.56,13.56,0,0,1,10-13.07,3.66,3.66,0,0,1,0-.48,3.61,3.61,0,1,1,7.2.48,13.56,13.56,0,0,1,10,13.08V675a5.42,5.42,0,0,1-2.71,10.11H32.91a5.42,5.42,0,0,1-10.84,0Z"/><path class="cls-5" d="M18,141.68l-2-2a2,2,0,0,1,2.86-2.86l.6.6L22,134.78a2,2,0,1,1,2.86,2.86l-4,4A2,2,0,0,1,18,141.68Zm0-11.11-2-2a2,2,0,1,1,2.86-2.86l.59.59L22,123.67a2,2,0,0,1,2.86,2.86l-4,4A2,2,0,0,1,18,130.56Zm9.51,9.68a2,2,0,0,1,2-2h8.06a2,2,0,1,1,0,4H29.52A2,2,0,0,1,27.49,140.25Zm0-11.11a2,2,0,0,1,2-2h8.06a2,2,0,1,1,0,4H29.52A2,2,0,0,1,27.49,129.14ZM33.55,118h-4a2,2,0,0,1-4,0h-4a2,2,0,0,1-4,0h-4s0,32.32,0,32.32H41.63s0-32.33,0-32.33h-4a2,2,0,0,1-4,0Zm0-4h0a2,2,0,0,1,4,0h4a4,4,0,0,1,4,4v32.33a4,4,0,0,1-4,4H13.35a4,4,0,0,1-4-4V118a4,4,0,0,1,4-4h4a2,2,0,0,1,4,0h4a2,2,0,0,1,4,0h4Z"/><g class="cls-18"><rect class="cls-7" x="-705.46" y="-2532.55" width="2264.82" height="4422.68"/><rect class="cls-9" x="-705.46" y="-2532.55" width="2264.82" height="4422.68"/></g><path class="cls-10" d="M18,141.68l-2-2a2,2,0,0,1,2.86-2.86l.6.6L22,134.78a2,2,0,1,1,2.86,2.86l-4,4A2,2,0,0,1,18,141.68Zm0-11.11-2-2a2,2,0,1,1,2.86-2.86l.59.59L22,123.67a2,2,0,0,1,2.86,2.86l-4,4A2,2,0,0,1,18,130.56Zm9.51,9.68a2,2,0,0,1,2-2h8.06a2,2,0,1,1,0,4H29.52A2,2,0,0,1,27.49,140.25Zm0-11.11a2,2,0,0,1,2-2h8.06a2,2,0,1,1,0,4H29.52A2,2,0,0,1,27.49,129.14ZM33.55,118h-4a2,2,0,0,1-4,0h-4a2,2,0,0,1-4,0h-4s0,32.32,0,32.32H41.63s0-32.33,0-32.33h-4a2,2,0,0,1-4,0Zm0-4h0a2,2,0,0,1,4,0h4a4,4,0,0,1,4,4v32.33a4,4,0,0,1-4,4H13.35a4,4,0,0,1-4-4V118a4,4,0,0,1,4-4h4a2,2,0,0,1,4,0h4a2,2,0,0,1,4,0h4Z"/><path class="cls-5" d="M21.25,241.67a2.08,2.08,0,1,0-2.08-2.08A2.08,2.08,0,0,0,21.25,241.67Zm0,4.15a6.23,6.23,0,1,1,6.23-6.23A6.23,6.23,0,0,1,21.25,245.83ZM8.9,239.15a1.1,1.1,0,0,0,0,1l7.64,11.1a2.54,2.54,0,0,0,1.59.83h28s0-24.93,0-24.93h-28a2.55,2.55,0,0,0-1.59.83Zm4.26,14.49L5.55,242.47a5.19,5.19,0,0,1,0-5.81l7.61-11.11a6.59,6.59,0,0,1,5-2.57h28a4.15,4.15,0,0,1,4.14,4.14v24.94a4.15,4.15,0,0,1-4.14,4.14h-28A6.58,6.58,0,0,1,13.16,253.64Z"/><g class="cls-19"><rect class="cls-7" x="-825.52" y="-3298.66" width="2327.81" height="4545.69"/><rect class="cls-9" x="-825.52" y="-3298.66" width="2327.81" height="4545.69"/></g><path class="cls-10" d="M21.25,241.67a2.08,2.08,0,1,0-2.08-2.08A2.08,2.08,0,0,0,21.25,241.67Zm0,4.15a6.23,6.23,0,1,1,6.23-6.23A6.23,6.23,0,0,1,21.25,245.83ZM8.9,239.15a1.1,1.1,0,0,0,0,1l7.64,11.1a2.54,2.54,0,0,0,1.59.83h28s0-24.93,0-24.93h-28a2.55,2.55,0,0,0-1.59.83Zm4.26,14.49L5.55,242.47a5.19,5.19,0,0,1,0-5.81l7.61-11.11a6.59,6.59,0,0,1,5-2.57h28a4.15,4.15,0,0,1,4.14,4.14v24.94a4.15,4.15,0,0,1-4.14,4.14h-28A6.58,6.58,0,0,1,13.16,253.64Z"/><path class="cls-5" d="M33.81,577.14a9.94,9.94,0,1,0-9.94-9.94A9.94,9.94,0,0,0,33.81,577.14Zm6.32-21.93A13.56,13.56,0,1,1,27,578.94H13.24a5.62,5.62,0,0,1-5.63-5.63V548.43a5.63,5.63,0,0,1,5.63-5.63H34.51a5.62,5.62,0,0,1,5.63,5.63ZM20.26,567.35a9,9,0,0,1-5.42-8.28v-2.29a3.61,3.61,0,1,1,3.61,0v2.29a5.42,5.42,0,0,0,2.32,4.44,13.59,13.59,0,0,1,7-8.45,3.61,3.61,0,1,1,6.94-1.42v0a13.64,13.64,0,0,1,1.81.24v-7.5H11.22v28.92H23A13.5,13.5,0,0,1,20.26,567.35Zm15.36-2h2.71a1.81,1.81,0,1,1,0,3.61H35.62v2.71a1.81,1.81,0,1,1-3.61,0V569H29.3a1.81,1.81,0,1,1,0-3.61H32v-2.71a1.81,1.81,0,1,1,3.61,0Z"/><g class="cls-20"><rect class="cls-7" x="-801.67" y="-1737.96" width="2026.04" height="3956.4"/><rect class="cls-9" x="-801.67" y="-1737.96" width="2026.04" height="3956.4"/></g><path class="cls-10" d="M33.81,577.14a9.94,9.94,0,1,0-9.94-9.94A9.94,9.94,0,0,0,33.81,577.14Zm6.32-21.93A13.56,13.56,0,1,1,27,578.94H13.24a5.62,5.62,0,0,1-5.63-5.63V548.43a5.63,5.63,0,0,1,5.63-5.63H34.51a5.62,5.62,0,0,1,5.63,5.63ZM20.26,567.35a9,9,0,0,1-5.42-8.28v-2.29a3.61,3.61,0,1,1,3.61,0v2.29a5.42,5.42,0,0,0,2.32,4.44,13.59,13.59,0,0,1,7-8.45,3.61,3.61,0,1,1,6.94-1.42v0a13.64,13.64,0,0,1,1.81.24v-7.5H11.22v28.92H23A13.5,13.5,0,0,1,20.26,567.35Zm15.36-2h2.71a1.81,1.81,0,1,1,0,3.61H35.62v2.71a1.81,1.81,0,1,1-3.61,0V569H29.3a1.81,1.81,0,1,1,0-3.61H32v-2.71a1.81,1.81,0,1,1,3.61,0Z"/><path class="cls-5" d="M16.64,764.2H29.84a2.51,2.51,0,0,1,1.54.63l9.93,9.94a2.51,2.51,0,0,1,.63,1.54v20.42a3.61,3.61,0,0,1-3.62,3.61H16.65A3.62,3.62,0,0,1,13,796.73V767.81A3.61,3.61,0,0,1,16.64,764.2Zm12.66,3.61v9h9Zm-3.61,0h-9s0,28.92,0,28.92H38.33s0-10.53,0-16.27H27.49a1.81,1.81,0,0,1-1.81-1.81Z"/><g class="cls-21"><rect class="cls-7" x="-281.22" y="-2644.3" width="2026.04" height="3956.4"/><rect class="cls-9" x="-281.22" y="-2644.3" width="2026.04" height="3956.4"/></g><path class="cls-10" d="M16.64,764.2H29.84a2.51,2.51,0,0,1,1.54.63l9.93,9.94a2.51,2.51,0,0,1,.63,1.54v20.42a3.61,3.61,0,0,1-3.62,3.61H16.65A3.62,3.62,0,0,1,13,796.73V767.81A3.61,3.61,0,0,1,16.64,764.2Zm12.66,3.61v9h9Zm-3.61,0h-9s0,28.92,0,28.92H38.33s0-10.53,0-16.27H27.49a1.81,1.81,0,0,1-1.81-1.81Z"/><path class="cls-5" d="M42.69,442.68a7.24,7.24,0,0,0-1.27-1.06A9.45,9.45,0,0,0,36,440,7,7,0,0,0,31,442.33a22.66,22.66,0,0,0-1.56,2v21A16.25,16.25,0,0,1,36,463.79a16.3,16.3,0,0,1,6.67,1.5Zm-30.4,0v22.61a16.3,16.3,0,0,1,6.67-1.5,16.25,16.25,0,0,1,6.63,1.59v-21a22.67,22.67,0,0,0-1.56-2A7,7,0,0,0,18.94,440a9.45,9.45,0,0,0-5.38,1.58A7.25,7.25,0,0,0,12.28,442.68Zm14,27.37-.52-.33a15.58,15.58,0,0,0-1.66-.87,13.15,13.15,0,0,0-5.2-1.26,13.21,13.21,0,0,0-5.23,1.26,16,16,0,0,0-1.67.88c-.28.17-.47.3-.56.36a1.9,1.9,0,0,1-3-1.54V441.94a1.9,1.9,0,0,1,.37-1.13,10.54,10.54,0,0,1,2.59-2.35,13.24,13.24,0,0,1,7.49-2.22,10.78,10.78,0,0,1,7.78,3.41c.28.28.53.56.77.83.24-.27.49-.55.77-.83A10.78,10.78,0,0,1,36,436.24a13.24,13.24,0,0,1,7.49,2.22,10.54,10.54,0,0,1,2.59,2.35,1.9,1.9,0,0,1,.37,1.13v26.61a1.9,1.9,0,0,1-3,1.54c-.08-.06-.27-.19-.56-.36a16,16,0,0,0-1.67-.88A13.21,13.21,0,0,0,36,467.59a13.15,13.15,0,0,0-5.2,1.26,15.61,15.61,0,0,0-1.66.87l-.52.33-.13.09a1.88,1.88,0,0,1-2.05,0Z"/><g class="cls-22"><rect class="cls-7" x="-388.35" y="-2693.76" width="2130.48" height="4160.35"/><rect class="cls-9" x="-388.35" y="-2693.76" width="2130.48" height="4160.35"/></g><path class="cls-10" d="M42.69,442.68a7.24,7.24,0,0,0-1.27-1.06A9.45,9.45,0,0,0,36,440,7,7,0,0,0,31,442.33a22.66,22.66,0,0,0-1.56,2v21A16.25,16.25,0,0,1,36,463.79a16.3,16.3,0,0,1,6.67,1.5Zm-30.4,0v22.61a16.3,16.3,0,0,1,6.67-1.5,16.25,16.25,0,0,1,6.63,1.59v-21a22.67,22.67,0,0,0-1.56-2A7,7,0,0,0,18.94,440a9.45,9.45,0,0,0-5.38,1.58A7.25,7.25,0,0,0,12.28,442.68Zm14,27.37-.52-.33a15.58,15.58,0,0,0-1.66-.87,13.15,13.15,0,0,0-5.2-1.26,13.21,13.21,0,0,0-5.23,1.26,16,16,0,0,0-1.67.88c-.28.17-.47.3-.56.36a1.9,1.9,0,0,1-3-1.54V441.94a1.9,1.9,0,0,1,.37-1.13,10.54,10.54,0,0,1,2.59-2.35,13.24,13.24,0,0,1,7.49-2.22,10.78,10.78,0,0,1,7.78,3.41c.28.28.53.56.77.83.24-.27.49-.55.77-.83A10.78,10.78,0,0,1,36,436.24a13.24,13.24,0,0,1,7.49,2.22,10.54,10.54,0,0,1,2.59,2.35,1.9,1.9,0,0,1,.37,1.13v26.61a1.9,1.9,0,0,1-3,1.54c-.08-.06-.27-.19-.56-.36a16,16,0,0,0-1.67-.88A13.21,13.21,0,0,0,36,467.59a13.15,13.15,0,0,0-5.2,1.26,15.61,15.61,0,0,0-1.66.87l-.52.33-.13.09a1.88,1.88,0,0,1-2.05,0Z"/><path class="cls-5" d="M32.22,900.09a2.84,2.84,0,1,1,2.84-2.84A2.84,2.84,0,0,1,32.22,900.09Zm-9.47,0a2.84,2.84,0,1,1,2.84-2.84A2.84,2.84,0,0,1,22.75,900.09Zm21.78.95v-5.69a1,1,0,0,0-.95-.94h-.95V902h.95A1,1,0,0,0,44.53,901Zm-33.14-6.63a1,1,0,0,0-.95.94V901a.95.95,0,0,0,1.89,0v-6.63Zm19.38,18.94a3.79,3.79,0,1,1,0-3.79h4.3a3.79,3.79,0,0,0,3.78-3.79V890.62a11.36,11.36,0,0,0-22.73,0V901a4.73,4.73,0,0,1-9.47,0v-5.69a4.74,4.74,0,0,1,4.73-4.73h.95a15.15,15.15,0,0,1,30.3,0h.95a4.74,4.74,0,0,1,4.73,4.73V901a4.73,4.73,0,0,1-4.73,4.73h-.95a7.58,7.58,0,0,1-7.57,7.58Z"/><g class="cls-23"><rect class="cls-7" x="-1477.86" y="-1513.91" width="2123.37" height="4146.46"/><rect class="cls-24" x="-1477.86" y="-1513.91" width="2123.37" height="4146.46"/></g><path class="cls-25" d="M32.22,900.09a2.84,2.84,0,1,1,2.84-2.84A2.84,2.84,0,0,1,32.22,900.09Zm-9.47,0a2.84,2.84,0,1,1,2.84-2.84A2.84,2.84,0,0,1,22.75,900.09Zm21.78.95v-5.69a1,1,0,0,0-.95-.94h-.95V902h.95A1,1,0,0,0,44.53,901Zm-33.14-6.63a1,1,0,0,0-.95.94V901a.95.95,0,0,0,1.89,0v-6.63Zm19.38,18.94a3.79,3.79,0,1,1,0-3.79h4.3a3.79,3.79,0,0,0,3.78-3.79V890.62a11.36,11.36,0,0,0-22.73,0V901a4.73,4.73,0,0,1-9.47,0v-5.69a4.74,4.74,0,0,1,4.73-4.73h.95a15.15,15.15,0,0,1,30.3,0h.95a4.74,4.74,0,0,1,4.73,4.73V901a4.73,4.73,0,0,1-4.73,4.73h-.95a7.58,7.58,0,0,1-7.57,7.58Z"/><path class="cls-11" d="M112.1,354.52a5.42,5.42,0,1,0-5.42-5.42A5.42,5.42,0,0,0,112.1,354.52Zm0-22.09a1.4,1.4,0,0,1,1.4-1.41h2.63a1.4,1.4,0,0,1,1.4,1.41v.8a1.4,1.4,0,0,1-1.4,1.41H113.5a1.4,1.4,0,0,1-1.4-1.41ZM92.22,343.28a1.4,1.4,0,0,1,1.4-1.41h2.63a1.4,1.4,0,0,1,1.4,1.41v.8a1.4,1.4,0,0,1-1.4,1.41H93.62a1.4,1.4,0,0,1-1.4-1.41Zm27.29,11a5.42,5.42,0,1,0,0-10.35,9,9,0,0,1,0,10.35Zm-16.26-7a9,9,0,0,1,1.63-3.61,5.42,5.42,0,1,1,5-3.34,9.1,9.1,0,0,1,2.22-.27,9,9,0,0,1,4.52,1.21,9,9,0,0,1,2.71-1v-11H90.42v18.07Zm0,3.61H92.43a5.62,5.62,0,0,1-5.63-5.62V331.22a5.62,5.62,0,0,1,5.63-5.62h24.89a5.62,5.62,0,0,1,5.63,5.62v9a9,9,0,1,1-6.32,16.68,9,9,0,0,1-13.37-6Z"/><g class="cls-26"><rect class="cls-13" x="-633.93" y="-1870.22" width="2026.04" height="3956.4"/><rect class="cls-14" x="-633.93" y="-1870.22" width="2026.04" height="3956.4"/></g><path class="cls-15" d="M112.1,354.52a5.42,5.42,0,1,0-5.42-5.42A5.42,5.42,0,0,0,112.1,354.52Zm0-22.09a1.4,1.4,0,0,1,1.4-1.41h2.63a1.4,1.4,0,0,1,1.4,1.41v.8a1.4,1.4,0,0,1-1.4,1.41H113.5a1.4,1.4,0,0,1-1.4-1.41ZM92.22,343.28a1.4,1.4,0,0,1,1.4-1.41h2.63a1.4,1.4,0,0,1,1.4,1.41v.8a1.4,1.4,0,0,1-1.4,1.41H93.62a1.4,1.4,0,0,1-1.4-1.41Zm27.29,11a5.42,5.42,0,1,0,0-10.35,9,9,0,0,1,0,10.35Zm-16.26-7a9,9,0,0,1,1.63-3.61,5.42,5.42,0,1,1,5-3.34,9.1,9.1,0,0,1,2.22-.27,9,9,0,0,1,4.52,1.21,9,9,0,0,1,2.71-1v-11H90.42v18.07Zm0,3.61H92.43a5.62,5.62,0,0,1-5.63-5.62V331.22a5.62,5.62,0,0,1,5.63-5.62h24.89a5.62,5.62,0,0,1,5.63,5.62v9a9,9,0,1,1-6.32,16.68,9,9,0,0,1-13.37-6Z"/><path class="cls-11" d="M118.43,676.18v-8.24a9.94,9.94,0,1,0-19.88,0v8.25a1.91,1.91,0,0,1-1.36,1.75,1.81,1.81,0,0,0,.46,3.56h21.68a1.81,1.81,0,0,0,.46-3.56A1.91,1.91,0,0,1,118.43,676.18Zm-11.75,8.92h0a1.81,1.81,0,0,0,3.61,0Zm-3.61,0H97.65A5.42,5.42,0,0,1,94.94,675c0-.55,0-7,0-7a13.56,13.56,0,0,1,10-13.07,3.66,3.66,0,0,1,0-.48,3.61,3.61,0,1,1,7.2.48,13.56,13.56,0,0,1,10,13.08V675a5.42,5.42,0,0,1-2.71,10.11h-5.42a5.42,5.42,0,0,1-10.84,0Z"/><g class="cls-27"><rect class="cls-13" x="-1154.38" y="-2148.68" width="2026.04" height="3956.4"/><rect class="cls-14" x="-1154.38" y="-2148.68" width="2026.04" height="3956.4"/></g><path class="cls-15" d="M118.43,676.18v-8.24a9.94,9.94,0,1,0-19.88,0v8.25a1.91,1.91,0,0,1-1.36,1.75,1.81,1.81,0,0,0,.46,3.56h21.68a1.81,1.81,0,0,0,.46-3.56A1.91,1.91,0,0,1,118.43,676.18Zm-11.75,8.92h0a1.81,1.81,0,0,0,3.61,0Zm-3.61,0H97.65A5.42,5.42,0,0,1,94.94,675c0-.55,0-7,0-7a13.56,13.56,0,0,1,10-13.07,3.66,3.66,0,0,1,0-.48,3.61,3.61,0,1,1,7.2.48,13.56,13.56,0,0,1,10,13.08V675a5.42,5.42,0,0,1-2.71,10.11h-5.42a5.42,5.42,0,0,1-10.84,0Z"/><path class="cls-11" d="M99,141.68l-2-2a2,2,0,0,1,2.86-2.86l.6.6,2.61-2.62a2,2,0,1,1,2.86,2.86l-4,4A2,2,0,0,1,99,141.68Zm0-11.11-2-2a2,2,0,0,1,2.86-2.86l.59.59,2.61-2.61a2,2,0,0,1,2.86,2.86l-4,4A2,2,0,0,1,99,130.56Zm9.51,9.68a2,2,0,0,1,2-2h8.06a2,2,0,1,1,0,4h-8.06A2,2,0,0,1,108.49,140.25Zm0-11.11a2,2,0,0,1,2-2h8.06a2,2,0,1,1,0,4h-8.06A2,2,0,0,1,108.49,129.14ZM114.55,118h-4a2,2,0,0,1-4,0h-4a2,2,0,0,1-4,0h-4s0,32.32,0,32.32h28.28s0-32.33,0-32.33h-4a2,2,0,0,1-4,0Zm0-4h0a2,2,0,0,1,4,0h4a4,4,0,0,1,4,4v32.33a4,4,0,0,1-4,4H94.35a4,4,0,0,1-4-4V118a4,4,0,0,1,4-4h4a2,2,0,0,1,4,0h4a2,2,0,0,1,4,0h4Z"/><g class="cls-28"><rect class="cls-13" x="-624.46" y="-2532.55" width="2264.82" height="4422.68"/><rect class="cls-14" x="-624.46" y="-2532.55" width="2264.82" height="4422.68"/></g><path class="cls-15" d="M99,141.68l-2-2a2,2,0,0,1,2.86-2.86l.6.6,2.61-2.62a2,2,0,1,1,2.86,2.86l-4,4A2,2,0,0,1,99,141.68Zm0-11.11-2-2a2,2,0,0,1,2.86-2.86l.59.59,2.61-2.61a2,2,0,0,1,2.86,2.86l-4,4A2,2,0,0,1,99,130.56Zm9.51,9.68a2,2,0,0,1,2-2h8.06a2,2,0,1,1,0,4h-8.06A2,2,0,0,1,108.49,140.25Zm0-11.11a2,2,0,0,1,2-2h8.06a2,2,0,1,1,0,4h-8.06A2,2,0,0,1,108.49,129.14ZM114.55,118h-4a2,2,0,0,1-4,0h-4a2,2,0,0,1-4,0h-4s0,32.32,0,32.32h28.28s0-32.33,0-32.33h-4a2,2,0,0,1-4,0Zm0-4h0a2,2,0,0,1,4,0h4a4,4,0,0,1,4,4v32.33a4,4,0,0,1-4,4H94.35a4,4,0,0,1-4-4V118a4,4,0,0,1,4-4h4a2,2,0,0,1,4,0h4a2,2,0,0,1,4,0h4Z"/><path class="cls-11" d="M102.25,241.67a2.08,2.08,0,1,0-2.08-2.08A2.08,2.08,0,0,0,102.25,241.67Zm0,4.15a6.23,6.23,0,1,1,6.23-6.23A6.23,6.23,0,0,1,102.25,245.83ZM89.9,239.15a1.1,1.1,0,0,0,0,1l7.64,11.1a2.54,2.54,0,0,0,1.59.83h28s0-24.93,0-24.93h-28a2.55,2.55,0,0,0-1.59.83Zm4.26,14.49-7.61-11.17a5.19,5.19,0,0,1,0-5.81l7.61-11.11a6.59,6.59,0,0,1,5-2.57h28a4.15,4.15,0,0,1,4.14,4.14v24.94a4.15,4.15,0,0,1-4.14,4.14h-28A6.58,6.58,0,0,1,94.16,253.64Z"/><g class="cls-29"><rect class="cls-13" x="-744.52" y="-3298.66" width="2327.81" height="4545.69"/><rect class="cls-14" x="-744.52" y="-3298.66" width="2327.81" height="4545.69"/></g><path class="cls-15" d="M102.25,241.67a2.08,2.08,0,1,0-2.08-2.08A2.08,2.08,0,0,0,102.25,241.67Zm0,4.15a6.23,6.23,0,1,1,6.23-6.23A6.23,6.23,0,0,1,102.25,245.83ZM89.9,239.15a1.1,1.1,0,0,0,0,1l7.64,11.1a2.54,2.54,0,0,0,1.59.83h28s0-24.93,0-24.93h-28a2.55,2.55,0,0,0-1.59.83Zm4.26,14.49-7.61-11.17a5.19,5.19,0,0,1,0-5.81l7.61-11.11a6.59,6.59,0,0,1,5-2.57h28a4.15,4.15,0,0,1,4.14,4.14v24.94a4.15,4.15,0,0,1-4.14,4.14h-28A6.58,6.58,0,0,1,94.16,253.64Z"/><path class="cls-11" d="M114.81,577.14a9.94,9.94,0,1,0-9.94-9.94A9.94,9.94,0,0,0,114.81,577.14Zm6.32-21.93A13.56,13.56,0,1,1,108,578.94H94.24a5.62,5.62,0,0,1-5.63-5.63V548.43a5.63,5.63,0,0,1,5.63-5.63h21.27a5.62,5.62,0,0,1,5.63,5.63Zm-19.88,12.14a9,9,0,0,1-5.42-8.28v-2.29a3.61,3.61,0,1,1,3.61,0v2.29a5.42,5.42,0,0,0,2.32,4.44,13.59,13.59,0,0,1,7-8.45,3.61,3.61,0,1,1,6.94-1.42v0a13.64,13.64,0,0,1,1.81.24v-7.5H92.22v28.92H104A13.5,13.5,0,0,1,101.26,567.35Zm15.36-2h2.71a1.81,1.81,0,1,1,0,3.61h-2.71v2.71a1.81,1.81,0,1,1-3.61,0V569H110.3a1.81,1.81,0,1,1,0-3.61H113v-2.71a1.81,1.81,0,1,1,3.61,0Z"/><g class="cls-30"><rect class="cls-13" x="-720.67" y="-1737.96" width="2026.04" height="3956.4"/><rect class="cls-14" x="-720.67" y="-1737.96" width="2026.04" height="3956.4"/></g><path class="cls-15" d="M114.81,577.14a9.94,9.94,0,1,0-9.94-9.94A9.94,9.94,0,0,0,114.81,577.14Zm6.32-21.93A13.56,13.56,0,1,1,108,578.94H94.24a5.62,5.62,0,0,1-5.63-5.63V548.43a5.63,5.63,0,0,1,5.63-5.63h21.27a5.62,5.62,0,0,1,5.63,5.63Zm-19.88,12.14a9,9,0,0,1-5.42-8.28v-2.29a3.61,3.61,0,1,1,3.61,0v2.29a5.42,5.42,0,0,0,2.32,4.44,13.59,13.59,0,0,1,7-8.45,3.61,3.61,0,1,1,6.94-1.42v0a13.64,13.64,0,0,1,1.81.24v-7.5H92.22v28.92H104A13.5,13.5,0,0,1,101.26,567.35Zm15.36-2h2.71a1.81,1.81,0,1,1,0,3.61h-2.71v2.71a1.81,1.81,0,1,1-3.61,0V569H110.3a1.81,1.81,0,1,1,0-3.61H113v-2.71a1.81,1.81,0,1,1,3.61,0Z"/><path class="cls-11" d="M97.64,764.2h13.21a2.51,2.51,0,0,1,1.54.63l9.93,9.94a2.51,2.51,0,0,1,.63,1.54v20.42a3.61,3.61,0,0,1-3.62,3.61H97.65A3.62,3.62,0,0,1,94,796.73V767.81A3.61,3.61,0,0,1,97.64,764.2Zm12.66,3.61v9h9Zm-3.61,0h-9s0,28.92,0,28.92h21.68s0-10.53,0-16.27H108.49a1.81,1.81,0,0,1-1.81-1.81Z"/><g class="cls-31"><rect class="cls-13" x="-200.22" y="-2644.3" width="2026.04" height="3956.4"/><rect class="cls-14" x="-200.22" y="-2644.3" width="2026.04" height="3956.4"/></g><path class="cls-15" d="M97.64,764.2h13.21a2.51,2.51,0,0,1,1.54.63l9.93,9.94a2.51,2.51,0,0,1,.63,1.54v20.42a3.61,3.61,0,0,1-3.62,3.61H97.65A3.62,3.62,0,0,1,94,796.73V767.81A3.61,3.61,0,0,1,97.64,764.2Zm12.66,3.61v9h9Zm-3.61,0h-9s0,28.92,0,28.92h21.68s0-10.53,0-16.27H108.49a1.81,1.81,0,0,1-1.81-1.81Z"/><path class="cls-11" d="M123.69,442.68a7.24,7.24,0,0,0-1.27-1.06A9.45,9.45,0,0,0,117,440a7,7,0,0,0-5.09,2.29,22.66,22.66,0,0,0-1.56,2v21a15.07,15.07,0,0,1,13.3-.09Zm-30.4,0v22.61a15.07,15.07,0,0,1,13.3.09v-21a22.67,22.67,0,0,0-1.56-2A7,7,0,0,0,99.94,440a9.45,9.45,0,0,0-5.38,1.58A7.25,7.25,0,0,0,93.28,442.68Zm14,27.37-.52-.33a15.58,15.58,0,0,0-1.66-.87,11.45,11.45,0,0,0-10.43,0,16,16,0,0,0-1.67.88c-.28.17-.47.3-.56.36a1.9,1.9,0,0,1-3-1.54V441.94a1.9,1.9,0,0,1,.37-1.13,10.54,10.54,0,0,1,2.59-2.35,13.24,13.24,0,0,1,7.49-2.22,10.78,10.78,0,0,1,7.78,3.41c.28.28.53.56.77.83.24-.27.49-.55.77-.83a10.78,10.78,0,0,1,7.78-3.41,13.24,13.24,0,0,1,7.49,2.22,10.54,10.54,0,0,1,2.59,2.35,1.9,1.9,0,0,1,.37,1.13v26.61a1.9,1.9,0,0,1-3,1.54c-.08-.06-.27-.19-.56-.36a16,16,0,0,0-1.67-.88,11.45,11.45,0,0,0-10.43,0,15.61,15.61,0,0,0-1.66.87l-.52.33-.13.09a1.88,1.88,0,0,1-2.05,0Z"/><g class="cls-32"><rect class="cls-13" x="-307.35" y="-2693.76" width="2130.48" height="4160.35"/><rect class="cls-14" x="-307.35" y="-2693.76" width="2130.48" height="4160.35"/></g><path class="cls-15" d="M123.69,442.68a7.24,7.24,0,0,0-1.27-1.06A9.45,9.45,0,0,0,117,440a7,7,0,0,0-5.09,2.29,22.66,22.66,0,0,0-1.56,2v21a15.07,15.07,0,0,1,13.3-.09Zm-30.4,0v22.61a15.07,15.07,0,0,1,13.3.09v-21a22.67,22.67,0,0,0-1.56-2A7,7,0,0,0,99.94,440a9.45,9.45,0,0,0-5.38,1.58A7.25,7.25,0,0,0,93.28,442.68Zm14,27.37-.52-.33a15.58,15.58,0,0,0-1.66-.87,11.45,11.45,0,0,0-10.43,0,16,16,0,0,0-1.67.88c-.28.17-.47.3-.56.36a1.9,1.9,0,0,1-3-1.54V441.94a1.9,1.9,0,0,1,.37-1.13,10.54,10.54,0,0,1,2.59-2.35,13.24,13.24,0,0,1,7.49-2.22,10.78,10.78,0,0,1,7.78,3.41c.28.28.53.56.77.83.24-.27.49-.55.77-.83a10.78,10.78,0,0,1,7.78-3.41,13.24,13.24,0,0,1,7.49,2.22,10.54,10.54,0,0,1,2.59,2.35,1.9,1.9,0,0,1,.37,1.13v26.61a1.9,1.9,0,0,1-3,1.54c-.08-.06-.27-.19-.56-.36a16,16,0,0,0-1.67-.88,11.45,11.45,0,0,0-10.43,0,15.61,15.61,0,0,0-1.66.87l-.52.33-.13.09a1.88,1.88,0,0,1-2.05,0Z"/><path class="cls-11" d="M113.22,900.09a2.84,2.84,0,1,1,2.84-2.84A2.84,2.84,0,0,1,113.22,900.09Zm-9.47,0a2.84,2.84,0,1,1,2.84-2.84A2.84,2.84,0,0,1,103.75,900.09Zm21.78.95v-5.69a1,1,0,0,0-.95-.94h-.95V902h.95A1,1,0,0,0,125.53,901Zm-33.14-6.63a1,1,0,0,0-.95.94V901a.95.95,0,0,0,1.89,0v-6.63Zm19.38,18.94a3.79,3.79,0,1,1,0-3.79h4.3a3.79,3.79,0,0,0,3.78-3.79V890.62a11.36,11.36,0,0,0-22.73,0V901a4.73,4.73,0,0,1-9.47,0v-5.69a4.74,4.74,0,0,1,4.73-4.73h.95a15.15,15.15,0,0,1,30.3,0h.95a4.74,4.74,0,0,1,4.73,4.73V901a4.73,4.73,0,0,1-4.73,4.73h-.95a7.58,7.58,0,0,1-7.57,7.58Z"/><g class="cls-33"><rect class="cls-13" x="-1396.86" y="-1513.91" width="2123.37" height="4146.46"/><rect class="cls-14" x="-1396.86" y="-1513.91" width="2123.37" height="4146.46"/></g><path class="cls-15" d="M113.22,900.09a2.84,2.84,0,1,1,2.84-2.84A2.84,2.84,0,0,1,113.22,900.09Zm-9.47,0a2.84,2.84,0,1,1,2.84-2.84A2.84,2.84,0,0,1,103.75,900.09Zm21.78.95v-5.69a1,1,0,0,0-.95-.94h-.95V902h.95A1,1,0,0,0,125.53,901Zm-33.14-6.63a1,1,0,0,0-.95.94V901a.95.95,0,0,0,1.89,0v-6.63Zm19.38,18.94a3.79,3.79,0,1,1,0-3.79h4.3a3.79,3.79,0,0,0,3.78-3.79V890.62a11.36,11.36,0,0,0-22.73,0V901a4.73,4.73,0,0,1-9.47,0v-5.69a4.74,4.74,0,0,1,4.73-4.73h.95a15.15,15.15,0,0,1,30.3,0h.95a4.74,4.74,0,0,1,4.73,4.73V901a4.73,4.73,0,0,1-4.73,4.73h-.95a7.58,7.58,0,0,1-7.57,7.58Z"/></svg>