<svg id="Camada_1" data-name="Camada 1" xmlns="http://www.w3.org/2000/svg" xmlns:xlink="http://www.w3.org/1999/xlink" viewBox="0 0 17 17"><defs><style>.cls-1,.cls-2{fill:none;}.cls-1{clip-rule:evenodd;}.cls-3{clip-path:url(#clip-path);}.cls-4{clip-path:url(#clip-path-2);}.cls-5{fill:gray;}.cls-6{clip-path:url(#clip-path-3);}.cls-7{clip-path:url(#clip-path-4);}.cls-8{clip-path:url(#clip-path-5);}.cls-9{clip-path:url(#clip-path-6);}</style><clipPath id="clip-path"><path class="cls-1" d="M-13.86,8.63a.79.79,0,0,1,.79-.79h6.33A.79.79,0,0,1-6,8.63a.79.79,0,0,1-.79.79h-6.33A.79.79,0,0,1-13.86,8.63Zm4,6.32A6.32,6.32,0,0,0-3.58,8.63,6.32,6.32,0,0,0-9.9,2.3a6.32,6.32,0,0,0-6.32,6.32A6.32,6.32,0,0,0-9.9,15Zm0,1.58a7.9,7.9,0,0,1-7.9-7.91A7.91,7.91,0,0,1-9.9.72,7.9,7.9,0,0,1-2,8.63,7.9,7.9,0,0,1-9.9,16.53Z"/></clipPath><clipPath id="clip-path-2"><rect class="cls-2" x="-372.59" y="-1262.53" width="886.22" height="1730.59"/></clipPath><clipPath id="clip-path-3"><path class="cls-1" d="M-9.9,4.67a.79.79,0,0,1,.79.79v6.33a.79.79,0,0,1-.79.79.79.79,0,0,1-.79-.79V5.46A.79.79,0,0,1-9.9,4.67Zm-6.32,4A6.32,6.32,0,0,0-9.9,15,6.32,6.32,0,0,0-3.58,8.63,6.32,6.32,0,0,0-9.9,2.3,6.32,6.32,0,0,0-16.23,8.63Zm-1.58,0A7.9,7.9,0,0,1-9.9.72,7.91,7.91,0,0,1-2,8.63a7.9,7.9,0,0,1-7.91,7.9A7.9,7.9,0,0,1-17.81,8.63Z"/></clipPath><clipPath id="clip-path-4"><rect class="cls-2" x="-469.33" y="-354.06" width="1730.59" height="886.22"/></clipPath><clipPath id="clip-path-5"><path class="cls-1" d="M4.14,8.63a.79.79,0,0,1,.79-.79h6.33a.79.79,0,0,1,0,1.58H4.93A.79.79,0,0,1,4.14,8.63ZM8.1,15A6.32,6.32,0,1,0,1.77,8.63,6.32,6.32,0,0,0,8.1,15Zm0,1.58A7.91,7.91,0,1,1,16,8.63,7.9,7.9,0,0,1,8.1,16.53Z"/></clipPath><clipPath id="clip-path-6"><rect class="cls-2" x="-354.59" y="-1262.53" width="886.22" height="1730.59"/></clipPath></defs><title>menos</title><g class="cls-3"><g class="cls-4"><rect class="cls-5" x="-20.89" y="-2.36" width="21.96" height="21.96"/></g></g><g class="cls-6"><g class="cls-7"><rect class="cls-5" x="-20.89" y="-2.35" width="21.96" height="21.96"/></g></g><g class="cls-8"><g class="cls-9"><rect class="cls-5" x="-2.89" y="-2.36" width="21.96" height="21.96"/></g></g></svg>