<svg id="Camada_1" data-name="Camada 1" xmlns="http://www.w3.org/2000/svg" xmlns:xlink="http://www.w3.org/1999/xlink" viewBox="0 0 52.08 50.87"><defs><style>.cls-1,.cls-2,.cls-3,.cls-5,.cls-7{fill:#6b6b6b;}.cls-1,.cls-2,.cls-24,.cls-25,.cls-3,.cls-8,.cls-9{stroke:#fff;}.cls-1,.cls-13,.cls-14,.cls-2,.cls-24,.cls-25,.cls-3,.cls-4,.cls-8,.cls-9{stroke-miterlimit:10;}.cls-1,.cls-2,.cls-4{clip-rule:evenodd;}.cls-2,.cls-24,.cls-25,.cls-3{stroke-width:0.82px;}.cls-10,.cls-12,.cls-4{fill:#fff;}.cls-13,.cls-14,.cls-4{stroke:#579a64;stroke-width:0.7px;}.cls-10,.cls-14,.cls-25,.cls-5,.cls-9{fill-rule:evenodd;}.cls-6{clip-path:url(#clip-path);}.cls-13,.cls-14,.cls-24,.cls-25,.cls-8,.cls-9{fill:none;}.cls-11{clip-path:url(#clip-path-2);}.cls-15{clip-path:url(#clip-path-3);}.cls-16{clip-path:url(#clip-path-4);}.cls-17{clip-path:url(#clip-path-5);}.cls-18{clip-path:url(#clip-path-6);}.cls-19{clip-path:url(#clip-path-7);}.cls-20{clip-path:url(#clip-path-8);}.cls-21{clip-path:url(#clip-path-9);}.cls-22{clip-path:url(#clip-path-10);}.cls-23{clip-path:url(#clip-path-11);}.cls-26{clip-path:url(#clip-path-12);}.cls-27{clip-path:url(#clip-path-13);}.cls-28{clip-path:url(#clip-path-14);}.cls-29{clip-path:url(#clip-path-15);}.cls-30{clip-path:url(#clip-path-16);}.cls-31{clip-path:url(#clip-path-17);}.cls-32{clip-path:url(#clip-path-18);}.cls-33{clip-path:url(#clip-path-19);}</style><clipPath id="clip-path"><path class="cls-1" d="M36.87-839.13H13l-2.42,8.71H39.32Zm-21.64-4.36a13,13,0,0,1-3.33-8.72A13.07,13.07,0,0,1,25-865.28,13.07,13.07,0,0,1,38-852.2a13,13,0,0,1-3.33,8.72H38a3,3,0,0,1,2.75,2.1l3.68,13.23a1.57,1.57,0,0,1-1.6,2.11L7-826a1.57,1.57,0,0,1-1.61-2.1L9.1-841.38a3,3,0,0,1,2.75-2.11Zm1.07-7.92A8.72,8.72,0,0,0,25-843.49a8.72,8.72,0,0,0,8.72-8.72,8.67,8.67,0,0,0-1.28-4.55c-2.66,2.37-8.57,2.37-11.62,2.37A5.48,5.48,0,0,0,16.29-851.4Z"/></clipPath><clipPath id="clip-path-2"><path class="cls-4" d="M117.87-839.13H94l-2.42,8.71h28.74Zm-21.64-4.36a13,13,0,0,1-3.33-8.72A13.07,13.07,0,0,1,106-865.28,13.07,13.07,0,0,1,119-852.2a13,13,0,0,1-3.33,8.72H119a3,3,0,0,1,2.75,2.1l3.68,13.23a1.57,1.57,0,0,1-1.6,2.11L88-826a1.57,1.57,0,0,1-1.61-2.1l3.66-13.25a3,3,0,0,1,2.75-2.11Zm1.07-7.92a8.72,8.72,0,0,0,8.68,7.92,8.72,8.72,0,0,0,8.72-8.72,8.67,8.67,0,0,0-1.28-4.55c-2.66,2.37-8.57,2.37-11.62,2.37A5.48,5.48,0,0,0,97.29-851.4Z"/></clipPath><clipPath id="clip-path-3"><path class="cls-1" d="M28.56-516.92A5.42,5.42,0,0,0,34-522.34a5.42,5.42,0,0,0-5.42-5.42,5.42,5.42,0,0,0-5.42,5.42A5.42,5.42,0,0,0,28.56-516.92Zm0-22.09a1.4,1.4,0,0,1,1.4-1.41h2.63A1.4,1.4,0,0,1,34-539v.8a1.4,1.4,0,0,1-1.4,1.41H30a1.4,1.4,0,0,1-1.4-1.41ZM8.68-528.16a1.4,1.4,0,0,1,1.4-1.41h2.63a1.4,1.4,0,0,1,1.4,1.41v.8a1.4,1.4,0,0,1-1.4,1.41H10.08a1.4,1.4,0,0,1-1.4-1.41Zm27.29,11a5.4,5.4,0,0,0,1.63.25A5.42,5.42,0,0,0,43-522.34a5.42,5.42,0,0,0-5.42-5.42,5.45,5.45,0,0,0-1.63.25,9,9,0,0,1,1.63,5.17A9,9,0,0,1,36-517.17Zm-16.26-7a9,9,0,0,1,1.63-3.61,5.42,5.42,0,0,1-5.42-5.42,5.42,5.42,0,0,1,5.42-5.42,5.42,5.42,0,0,1,5.42,5.42,5.4,5.4,0,0,1-.41,2.08,9.1,9.1,0,0,1,2.22-.27,9,9,0,0,1,4.52,1.21,9,9,0,0,1,2.71-1v-11H6.87v18.07Zm0,3.61H8.89a5.62,5.62,0,0,1-5.63-5.62v-14.07a5.62,5.62,0,0,1,5.63-5.62H33.77a5.62,5.62,0,0,1,5.63,5.62v9a9,9,0,0,1,7.23,8.86,9,9,0,0,1-9,9,9,9,0,0,1-4.52-1.21,9,9,0,0,1-4.52,1.21A9,9,0,0,1,19.7-520.53Z"/></clipPath><clipPath id="clip-path-4"><path class="cls-1" d="M34.88-195.26v-8.24a9.94,9.94,0,0,0-9.94-9.95A9.94,9.94,0,0,0,15-203.5v8.25a1.91,1.91,0,0,1-1.36,1.75,1.81,1.81,0,0,0-1.35,1.75,1.81,1.81,0,0,0,1.81,1.81H35.78a1.81,1.81,0,0,0,1.81-1.81,1.81,1.81,0,0,0-1.36-1.75A1.91,1.91,0,0,1,34.88-195.26Zm-11.75,8.92h0a1.8,1.8,0,0,0,1.81,1.8,1.81,1.81,0,0,0,1.81-1.81Zm-3.61,0H14.11a5.43,5.43,0,0,1-5.43-5.42,5.42,5.42,0,0,1,2.72-4.7c0-.55,0-7,0-7a13.56,13.56,0,0,1,10-13.07,3.66,3.66,0,0,1,0-.48,3.61,3.61,0,0,1,3.61-3.61,3.61,3.61,0,0,1,3.61,3.61,3.64,3.64,0,0,1,0,.48,13.56,13.56,0,0,1,10,13.08v7.06a5.41,5.41,0,0,1,2.71,4.69,5.42,5.42,0,0,1-5.43,5.42H30.37a5.43,5.43,0,0,1-5.42,5.42,5.42,5.42,0,0,1-5.42-5.42Z"/></clipPath><clipPath id="clip-path-5"><path class="cls-1" d="M15.44-729.76l-2-2a2,2,0,0,1,0-2.86,2,2,0,0,1,2.86,0l.6.6,2.61-2.62a2,2,0,0,1,2.86,0,2,2,0,0,1,0,2.86l-4,4A2,2,0,0,1,15.44-729.76Zm0-11.11-2-2a2,2,0,0,1,0-2.86,2,2,0,0,1,2.86,0l.59.59,2.61-2.61a2,2,0,0,1,2.86,0,2,2,0,0,1,0,2.86l-4,4A2,2,0,0,1,15.44-740.87Zm9.51,9.68a2,2,0,0,1,2-2H35a2,2,0,0,1,2,2,2,2,0,0,1-2,2H27A2,2,0,0,1,24.94-731.19Zm0-11.11a2,2,0,0,1,2-2H35a2,2,0,0,1,2,2,2,2,0,0,1-2,2H27A2,2,0,0,1,24.94-742.3ZM31-753.41H27a2,2,0,0,1-2,2,2,2,0,0,1-2-2h-4a2,2,0,0,1-2,2,2,2,0,0,1-2-2h-4s0,32.32,0,32.32H39.09s0-32.33,0-32.33H35a2,2,0,0,1-2,2,2,2,0,0,1-2-2Zm0-4h0a2,2,0,0,1,2-2,2,2,0,0,1,2,2h4a4,4,0,0,1,4,4v32.33a4,4,0,0,1-4,4H10.81a4,4,0,0,1-4-4v-32.33a4,4,0,0,1,4-4h4a2,2,0,0,1,2-2,2,2,0,0,1,2,2h4a2,2,0,0,1,2-2,2,2,0,0,1,2,2h4Z"/></clipPath><clipPath id="clip-path-6"><path class="cls-1" d="M18.71-629.76a2.08,2.08,0,0,0,2.08-2.08,2.08,2.08,0,0,0-2.08-2.08,2.08,2.08,0,0,0-2.08,2.08A2.08,2.08,0,0,0,18.71-629.76Zm0,4.15a6.23,6.23,0,0,1-6.23-6.23,6.23,6.23,0,0,1,6.23-6.23,6.23,6.23,0,0,1,6.23,6.23A6.23,6.23,0,0,1,18.71-625.61ZM6.36-632.28a1.1,1.1,0,0,0,0,1L14-620.21a2.54,2.54,0,0,0,1.59.83h28s0-24.93,0-24.93h-28a2.55,2.55,0,0,0-1.59.83Zm4.26,14.49L3-629a5.19,5.19,0,0,1,0-5.81l7.61-11.11a6.59,6.59,0,0,1,5-2.57h28a4.15,4.15,0,0,1,4.14,4.14v24.94a4.15,4.15,0,0,1-4.14,4.14h-28A6.58,6.58,0,0,1,10.61-617.79Z"/></clipPath><clipPath id="clip-path-7"><path class="cls-1" d="M31.27-294.3a9.94,9.94,0,0,0,9.94-9.94,9.94,9.94,0,0,0-9.94-9.94,9.94,9.94,0,0,0-9.94,9.94A9.94,9.94,0,0,0,31.27-294.3Zm6.32-21.93a13.55,13.55,0,0,1,7.23,12,13.55,13.55,0,0,1-13.55,13.55,13.49,13.49,0,0,1-6.77-1.81H10.7a5.62,5.62,0,0,1-5.63-5.63V-323a5.63,5.63,0,0,1,5.63-5.63H32A5.62,5.62,0,0,1,37.59-323ZM17.72-304.09a9,9,0,0,1-5.42-8.28v-2.29a3.61,3.61,0,0,1-1.81-3.13,3.61,3.61,0,0,1,3.61-3.61,3.61,3.61,0,0,1,3.61,3.61,3.61,3.61,0,0,1-1.81,3.13v2.29a5.42,5.42,0,0,0,2.32,4.44,13.59,13.59,0,0,1,7-8.45,3.6,3.6,0,0,1-.29-1.42,3.61,3.61,0,0,1,3.61-3.61,3.61,3.61,0,0,1,3.61,3.61v0a13.64,13.64,0,0,1,1.81.24V-325H8.68v28.92H20.43A13.5,13.5,0,0,1,17.72-304.09Zm15.36-2h2.71a1.81,1.81,0,0,1,1.81,1.81,1.81,1.81,0,0,1-1.81,1.81H33.08v2.71a1.8,1.8,0,0,1-1.81,1.81,1.81,1.81,0,0,1-1.81-1.81v-2.71H26.76a1.81,1.81,0,0,1-1.81-1.81A1.81,1.81,0,0,1,26.76-306h2.71v-2.71a1.81,1.81,0,0,1,1.81-1.81,1.81,1.81,0,0,1,1.81,1.81Z"/></clipPath><clipPath id="clip-path-8"><path class="cls-1" d="M14.09-107.24H27.3a2.51,2.51,0,0,1,1.54.63l9.93,9.94a2.51,2.51,0,0,1,.63,1.54v20.42a3.61,3.61,0,0,1-3.62,3.61H14.11a3.62,3.62,0,0,1-3.62-3.61v-28.92A3.61,3.61,0,0,1,14.09-107.24Zm12.66,3.61v9h9Zm-3.61,0h-9s0,28.92,0,28.92H35.78s0-10.53,0-16.27H24.94a1.81,1.81,0,0,1-1.81-1.81Z"/></clipPath><clipPath id="clip-path-9"><path class="cls-1" d="M40.15-428.76a7.24,7.24,0,0,0-1.27-1.06,9.45,9.45,0,0,0-5.38-1.58,7,7,0,0,0-5.09,2.29,22.66,22.66,0,0,0-1.56,2v21a16.25,16.25,0,0,1,6.63-1.59,16.3,16.3,0,0,1,6.67,1.5Zm-30.4,0v22.61a16.3,16.3,0,0,1,6.67-1.5A16.25,16.25,0,0,1,23-406v-21a22.67,22.67,0,0,0-1.56-2,7,7,0,0,0-5.09-2.29A9.45,9.45,0,0,0,11-429.82,7.25,7.25,0,0,0,9.74-428.76Zm14,27.37-.52-.33a15.58,15.58,0,0,0-1.66-.87,13.15,13.15,0,0,0-5.2-1.26,13.21,13.21,0,0,0-5.23,1.26,16,16,0,0,0-1.67.88c-.28.17-.47.3-.56.36a1.9,1.9,0,0,1-3-1.54V-429.5a1.9,1.9,0,0,1,.37-1.13A10.54,10.54,0,0,1,8.9-433a13.24,13.24,0,0,1,7.49-2.22,10.78,10.78,0,0,1,7.78,3.41c.28.28.53.56.77.83.24-.27.49-.55.77-.83a10.78,10.78,0,0,1,7.78-3.41A13.24,13.24,0,0,1,41-433a10.54,10.54,0,0,1,2.59,2.35,1.9,1.9,0,0,1,.37,1.13v26.61a1.9,1.9,0,0,1-3,1.54c-.08-.06-.27-.19-.56-.36a16,16,0,0,0-1.67-.88,13.21,13.21,0,0,0-5.23-1.26,13.15,13.15,0,0,0-5.2,1.26,15.61,15.61,0,0,0-1.66.87l-.52.33-.13.09a1.86,1.86,0,0,1-1,.3,1.86,1.86,0,0,1-1-.3Z"/></clipPath><clipPath id="clip-path-10"><path class="cls-2" d="M29.68,28.66a2.84,2.84,0,1,1,2.84-2.84A2.84,2.84,0,0,1,29.68,28.66Zm-9.47,0a2.84,2.84,0,1,1,2.84-2.84A2.84,2.84,0,0,1,20.21,28.66ZM42,29.61V23.92A1,1,0,0,0,41,23H40.1v7.58H41A1,1,0,0,0,42,29.61ZM8.85,23a1,1,0,0,0-.95.94v5.69a.95.95,0,0,0,1.89,0V23ZM28.23,41.92a3.79,3.79,0,1,1,0-3.79h4.3a3.79,3.79,0,0,0,3.78-3.79V19.18a11.36,11.36,0,0,0-22.73,0V29.61a4.73,4.73,0,0,1-9.47,0V23.92a4.74,4.74,0,0,1,4.73-4.73h.95a15.15,15.15,0,0,1,30.3,0H41a4.74,4.74,0,0,1,4.73,4.73v5.69A4.73,4.73,0,0,1,41,34.34H40.1a7.58,7.58,0,0,1-7.57,7.58Z"/></clipPath><clipPath id="clip-path-11"><rect class="cls-3" x="-1480.4" y="-2385.35" width="2123.37" height="4146.46"/></clipPath><clipPath id="clip-path-12"><path class="cls-4" d="M109.56-516.92a5.42,5.42,0,0,0,5.42-5.42,5.42,5.42,0,0,0-5.42-5.42,5.42,5.42,0,0,0-5.42,5.42A5.42,5.42,0,0,0,109.56-516.92Zm0-22.09a1.4,1.4,0,0,1,1.4-1.41h2.63A1.4,1.4,0,0,1,115-539v.8a1.4,1.4,0,0,1-1.4,1.41H111a1.4,1.4,0,0,1-1.4-1.41ZM89.68-528.16a1.4,1.4,0,0,1,1.4-1.41h2.63a1.4,1.4,0,0,1,1.4,1.41v.8a1.4,1.4,0,0,1-1.4,1.41H91.08a1.4,1.4,0,0,1-1.4-1.41Zm27.29,11a5.4,5.4,0,0,0,1.63.25,5.42,5.42,0,0,0,5.42-5.42,5.42,5.42,0,0,0-5.42-5.42,5.45,5.45,0,0,0-1.63.25,9,9,0,0,1,1.63,5.17A9,9,0,0,1,117-517.17Zm-16.26-7a9,9,0,0,1,1.63-3.61,5.42,5.42,0,0,1-5.42-5.42,5.42,5.42,0,0,1,5.42-5.42,5.42,5.42,0,0,1,5.42,5.42,5.4,5.4,0,0,1-.41,2.08,9.1,9.1,0,0,1,2.22-.27,9,9,0,0,1,4.52,1.21,9,9,0,0,1,2.71-1v-11H87.87v18.07Zm0,3.61H89.89a5.62,5.62,0,0,1-5.63-5.62v-14.07a5.62,5.62,0,0,1,5.63-5.62h24.89a5.62,5.62,0,0,1,5.63,5.62v9a9,9,0,0,1,7.23,8.86,9,9,0,0,1-9,9,9,9,0,0,1-4.52-1.21,9,9,0,0,1-4.52,1.21A9,9,0,0,1,100.7-520.53Z"/></clipPath><clipPath id="clip-path-13"><path class="cls-4" d="M115.88-195.26v-8.24a9.94,9.94,0,0,0-9.94-9.95A9.94,9.94,0,0,0,96-203.5v8.25a1.91,1.91,0,0,1-1.36,1.75,1.81,1.81,0,0,0-1.35,1.75,1.81,1.81,0,0,0,1.81,1.81h21.68a1.81,1.81,0,0,0,1.81-1.81,1.81,1.81,0,0,0-1.36-1.75A1.91,1.91,0,0,1,115.88-195.26Zm-11.75,8.92h0a1.8,1.8,0,0,0,1.81,1.8,1.81,1.81,0,0,0,1.81-1.81Zm-3.61,0H95.11a5.43,5.43,0,0,1-5.43-5.42,5.42,5.42,0,0,1,2.72-4.7c0-.55,0-7,0-7a13.56,13.56,0,0,1,10-13.07,3.66,3.66,0,0,1,0-.48,3.61,3.61,0,0,1,3.61-3.61,3.61,3.61,0,0,1,3.61,3.61,3.64,3.64,0,0,1,0,.48,13.56,13.56,0,0,1,10,13.08v7.06a5.41,5.41,0,0,1,2.71,4.69,5.42,5.42,0,0,1-5.43,5.42h-5.42a5.43,5.43,0,0,1-5.42,5.42,5.42,5.42,0,0,1-5.42-5.42Z"/></clipPath><clipPath id="clip-path-14"><path class="cls-4" d="M96.44-729.76l-2-2a2,2,0,0,1,0-2.86,2,2,0,0,1,2.86,0l.6.6,2.61-2.62a2,2,0,0,1,2.86,0,2,2,0,0,1,0,2.86l-4,4A2,2,0,0,1,96.44-729.76Zm0-11.11-2-2a2,2,0,0,1,0-2.86,2,2,0,0,1,2.86,0l.59.59,2.61-2.61a2,2,0,0,1,2.86,0,2,2,0,0,1,0,2.86l-4,4A2,2,0,0,1,96.44-740.87Zm9.51,9.68a2,2,0,0,1,2-2H116a2,2,0,0,1,2,2,2,2,0,0,1-2,2H108A2,2,0,0,1,105.94-731.19Zm0-11.11a2,2,0,0,1,2-2H116a2,2,0,0,1,2,2,2,2,0,0,1-2,2H108A2,2,0,0,1,105.94-742.3ZM112-753.41h-4a2,2,0,0,1-2,2,2,2,0,0,1-2-2h-4a2,2,0,0,1-2,2,2,2,0,0,1-2-2h-4s0,32.32,0,32.32h28.28s0-32.33,0-32.33h-4a2,2,0,0,1-2,2,2,2,0,0,1-2-2Zm0-4h0a2,2,0,0,1,2-2,2,2,0,0,1,2,2h4a4,4,0,0,1,4,4v32.33a4,4,0,0,1-4,4H91.81a4,4,0,0,1-4-4v-32.33a4,4,0,0,1,4-4h4a2,2,0,0,1,2-2,2,2,0,0,1,2,2h4a2,2,0,0,1,2-2,2,2,0,0,1,2,2h4Z"/></clipPath><clipPath id="clip-path-15"><path class="cls-4" d="M99.71-629.76a2.08,2.08,0,0,0,2.08-2.08,2.08,2.08,0,0,0-2.08-2.08,2.08,2.08,0,0,0-2.08,2.08A2.08,2.08,0,0,0,99.71-629.76Zm0,4.15a6.23,6.23,0,0,1-6.23-6.23,6.23,6.23,0,0,1,6.23-6.23,6.23,6.23,0,0,1,6.23,6.23A6.23,6.23,0,0,1,99.71-625.61Zm-12.35-6.67a1.1,1.1,0,0,0,0,1L95-620.21a2.54,2.54,0,0,0,1.59.83h28s0-24.93,0-24.93h-28a2.55,2.55,0,0,0-1.59.83Zm4.26,14.49L84-629a5.19,5.19,0,0,1,0-5.81l7.61-11.11a6.59,6.59,0,0,1,5-2.57h28a4.15,4.15,0,0,1,4.14,4.14v24.94a4.15,4.15,0,0,1-4.14,4.14h-28A6.58,6.58,0,0,1,91.61-617.79Z"/></clipPath><clipPath id="clip-path-16"><path class="cls-4" d="M112.27-294.3a9.94,9.94,0,0,0,9.94-9.94,9.94,9.94,0,0,0-9.94-9.94,9.94,9.94,0,0,0-9.94,9.94A9.94,9.94,0,0,0,112.27-294.3Zm6.32-21.93a13.55,13.55,0,0,1,7.23,12,13.55,13.55,0,0,1-13.55,13.55,13.49,13.49,0,0,1-6.77-1.81H91.7a5.62,5.62,0,0,1-5.63-5.63V-323a5.63,5.63,0,0,1,5.63-5.63H113a5.62,5.62,0,0,1,5.63,5.63ZM98.72-304.09a9,9,0,0,1-5.42-8.28v-2.29a3.61,3.61,0,0,1-1.81-3.13,3.61,3.61,0,0,1,3.61-3.61,3.61,3.61,0,0,1,3.61,3.61,3.61,3.61,0,0,1-1.81,3.13v2.29a5.42,5.42,0,0,0,2.32,4.44,13.59,13.59,0,0,1,7-8.45,3.6,3.6,0,0,1-.29-1.42,3.61,3.61,0,0,1,3.61-3.61,3.61,3.61,0,0,1,3.61,3.61v0a13.64,13.64,0,0,1,1.81.24V-325H89.68v28.92h11.75A13.5,13.5,0,0,1,98.72-304.09Zm15.36-2h2.71a1.81,1.81,0,0,1,1.81,1.81,1.81,1.81,0,0,1-1.81,1.81h-2.71v2.71a1.8,1.8,0,0,1-1.81,1.81,1.81,1.81,0,0,1-1.81-1.81v-2.71h-2.71a1.81,1.81,0,0,1-1.81-1.81,1.81,1.81,0,0,1,1.81-1.81h2.71v-2.71a1.81,1.81,0,0,1,1.81-1.81,1.81,1.81,0,0,1,1.81,1.81Z"/></clipPath><clipPath id="clip-path-17"><path class="cls-4" d="M95.09-107.24H108.3a2.51,2.51,0,0,1,1.54.63l9.93,9.94a2.51,2.51,0,0,1,.63,1.54v20.42a3.61,3.61,0,0,1-3.62,3.61H95.11a3.62,3.62,0,0,1-3.62-3.61v-28.92A3.61,3.61,0,0,1,95.09-107.24Zm12.66,3.61v9h9Zm-3.61,0h-9s0,28.92,0,28.92h21.68s0-10.53,0-16.27H105.94a1.81,1.81,0,0,1-1.81-1.81Z"/></clipPath><clipPath id="clip-path-18"><path class="cls-4" d="M121.15-428.76a7.24,7.24,0,0,0-1.27-1.06,9.45,9.45,0,0,0-5.38-1.58,7,7,0,0,0-5.09,2.29,22.66,22.66,0,0,0-1.56,2v21a16.25,16.25,0,0,1,6.63-1.59,16.3,16.3,0,0,1,6.67,1.5Zm-30.4,0v22.61a16.3,16.3,0,0,1,6.67-1.5A16.25,16.25,0,0,1,104-406v-21a22.67,22.67,0,0,0-1.56-2,7,7,0,0,0-5.09-2.29A9.45,9.45,0,0,0,92-429.82,7.25,7.25,0,0,0,90.74-428.76Zm14,27.37-.52-.33a15.58,15.58,0,0,0-1.66-.87,13.15,13.15,0,0,0-5.2-1.26,13.21,13.21,0,0,0-5.23,1.26,16,16,0,0,0-1.67.88c-.28.17-.47.3-.56.36a1.9,1.9,0,0,1-3-1.54V-429.5a1.9,1.9,0,0,1,.37-1.13A10.54,10.54,0,0,1,89.9-433a13.24,13.24,0,0,1,7.49-2.22,10.78,10.78,0,0,1,7.78,3.41c.28.28.53.56.77.83.24-.27.49-.55.77-.83a10.78,10.78,0,0,1,7.78-3.41A13.24,13.24,0,0,1,122-433a10.54,10.54,0,0,1,2.59,2.35,1.9,1.9,0,0,1,.37,1.13v26.61a1.9,1.9,0,0,1-3,1.54c-.08-.06-.27-.19-.56-.36a16,16,0,0,0-1.67-.88,13.21,13.21,0,0,0-5.23-1.26,13.15,13.15,0,0,0-5.2,1.26,15.61,15.61,0,0,0-1.66.87l-.52.33-.13.09a1.86,1.86,0,0,1-1,.3,1.86,1.86,0,0,1-1-.3Z"/></clipPath><clipPath id="clip-path-19"><path class="cls-4" d="M110.68,28.66a2.84,2.84,0,1,1,2.84-2.84A2.84,2.84,0,0,1,110.68,28.66Zm-9.47,0a2.84,2.84,0,1,1,2.84-2.84A2.84,2.84,0,0,1,101.21,28.66Zm21.78.95V23.92A1,1,0,0,0,122,23h-.95v7.58H122A1,1,0,0,0,123,29.61ZM89.85,23a1,1,0,0,0-.95.94v5.69a.95.95,0,0,0,1.89,0V23Zm19.38,18.94a3.79,3.79,0,1,1,0-3.79h4.3a3.79,3.79,0,0,0,3.78-3.79V19.18a11.36,11.36,0,0,0-22.73,0V29.61a4.73,4.73,0,0,1-9.47,0V23.92a4.74,4.74,0,0,1,4.73-4.73h.95a15.15,15.15,0,0,1,30.3,0H122a4.74,4.74,0,0,1,4.73,4.73v5.69A4.73,4.73,0,0,1,122,34.34h-.95a7.58,7.58,0,0,1-7.57,7.58Z"/></clipPath></defs><title>Suporte-black</title><path class="cls-5" d="M36.87-839.13H13l-2.42,8.71H39.32Zm-21.64-4.36a13,13,0,0,1-3.33-8.72A13.07,13.07,0,0,1,25-865.28,13.07,13.07,0,0,1,38-852.2a13,13,0,0,1-3.33,8.72H38a3,3,0,0,1,2.75,2.1l3.68,13.23a1.57,1.57,0,0,1-1.6,2.11L7-826a1.57,1.57,0,0,1-1.61-2.1L9.1-841.38a3,3,0,0,1,2.75-2.11Zm1.07-7.92A8.72,8.72,0,0,0,25-843.49a8.72,8.72,0,0,0,8.72-8.72,8.67,8.67,0,0,0-1.28-4.55c-2.66,2.37-8.57,2.37-11.62,2.37A5.48,5.48,0,0,0,16.29-851.4Z"/><g class="cls-6"><rect class="cls-7" x="-347.25" y="-1839.32" width="2442.87" height="4770.39"/><rect class="cls-8" x="-347.25" y="-1839.32" width="2442.87" height="4770.39"/></g><path class="cls-9" d="M36.87-839.13H13l-2.42,8.71H39.32Zm-21.64-4.36a13,13,0,0,1-3.33-8.72A13.07,13.07,0,0,1,25-865.28,13.07,13.07,0,0,1,38-852.2a13,13,0,0,1-3.33,8.72H38a3,3,0,0,1,2.75,2.1l3.68,13.23a1.57,1.57,0,0,1-1.6,2.11L7-826a1.57,1.57,0,0,1-1.61-2.1L9.1-841.38a3,3,0,0,1,2.75-2.11Zm1.07-7.92A8.72,8.72,0,0,0,25-843.49a8.72,8.72,0,0,0,8.72-8.72,8.67,8.67,0,0,0-1.28-4.55c-2.66,2.37-8.57,2.37-11.62,2.37A5.48,5.48,0,0,0,16.29-851.4Z"/><path class="cls-10" d="M117.87-839.13H94l-2.42,8.71h28.74Zm-21.64-4.36a13,13,0,0,1-3.33-8.72A13.07,13.07,0,0,1,106-865.28,13.07,13.07,0,0,1,119-852.2a13,13,0,0,1-3.33,8.72H119a3,3,0,0,1,2.75,2.1l3.68,13.23a1.57,1.57,0,0,1-1.6,2.11L88-826a1.57,1.57,0,0,1-1.61-2.1l3.66-13.25a3,3,0,0,1,2.75-2.11Zm1.07-7.92a8.72,8.72,0,0,0,8.68,7.92,8.72,8.72,0,0,0,8.72-8.72,8.67,8.67,0,0,0-1.28-4.55c-2.66,2.37-8.57,2.37-11.62,2.37A5.48,5.48,0,0,0,97.29-851.4Z"/><g class="cls-11"><rect class="cls-12" x="-266.25" y="-1839.32" width="2442.87" height="4770.39"/><rect class="cls-13" x="-266.25" y="-1839.32" width="2442.87" height="4770.39"/></g><path class="cls-14" d="M117.87-839.13H94l-2.42,8.71h28.74Zm-21.64-4.36a13,13,0,0,1-3.33-8.72A13.07,13.07,0,0,1,106-865.28,13.07,13.07,0,0,1,119-852.2a13,13,0,0,1-3.33,8.72H119a3,3,0,0,1,2.75,2.1l3.68,13.23a1.57,1.57,0,0,1-1.6,2.11L88-826a1.57,1.57,0,0,1-1.61-2.1l3.66-13.25a3,3,0,0,1,2.75-2.11Zm1.07-7.92a8.72,8.72,0,0,0,8.68,7.92,8.72,8.72,0,0,0,8.72-8.72,8.67,8.67,0,0,0-1.28-4.55c-2.66,2.37-8.57,2.37-11.62,2.37A5.48,5.48,0,0,0,97.29-851.4Z"/><path class="cls-5" d="M28.56-516.92A5.42,5.42,0,0,0,34-522.34a5.42,5.42,0,0,0-5.42-5.42,5.42,5.42,0,0,0-5.42,5.42A5.42,5.42,0,0,0,28.56-516.92Zm0-22.09a1.4,1.4,0,0,1,1.4-1.41h2.63A1.4,1.4,0,0,1,34-539v.8a1.4,1.4,0,0,1-1.4,1.41H30a1.4,1.4,0,0,1-1.4-1.41ZM8.68-528.16a1.4,1.4,0,0,1,1.4-1.41h2.63a1.4,1.4,0,0,1,1.4,1.41v.8a1.4,1.4,0,0,1-1.4,1.41H10.08a1.4,1.4,0,0,1-1.4-1.41Zm27.29,11a5.4,5.4,0,0,0,1.63.25A5.42,5.42,0,0,0,43-522.34a5.42,5.42,0,0,0-5.42-5.42,5.45,5.45,0,0,0-1.63.25,9,9,0,0,1,1.63,5.17A9,9,0,0,1,36-517.17Zm-16.26-7a9,9,0,0,1,1.63-3.61,5.42,5.42,0,0,1-5.42-5.42,5.42,5.42,0,0,1,5.42-5.42,5.42,5.42,0,0,1,5.42,5.42,5.4,5.4,0,0,1-.41,2.08,9.1,9.1,0,0,1,2.22-.27,9,9,0,0,1,4.52,1.21,9,9,0,0,1,2.71-1v-11H6.87v18.07Zm0,3.61H8.89a5.62,5.62,0,0,1-5.63-5.62v-14.07a5.62,5.62,0,0,1,5.63-5.62H33.77a5.62,5.62,0,0,1,5.63,5.62v9a9,9,0,0,1,7.23,8.86,9,9,0,0,1-9,9,9,9,0,0,1-4.52-1.21,9,9,0,0,1-4.52,1.21A9,9,0,0,1,19.7-520.53Z"/><g class="cls-15"><rect class="cls-7" x="-717.47" y="-2741.65" width="2026.04" height="3956.4"/><rect class="cls-8" x="-717.47" y="-2741.65" width="2026.04" height="3956.4"/></g><path class="cls-9" d="M28.56-516.92A5.42,5.42,0,0,0,34-522.34a5.42,5.42,0,0,0-5.42-5.42,5.42,5.42,0,0,0-5.42,5.42A5.42,5.42,0,0,0,28.56-516.92Zm0-22.09a1.4,1.4,0,0,1,1.4-1.41h2.63A1.4,1.4,0,0,1,34-539v.8a1.4,1.4,0,0,1-1.4,1.41H30a1.4,1.4,0,0,1-1.4-1.41ZM8.68-528.16a1.4,1.4,0,0,1,1.4-1.41h2.63a1.4,1.4,0,0,1,1.4,1.41v.8a1.4,1.4,0,0,1-1.4,1.41H10.08a1.4,1.4,0,0,1-1.4-1.41Zm27.29,11a5.4,5.4,0,0,0,1.63.25A5.42,5.42,0,0,0,43-522.34a5.42,5.42,0,0,0-5.42-5.42,5.45,5.45,0,0,0-1.63.25,9,9,0,0,1,1.63,5.17A9,9,0,0,1,36-517.17Zm-16.26-7a9,9,0,0,1,1.63-3.61,5.42,5.42,0,0,1-5.42-5.42,5.42,5.42,0,0,1,5.42-5.42,5.42,5.42,0,0,1,5.42,5.42,5.4,5.4,0,0,1-.41,2.08,9.1,9.1,0,0,1,2.22-.27,9,9,0,0,1,4.52,1.21,9,9,0,0,1,2.71-1v-11H6.87v18.07Zm0,3.61H8.89a5.62,5.62,0,0,1-5.63-5.62v-14.07a5.62,5.62,0,0,1,5.63-5.62H33.77a5.62,5.62,0,0,1,5.63,5.62v9a9,9,0,0,1,7.23,8.86,9,9,0,0,1-9,9,9,9,0,0,1-4.52-1.21,9,9,0,0,1-4.52,1.21A9,9,0,0,1,19.7-520.53Z"/><path class="cls-5" d="M34.88-195.26v-8.24a9.94,9.94,0,0,0-9.94-9.95A9.94,9.94,0,0,0,15-203.5v8.25a1.91,1.91,0,0,1-1.36,1.75,1.81,1.81,0,0,0-1.35,1.75,1.81,1.81,0,0,0,1.81,1.81H35.78a1.81,1.81,0,0,0,1.81-1.81,1.81,1.81,0,0,0-1.36-1.75A1.91,1.91,0,0,1,34.88-195.26Zm-11.75,8.92h0a1.8,1.8,0,0,0,1.81,1.8,1.81,1.81,0,0,0,1.81-1.81Zm-3.61,0H14.11a5.43,5.43,0,0,1-5.43-5.42,5.42,5.42,0,0,1,2.72-4.7c0-.55,0-7,0-7a13.56,13.56,0,0,1,10-13.07,3.66,3.66,0,0,1,0-.48,3.61,3.61,0,0,1,3.61-3.61,3.61,3.61,0,0,1,3.61,3.61,3.64,3.64,0,0,1,0,.48,13.56,13.56,0,0,1,10,13.08v7.06a5.41,5.41,0,0,1,2.71,4.69,5.42,5.42,0,0,1-5.43,5.42H30.37a5.43,5.43,0,0,1-5.42,5.42,5.42,5.42,0,0,1-5.42-5.42Z"/><g class="cls-16"><rect class="cls-7" x="-1237.92" y="-3020.12" width="2026.04" height="3956.4"/><rect class="cls-8" x="-1237.92" y="-3020.12" width="2026.04" height="3956.4"/></g><path class="cls-9" d="M34.88-195.26v-8.24a9.94,9.94,0,0,0-9.94-9.95A9.94,9.94,0,0,0,15-203.5v8.25a1.91,1.91,0,0,1-1.36,1.75,1.81,1.81,0,0,0-1.35,1.75,1.81,1.81,0,0,0,1.81,1.81H35.78a1.81,1.81,0,0,0,1.81-1.81,1.81,1.81,0,0,0-1.36-1.75A1.91,1.91,0,0,1,34.88-195.26Zm-11.75,8.92h0a1.8,1.8,0,0,0,1.81,1.8,1.81,1.81,0,0,0,1.81-1.81Zm-3.61,0H14.11a5.43,5.43,0,0,1-5.43-5.42,5.42,5.42,0,0,1,2.72-4.7c0-.55,0-7,0-7a13.56,13.56,0,0,1,10-13.07,3.66,3.66,0,0,1,0-.48,3.61,3.61,0,0,1,3.61-3.61,3.61,3.61,0,0,1,3.61,3.61,3.64,3.64,0,0,1,0,.48,13.56,13.56,0,0,1,10,13.08v7.06a5.41,5.41,0,0,1,2.71,4.69,5.42,5.42,0,0,1-5.43,5.42H30.37a5.43,5.43,0,0,1-5.42,5.42,5.42,5.42,0,0,1-5.42-5.42Z"/><path class="cls-5" d="M15.44-729.76l-2-2a2,2,0,0,1,0-2.86,2,2,0,0,1,2.86,0l.6.6,2.61-2.62a2,2,0,0,1,2.86,0,2,2,0,0,1,0,2.86l-4,4A2,2,0,0,1,15.44-729.76Zm0-11.11-2-2a2,2,0,0,1,0-2.86,2,2,0,0,1,2.86,0l.59.59,2.61-2.61a2,2,0,0,1,2.86,0,2,2,0,0,1,0,2.86l-4,4A2,2,0,0,1,15.44-740.87Zm9.51,9.68a2,2,0,0,1,2-2H35a2,2,0,0,1,2,2,2,2,0,0,1-2,2H27A2,2,0,0,1,24.94-731.19Zm0-11.11a2,2,0,0,1,2-2H35a2,2,0,0,1,2,2,2,2,0,0,1-2,2H27A2,2,0,0,1,24.94-742.3ZM31-753.41H27a2,2,0,0,1-2,2,2,2,0,0,1-2-2h-4a2,2,0,0,1-2,2,2,2,0,0,1-2-2h-4s0,32.32,0,32.32H39.09s0-32.33,0-32.33H35a2,2,0,0,1-2,2,2,2,0,0,1-2-2Zm0-4h0a2,2,0,0,1,2-2,2,2,0,0,1,2,2h4a4,4,0,0,1,4,4v32.33a4,4,0,0,1-4,4H10.81a4,4,0,0,1-4-4v-32.33a4,4,0,0,1,4-4h4a2,2,0,0,1,2-2,2,2,0,0,1,2,2h4a2,2,0,0,1,2-2,2,2,0,0,1,2,2h4Z"/><g class="cls-17"><rect class="cls-7" x="-708" y="-3403.98" width="2264.82" height="4422.68"/><rect class="cls-8" x="-708" y="-3403.98" width="2264.82" height="4422.68"/></g><path class="cls-9" d="M15.44-729.76l-2-2a2,2,0,0,1,0-2.86,2,2,0,0,1,2.86,0l.6.6,2.61-2.62a2,2,0,0,1,2.86,0,2,2,0,0,1,0,2.86l-4,4A2,2,0,0,1,15.44-729.76Zm0-11.11-2-2a2,2,0,0,1,0-2.86,2,2,0,0,1,2.86,0l.59.59,2.61-2.61a2,2,0,0,1,2.86,0,2,2,0,0,1,0,2.86l-4,4A2,2,0,0,1,15.44-740.87Zm9.51,9.68a2,2,0,0,1,2-2H35a2,2,0,0,1,2,2,2,2,0,0,1-2,2H27A2,2,0,0,1,24.94-731.19Zm0-11.11a2,2,0,0,1,2-2H35a2,2,0,0,1,2,2,2,2,0,0,1-2,2H27A2,2,0,0,1,24.94-742.3ZM31-753.41H27a2,2,0,0,1-2,2,2,2,0,0,1-2-2h-4a2,2,0,0,1-2,2,2,2,0,0,1-2-2h-4s0,32.32,0,32.32H39.09s0-32.33,0-32.33H35a2,2,0,0,1-2,2,2,2,0,0,1-2-2Zm0-4h0a2,2,0,0,1,2-2,2,2,0,0,1,2,2h4a4,4,0,0,1,4,4v32.33a4,4,0,0,1-4,4H10.81a4,4,0,0,1-4-4v-32.33a4,4,0,0,1,4-4h4a2,2,0,0,1,2-2,2,2,0,0,1,2,2h4a2,2,0,0,1,2-2,2,2,0,0,1,2,2h4Z"/><path class="cls-5" d="M18.71-629.76a2.08,2.08,0,0,0,2.08-2.08,2.08,2.08,0,0,0-2.08-2.08,2.08,2.08,0,0,0-2.08,2.08A2.08,2.08,0,0,0,18.71-629.76Zm0,4.15a6.23,6.23,0,0,1-6.23-6.23,6.23,6.23,0,0,1,6.23-6.23,6.23,6.23,0,0,1,6.23,6.23A6.23,6.23,0,0,1,18.71-625.61ZM6.36-632.28a1.1,1.1,0,0,0,0,1L14-620.21a2.54,2.54,0,0,0,1.59.83h28s0-24.93,0-24.93h-28a2.55,2.55,0,0,0-1.59.83Zm4.26,14.49L3-629a5.19,5.19,0,0,1,0-5.81l7.61-11.11a6.59,6.59,0,0,1,5-2.57h28a4.15,4.15,0,0,1,4.14,4.14v24.94a4.15,4.15,0,0,1-4.14,4.14h-28A6.58,6.58,0,0,1,10.61-617.79Z"/><g class="cls-18"><rect class="cls-7" x="-828.06" y="-4170.1" width="2327.81" height="4545.69"/><rect class="cls-8" x="-828.06" y="-4170.1" width="2327.81" height="4545.69"/></g><path class="cls-9" d="M18.71-629.76a2.08,2.08,0,0,0,2.08-2.08,2.08,2.08,0,0,0-2.08-2.08,2.08,2.08,0,0,0-2.08,2.08A2.08,2.08,0,0,0,18.71-629.76Zm0,4.15a6.23,6.23,0,0,1-6.23-6.23,6.23,6.23,0,0,1,6.23-6.23,6.23,6.23,0,0,1,6.23,6.23A6.23,6.23,0,0,1,18.71-625.61ZM6.36-632.28a1.1,1.1,0,0,0,0,1L14-620.21a2.54,2.54,0,0,0,1.59.83h28s0-24.93,0-24.93h-28a2.55,2.55,0,0,0-1.59.83Zm4.26,14.49L3-629a5.19,5.19,0,0,1,0-5.81l7.61-11.11a6.59,6.59,0,0,1,5-2.57h28a4.15,4.15,0,0,1,4.14,4.14v24.94a4.15,4.15,0,0,1-4.14,4.14h-28A6.58,6.58,0,0,1,10.61-617.79Z"/><path class="cls-5" d="M31.27-294.3a9.94,9.94,0,0,0,9.94-9.94,9.94,9.94,0,0,0-9.94-9.94,9.94,9.94,0,0,0-9.94,9.94A9.94,9.94,0,0,0,31.27-294.3Zm6.32-21.93a13.55,13.55,0,0,1,7.23,12,13.55,13.55,0,0,1-13.55,13.55,13.49,13.49,0,0,1-6.77-1.81H10.7a5.62,5.62,0,0,1-5.63-5.63V-323a5.63,5.63,0,0,1,5.63-5.63H32A5.62,5.62,0,0,1,37.59-323ZM17.72-304.09a9,9,0,0,1-5.42-8.28v-2.29a3.61,3.61,0,0,1-1.81-3.13,3.61,3.61,0,0,1,3.61-3.61,3.61,3.61,0,0,1,3.61,3.61,3.61,3.61,0,0,1-1.81,3.13v2.29a5.42,5.42,0,0,0,2.32,4.44,13.59,13.59,0,0,1,7-8.45,3.6,3.6,0,0,1-.29-1.42,3.61,3.61,0,0,1,3.61-3.61,3.61,3.61,0,0,1,3.61,3.61v0a13.64,13.64,0,0,1,1.81.24V-325H8.68v28.92H20.43A13.5,13.5,0,0,1,17.72-304.09Zm15.36-2h2.71a1.81,1.81,0,0,1,1.81,1.81,1.81,1.81,0,0,1-1.81,1.81H33.08v2.71a1.8,1.8,0,0,1-1.81,1.81,1.81,1.81,0,0,1-1.81-1.81v-2.71H26.76a1.81,1.81,0,0,1-1.81-1.81A1.81,1.81,0,0,1,26.76-306h2.71v-2.71a1.81,1.81,0,0,1,1.81-1.81,1.81,1.81,0,0,1,1.81,1.81Z"/><g class="cls-19"><rect class="cls-7" x="-804.21" y="-2609.4" width="2026.04" height="3956.4"/><rect class="cls-8" x="-804.21" y="-2609.4" width="2026.04" height="3956.4"/></g><path class="cls-9" d="M31.27-294.3a9.94,9.94,0,0,0,9.94-9.94,9.94,9.94,0,0,0-9.94-9.94,9.94,9.94,0,0,0-9.94,9.94A9.94,9.94,0,0,0,31.27-294.3Zm6.32-21.93a13.55,13.55,0,0,1,7.23,12,13.55,13.55,0,0,1-13.55,13.55,13.49,13.49,0,0,1-6.77-1.81H10.7a5.62,5.62,0,0,1-5.63-5.63V-323a5.63,5.63,0,0,1,5.63-5.63H32A5.62,5.62,0,0,1,37.59-323ZM17.72-304.09a9,9,0,0,1-5.42-8.28v-2.29a3.61,3.61,0,0,1-1.81-3.13,3.61,3.61,0,0,1,3.61-3.61,3.61,3.61,0,0,1,3.61,3.61,3.61,3.61,0,0,1-1.81,3.13v2.29a5.42,5.42,0,0,0,2.32,4.44,13.59,13.59,0,0,1,7-8.45,3.6,3.6,0,0,1-.29-1.42,3.61,3.61,0,0,1,3.61-3.61,3.61,3.61,0,0,1,3.61,3.61v0a13.64,13.64,0,0,1,1.81.24V-325H8.68v28.92H20.43A13.5,13.5,0,0,1,17.72-304.09Zm15.36-2h2.71a1.81,1.81,0,0,1,1.81,1.81,1.81,1.81,0,0,1-1.81,1.81H33.08v2.71a1.8,1.8,0,0,1-1.81,1.81,1.81,1.81,0,0,1-1.81-1.81v-2.71H26.76a1.81,1.81,0,0,1-1.81-1.81A1.81,1.81,0,0,1,26.76-306h2.71v-2.71a1.81,1.81,0,0,1,1.81-1.81,1.81,1.81,0,0,1,1.81,1.81Z"/><path class="cls-5" d="M14.09-107.24H27.3a2.51,2.51,0,0,1,1.54.63l9.93,9.94a2.51,2.51,0,0,1,.63,1.54v20.42a3.61,3.61,0,0,1-3.62,3.61H14.11a3.62,3.62,0,0,1-3.62-3.61v-28.92A3.61,3.61,0,0,1,14.09-107.24Zm12.66,3.61v9h9Zm-3.61,0h-9s0,28.92,0,28.92H35.78s0-10.53,0-16.27H24.94a1.81,1.81,0,0,1-1.81-1.81Z"/><g class="cls-20"><rect class="cls-7" x="-283.76" y="-3515.74" width="2026.04" height="3956.4"/><rect class="cls-8" x="-283.76" y="-3515.74" width="2026.04" height="3956.4"/></g><path class="cls-9" d="M14.09-107.24H27.3a2.51,2.51,0,0,1,1.54.63l9.93,9.94a2.51,2.51,0,0,1,.63,1.54v20.42a3.61,3.61,0,0,1-3.62,3.61H14.11a3.62,3.62,0,0,1-3.62-3.61v-28.92A3.61,3.61,0,0,1,14.09-107.24Zm12.66,3.61v9h9Zm-3.61,0h-9s0,28.92,0,28.92H35.78s0-10.53,0-16.27H24.94a1.81,1.81,0,0,1-1.81-1.81Z"/><path class="cls-5" d="M40.15-428.76a7.24,7.24,0,0,0-1.27-1.06,9.45,9.45,0,0,0-5.38-1.58,7,7,0,0,0-5.09,2.29,22.66,22.66,0,0,0-1.56,2v21a16.25,16.25,0,0,1,6.63-1.59,16.3,16.3,0,0,1,6.67,1.5Zm-30.4,0v22.61a16.3,16.3,0,0,1,6.67-1.5A16.25,16.25,0,0,1,23-406v-21a22.67,22.67,0,0,0-1.56-2,7,7,0,0,0-5.09-2.29A9.45,9.45,0,0,0,11-429.82,7.25,7.25,0,0,0,9.74-428.76Zm14,27.37-.52-.33a15.58,15.58,0,0,0-1.66-.87,13.15,13.15,0,0,0-5.2-1.26,13.21,13.21,0,0,0-5.23,1.26,16,16,0,0,0-1.67.88c-.28.17-.47.3-.56.36a1.9,1.9,0,0,1-3-1.54V-429.5a1.9,1.9,0,0,1,.37-1.13A10.54,10.54,0,0,1,8.9-433a13.24,13.24,0,0,1,7.49-2.22,10.78,10.78,0,0,1,7.78,3.41c.28.28.53.56.77.83.24-.27.49-.55.77-.83a10.78,10.78,0,0,1,7.78-3.41A13.24,13.24,0,0,1,41-433a10.54,10.54,0,0,1,2.59,2.35,1.9,1.9,0,0,1,.37,1.13v26.61a1.9,1.9,0,0,1-3,1.54c-.08-.06-.27-.19-.56-.36a16,16,0,0,0-1.67-.88,13.21,13.21,0,0,0-5.23-1.26,13.15,13.15,0,0,0-5.2,1.26,15.61,15.61,0,0,0-1.66.87l-.52.33-.13.09a1.86,1.86,0,0,1-1,.3,1.86,1.86,0,0,1-1-.3Z"/><g class="cls-21"><rect class="cls-7" x="-390.89" y="-3565.2" width="2130.48" height="4160.35"/><rect class="cls-8" x="-390.89" y="-3565.2" width="2130.48" height="4160.35"/></g><path class="cls-9" d="M40.15-428.76a7.24,7.24,0,0,0-1.27-1.06,9.45,9.45,0,0,0-5.38-1.58,7,7,0,0,0-5.09,2.29,22.66,22.66,0,0,0-1.56,2v21a16.25,16.25,0,0,1,6.63-1.59,16.3,16.3,0,0,1,6.67,1.5Zm-30.4,0v22.61a16.3,16.3,0,0,1,6.67-1.5A16.25,16.25,0,0,1,23-406v-21a22.67,22.67,0,0,0-1.56-2,7,7,0,0,0-5.09-2.29A9.45,9.45,0,0,0,11-429.82,7.25,7.25,0,0,0,9.74-428.76Zm14,27.37-.52-.33a15.58,15.58,0,0,0-1.66-.87,13.15,13.15,0,0,0-5.2-1.26,13.21,13.21,0,0,0-5.23,1.26,16,16,0,0,0-1.67.88c-.28.17-.47.3-.56.36a1.9,1.9,0,0,1-3-1.54V-429.5a1.9,1.9,0,0,1,.37-1.13A10.54,10.54,0,0,1,8.9-433a13.24,13.24,0,0,1,7.49-2.22,10.78,10.78,0,0,1,7.78,3.41c.28.28.53.56.77.83.24-.27.49-.55.77-.83a10.78,10.78,0,0,1,7.78-3.41A13.24,13.24,0,0,1,41-433a10.54,10.54,0,0,1,2.59,2.35,1.9,1.9,0,0,1,.37,1.13v26.61a1.9,1.9,0,0,1-3,1.54c-.08-.06-.27-.19-.56-.36a16,16,0,0,0-1.67-.88,13.21,13.21,0,0,0-5.23-1.26,13.15,13.15,0,0,0-5.2,1.26,15.61,15.61,0,0,0-1.66.87l-.52.33-.13.09a1.86,1.86,0,0,1-1,.3,1.86,1.86,0,0,1-1-.3Z"/><path class="cls-5" d="M29.68,28.66a2.84,2.84,0,1,1,2.84-2.84A2.84,2.84,0,0,1,29.68,28.66Zm-9.47,0a2.84,2.84,0,1,1,2.84-2.84A2.84,2.84,0,0,1,20.21,28.66ZM42,29.61V23.92A1,1,0,0,0,41,23H40.1v7.58H41A1,1,0,0,0,42,29.61ZM8.85,23a1,1,0,0,0-.95.94v5.69a.95.95,0,0,0,1.89,0V23ZM28.23,41.92a3.79,3.79,0,1,1,0-3.79h4.3a3.79,3.79,0,0,0,3.78-3.79V19.18a11.36,11.36,0,0,0-22.73,0V29.61a4.73,4.73,0,0,1-9.47,0V23.92a4.74,4.74,0,0,1,4.73-4.73h.95a15.15,15.15,0,0,1,30.3,0H41a4.74,4.74,0,0,1,4.73,4.73v5.69A4.73,4.73,0,0,1,41,34.34H40.1a7.58,7.58,0,0,1-7.57,7.58Z"/><g class="cls-22"><rect class="cls-7" x="-1480.4" y="-2385.35" width="2123.37" height="4146.46"/><g class="cls-23"><rect class="cls-3" x="-3.26" y="-3.34" width="56.41" height="54.52"/></g><rect class="cls-24" x="-1480.4" y="-2385.35" width="2123.37" height="4146.46"/></g><path class="cls-25" d="M29.68,28.66a2.84,2.84,0,1,1,2.84-2.84A2.84,2.84,0,0,1,29.68,28.66Zm-9.47,0a2.84,2.84,0,1,1,2.84-2.84A2.84,2.84,0,0,1,20.21,28.66ZM42,29.61V23.92A1,1,0,0,0,41,23H40.1v7.58H41A1,1,0,0,0,42,29.61ZM8.85,23a1,1,0,0,0-.95.94v5.69a.95.95,0,0,0,1.89,0V23ZM28.23,41.92a3.79,3.79,0,1,1,0-3.79h4.3a3.79,3.79,0,0,0,3.78-3.79V19.18a11.36,11.36,0,0,0-22.73,0V29.61a4.73,4.73,0,0,1-9.47,0V23.92a4.74,4.74,0,0,1,4.73-4.73h.95a15.15,15.15,0,0,1,30.3,0H41a4.74,4.74,0,0,1,4.73,4.73v5.69A4.73,4.73,0,0,1,41,34.34H40.1a7.58,7.58,0,0,1-7.57,7.58Z"/><path class="cls-10" d="M109.56-516.92a5.42,5.42,0,0,0,5.42-5.42,5.42,5.42,0,0,0-5.42-5.42,5.42,5.42,0,0,0-5.42,5.42A5.42,5.42,0,0,0,109.56-516.92Zm0-22.09a1.4,1.4,0,0,1,1.4-1.41h2.63A1.4,1.4,0,0,1,115-539v.8a1.4,1.4,0,0,1-1.4,1.41H111a1.4,1.4,0,0,1-1.4-1.41ZM89.68-528.16a1.4,1.4,0,0,1,1.4-1.41h2.63a1.4,1.4,0,0,1,1.4,1.41v.8a1.4,1.4,0,0,1-1.4,1.41H91.08a1.4,1.4,0,0,1-1.4-1.41Zm27.29,11a5.4,5.4,0,0,0,1.63.25,5.42,5.42,0,0,0,5.42-5.42,5.42,5.42,0,0,0-5.42-5.42,5.45,5.45,0,0,0-1.63.25,9,9,0,0,1,1.63,5.17A9,9,0,0,1,117-517.17Zm-16.26-7a9,9,0,0,1,1.63-3.61,5.42,5.42,0,0,1-5.42-5.42,5.42,5.42,0,0,1,5.42-5.42,5.42,5.42,0,0,1,5.42,5.42,5.4,5.4,0,0,1-.41,2.08,9.1,9.1,0,0,1,2.22-.27,9,9,0,0,1,4.52,1.21,9,9,0,0,1,2.71-1v-11H87.87v18.07Zm0,3.61H89.89a5.62,5.62,0,0,1-5.63-5.62v-14.07a5.62,5.62,0,0,1,5.63-5.62h24.89a5.62,5.62,0,0,1,5.63,5.62v9a9,9,0,0,1,7.23,8.86,9,9,0,0,1-9,9,9,9,0,0,1-4.52-1.21,9,9,0,0,1-4.52,1.21A9,9,0,0,1,100.7-520.53Z"/><g class="cls-26"><rect class="cls-12" x="-636.47" y="-2741.65" width="2026.04" height="3956.4"/><rect class="cls-13" x="-636.47" y="-2741.65" width="2026.04" height="3956.4"/></g><path class="cls-14" d="M109.56-516.92a5.42,5.42,0,0,0,5.42-5.42,5.42,5.42,0,0,0-5.42-5.42,5.42,5.42,0,0,0-5.42,5.42A5.42,5.42,0,0,0,109.56-516.92Zm0-22.09a1.4,1.4,0,0,1,1.4-1.41h2.63A1.4,1.4,0,0,1,115-539v.8a1.4,1.4,0,0,1-1.4,1.41H111a1.4,1.4,0,0,1-1.4-1.41ZM89.68-528.16a1.4,1.4,0,0,1,1.4-1.41h2.63a1.4,1.4,0,0,1,1.4,1.41v.8a1.4,1.4,0,0,1-1.4,1.41H91.08a1.4,1.4,0,0,1-1.4-1.41Zm27.29,11a5.4,5.4,0,0,0,1.63.25,5.42,5.42,0,0,0,5.42-5.42,5.42,5.42,0,0,0-5.42-5.42,5.45,5.45,0,0,0-1.63.25,9,9,0,0,1,1.63,5.17A9,9,0,0,1,117-517.17Zm-16.26-7a9,9,0,0,1,1.63-3.61,5.42,5.42,0,0,1-5.42-5.42,5.42,5.42,0,0,1,5.42-5.42,5.42,5.42,0,0,1,5.42,5.42,5.4,5.4,0,0,1-.41,2.08,9.1,9.1,0,0,1,2.22-.27,9,9,0,0,1,4.52,1.21,9,9,0,0,1,2.71-1v-11H87.87v18.07Zm0,3.61H89.89a5.62,5.62,0,0,1-5.63-5.62v-14.07a5.62,5.62,0,0,1,5.63-5.62h24.89a5.62,5.62,0,0,1,5.63,5.62v9a9,9,0,0,1,7.23,8.86,9,9,0,0,1-9,9,9,9,0,0,1-4.52-1.21,9,9,0,0,1-4.52,1.21A9,9,0,0,1,100.7-520.53Z"/><path class="cls-10" d="M115.88-195.26v-8.24a9.94,9.94,0,0,0-9.94-9.95A9.94,9.94,0,0,0,96-203.5v8.25a1.91,1.91,0,0,1-1.36,1.75,1.81,1.81,0,0,0-1.35,1.75,1.81,1.81,0,0,0,1.81,1.81h21.68a1.81,1.81,0,0,0,1.81-1.81,1.81,1.81,0,0,0-1.36-1.75A1.91,1.91,0,0,1,115.88-195.26Zm-11.75,8.92h0a1.8,1.8,0,0,0,1.81,1.8,1.81,1.81,0,0,0,1.81-1.81Zm-3.61,0H95.11a5.43,5.43,0,0,1-5.43-5.42,5.42,5.42,0,0,1,2.72-4.7c0-.55,0-7,0-7a13.56,13.56,0,0,1,10-13.07,3.66,3.66,0,0,1,0-.48,3.61,3.61,0,0,1,3.61-3.61,3.61,3.61,0,0,1,3.61,3.61,3.64,3.64,0,0,1,0,.48,13.56,13.56,0,0,1,10,13.08v7.06a5.41,5.41,0,0,1,2.71,4.69,5.42,5.42,0,0,1-5.43,5.42h-5.42a5.43,5.43,0,0,1-5.42,5.42,5.42,5.42,0,0,1-5.42-5.42Z"/><g class="cls-27"><rect class="cls-12" x="-1156.92" y="-3020.12" width="2026.04" height="3956.4"/><rect class="cls-13" x="-1156.92" y="-3020.12" width="2026.04" height="3956.4"/></g><path class="cls-14" d="M115.88-195.26v-8.24a9.94,9.94,0,0,0-9.94-9.95A9.94,9.94,0,0,0,96-203.5v8.25a1.91,1.91,0,0,1-1.36,1.75,1.81,1.81,0,0,0-1.35,1.75,1.81,1.81,0,0,0,1.81,1.81h21.68a1.81,1.81,0,0,0,1.81-1.81,1.81,1.81,0,0,0-1.36-1.75A1.91,1.91,0,0,1,115.88-195.26Zm-11.75,8.92h0a1.8,1.8,0,0,0,1.81,1.8,1.81,1.81,0,0,0,1.81-1.81Zm-3.61,0H95.11a5.43,5.43,0,0,1-5.43-5.42,5.42,5.42,0,0,1,2.72-4.7c0-.55,0-7,0-7a13.56,13.56,0,0,1,10-13.07,3.66,3.66,0,0,1,0-.48,3.61,3.61,0,0,1,3.61-3.61,3.61,3.61,0,0,1,3.61,3.61,3.64,3.64,0,0,1,0,.48,13.56,13.56,0,0,1,10,13.08v7.06a5.41,5.41,0,0,1,2.71,4.69,5.42,5.42,0,0,1-5.43,5.42h-5.42a5.43,5.43,0,0,1-5.42,5.42,5.42,5.42,0,0,1-5.42-5.42Z"/><path class="cls-10" d="M96.44-729.76l-2-2a2,2,0,0,1,0-2.86,2,2,0,0,1,2.86,0l.6.6,2.61-2.62a2,2,0,0,1,2.86,0,2,2,0,0,1,0,2.86l-4,4A2,2,0,0,1,96.44-729.76Zm0-11.11-2-2a2,2,0,0,1,0-2.86,2,2,0,0,1,2.86,0l.59.59,2.61-2.61a2,2,0,0,1,2.86,0,2,2,0,0,1,0,2.86l-4,4A2,2,0,0,1,96.44-740.87Zm9.51,9.68a2,2,0,0,1,2-2H116a2,2,0,0,1,2,2,2,2,0,0,1-2,2H108A2,2,0,0,1,105.94-731.19Zm0-11.11a2,2,0,0,1,2-2H116a2,2,0,0,1,2,2,2,2,0,0,1-2,2H108A2,2,0,0,1,105.94-742.3ZM112-753.41h-4a2,2,0,0,1-2,2,2,2,0,0,1-2-2h-4a2,2,0,0,1-2,2,2,2,0,0,1-2-2h-4s0,32.32,0,32.32h28.28s0-32.33,0-32.33h-4a2,2,0,0,1-2,2,2,2,0,0,1-2-2Zm0-4h0a2,2,0,0,1,2-2,2,2,0,0,1,2,2h4a4,4,0,0,1,4,4v32.33a4,4,0,0,1-4,4H91.81a4,4,0,0,1-4-4v-32.33a4,4,0,0,1,4-4h4a2,2,0,0,1,2-2,2,2,0,0,1,2,2h4a2,2,0,0,1,2-2,2,2,0,0,1,2,2h4Z"/><g class="cls-28"><rect class="cls-12" x="-627" y="-3403.98" width="2264.82" height="4422.68"/><rect class="cls-13" x="-627" y="-3403.98" width="2264.82" height="4422.68"/></g><path class="cls-14" d="M96.44-729.76l-2-2a2,2,0,0,1,0-2.86,2,2,0,0,1,2.86,0l.6.6,2.61-2.62a2,2,0,0,1,2.86,0,2,2,0,0,1,0,2.86l-4,4A2,2,0,0,1,96.44-729.76Zm0-11.11-2-2a2,2,0,0,1,0-2.86,2,2,0,0,1,2.86,0l.59.59,2.61-2.61a2,2,0,0,1,2.86,0,2,2,0,0,1,0,2.86l-4,4A2,2,0,0,1,96.44-740.87Zm9.51,9.68a2,2,0,0,1,2-2H116a2,2,0,0,1,2,2,2,2,0,0,1-2,2H108A2,2,0,0,1,105.94-731.19Zm0-11.11a2,2,0,0,1,2-2H116a2,2,0,0,1,2,2,2,2,0,0,1-2,2H108A2,2,0,0,1,105.94-742.3ZM112-753.41h-4a2,2,0,0,1-2,2,2,2,0,0,1-2-2h-4a2,2,0,0,1-2,2,2,2,0,0,1-2-2h-4s0,32.32,0,32.32h28.28s0-32.33,0-32.33h-4a2,2,0,0,1-2,2,2,2,0,0,1-2-2Zm0-4h0a2,2,0,0,1,2-2,2,2,0,0,1,2,2h4a4,4,0,0,1,4,4v32.33a4,4,0,0,1-4,4H91.81a4,4,0,0,1-4-4v-32.33a4,4,0,0,1,4-4h4a2,2,0,0,1,2-2,2,2,0,0,1,2,2h4a2,2,0,0,1,2-2,2,2,0,0,1,2,2h4Z"/><path class="cls-10" d="M99.71-629.76a2.08,2.08,0,0,0,2.08-2.08,2.08,2.08,0,0,0-2.08-2.08,2.08,2.08,0,0,0-2.08,2.08A2.08,2.08,0,0,0,99.71-629.76Zm0,4.15a6.23,6.23,0,0,1-6.23-6.23,6.23,6.23,0,0,1,6.23-6.23,6.23,6.23,0,0,1,6.23,6.23A6.23,6.23,0,0,1,99.71-625.61Zm-12.35-6.67a1.1,1.1,0,0,0,0,1L95-620.21a2.54,2.54,0,0,0,1.59.83h28s0-24.93,0-24.93h-28a2.55,2.55,0,0,0-1.59.83Zm4.26,14.49L84-629a5.19,5.19,0,0,1,0-5.81l7.61-11.11a6.59,6.59,0,0,1,5-2.57h28a4.15,4.15,0,0,1,4.14,4.14v24.94a4.15,4.15,0,0,1-4.14,4.14h-28A6.58,6.58,0,0,1,91.61-617.79Z"/><g class="cls-29"><rect class="cls-12" x="-747.06" y="-4170.1" width="2327.81" height="4545.69"/><rect class="cls-13" x="-747.06" y="-4170.1" width="2327.81" height="4545.69"/></g><path class="cls-14" d="M99.71-629.76a2.08,2.08,0,0,0,2.08-2.08,2.08,2.08,0,0,0-2.08-2.08,2.08,2.08,0,0,0-2.08,2.08A2.08,2.08,0,0,0,99.71-629.76Zm0,4.15a6.23,6.23,0,0,1-6.23-6.23,6.23,6.23,0,0,1,6.23-6.23,6.23,6.23,0,0,1,6.23,6.23A6.23,6.23,0,0,1,99.71-625.61Zm-12.35-6.67a1.1,1.1,0,0,0,0,1L95-620.21a2.54,2.54,0,0,0,1.59.83h28s0-24.93,0-24.93h-28a2.55,2.55,0,0,0-1.59.83Zm4.26,14.49L84-629a5.19,5.19,0,0,1,0-5.81l7.61-11.11a6.59,6.59,0,0,1,5-2.57h28a4.15,4.15,0,0,1,4.14,4.14v24.94a4.15,4.15,0,0,1-4.14,4.14h-28A6.58,6.58,0,0,1,91.61-617.79Z"/><path class="cls-10" d="M112.27-294.3a9.94,9.94,0,0,0,9.94-9.94,9.94,9.94,0,0,0-9.94-9.94,9.94,9.94,0,0,0-9.94,9.94A9.94,9.94,0,0,0,112.27-294.3Zm6.32-21.93a13.55,13.55,0,0,1,7.23,12,13.55,13.55,0,0,1-13.55,13.55,13.49,13.49,0,0,1-6.77-1.81H91.7a5.62,5.62,0,0,1-5.63-5.63V-323a5.63,5.63,0,0,1,5.63-5.63H113a5.62,5.62,0,0,1,5.63,5.63ZM98.72-304.09a9,9,0,0,1-5.42-8.28v-2.29a3.61,3.61,0,0,1-1.81-3.13,3.61,3.61,0,0,1,3.61-3.61,3.61,3.61,0,0,1,3.61,3.61,3.61,3.61,0,0,1-1.81,3.13v2.29a5.42,5.42,0,0,0,2.32,4.44,13.59,13.59,0,0,1,7-8.45,3.6,3.6,0,0,1-.29-1.42,3.61,3.61,0,0,1,3.61-3.61,3.61,3.61,0,0,1,3.61,3.61v0a13.64,13.64,0,0,1,1.81.24V-325H89.68v28.92h11.75A13.5,13.5,0,0,1,98.72-304.09Zm15.36-2h2.71a1.81,1.81,0,0,1,1.81,1.81,1.81,1.81,0,0,1-1.81,1.81h-2.71v2.71a1.8,1.8,0,0,1-1.81,1.81,1.81,1.81,0,0,1-1.81-1.81v-2.71h-2.71a1.81,1.81,0,0,1-1.81-1.81,1.81,1.81,0,0,1,1.81-1.81h2.71v-2.71a1.81,1.81,0,0,1,1.81-1.81,1.81,1.81,0,0,1,1.81,1.81Z"/><g class="cls-30"><rect class="cls-12" x="-723.21" y="-2609.4" width="2026.04" height="3956.4"/><rect class="cls-13" x="-723.21" y="-2609.4" width="2026.04" height="3956.4"/></g><path class="cls-14" d="M112.27-294.3a9.94,9.94,0,0,0,9.94-9.94,9.94,9.94,0,0,0-9.94-9.94,9.94,9.94,0,0,0-9.94,9.94A9.94,9.94,0,0,0,112.27-294.3Zm6.32-21.93a13.55,13.55,0,0,1,7.23,12,13.55,13.55,0,0,1-13.55,13.55,13.49,13.49,0,0,1-6.77-1.81H91.7a5.62,5.62,0,0,1-5.63-5.63V-323a5.63,5.63,0,0,1,5.63-5.63H113a5.62,5.62,0,0,1,5.63,5.63ZM98.72-304.09a9,9,0,0,1-5.42-8.28v-2.29a3.61,3.61,0,0,1-1.81-3.13,3.61,3.61,0,0,1,3.61-3.61,3.61,3.61,0,0,1,3.61,3.61,3.61,3.61,0,0,1-1.81,3.13v2.29a5.42,5.42,0,0,0,2.32,4.44,13.59,13.59,0,0,1,7-8.45,3.6,3.6,0,0,1-.29-1.42,3.61,3.61,0,0,1,3.61-3.61,3.61,3.61,0,0,1,3.61,3.61v0a13.64,13.64,0,0,1,1.81.24V-325H89.68v28.92h11.75A13.5,13.5,0,0,1,98.72-304.09Zm15.36-2h2.71a1.81,1.81,0,0,1,1.81,1.81,1.81,1.81,0,0,1-1.81,1.81h-2.71v2.71a1.8,1.8,0,0,1-1.81,1.81,1.81,1.81,0,0,1-1.81-1.81v-2.71h-2.71a1.81,1.81,0,0,1-1.81-1.81,1.81,1.81,0,0,1,1.81-1.81h2.71v-2.71a1.81,1.81,0,0,1,1.81-1.81,1.81,1.81,0,0,1,1.81,1.81Z"/><path class="cls-10" d="M95.09-107.24H108.3a2.51,2.51,0,0,1,1.54.63l9.93,9.94a2.51,2.51,0,0,1,.63,1.54v20.42a3.61,3.61,0,0,1-3.62,3.61H95.11a3.62,3.62,0,0,1-3.62-3.61v-28.92A3.61,3.61,0,0,1,95.09-107.24Zm12.66,3.61v9h9Zm-3.61,0h-9s0,28.92,0,28.92h21.68s0-10.53,0-16.27H105.94a1.81,1.81,0,0,1-1.81-1.81Z"/><g class="cls-31"><rect class="cls-12" x="-202.76" y="-3515.74" width="2026.04" height="3956.4"/><rect class="cls-13" x="-202.76" y="-3515.74" width="2026.04" height="3956.4"/></g><path class="cls-14" d="M95.09-107.24H108.3a2.51,2.51,0,0,1,1.54.63l9.93,9.94a2.51,2.51,0,0,1,.63,1.54v20.42a3.61,3.61,0,0,1-3.62,3.61H95.11a3.62,3.62,0,0,1-3.62-3.61v-28.92A3.61,3.61,0,0,1,95.09-107.24Zm12.66,3.61v9h9Zm-3.61,0h-9s0,28.92,0,28.92h21.68s0-10.53,0-16.27H105.94a1.81,1.81,0,0,1-1.81-1.81Z"/><path class="cls-10" d="M121.15-428.76a7.24,7.24,0,0,0-1.27-1.06,9.45,9.45,0,0,0-5.38-1.58,7,7,0,0,0-5.09,2.29,22.66,22.66,0,0,0-1.56,2v21a16.25,16.25,0,0,1,6.63-1.59,16.3,16.3,0,0,1,6.67,1.5Zm-30.4,0v22.61a16.3,16.3,0,0,1,6.67-1.5A16.25,16.25,0,0,1,104-406v-21a22.67,22.67,0,0,0-1.56-2,7,7,0,0,0-5.09-2.29A9.45,9.45,0,0,0,92-429.82,7.25,7.25,0,0,0,90.74-428.76Zm14,27.37-.52-.33a15.58,15.58,0,0,0-1.66-.87,13.15,13.15,0,0,0-5.2-1.26,13.21,13.21,0,0,0-5.23,1.26,16,16,0,0,0-1.67.88c-.28.17-.47.3-.56.36a1.9,1.9,0,0,1-3-1.54V-429.5a1.9,1.9,0,0,1,.37-1.13A10.54,10.54,0,0,1,89.9-433a13.24,13.24,0,0,1,7.49-2.22,10.78,10.78,0,0,1,7.78,3.41c.28.28.53.56.77.83.24-.27.49-.55.77-.83a10.78,10.78,0,0,1,7.78-3.41A13.24,13.24,0,0,1,122-433a10.54,10.54,0,0,1,2.59,2.35,1.9,1.9,0,0,1,.37,1.13v26.61a1.9,1.9,0,0,1-3,1.54c-.08-.06-.27-.19-.56-.36a16,16,0,0,0-1.67-.88,13.21,13.21,0,0,0-5.23-1.26,13.15,13.15,0,0,0-5.2,1.26,15.61,15.61,0,0,0-1.66.87l-.52.33-.13.09a1.86,1.86,0,0,1-1,.3,1.86,1.86,0,0,1-1-.3Z"/><g class="cls-32"><rect class="cls-12" x="-309.89" y="-3565.2" width="2130.48" height="4160.35"/><rect class="cls-13" x="-309.89" y="-3565.2" width="2130.48" height="4160.35"/></g><path class="cls-14" d="M121.15-428.76a7.24,7.24,0,0,0-1.27-1.06,9.45,9.45,0,0,0-5.38-1.58,7,7,0,0,0-5.09,2.29,22.66,22.66,0,0,0-1.56,2v21a16.25,16.25,0,0,1,6.63-1.59,16.3,16.3,0,0,1,6.67,1.5Zm-30.4,0v22.61a16.3,16.3,0,0,1,6.67-1.5A16.25,16.25,0,0,1,104-406v-21a22.67,22.67,0,0,0-1.56-2,7,7,0,0,0-5.09-2.29A9.45,9.45,0,0,0,92-429.82,7.25,7.25,0,0,0,90.74-428.76Zm14,27.37-.52-.33a15.58,15.58,0,0,0-1.66-.87,13.15,13.15,0,0,0-5.2-1.26,13.21,13.21,0,0,0-5.23,1.26,16,16,0,0,0-1.67.88c-.28.17-.47.3-.56.36a1.9,1.9,0,0,1-3-1.54V-429.5a1.9,1.9,0,0,1,.37-1.13A10.54,10.54,0,0,1,89.9-433a13.24,13.24,0,0,1,7.49-2.22,10.78,10.78,0,0,1,7.78,3.41c.28.28.53.56.77.83.24-.27.49-.55.77-.83a10.78,10.78,0,0,1,7.78-3.41A13.24,13.24,0,0,1,122-433a10.54,10.54,0,0,1,2.59,2.35,1.9,1.9,0,0,1,.37,1.13v26.61a1.9,1.9,0,0,1-3,1.54c-.08-.06-.27-.19-.56-.36a16,16,0,0,0-1.67-.88,13.21,13.21,0,0,0-5.23-1.26,13.15,13.15,0,0,0-5.2,1.26,15.61,15.61,0,0,0-1.66.87l-.52.33-.13.09a1.86,1.86,0,0,1-1,.3,1.86,1.86,0,0,1-1-.3Z"/><path class="cls-10" d="M110.68,28.66a2.84,2.84,0,1,1,2.84-2.84A2.84,2.84,0,0,1,110.68,28.66Zm-9.47,0a2.84,2.84,0,1,1,2.84-2.84A2.84,2.84,0,0,1,101.21,28.66Zm21.78.95V23.92A1,1,0,0,0,122,23h-.95v7.58H122A1,1,0,0,0,123,29.61ZM89.85,23a1,1,0,0,0-.95.94v5.69a.95.95,0,0,0,1.89,0V23Zm19.38,18.94a3.79,3.79,0,1,1,0-3.79h4.3a3.79,3.79,0,0,0,3.78-3.79V19.18a11.36,11.36,0,0,0-22.73,0V29.61a4.73,4.73,0,0,1-9.47,0V23.92a4.74,4.74,0,0,1,4.73-4.73h.95a15.15,15.15,0,0,1,30.3,0H122a4.74,4.74,0,0,1,4.73,4.73v5.69A4.73,4.73,0,0,1,122,34.34h-.95a7.58,7.58,0,0,1-7.57,7.58Z"/><g class="cls-33"><rect class="cls-12" x="-1399.4" y="-2385.35" width="2123.37" height="4146.46"/><rect class="cls-13" x="-1399.4" y="-2385.35" width="2123.37" height="4146.46"/></g><path class="cls-14" d="M110.68,28.66a2.84,2.84,0,1,1,2.84-2.84A2.84,2.84,0,0,1,110.68,28.66Zm-9.47,0a2.84,2.84,0,1,1,2.84-2.84A2.84,2.84,0,0,1,101.21,28.66Zm21.78.95V23.92A1,1,0,0,0,122,23h-.95v7.58H122A1,1,0,0,0,123,29.61ZM89.85,23a1,1,0,0,0-.95.94v5.69a.95.95,0,0,0,1.89,0V23Zm19.38,18.94a3.79,3.79,0,1,1,0-3.79h4.3a3.79,3.79,0,0,0,3.78-3.79V19.18a11.36,11.36,0,0,0-22.73,0V29.61a4.73,4.73,0,0,1-9.47,0V23.92a4.74,4.74,0,0,1,4.73-4.73h.95a15.15,15.15,0,0,1,30.3,0H122a4.74,4.74,0,0,1,4.73,4.73v5.69A4.73,4.73,0,0,1,122,34.34h-.95a7.58,7.58,0,0,1-7.57,7.58Z"/></svg>