<svg xmlns="http://www.w3.org/2000/svg" xmlns:xlink="http://www.w3.org/1999/xlink" viewBox="0 0 20 20"><defs><style>.cls-1,.cls-2{fill:none;}.cls-1,.cls-3{clip-rule:evenodd;}.cls-20,.cls-22,.cls-3{fill:#00b21c;}.cls-4{clip-path:url(#clip-path);}.cls-5{clip-path:url(#clip-path-2);}.cls-6{clip-path:url(#clip-path-3);}.cls-7{clip-path:url(#clip-path-4);}.cls-8{clip-path:url(#clip-path-5);}.cls-9{fill:#4d4d4d;}.cls-10{clip-path:url(#clip-path-6);}.cls-11{clip-path:url(#clip-path-7);}.cls-12{clip-path:url(#clip-path-8);}.cls-13{clip-path:url(#clip-path-9);}.cls-14{clip-path:url(#clip-path-10);}.cls-15{clip-path:url(#clip-path-11);}.cls-16{clip-path:url(#clip-path-12);}.cls-17{clip-path:url(#clip-path-13);}.cls-18{fill:#fff;}.cls-18,.cls-20{fill-rule:evenodd;}.cls-19{clip-path:url(#clip-path-14);}.cls-21{clip-path:url(#clip-path-15);}.cls-23{clip-path:url(#clip-path-16);}.cls-24{clip-path:url(#clip-path-17);}.cls-25{clip-path:url(#clip-path-18);}.cls-26{clip-path:url(#clip-path-19);}.cls-27{clip-path:url(#clip-path-20);}</style><clipPath id="clip-path"><path class="cls-1" d="M-131.13-35.21a1.28,1.28,0,0,0-1.28-1.29,1.28,1.28,0,0,0-1.28,1.29,1.28,1.28,0,0,0,1.28,1.28A1.28,1.28,0,0,0-131.13-35.21Zm14.13,0a1.28,1.28,0,0,0-1.28-1.29,1.28,1.28,0,0,0-1.28,1.29,1.28,1.28,0,0,0,1.28,1.28A1.28,1.28,0,0,0-117-35.21Zm-4.92-1.29a3.86,3.86,0,0,1,3.63-2.57,3.86,3.86,0,0,1,3.63,2.57h.22v-3.85h-10.2a2,2,0,0,1-2-2v-9.56h-9.63V-36.5h.22a3.86,3.86,0,0,1,3.63-2.57,3.86,3.86,0,0,1,3.63,2.57Zm-2.14-10.28v3.85h6.89l-1.38-3.85Zm5.14-2.57h1.28a1.28,1.28,0,0,1,1.21.85l2,5.57h1.3a1.28,1.28,0,0,1,1.28,1.29v6.42a1.29,1.29,0,0,1-1.28,1.29h-1.51a3.85,3.85,0,0,1-3.63,2.57,3.85,3.85,0,0,1-3.63-2.57h-6.86a3.85,3.85,0,0,1-3.63,2.57A3.85,3.85,0,0,1-136-33.93h-1.51a1.28,1.28,0,0,1-1.28-1.28v-18a1.29,1.29,0,0,1,1.28-1.29h12.2a1.28,1.28,0,0,1,1.29,1.28v3.86h2.57"/></clipPath><clipPath id="clip-path-2"><path class="cls-1" d="M-145.29-136.53l11.56-6.42a1.28,1.28,0,0,1,1.25,0l11.56,6.42a1.29,1.29,0,0,1,.66,1.12v12.84a1.28,1.28,0,0,1-.66,1.12L-132.49-115a1.29,1.29,0,0,1-1.25,0l-11.56-6.42a1.28,1.28,0,0,1-.66-1.12v-12.84A1.29,1.29,0,0,1-145.29-136.53Zm21.13,1.15-8.95-5-8.91,5,8.93,5Zm-10.23,17.07v-9.91l-9-5v9.92Zm2.57,0,9-5v-9.86l-9,5Z"/></clipPath><clipPath id="clip-path-3"><path class="cls-1" d="M-131.77,44.76a1.28,1.28,0,0,0,1.28-1.28,1.28,1.28,0,0,0-1.28-1.28,1.28,1.28,0,0,0-1.28,1.28A1.28,1.28,0,0,0-131.77,44.76Zm14.13,0a1.28,1.28,0,0,0,1.28-1.28,1.28,1.28,0,0,0-1.28-1.28,1.28,1.28,0,0,0-1.28,1.28A1.28,1.28,0,0,0-117.64,44.76Zm-19.91-12.84a1.29,1.29,0,0,1,1.28-1.29h7.71a1.28,1.28,0,0,1,1.28,1.29,1.29,1.29,0,0,1-1.28,1.28h-7.71A1.28,1.28,0,0,1-137.55,31.92Zm1.93,5.14a1.28,1.28,0,0,1,1.29-1.29h5.78a1.28,1.28,0,0,1,1.29,1.29,1.28,1.28,0,0,1-1.29,1.28h-5.78A1.28,1.28,0,0,1-135.62,37.05Zm12.2-1.29h6.88l-1.09-3.85h-5.79Zm2.15,6.42a3.85,3.85,0,0,1,3.63-2.57A3.85,3.85,0,0,1-114,42.19h.22V38.33h-9.63v3.85Zm-6.86,2.57a3.86,3.86,0,0,1-3.63,2.57,3.85,3.85,0,0,1-3.85-3.85,3.85,3.85,0,0,1,3.85-3.85,3.85,3.85,0,0,1,3.63,2.57H-126V28.07h-12.2a1.28,1.28,0,0,1-1.28-1.29,1.28,1.28,0,0,1,1.28-1.28h12.84a1.9,1.9,0,0,1,1.93,1.89v2H-117a1.79,1.79,0,0,1,1.63,1.23l1.48,5.19h1.38a1.29,1.29,0,0,1,1.28,1.29v6.42a1.29,1.29,0,0,1-1.28,1.29H-114a3.86,3.86,0,0,1-3.63,2.57,3.85,3.85,0,0,1-3.63-2.57h-6.86Z"/></clipPath><clipPath id="clip-path-4"><path class="cls-1" d="M6,15.16a.81.81,0,1,0-.81-.81A.81.81,0,0,0,6,15.16Zm8.9,0a.81.81,0,1,0-.81-.81A.81.81,0,0,0,14.86,15.16ZM2.31,7.07a.81.81,0,0,1,.81-.81H8A.81.81,0,0,1,8,7.87H3.12A.81.81,0,0,1,2.31,7.07ZM3.52,10.3a.81.81,0,0,1,.81-.81H8a.81.81,0,1,1,0,1.62H4.33A.81.81,0,0,1,3.52,10.3Zm7.69-.81h4.34l-.69-2.43H11.21Zm1.35,4a2.43,2.43,0,0,1,4.58,0h.14V11.11H11.21v2.43ZM8.24,15.16a2.43,2.43,0,1,1,0-1.62H9.6V4.64H1.9A.81.81,0,0,1,1.9,3H10a1.2,1.2,0,0,1,1.22,1.19V5.45h4a1.13,1.13,0,0,1,1,.78l.93,3.27h.87a.81.81,0,0,1,.81.81v4a.81.81,0,0,1-.81.81h-.95a2.43,2.43,0,0,1-4.58,0H8.24Z"/></clipPath><clipPath id="clip-path-5"><rect class="cls-2" x="-672.31" y="-1020.73" width="907.61" height="1772.37"/></clipPath><clipPath id="clip-path-6"><path class="cls-1" d="M7.65,39.52V30L4.37,28V39.18l3.28,2v-1.5s0-.05,0-.08S7.65,39.54,7.65,39.52Zm1.63.9v1.81a1,1,0,0,1-1.59.89L3.47,40.51a1.63,1.63,0,0,1-.73-1.32V26.92a1.11,1.11,0,0,1,.21-.66.33.33,0,0,1,0-.08,1.23,1.23,0,0,1,1-.48h9a1.23,1.23,0,0,1,1.23,1.22v2a.82.82,0,1,1-1.64,0V27.33H6.43l2.12,1.31A1.63,1.63,0,0,1,9.28,30v8.83h3.27V37.14a.82.82,0,1,1,1.64,0v2A1.23,1.23,0,0,1,13,40.42Zm6.6-8.18L15.66,32a.82.82,0,1,1,1.15-1.16l1.64,1.63a.82.82,0,0,1,0,1.16l-1.64,1.65a.82.82,0,1,1-1.16-1.15l.25-.25H11.73a.82.82,0,0,1,0-1.64Z"/></clipPath><clipPath id="clip-path-7"><path class="cls-1" d="M155.65-846.22a13.8,13.8,0,0,0-2.43-2,18,18,0,0,0-10.24-3,13.43,13.43,0,0,0-9.69,4.36,43.17,43.17,0,0,0-3,3.84V-803a31,31,0,0,1,12.63-3,31.05,31.05,0,0,1,12.71,2.86Zm-57.92,0v43.08A31.05,31.05,0,0,1,110.45-806a31,31,0,0,1,12.63,3V-843a43.18,43.18,0,0,0-3-3.84,13.43,13.43,0,0,0-9.69-4.36,18,18,0,0,0-10.24,3A13.8,13.8,0,0,0,97.73-846.22Zm26.76,52.14c-.17-.12-.51-.34-1-.63a29.67,29.67,0,0,0-3.16-1.66,25,25,0,0,0-9.9-2.39,25.16,25.16,0,0,0-10,2.39,30.56,30.56,0,0,0-3.19,1.67c-.54.33-.9.57-1.06.68A3.62,3.62,0,0,1,90.49-797v-50.68a3.62,3.62,0,0,1,.7-2.14,20.08,20.08,0,0,1,4.93-4.48,25.21,25.21,0,0,1,14.27-4.23,20.53,20.53,0,0,1,14.82,6.5c.53.53,1,1.06,1.47,1.59.45-.52.94-1.05,1.47-1.59a20.52,20.52,0,0,1,14.82-6.5,25.21,25.21,0,0,1,14.27,4.23,20.08,20.08,0,0,1,4.93,4.48,3.62,3.62,0,0,1,.7,2.14V-797a3.62,3.62,0,0,1-5.74,2.93c-.16-.11-.52-.35-1.06-.68a30.52,30.52,0,0,0-3.19-1.67,25.16,25.16,0,0,0-10-2.39,25,25,0,0,0-9.9,2.39,29.73,29.73,0,0,0-3.16,1.66c-.47.29-.81.51-1,.63l-.25.17a3.55,3.55,0,0,1-2,.58,3.55,3.55,0,0,1-2-.58Z"/></clipPath><clipPath id="clip-path-8"><path class="cls-1" d="M584.54-259.69a1.28,1.28,0,0,0,1.28-1.28,1.28,1.28,0,0,0-1.28-1.28,1.28,1.28,0,0,0-1.28,1.28A1.28,1.28,0,0,0,584.54-259.69Zm0,2.57a3.85,3.85,0,0,1-3.85-3.85,3.85,3.85,0,0,1,3.85-3.85A3.85,3.85,0,0,1,588.4-261,3.85,3.85,0,0,1,584.54-257.12Zm2.22-10.59-.17-.58c-.25-.84-.52-1.61-.78-2.3-.09-.24-.18-.45-.25-.62a6.56,6.56,0,0,0-2,0c-.08.18-.16.39-.25.62-.27.68-.53,1.46-.78,2.3l-.17.58-.55.24a7.06,7.06,0,0,0-1.47.85l-.48.36-.59-.14c-.85-.2-1.65-.36-2.38-.47l-.67-.09a6.53,6.53,0,0,0-1,1.74l.41.53c.46.57,1,1.19,1.6,1.83l.41.44-.07.6a7.1,7.1,0,0,0-.05.85,7.1,7.1,0,0,0,.05.85l.07.6-.41.44c-.6.64-1.14,1.25-1.6,1.83l-.41.53a6.53,6.53,0,0,0,1,1.74l.67-.09c.73-.11,1.53-.27,2.38-.47l.59-.14.48.36a7.06,7.06,0,0,0,1.47.85l.55.24.17.58c.25.84.52,1.61.78,2.3.09.24.18.45.25.62a6.56,6.56,0,0,0,2,0c.08-.18.16-.39.25-.62.27-.68.53-1.46.78-2.3l.17-.58.55-.24a7,7,0,0,0,1.47-.85l.48-.36.59.14c.85.2,1.66.36,2.38.47l.67.09a8.24,8.24,0,0,0,1-1.74l-.41-.53c-.46-.57-1-1.19-1.6-1.83l-.41-.44.07-.6a7.11,7.11,0,0,0,.05-.85,7.11,7.11,0,0,0-.05-.85l-.07-.6.41-.44c.6-.64,1.14-1.25,1.6-1.83l.41-.53a6.56,6.56,0,0,0-1-1.74l-.67.09c-.73.11-1.53.27-2.38.47l-.59.14-.48-.36a7,7,0,0,0-1.47-.85Zm1.44-3.8c.29.75.68,1.93.68,1.93l1,.56s1.22-.26,2-.38c.48-.07.83-.12,1-.13a2.33,2.33,0,0,1,2.22,1.11l1.2,2.07a2.31,2.31,0,0,1-.13,2.45c-.12.16-.33.45-.64.83s-1.33,1.55-1.33,1.55,0,.16,0,.55c0,.19,0,.56,0,.56s.83.92,1.34,1.55c.31.38.52.66.61.8a2.33,2.33,0,0,1,.15,2.48l-1.2,2.07a2.31,2.31,0,0,1-2.2,1.11h-.07l-.21,0-.75-.1c-.63-.1-2-.38-2-.38l-.94.55s-.39,1.19-.68,1.94c-.18.45-.31.78-.39.93a2.33,2.33,0,0,1-2.07,1.37h-2.39a2.3,2.3,0,0,1-2.06-1.34c-.08-.18-.22-.51-.4-1s-.68-1.94-.68-1.94l-1-.55s-1.22.26-2,.38c-.48.07-.83.12-1,.13a2.33,2.33,0,0,1-2.22-1.11l-1.2-2.07A2.31,2.31,0,0,1,573-258c.12-.16.33-.45.64-.83s1.33-1.56,1.33-1.56,0-.16,0-.55c0-.18,0-.55,0-.55s-.84-.93-1.34-1.56c-.3-.38-.52-.66-.61-.8a2.33,2.33,0,0,1-.15-2.48l1.2-2.07a2.31,2.31,0,0,1,2.19-1.11c.2,0,.55.06,1,.14.63.1,2,.38,2,.38l.94-.56s.38-1.18.67-1.93c.18-.45.32-.78.38-.93a2.33,2.33,0,0,1,2.07-1.37h2.39a2.31,2.31,0,0,1,2.06,1.34C587.88-272.3,588-272,588.19-271.52Z"/></clipPath><clipPath id="clip-path-9"><path class="cls-1" d="M218.53-947.55a3.31,3.31,0,0,0,3.31-3.31,3.31,3.31,0,0,0-3.31-3.31,3.31,3.31,0,0,0-3.31,3.31A3.31,3.31,0,0,0,218.53-947.55Zm0,6.62a9.94,9.94,0,0,1-9.94-9.94,9.94,9.94,0,0,1,9.94-9.94,9.94,9.94,0,0,1,9.94,9.94A9.94,9.94,0,0,1,218.53-940.92Zm5.71-27.31-.45-1.49c-.64-2.16-1.34-4.15-2-5.92-.24-.61-.46-1.15-.65-1.61a16.92,16.92,0,0,0-5.18,0c-.2.46-.42,1-.65,1.61-.69,1.77-1.38,3.76-2,5.92l-.44,1.49-1.43.61a18.19,18.19,0,0,0-3.8,2.2l-1.24.94-1.51-.36c-2.2-.52-4.27-.92-6.14-1.21L197-966.3a16.84,16.84,0,0,0-2.59,4.49c.3.4.66.86,1.07,1.37,1.19,1.48,2.56,3.07,4.12,4.71l1.07,1.13-.19,1.54a18.3,18.3,0,0,0-.13,2.2,18.3,18.3,0,0,0,.13,2.2l.19,1.54L199.56-946c-1.55,1.64-2.93,3.24-4.12,4.71-.41.51-.77,1-1.07,1.37a16.84,16.84,0,0,0,2.59,4.49l1.72-.24c1.87-.29,3.94-.69,6.14-1.21l1.51-.36,1.24.94a18.2,18.2,0,0,0,3.8,2.2l1.43.61.44,1.49c.65,2.16,1.34,4.15,2,5.92.24.61.46,1.15.65,1.61a16.92,16.92,0,0,0,5.18,0c.19-.46.42-1,.65-1.61.69-1.77,1.38-3.75,2-5.92l.45-1.49,1.43-.61a18.17,18.17,0,0,0,3.8-2.2l1.24-.94,1.51.36c2.2.52,4.27.92,6.14,1.21l1.72.24c.17,0,2.77-4.26,2.59-4.49-.3-.4-.66-.86-1.07-1.37-1.19-1.48-2.57-3.07-4.12-4.71l-1.07-1.13.19-1.54a18.32,18.32,0,0,0,.13-2.2,18.32,18.32,0,0,0-.13-2.2l-.19-1.54,1.07-1.13c1.55-1.64,2.93-3.24,4.12-4.71.41-.51.77-1,1.07-1.37a16.91,16.91,0,0,0-2.59-4.49l-1.72.24c-1.87.29-3.94.69-6.14,1.21l-1.51.36-1.24-.94a18.17,18.17,0,0,0-3.8-2.2Zm3.71-9.81c.75,1.92,1.76,5,1.76,5l2.46,1.44s3.15-.66,5.19-1c1.24-.19,2.15-.3,2.58-.34a6,6,0,0,1,5.74,2.86l3.08,5.34a6,6,0,0,1-.34,6.32c-.3.42-.85,1.16-1.64,2.14-1,1.27-3.44,4-3.44,4s0,.42,0,1.43c0,.48,0,1.45,0,1.45s2.15,2.38,3.45,4c.79,1,1.34,1.71,1.59,2.06a6,6,0,0,1,.39,6.4l-3.08,5.34a6,6,0,0,1-5.67,2.87l-.19,0-.53-.06c-.56-.07-1.21-.16-1.93-.27-1.63-.25-5.23-1-5.23-1l-2.42,1.43s-1,3.07-1.76,5c-.45,1.17-.81,2-1,2.4a6,6,0,0,1-5.34,3.54h-6.17a5.94,5.94,0,0,1-5.3-3.45c-.22-.47-.58-1.32-1-2.49-.6-1.53-1.76-5-1.76-5l-2.47-1.41s-3.14.67-5.18,1c-1.24.19-2.15.3-2.58.34a6,6,0,0,1-5.74-2.86L188.31-937a5.94,5.94,0,0,1,.34-6.32c.3-.42.85-1.16,1.64-2.14,1-1.28,3.44-4,3.44-4s0-.42,0-1.42c0-.47,0-1.42,0-1.42s-2.15-2.4-3.45-4c-.79-1-1.34-1.71-1.59-2.06a6,6,0,0,1-.39-6.4l3.08-5.34A6,6,0,0,1,197-973c.52,0,1.43.16,2.67.35,1.63.25,5.25,1,5.25,1l2.43-1.45s1-3.05,1.73-5c.45-1.17.81-2,1-2.4a6,6,0,0,1,5.34-3.54h6.17a6,6,0,0,1,5.31,3.45C227.14-980.06,227.49-979.21,227.95-978Z"/></clipPath><clipPath id="clip-path-10"><path class="cls-1" d="M265.7-1137.82a3,3,0,0,1-1.15-4.12,3,3,0,0,1,4.12-1.15l7.53,4.24a3,3,0,0,1,1.15,4.12,3,3,0,0,1-4.12,1.15Zm-9.09-21.31,27.21-15.12a3,3,0,0,1,2.94,0L314-1159.14a3,3,0,0,1,1.55,2.64v30.24a3,3,0,0,1-1.55,2.64l-27.21,15.12a3,3,0,0,1-2.94,0l-27.21-15.12a3,3,0,0,1-1.56-2.64v-30.24A3,3,0,0,1,256.61-1159.14Zm25.66,42.88v-23.33l-21.17-11.75V-1128Zm6,0L309.48-1128v-23.21l-21.17,11.67Zm4.34-47.78-7.37-4.09-21,11.66,7.59,4.21Zm6.19,3.44-20.76,11.78,7.23,4,21-11.62Z"/></clipPath><clipPath id="clip-path-11"><path class="cls-1" d="M123.54-1076.73a3.06,3.06,0,0,0,3.06-3.06,3.06,3.06,0,0,0-3.06-3.06,3.06,3.06,0,0,0-3.06,3.06A3.06,3.06,0,0,0,123.54-1076.73Zm0,6.12a9.17,9.17,0,0,1-9.17-9.17,9.17,9.17,0,0,1,9.17-9.17,9.17,9.17,0,0,1,9.17,9.17A9.17,9.17,0,0,1,123.54-1070.62Zm21.4,6.12a3.06,3.06,0,0,0,3.06-3.06,3.06,3.06,0,0,0-3.06-3.06,3.06,3.06,0,0,0-3.06,3.06A3.06,3.06,0,0,0,144.94-1064.5Zm0,6.12a9.17,9.17,0,0,1-9.17-9.17,9.17,9.17,0,0,1,9.17-9.17,9.17,9.17,0,0,1,9.17,9.17A9.17,9.17,0,0,1,144.94-1058.39Zm-45.86,19.94s0-.08,0-.12v-22.87H93V-1037h6.11Zm6.11-1a11.46,11.46,0,0,0,2.82,2.12c3.74,2.14,9.29,3.46,17.07,3.42a42.83,42.83,0,0,0,21.58-5.86,37.42,37.42,0,0,0,6.1-4.31c.35-.31.59-.56.59-.56a.48.48,0,0,0,0-.67,2.45,2.45,0,0,0-.58-.52,10.11,10.11,0,0,0-6.34-1.84h-6.92c.31.85.54,1.64.71,2.31a3.06,3.06,0,0,1-3,3.8H112.84a3.06,3.06,0,0,1-3.06-3.06,3.06,3.06,0,0,1,3.06-3.06h19.87s.09-.39-.56-1.56c-1.67-3-3.56-4.56-5.55-4.56H115.9a3.05,3.05,0,0,1-1.82-.6c-.12-.09-2.54-1.52-3.52-2a23.12,23.12,0,0,0-5.36-1.71Zm-1.93,6.34a7.12,7.12,0,0,1-5.21,2.26H94a7.14,7.14,0,0,1-7.14-7.16v-22.37a7.15,7.15,0,0,1,7.14-7.16h4.05a7.13,7.13,0,0,1,5.93,3.15,28.19,28.19,0,0,1,9.1,2.47,29.29,29.29,0,0,1,3.82,2.05l9.71,0c4.15,0,7.4,2.34,9.92,6.12h9.95c7.78,0,13.75,4.66,13.75,9.15,0,2.65-4.59,6.76-10.5,10.16a48.87,48.87,0,0,1-24.63,6.67c-8.78,0-15.4-1.52-20.12-4.23Q104.05-1032.56,103.26-1033.13Z"/></clipPath><clipPath id="clip-path-12"><path class="cls-1" d="M185.22-1205.3l-3.19-3.18a3.19,3.19,0,0,1,0-4.51,3.18,3.18,0,0,1,4.51,0l.94.94,4.11-4.12a3.18,3.18,0,0,1,4.51,0,3.18,3.18,0,0,1,0,4.5l-6.37,6.37A3.18,3.18,0,0,1,185.22-1205.3Zm0-17.52L182-1226a3.19,3.19,0,0,1,0-4.51,3.19,3.19,0,0,1,4.51,0l.93.93,4.12-4.12a3.18,3.18,0,0,1,4.51,0,3.18,3.18,0,0,1,0,4.5l-6.37,6.37A3.18,3.18,0,0,1,185.22-1222.82Zm15,15.27a3.2,3.2,0,0,1,3.2-3.19h12.72a3.19,3.19,0,0,1,3.2,3.19,3.2,3.2,0,0,1-3.2,3.18H203.41A3.18,3.18,0,0,1,200.22-1207.55Zm0-17.52a3.2,3.2,0,0,1,3.2-3.18h12.72a3.18,3.18,0,0,1,3.2,3.18,3.2,3.2,0,0,1-3.2,3.19H203.41A3.19,3.19,0,0,1,200.22-1225.08Zm9.56-17.52H203.4a3.18,3.18,0,0,1-3.19,3.18,3.18,3.18,0,0,1-3.19-3.18h-6.37a3.18,3.18,0,0,1-3.19,3.18,3.18,3.18,0,0,1-3.19-3.18h-6.37s0,51,0,51h44.6s0-51,0-51h-6.37a3.18,3.18,0,0,1-3.19,3.18,3.18,3.18,0,0,1-3.19-3.18Zm0-6.37h0a3.18,3.18,0,0,1,3.19-3.18,3.18,3.18,0,0,1,3.19,3.18h6.37a6.37,6.37,0,0,1,6.37,6.37v51a6.36,6.36,0,0,1-6.37,6.37h-44.6a6.37,6.37,0,0,1-6.37-6.37v-51a6.37,6.37,0,0,1,6.37-6.37h6.37a3.18,3.18,0,0,1,3.19-3.18,3.18,3.18,0,0,1,3.19,3.18H197a3.18,3.18,0,0,1,3.19-3.18,3.18,3.18,0,0,1,3.19,3.18h6.37Z"/></clipPath><clipPath id="clip-path-13"><rect class="cls-2" x="2305.27" y="-10.12" width="1180" height="551"/></clipPath><clipPath id="clip-path-14"><path class="cls-1" d="M131.52-944.21a4.59,4.59,0,0,1-4.59-4.59,4.59,4.59,0,0,1,4.59-4.59,4.59,4.59,0,0,1,4.59,4.59A4.59,4.59,0,0,1,131.52-944.21Zm-15.3,0a4.59,4.59,0,0,1-4.59-4.59,4.59,4.59,0,0,1,4.59-4.59,4.59,4.59,0,0,1,4.59,4.59A4.59,4.59,0,0,1,116.22-944.21Zm35.18,1.53v-9.19a1.53,1.53,0,0,0-1.53-1.52h-1.53v12.24h1.53A1.53,1.53,0,0,0,151.4-942.68ZM97.87-953.39a1.53,1.53,0,0,0-1.53,1.52v9.19a1.53,1.53,0,0,0,1.53,1.53,1.53,1.53,0,0,0,1.53-1.53v-10.71Zm31.3,30.59a6.12,6.12,0,0,1-5.3,3.06,6.12,6.12,0,0,1-6.12-6.12,6.12,6.12,0,0,1,6.12-6.12,6.12,6.12,0,0,1,5.3,3.06h7a6.12,6.12,0,0,0,6.1-6.13v-24.47a18.36,18.36,0,0,0-18.35-18.35,18.35,18.35,0,0,0-18.36,18.35v16.84A7.65,7.65,0,0,1,97.87-935a7.65,7.65,0,0,1-7.65-7.65v-9.19a7.65,7.65,0,0,1,7.65-7.64H99.4A24.47,24.47,0,0,1,123.87-984a24.48,24.48,0,0,1,24.47,24.47h1.53a7.65,7.65,0,0,1,7.65,7.64v9.19a7.65,7.65,0,0,1-7.65,7.65h-1.53a12.24,12.24,0,0,1-12.22,12.24Z"/></clipPath><clipPath id="clip-path-15"><path class="cls-3" d="M113.48-1214.11a5.39,5.39,0,0,1,5.39-5.39h3.06a5.39,5.39,0,0,1,5.39,5.39v3.06a5.39,5.39,0,0,1-5.39,5.39h-3.06a5.39,5.39,0,0,1-5.39-5.39Zm24.23-9.11-17.31-20.29-17.31,20.29c0,.09,0,.17,0,.26v29.43h34.6V-1223C137.7-1223,137.71-1223.14,137.71-1223.22Zm6.91,10.64v12.11h1.73a5.18,5.18,0,0,1,5.19,5.19v1.73H155a3.46,3.46,0,0,1,3.48,3.46,3.47,3.47,0,0,1-3.48,3.46H103.77c-4.07,0-7.59-2.95-7.59-6.91v-21.59l-.35.4a3.46,3.46,0,0,1-4.88.39,3.46,3.46,0,0,1-.39-4.88l25-29.27a6.22,6.22,0,0,1,9.72,0l24.74,29h5a3.44,3.44,0,0,1,3.45,3.46,3.46,3.46,0,0,1-3.45,3.46Z"/></clipPath><clipPath id="clip-path-16"><path class="cls-1" d="M290.3-1063.88c1.31-2.39,3.78-2.6,5.48-.51l2.52,3.1a3.8,3.8,0,0,0,6.16,0l-1.41,1.77a3.88,3.88,0,0,1,6.25-.08l5.52,6.51c1.76,2.07,1,3.76-1.74,3.76H287.24c-2.72,0-3.86-1.95-2.55-4.32Zm26.3,3.47a4.74,4.74,0,0,1-4.74-4.74,4.74,4.74,0,0,1,4.74-4.74,4.74,4.74,0,0,1,4.74,4.74A4.74,4.74,0,0,1,316.6-1060.41ZM310.24-1043h17.42v-33.17H277.11s0,33.17,0,33.17h33.12Zm-4.69-39.49h22.11a6.32,6.32,0,0,1,6.32,6.32V-1043a3.16,3.16,0,0,1,3.16,3.16,3.17,3.17,0,0,1-3.17,3.16H316.19l6.2,9.3a3.16,3.16,0,0,1-.88,4.38,3.16,3.16,0,0,1-4.38-.88l-8.54-12.81H296.18l-8.54,12.81a3.16,3.16,0,0,1-4.38.88,3.16,3.16,0,0,1-.88-4.38l6.2-9.3H270.8a3.16,3.16,0,0,1-3.17-3.16,3.17,3.17,0,0,1,3.16-3.16v-33.17a6.33,6.33,0,0,1,6.32-6.32h22.11v-3.16a3.15,3.15,0,0,1,3.16-3.16,3.15,3.15,0,0,1,3.16,3.16Z"/></clipPath><clipPath id="clip-path-17"><path class="cls-1" d="M136.47-1114.32A16.56,16.56,0,0,0,153-1130.88a16.56,16.56,0,0,0-16.56-16.57,16.56,16.56,0,0,0-16.56,16.57A16.56,16.56,0,0,0,136.47-1114.32Zm-28.61,4.52a6,6,0,0,1-6-6,6,6,0,0,1,6-6,6,6,0,0,1,6,6A6,6,0,0,1,107.86-1109.8Zm7.9-30.12a22.59,22.59,0,0,1,20.71-13.55,22.56,22.56,0,0,1,6.39.92l.49-2.63L101-1157.78l4.12,17.86Zm-1.68,6h-7.53l.7,3h6.64A22.78,22.78,0,0,1,114.08-1133.89Zm34.43-16.1a22.57,22.57,0,0,1,10.54,19.11,22.59,22.59,0,0,1-22.59,22.59,22.6,22.6,0,0,1-21.78-16.56h-9.85a3,3,0,0,1-2.93-2.34l-8.71-37.75-4.71-2.37a3,3,0,0,1-1.35-4,3,3,0,0,1,4-1.35l6,3a3,3,0,0,1,1.59,2l.88,3.8,47.9,2.94a2.58,2.58,0,0,1,2.45,3.12Z"/></clipPath><clipPath id="clip-path-18"><path class="cls-1" d="M208.81-1144.36a3.33,3.33,0,0,1,3.34-3.33h16.61a3.32,3.32,0,0,1,3.34,3.33,3.33,3.33,0,0,1-3.34,3.33H212.14A3.32,3.32,0,0,1,208.81-1144.36Zm0,13.3a3.33,3.33,0,0,1,3.34-3.33h16.61a3.32,3.32,0,0,1,3.34,3.33,3.33,3.33,0,0,1-3.34,3.32H212.14A3.32,3.32,0,0,1,208.81-1131.06Zm26.62-23.28H205.48v39.26l5.46-2.39a3.33,3.33,0,0,1,2.56,0l7,2.78,7.17-2.78a3.33,3.33,0,0,1,2.59,0l5.18,2.33S235.42-1154.34,235.43-1154.34ZM210.48-1161c0-4,0-6.65,0-6.65H180.54v39.26l5.46-2.39a3.33,3.33,0,0,1,2.56,0l7,2.78,3.3-1.28V-1141H187.2a3.32,3.32,0,0,1-3.34-3.33,3.33,3.33,0,0,1,3.34-3.33h11.63v-6.65H187.2a3.32,3.32,0,0,1-3.34-3.32,3.33,3.33,0,0,1,3.34-3.33h23.28Zm6.64,0h18.31a6.64,6.64,0,0,1,6.64,6.64v41a5.3,5.3,0,0,1-7.72,5l-5.55-2.48-7,2.81a3.33,3.33,0,0,1-2.47,0l-7.22-2.81-5.59,2.51a5.32,5.32,0,0,1-7.71-5v-8.76l-2,.79a3.33,3.33,0,0,1-2.47,0l-7.22-2.81-5.59,2.51a5.32,5.32,0,0,1-7.71-5v-41a6.64,6.64,0,0,1,6.64-6.64h30a6.63,6.63,0,0,1,6.64,6.64Z"/></clipPath><clipPath id="clip-path-19"><path id="a" class="cls-1" d="M291.16-1193.24a17.21,17.21,0,0,0,17.21-17.21,17.21,17.21,0,0,0-17.21-17.22A17.21,17.21,0,0,0,274-1210.45,17.21,17.21,0,0,0,291.16-1193.24Zm-20.77-6.26a23.3,23.3,0,0,1-2.5-7.82H254.71l2.13,7.82Zm4.81,6.26h-20a4.31,4.31,0,0,1-3.94-3l-7.74-28.38a2.27,2.27,0,0,1,2.3-3h7.58L265-1248a3.13,3.13,0,0,1,4.27-1.16,3.13,3.13,0,0,1,1.16,4.27l-9.84,17.23h14.64a23.43,23.43,0,0,1,9.13-5.25l-6.84-12a3.13,3.13,0,0,1,1.16-4.27,3.13,3.13,0,0,1,4.27,1.16l8,14.07h.2a23.47,23.47,0,0,1,23.47,23.48A23.47,23.47,0,0,1,291.16-1187,23.38,23.38,0,0,1,275.21-1193.24Zm-7.31-20.34a23.31,23.31,0,0,1,2.5-7.82H250.89l2.13,7.82Z"/></clipPath><clipPath id="clip-path-20"><path id="a-2" data-name="a" class="cls-1" d="M230-1030.89a17.21,17.21,0,0,0,17.21-17.21A17.21,17.21,0,0,0,230-1065.32a17.21,17.21,0,0,0-17.21,17.22A17.21,17.21,0,0,0,230-1030.89Zm-20.77-6.26a23.3,23.3,0,0,1-2.5-7.82H193.52l2.13,7.82Zm4.81,6.26H194a4.31,4.31,0,0,1-3.94-3l-7.74-28.38a2.27,2.27,0,0,1,2.3-3h7.58l11.62-20.33a3.13,3.13,0,0,1,4.27-1.16,3.13,3.13,0,0,1,1.16,4.27l-9.84,17.23H214a23.43,23.43,0,0,1,9.13-5.25l-6.84-12a3.13,3.13,0,0,1,1.16-4.27,3.13,3.13,0,0,1,4.27,1.16l8,14.07h.2a23.47,23.47,0,0,1,23.47,23.48A23.47,23.47,0,0,1,230-1024.63,23.38,23.38,0,0,1,214-1030.89Zm-7.31-20.34a23.31,23.31,0,0,1,2.5-7.82H189.69l2.13,7.82Z"/></clipPath></defs><title>Truck</title><g id="Camada_3" data-name="Camada 3"><g class="cls-7"><g class="cls-8"><rect class="cls-9" x="-2.06" y="-0.13" width="24.11" height="20.07"/></g></g></g><g id="Camada_5" data-name="Camada 5"><g class="cls-17"><path class="cls-18" d="M-40,10.64a6,6,0,0,1,6-6H1094a6,6,0,0,1,6,6V510.12a6,6,0,0,1-6,6H-34a6,6,0,0,1-6-6Z"/></g></g><g id="Camada_11" data-name="Camada 11"><path class="cls-20" d="M113.48-1214.11a5.39,5.39,0,0,1,5.39-5.39h3.06a5.39,5.39,0,0,1,5.39,5.39v3.06a5.39,5.39,0,0,1-5.39,5.39h-3.06a5.39,5.39,0,0,1-5.39-5.39Zm24.23-9.11-17.31-20.29-17.31,20.29c0,.09,0,.17,0,.26v29.43h34.6V-1223C137.7-1223,137.71-1223.14,137.71-1223.22Zm6.91,10.64v12.11h1.73a5.18,5.18,0,0,1,5.19,5.19v1.73H155a3.46,3.46,0,0,1,3.48,3.46,3.47,3.47,0,0,1-3.48,3.46H103.77c-4.07,0-7.59-2.95-7.59-6.91v-21.59l-.35.4a3.46,3.46,0,0,1-4.88.39,3.46,3.46,0,0,1-.39-4.88l25-29.27a6.22,6.22,0,0,1,9.72,0l24.74,29h5a3.44,3.44,0,0,1,3.45,3.46,3.46,3.46,0,0,1-3.45,3.46Z"/><g class="cls-21"><rect class="cls-22" x="-467.28" y="-2465.33" width="3879.63" height="7576.06"/></g></g></svg>