<svg id="Camada_1" data-name="Camada 1" xmlns="http://www.w3.org/2000/svg" xmlns:xlink="http://www.w3.org/1999/xlink" viewBox="0 0 52.08 50.87"><defs><style>.cls-1,.cls-2,.cls-5,.cls-7{fill:#6b6b6b;}.cls-1,.cls-2,.cls-23,.cls-24,.cls-8,.cls-9{stroke:#fff;}.cls-1,.cls-13,.cls-14,.cls-2,.cls-23,.cls-24,.cls-3,.cls-4,.cls-8,.cls-9{stroke-miterlimit:10;}.cls-1,.cls-2,.cls-3{clip-rule:evenodd;}.cls-2,.cls-23,.cls-24{stroke-width:0.82px;}.cls-10,.cls-12,.cls-3,.cls-4{fill:#fff;}.cls-13,.cls-14,.cls-3,.cls-4{stroke:#579a64;stroke-width:0.7px;}.cls-10,.cls-14,.cls-24,.cls-5,.cls-9{fill-rule:evenodd;}.cls-6{clip-path:url(#clip-path);}.cls-13,.cls-14,.cls-23,.cls-24,.cls-8,.cls-9{fill:none;}.cls-11{clip-path:url(#clip-path-2);}.cls-15{clip-path:url(#clip-path-3);}.cls-16{clip-path:url(#clip-path-4);}.cls-17{clip-path:url(#clip-path-5);}.cls-18{clip-path:url(#clip-path-6);}.cls-19{clip-path:url(#clip-path-7);}.cls-20{clip-path:url(#clip-path-8);}.cls-21{clip-path:url(#clip-path-9);}.cls-22{clip-path:url(#clip-path-10);}.cls-25{clip-path:url(#clip-path-11);}.cls-26{clip-path:url(#clip-path-12);}.cls-27{clip-path:url(#clip-path-13);}.cls-28{clip-path:url(#clip-path-14);}.cls-29{clip-path:url(#clip-path-15);}.cls-30{clip-path:url(#clip-path-16);}.cls-31{clip-path:url(#clip-path-17);}.cls-32{clip-path:url(#clip-path-18);}.cls-33{clip-path:url(#clip-path-19);}</style><clipPath id="clip-path"><path class="cls-1" d="M-43.13-182.13H-67l-2.42,8.71h28.74Zm-21.64-4.36a13,13,0,0,1-3.33-8.72A13.07,13.07,0,0,1-55-208.28,13.07,13.07,0,0,1-42-195.2a13,13,0,0,1-3.33,8.72H-42a3,3,0,0,1,2.75,2.1l3.68,13.23a1.57,1.57,0,0,1-1.6,2.11L-73-169a1.57,1.57,0,0,1-1.61-2.1l3.66-13.25a3,3,0,0,1,2.75-2.11Zm1.07-7.92A8.72,8.72,0,0,0-55-186.49a8.72,8.72,0,0,0,8.72-8.72,8.67,8.67,0,0,0-1.28-4.55c-2.66,2.37-8.57,2.37-11.62,2.37A5.48,5.48,0,0,0-63.71-194.4Z"/></clipPath><clipPath id="clip-path-2"><path class="cls-3" d="M37.87-182.13H14l-2.42,8.71H40.32Zm-21.64-4.36a13,13,0,0,1-3.33-8.72A13.07,13.07,0,0,1,26-208.28,13.07,13.07,0,0,1,39-195.2a13,13,0,0,1-3.33,8.72H39a3,3,0,0,1,2.75,2.1l3.68,13.23a1.57,1.57,0,0,1-1.6,2.11L8-169a1.57,1.57,0,0,1-1.61-2.1l3.66-13.25a3,3,0,0,1,2.75-2.11Zm1.07-7.92A8.72,8.72,0,0,0,26-186.49a8.72,8.72,0,0,0,8.72-8.72,8.67,8.67,0,0,0-1.28-4.55c-2.66,2.37-8.57,2.37-11.62,2.37A5.48,5.48,0,0,0,17.29-194.4Z"/></clipPath><clipPath id="clip-path-3"><path class="cls-1" d="M-51.44,140.08A5.42,5.42,0,0,0-46,134.66a5.42,5.42,0,0,0-5.42-5.42,5.42,5.42,0,0,0-5.42,5.42A5.42,5.42,0,0,0-51.44,140.08Zm0-22.09a1.4,1.4,0,0,1,1.4-1.41h2.63A1.4,1.4,0,0,1-46,118v.8a1.4,1.4,0,0,1-1.4,1.41H-50a1.4,1.4,0,0,1-1.4-1.41Zm-19.88,10.84a1.4,1.4,0,0,1,1.4-1.41h2.63a1.4,1.4,0,0,1,1.4,1.41v.8a1.4,1.4,0,0,1-1.4,1.41h-2.63a1.4,1.4,0,0,1-1.4-1.41Zm27.29,11a5.4,5.4,0,0,0,1.63.25A5.42,5.42,0,0,0-37,134.66a5.42,5.42,0,0,0-5.42-5.42,5.45,5.45,0,0,0-1.63.25,9,9,0,0,1,1.63,5.17A9,9,0,0,1-44,139.83Zm-16.26-7a9,9,0,0,1,1.63-3.61,5.42,5.42,0,0,1-5.42-5.42,5.42,5.42,0,0,1,5.42-5.42,5.42,5.42,0,0,1,5.42,5.42,5.4,5.4,0,0,1-.41,2.08,9.1,9.1,0,0,1,2.22-.27,9,9,0,0,1,4.52,1.21,9,9,0,0,1,2.71-1v-11H-73.13v18.07Zm0,3.61H-71.11a5.62,5.62,0,0,1-5.63-5.62V116.78a5.62,5.62,0,0,1,5.63-5.62h24.89a5.62,5.62,0,0,1,5.63,5.62v9a9,9,0,0,1,7.23,8.86,9,9,0,0,1-9,9,9,9,0,0,1-4.52-1.21,9,9,0,0,1-4.52,1.21A9,9,0,0,1-60.3,136.47Z"/></clipPath><clipPath id="clip-path-4"><path class="cls-1" d="M-45.12,461.74v-8.24a9.94,9.94,0,0,0-9.94-9.95A9.94,9.94,0,0,0-65,453.5v8.25a1.91,1.91,0,0,1-1.36,1.75,1.81,1.81,0,0,0-1.35,1.75,1.81,1.81,0,0,0,1.81,1.81h21.68a1.81,1.81,0,0,0,1.81-1.81,1.81,1.81,0,0,0-1.36-1.75A1.91,1.91,0,0,1-45.12,461.74Zm-11.75,8.92h0a1.8,1.8,0,0,0,1.81,1.8,1.81,1.81,0,0,0,1.81-1.81Zm-3.61,0h-5.42a5.43,5.43,0,0,1-5.43-5.42,5.42,5.42,0,0,1,2.72-4.7c0-.55,0-7,0-7a13.56,13.56,0,0,1,10-13.07,3.66,3.66,0,0,1,0-.48,3.61,3.61,0,0,1,3.61-3.61,3.61,3.61,0,0,1,3.61,3.61,3.64,3.64,0,0,1,0,.48,13.56,13.56,0,0,1,10,13.08v7.06a5.41,5.41,0,0,1,2.71,4.69,5.42,5.42,0,0,1-5.43,5.42h-5.42a5.43,5.43,0,0,1-5.42,5.42,5.42,5.42,0,0,1-5.42-5.42Z"/></clipPath><clipPath id="clip-path-5"><path class="cls-1" d="M-64.56-72.76l-2-2a2,2,0,0,1,0-2.86,2,2,0,0,1,2.86,0l.6.6,2.61-2.62a2,2,0,0,1,2.86,0,2,2,0,0,1,0,2.86l-4,4A2,2,0,0,1-64.56-72.76Zm0-11.11-2-2a2,2,0,0,1,0-2.86,2,2,0,0,1,2.86,0l.59.59,2.61-2.61a2,2,0,0,1,2.86,0,2,2,0,0,1,0,2.86l-4,4A2,2,0,0,1-64.56-83.87Zm9.51,9.68a2,2,0,0,1,2-2H-45a2,2,0,0,1,2,2,2,2,0,0,1-2,2H-53A2,2,0,0,1-55.06-74.19Zm0-11.11a2,2,0,0,1,2-2H-45a2,2,0,0,1,2,2,2,2,0,0,1-2,2H-53A2,2,0,0,1-55.06-85.3ZM-49-96.41h-4a2,2,0,0,1-2,2,2,2,0,0,1-2-2h-4a2,2,0,0,1-2,2,2,2,0,0,1-2-2h-4s0,32.32,0,32.32h28.28s0-32.33,0-32.33h-4a2,2,0,0,1-2,2,2,2,0,0,1-2-2Zm0-4h0a2,2,0,0,1,2-2,2,2,0,0,1,2,2h4a4,4,0,0,1,4,4v32.33a4,4,0,0,1-4,4H-69.19a4,4,0,0,1-4-4V-96.41a4,4,0,0,1,4-4h4a2,2,0,0,1,2-2,2,2,0,0,1,2,2h4a2,2,0,0,1,2-2,2,2,0,0,1,2,2h4Z"/></clipPath><clipPath id="clip-path-6"><path class="cls-1" d="M-61.29,27.24a2.08,2.08,0,0,0,2.08-2.08,2.08,2.08,0,0,0-2.08-2.08,2.08,2.08,0,0,0-2.08,2.08A2.08,2.08,0,0,0-61.29,27.24Zm0,4.15a6.23,6.23,0,0,1-6.23-6.23,6.23,6.23,0,0,1,6.23-6.23,6.23,6.23,0,0,1,6.23,6.23A6.23,6.23,0,0,1-61.29,31.39Zm-12.35-6.67a1.1,1.1,0,0,0,0,1L-66,36.79a2.54,2.54,0,0,0,1.59.83h28s0-24.93,0-24.93h-28a2.55,2.55,0,0,0-1.59.83Zm4.26,14.49L-77,28a5.19,5.19,0,0,1,0-5.81l7.61-11.11a6.59,6.59,0,0,1,5-2.57h28a4.15,4.15,0,0,1,4.14,4.14V37.63a4.15,4.15,0,0,1-4.14,4.14h-28A6.58,6.58,0,0,1-69.39,39.21Z"/></clipPath><clipPath id="clip-path-7"><path class="cls-1" d="M-48.73,362.7a9.94,9.94,0,0,0,9.94-9.94,9.94,9.94,0,0,0-9.94-9.94,9.94,9.94,0,0,0-9.94,9.94A9.94,9.94,0,0,0-48.73,362.7Zm6.32-21.93a13.55,13.55,0,0,1,7.23,12,13.55,13.55,0,0,1-13.55,13.55,13.49,13.49,0,0,1-6.77-1.81H-69.3a5.62,5.62,0,0,1-5.63-5.63V334a5.63,5.63,0,0,1,5.63-5.63H-48A5.62,5.62,0,0,1-42.41,334Zm-19.88,12.14a9,9,0,0,1-5.42-8.28v-2.29a3.61,3.61,0,0,1-1.81-3.13,3.61,3.61,0,0,1,3.61-3.61,3.61,3.61,0,0,1,3.61,3.61,3.61,3.61,0,0,1-1.81,3.13v2.29a5.42,5.42,0,0,0,2.32,4.44,13.59,13.59,0,0,1,7-8.45,3.6,3.6,0,0,1-.29-1.42,3.61,3.61,0,0,1,3.61-3.61,3.61,3.61,0,0,1,3.61,3.61v0a13.64,13.64,0,0,1,1.81.24V332h-25.3v28.92h11.75A13.5,13.5,0,0,1-62.28,352.91Zm15.36-2h2.71a1.81,1.81,0,0,1,1.81,1.81,1.81,1.81,0,0,1-1.81,1.81h-2.71v2.71a1.8,1.8,0,0,1-1.81,1.81,1.81,1.81,0,0,1-1.81-1.81v-2.71h-2.71a1.81,1.81,0,0,1-1.81-1.81A1.81,1.81,0,0,1-53.24,351h2.71v-2.71a1.81,1.81,0,0,1,1.81-1.81,1.81,1.81,0,0,1,1.81,1.81Z"/></clipPath><clipPath id="clip-path-8"><path class="cls-1" d="M-65.91,549.76H-52.7a2.51,2.51,0,0,1,1.54.63l9.93,9.94a2.51,2.51,0,0,1,.63,1.54v20.42a3.61,3.61,0,0,1-3.62,3.61H-65.89a3.62,3.62,0,0,1-3.62-3.61V553.38A3.61,3.61,0,0,1-65.91,549.76Zm12.66,3.61v9h9Zm-3.61,0h-9s0,28.92,0,28.92h21.68s0-10.53,0-16.27H-55.06a1.81,1.81,0,0,1-1.81-1.81Z"/></clipPath><clipPath id="clip-path-9"><path class="cls-1" d="M-39.85,228.24a7.24,7.24,0,0,0-1.27-1.06,9.45,9.45,0,0,0-5.38-1.58,7,7,0,0,0-5.09,2.29,22.66,22.66,0,0,0-1.56,2v21a16.25,16.25,0,0,1,6.63-1.59,16.3,16.3,0,0,1,6.67,1.5Zm-30.4,0v22.61a16.3,16.3,0,0,1,6.67-1.5A16.25,16.25,0,0,1-57,251v-21a22.67,22.67,0,0,0-1.56-2,7,7,0,0,0-5.09-2.29A9.45,9.45,0,0,0-69,227.18,7.25,7.25,0,0,0-70.26,228.24Zm14,27.37-.52-.33a15.58,15.58,0,0,0-1.66-.87,13.15,13.15,0,0,0-5.2-1.26,13.21,13.21,0,0,0-5.23,1.26,16,16,0,0,0-1.67.88c-.28.17-.47.3-.56.36a1.9,1.9,0,0,1-3-1.54V227.5a1.9,1.9,0,0,1,.37-1.13A10.54,10.54,0,0,1-71.1,224a13.24,13.24,0,0,1,7.49-2.22,10.78,10.78,0,0,1,7.78,3.41c.28.28.53.56.77.83.24-.27.49-.55.77-.83a10.78,10.78,0,0,1,7.78-3.41A13.24,13.24,0,0,1-39,224a10.54,10.54,0,0,1,2.59,2.35,1.9,1.9,0,0,1,.37,1.13v26.61a1.9,1.9,0,0,1-3,1.54c-.08-.06-.27-.19-.56-.36a16,16,0,0,0-1.67-.88,13.21,13.21,0,0,0-5.23-1.26,13.15,13.15,0,0,0-5.2,1.26,15.61,15.61,0,0,0-1.66.87l-.52.33-.13.09a1.86,1.86,0,0,1-1,.3,1.86,1.86,0,0,1-1-.3Z"/></clipPath><clipPath id="clip-path-10"><path class="cls-2" d="M-50.32,685.66a2.84,2.84,0,0,1-2.84-2.84A2.84,2.84,0,0,1-50.32,680a2.84,2.84,0,0,1,2.84,2.84A2.84,2.84,0,0,1-50.32,685.66Zm-9.47,0a2.84,2.84,0,0,1-2.84-2.84A2.84,2.84,0,0,1-59.79,680a2.84,2.84,0,0,1,2.84,2.84A2.84,2.84,0,0,1-59.79,685.66Zm21.78.95v-5.69A1,1,0,0,0-39,680h-.95v7.58H-39A1,1,0,0,0-38,686.61ZM-71.15,680a1,1,0,0,0-.95.94v5.69a1,1,0,0,0,.95.95,1,1,0,0,0,.95-.95V680Zm19.38,18.94a3.79,3.79,0,0,1-3.28,1.89A3.79,3.79,0,0,1-58.84,697a3.79,3.79,0,0,1,3.79-3.79,3.79,3.79,0,0,1,3.28,1.89h4.3a3.79,3.79,0,0,0,3.78-3.79V676.18a11.37,11.37,0,0,0-11.36-11.36,11.36,11.36,0,0,0-11.36,11.36v10.42a4.74,4.74,0,0,1-4.73,4.73,4.73,4.73,0,0,1-4.73-4.73v-5.69a4.74,4.74,0,0,1,4.73-4.73h.95A15.15,15.15,0,0,1-55.05,661,15.15,15.15,0,0,1-39.9,676.18H-39a4.74,4.74,0,0,1,4.73,4.73v5.69A4.73,4.73,0,0,1-39,691.34h-.95a7.58,7.58,0,0,1-7.57,7.58Z"/></clipPath><clipPath id="clip-path-11"><path class="cls-3" d="M29.56,140.08a5.42,5.42,0,1,0-5.42-5.42A5.42,5.42,0,0,0,29.56,140.08Zm0-22.09a1.4,1.4,0,0,1,1.4-1.41h2.63A1.4,1.4,0,0,1,35,118v.8a1.4,1.4,0,0,1-1.4,1.41H31a1.4,1.4,0,0,1-1.4-1.41ZM9.68,128.84a1.4,1.4,0,0,1,1.4-1.41h2.63a1.4,1.4,0,0,1,1.4,1.41v.8a1.4,1.4,0,0,1-1.4,1.41H11.08a1.4,1.4,0,0,1-1.4-1.41Zm27.29,11a5.42,5.42,0,1,0,0-10.35,9,9,0,0,1,0,10.35Zm-16.26-7a9,9,0,0,1,1.63-3.61,5.42,5.42,0,1,1,5-3.34,9.1,9.1,0,0,1,2.22-.27,9,9,0,0,1,4.52,1.21,9,9,0,0,1,2.71-1v-11H7.87v18.07Zm0,3.61H9.89a5.62,5.62,0,0,1-5.63-5.62V116.78a5.62,5.62,0,0,1,5.63-5.62H34.77a5.62,5.62,0,0,1,5.63,5.62v9a9,9,0,1,1-6.32,16.68,9,9,0,0,1-13.37-6Z"/></clipPath><clipPath id="clip-path-12"><path class="cls-3" d="M35.88,461.74v-8.24a9.94,9.94,0,1,0-19.88,0v8.25a1.91,1.91,0,0,1-1.36,1.75,1.81,1.81,0,0,0,.46,3.56H36.78a1.81,1.81,0,0,0,.46-3.56A1.91,1.91,0,0,1,35.88,461.74Zm-11.75,8.92h0a1.81,1.81,0,0,0,3.61,0Zm-3.61,0H15.11a5.42,5.42,0,0,1-2.71-10.12c0-.55,0-7,0-7a13.56,13.56,0,0,1,10-13.07,3.66,3.66,0,0,1,0-.48,3.61,3.61,0,1,1,7.2.48,13.56,13.56,0,0,1,10,13.08v7.06a5.42,5.42,0,0,1-2.71,10.11H31.37a5.42,5.42,0,0,1-10.84,0Z"/></clipPath><clipPath id="clip-path-13"><path class="cls-3" d="M16.44-72.76l-2-2a2,2,0,0,1,0-2.86,2,2,0,0,1,2.86,0l.6.6,2.61-2.62a2,2,0,0,1,2.86,0,2,2,0,0,1,0,2.86l-4,4A2,2,0,0,1,16.44-72.76Zm0-11.11-2-2a2,2,0,0,1,0-2.86,2,2,0,0,1,2.86,0l.59.59,2.61-2.61a2,2,0,0,1,2.86,0,2,2,0,0,1,0,2.86l-4,4A2,2,0,0,1,16.44-83.87Zm9.51,9.68a2,2,0,0,1,2-2H36a2,2,0,0,1,2,2,2,2,0,0,1-2,2H28A2,2,0,0,1,25.94-74.19Zm0-11.11a2,2,0,0,1,2-2H36a2,2,0,0,1,2,2,2,2,0,0,1-2,2H28A2,2,0,0,1,25.94-85.3ZM32-96.41H28a2,2,0,0,1-2,2,2,2,0,0,1-2-2h-4a2,2,0,0,1-2,2,2,2,0,0,1-2-2h-4s0,32.32,0,32.32H40.09s0-32.33,0-32.33H36a2,2,0,0,1-2,2,2,2,0,0,1-2-2Zm0-4h0a2,2,0,0,1,2-2,2,2,0,0,1,2,2h4a4,4,0,0,1,4,4v32.33a4,4,0,0,1-4,4H11.81a4,4,0,0,1-4-4V-96.41a4,4,0,0,1,4-4h4a2,2,0,0,1,2-2,2,2,0,0,1,2,2h4a2,2,0,0,1,2-2,2,2,0,0,1,2,2h4Z"/></clipPath><clipPath id="clip-path-14"><path class="cls-3" d="M19.71,27.24a2.08,2.08,0,1,0-2.08-2.08A2.08,2.08,0,0,0,19.71,27.24Zm0,4.15a6.23,6.23,0,1,1,6.23-6.23A6.23,6.23,0,0,1,19.71,31.39ZM7.36,24.72a1.1,1.1,0,0,0,0,1L15,36.79a2.54,2.54,0,0,0,1.59.83h28s0-24.93,0-24.93h-28a2.55,2.55,0,0,0-1.59.83Zm4.26,14.49L4,28a5.19,5.19,0,0,1,0-5.81l7.61-11.11a6.59,6.59,0,0,1,5-2.57h28a4.15,4.15,0,0,1,4.14,4.14V37.63a4.15,4.15,0,0,1-4.14,4.14h-28A6.58,6.58,0,0,1,11.61,39.21Z"/></clipPath><clipPath id="clip-path-15"><rect class="cls-4" x="-827.06" y="-3513.1" width="2327.81" height="4545.69"/></clipPath><clipPath id="clip-path-16"><path class="cls-3" d="M32.27,362.7a9.94,9.94,0,1,0-9.94-9.94A9.94,9.94,0,0,0,32.27,362.7Zm6.32-21.93A13.56,13.56,0,1,1,25.5,364.51H11.7a5.62,5.62,0,0,1-5.63-5.63V334a5.63,5.63,0,0,1,5.63-5.63H33A5.62,5.62,0,0,1,38.59,334ZM18.72,352.91a9,9,0,0,1-5.42-8.28v-2.29a3.61,3.61,0,1,1,3.61,0v2.29a5.42,5.42,0,0,0,2.32,4.44,13.59,13.59,0,0,1,7-8.45,3.61,3.61,0,1,1,6.94-1.42v0a13.64,13.64,0,0,1,1.81.24V332H9.68v28.92H21.43A13.5,13.5,0,0,1,18.72,352.91Zm15.36-2h2.71a1.81,1.81,0,1,1,0,3.61H34.08v2.71a1.81,1.81,0,1,1-3.61,0v-2.71H27.76a1.81,1.81,0,1,1,0-3.61h2.71v-2.71a1.81,1.81,0,1,1,3.61,0Z"/></clipPath><clipPath id="clip-path-17"><path class="cls-3" d="M15.09,549.76H28.3a2.51,2.51,0,0,1,1.54.63l9.93,9.94a2.51,2.51,0,0,1,.63,1.54v20.42a3.61,3.61,0,0,1-3.62,3.61H15.11a3.62,3.62,0,0,1-3.62-3.61V553.38A3.61,3.61,0,0,1,15.09,549.76Zm12.66,3.61v9h9Zm-3.61,0h-9s0,28.92,0,28.92H36.78s0-10.53,0-16.27H25.94a1.81,1.81,0,0,1-1.81-1.81Z"/></clipPath><clipPath id="clip-path-18"><path class="cls-3" d="M41.15,228.24a7.24,7.24,0,0,0-1.27-1.06,9.45,9.45,0,0,0-5.38-1.58,7,7,0,0,0-5.09,2.29,22.66,22.66,0,0,0-1.56,2v21a16.25,16.25,0,0,1,6.63-1.59,16.3,16.3,0,0,1,6.67,1.5Zm-30.4,0v22.61a16.3,16.3,0,0,1,6.67-1.5A16.25,16.25,0,0,1,24,251v-21a22.67,22.67,0,0,0-1.56-2,7,7,0,0,0-5.09-2.29A9.45,9.45,0,0,0,12,227.18,7.25,7.25,0,0,0,10.74,228.24Zm14,27.37-.52-.33a15.58,15.58,0,0,0-1.66-.87,13.15,13.15,0,0,0-5.2-1.26,13.21,13.21,0,0,0-5.23,1.26,16,16,0,0,0-1.67.88c-.28.17-.47.3-.56.36a1.9,1.9,0,0,1-3-1.54V227.5a1.9,1.9,0,0,1,.37-1.13A10.54,10.54,0,0,1,9.9,224a13.24,13.24,0,0,1,7.49-2.22,10.78,10.78,0,0,1,7.78,3.41c.28.28.53.56.77.83.24-.27.49-.55.77-.83a10.78,10.78,0,0,1,7.78-3.41A13.24,13.24,0,0,1,42,224a10.54,10.54,0,0,1,2.59,2.35,1.9,1.9,0,0,1,.37,1.13v26.61a1.9,1.9,0,0,1-3,1.54c-.08-.06-.27-.19-.56-.36a16,16,0,0,0-1.67-.88,13.21,13.21,0,0,0-5.23-1.26,13.15,13.15,0,0,0-5.2,1.26,15.61,15.61,0,0,0-1.66.87l-.52.33-.13.09a1.88,1.88,0,0,1-2.05,0Z"/></clipPath><clipPath id="clip-path-19"><path class="cls-3" d="M30.68,685.66a2.84,2.84,0,1,1,2.84-2.84A2.84,2.84,0,0,1,30.68,685.66Zm-9.47,0a2.84,2.84,0,1,1,2.84-2.84A2.84,2.84,0,0,1,21.21,685.66Zm21.78.95v-5.69A1,1,0,0,0,42,680H41.1v7.58H42A1,1,0,0,0,43,686.61ZM9.85,680a1,1,0,0,0-.95.94v5.69a.95.95,0,0,0,1.89,0V680Zm19.38,18.94a3.79,3.79,0,1,1,0-3.79h4.3a3.79,3.79,0,0,0,3.78-3.79V676.18a11.36,11.36,0,0,0-22.73,0v10.42a4.73,4.73,0,0,1-9.47,0v-5.69a4.74,4.74,0,0,1,4.73-4.73h.95a15.15,15.15,0,0,1,30.3,0H42a4.74,4.74,0,0,1,4.73,4.73v5.69A4.73,4.73,0,0,1,42,691.34H41.1a7.58,7.58,0,0,1-7.57,7.58Z"/></clipPath></defs><title>Voucher-white</title><path class="cls-5" d="M-43.13-182.13H-67l-2.42,8.71h28.74Zm-21.64-4.36a13,13,0,0,1-3.33-8.72A13.07,13.07,0,0,1-55-208.28,13.07,13.07,0,0,1-42-195.2a13,13,0,0,1-3.33,8.72H-42a3,3,0,0,1,2.75,2.1l3.68,13.23a1.57,1.57,0,0,1-1.6,2.11L-73-169a1.57,1.57,0,0,1-1.61-2.1l3.66-13.25a3,3,0,0,1,2.75-2.11Zm1.07-7.92A8.72,8.72,0,0,0-55-186.49a8.72,8.72,0,0,0,8.72-8.72,8.67,8.67,0,0,0-1.28-4.55c-2.66,2.37-8.57,2.37-11.62,2.37A5.48,5.48,0,0,0-63.71-194.4Z"/><g class="cls-6"><rect class="cls-7" x="-427.25" y="-1182.32" width="2442.87" height="4770.39"/><rect class="cls-8" x="-427.25" y="-1182.32" width="2442.87" height="4770.39"/></g><path class="cls-9" d="M-43.13-182.13H-67l-2.42,8.71h28.74Zm-21.64-4.36a13,13,0,0,1-3.33-8.72A13.07,13.07,0,0,1-55-208.28,13.07,13.07,0,0,1-42-195.2a13,13,0,0,1-3.33,8.72H-42a3,3,0,0,1,2.75,2.1l3.68,13.23a1.57,1.57,0,0,1-1.6,2.11L-73-169a1.57,1.57,0,0,1-1.61-2.1l3.66-13.25a3,3,0,0,1,2.75-2.11Zm1.07-7.92A8.72,8.72,0,0,0-55-186.49a8.72,8.72,0,0,0,8.72-8.72,8.67,8.67,0,0,0-1.28-4.55c-2.66,2.37-8.57,2.37-11.62,2.37A5.48,5.48,0,0,0-63.71-194.4Z"/><path class="cls-10" d="M37.87-182.13H14l-2.42,8.71H40.32Zm-21.64-4.36a13,13,0,0,1-3.33-8.72A13.07,13.07,0,0,1,26-208.28,13.07,13.07,0,0,1,39-195.2a13,13,0,0,1-3.33,8.72H39a3,3,0,0,1,2.75,2.1l3.68,13.23a1.57,1.57,0,0,1-1.6,2.11L8-169a1.57,1.57,0,0,1-1.61-2.1l3.66-13.25a3,3,0,0,1,2.75-2.11Zm1.07-7.92A8.72,8.72,0,0,0,26-186.49a8.72,8.72,0,0,0,8.72-8.72,8.67,8.67,0,0,0-1.28-4.55c-2.66,2.37-8.57,2.37-11.62,2.37A5.48,5.48,0,0,0,17.29-194.4Z"/><g class="cls-11"><rect class="cls-12" x="-346.25" y="-1182.32" width="2442.87" height="4770.39"/><rect class="cls-13" x="-346.25" y="-1182.32" width="2442.87" height="4770.39"/></g><path class="cls-14" d="M37.87-182.13H14l-2.42,8.71H40.32Zm-21.64-4.36a13,13,0,0,1-3.33-8.72A13.07,13.07,0,0,1,26-208.28,13.07,13.07,0,0,1,39-195.2a13,13,0,0,1-3.33,8.72H39a3,3,0,0,1,2.75,2.1l3.68,13.23a1.57,1.57,0,0,1-1.6,2.11L8-169a1.57,1.57,0,0,1-1.61-2.1l3.66-13.25a3,3,0,0,1,2.75-2.11Zm1.07-7.92A8.72,8.72,0,0,0,26-186.49a8.72,8.72,0,0,0,8.72-8.72,8.67,8.67,0,0,0-1.28-4.55c-2.66,2.37-8.57,2.37-11.62,2.37A5.48,5.48,0,0,0,17.29-194.4Z"/><path class="cls-5" d="M-51.44,140.08A5.42,5.42,0,0,0-46,134.66a5.42,5.42,0,0,0-5.42-5.42,5.42,5.42,0,0,0-5.42,5.42A5.42,5.42,0,0,0-51.44,140.08Zm0-22.09a1.4,1.4,0,0,1,1.4-1.41h2.63A1.4,1.4,0,0,1-46,118v.8a1.4,1.4,0,0,1-1.4,1.41H-50a1.4,1.4,0,0,1-1.4-1.41Zm-19.88,10.84a1.4,1.4,0,0,1,1.4-1.41h2.63a1.4,1.4,0,0,1,1.4,1.41v.8a1.4,1.4,0,0,1-1.4,1.41h-2.63a1.4,1.4,0,0,1-1.4-1.41Zm27.29,11a5.4,5.4,0,0,0,1.63.25A5.42,5.42,0,0,0-37,134.66a5.42,5.42,0,0,0-5.42-5.42,5.45,5.45,0,0,0-1.63.25,9,9,0,0,1,1.63,5.17A9,9,0,0,1-44,139.83Zm-16.26-7a9,9,0,0,1,1.63-3.61,5.42,5.42,0,0,1-5.42-5.42,5.42,5.42,0,0,1,5.42-5.42,5.42,5.42,0,0,1,5.42,5.42,5.4,5.4,0,0,1-.41,2.08,9.1,9.1,0,0,1,2.22-.27,9,9,0,0,1,4.52,1.21,9,9,0,0,1,2.71-1v-11H-73.13v18.07Zm0,3.61H-71.11a5.62,5.62,0,0,1-5.63-5.62V116.78a5.62,5.62,0,0,1,5.63-5.62h24.89a5.62,5.62,0,0,1,5.63,5.62v9a9,9,0,0,1,7.23,8.86,9,9,0,0,1-9,9,9,9,0,0,1-4.52-1.21,9,9,0,0,1-4.52,1.21A9,9,0,0,1-60.3,136.47Z"/><g class="cls-15"><rect class="cls-7" x="-797.47" y="-2084.65" width="2026.04" height="3956.4"/><rect class="cls-8" x="-797.47" y="-2084.65" width="2026.04" height="3956.4"/></g><path class="cls-9" d="M-51.44,140.08A5.42,5.42,0,0,0-46,134.66a5.42,5.42,0,0,0-5.42-5.42,5.42,5.42,0,0,0-5.42,5.42A5.42,5.42,0,0,0-51.44,140.08Zm0-22.09a1.4,1.4,0,0,1,1.4-1.41h2.63A1.4,1.4,0,0,1-46,118v.8a1.4,1.4,0,0,1-1.4,1.41H-50a1.4,1.4,0,0,1-1.4-1.41Zm-19.88,10.84a1.4,1.4,0,0,1,1.4-1.41h2.63a1.4,1.4,0,0,1,1.4,1.41v.8a1.4,1.4,0,0,1-1.4,1.41h-2.63a1.4,1.4,0,0,1-1.4-1.41Zm27.29,11a5.4,5.4,0,0,0,1.63.25A5.42,5.42,0,0,0-37,134.66a5.42,5.42,0,0,0-5.42-5.42,5.45,5.45,0,0,0-1.63.25,9,9,0,0,1,1.63,5.17A9,9,0,0,1-44,139.83Zm-16.26-7a9,9,0,0,1,1.63-3.61,5.42,5.42,0,0,1-5.42-5.42,5.42,5.42,0,0,1,5.42-5.42,5.42,5.42,0,0,1,5.42,5.42,5.4,5.4,0,0,1-.41,2.08,9.1,9.1,0,0,1,2.22-.27,9,9,0,0,1,4.52,1.21,9,9,0,0,1,2.71-1v-11H-73.13v18.07Zm0,3.61H-71.11a5.62,5.62,0,0,1-5.63-5.62V116.78a5.62,5.62,0,0,1,5.63-5.62h24.89a5.62,5.62,0,0,1,5.63,5.62v9a9,9,0,0,1,7.23,8.86,9,9,0,0,1-9,9,9,9,0,0,1-4.52-1.21,9,9,0,0,1-4.52,1.21A9,9,0,0,1-60.3,136.47Z"/><path class="cls-5" d="M-45.12,461.74v-8.24a9.94,9.94,0,0,0-9.94-9.95A9.94,9.94,0,0,0-65,453.5v8.25a1.91,1.91,0,0,1-1.36,1.75,1.81,1.81,0,0,0-1.35,1.75,1.81,1.81,0,0,0,1.81,1.81h21.68a1.81,1.81,0,0,0,1.81-1.81,1.81,1.81,0,0,0-1.36-1.75A1.91,1.91,0,0,1-45.12,461.74Zm-11.75,8.92h0a1.8,1.8,0,0,0,1.81,1.8,1.81,1.81,0,0,0,1.81-1.81Zm-3.61,0h-5.42a5.43,5.43,0,0,1-5.43-5.42,5.42,5.42,0,0,1,2.72-4.7c0-.55,0-7,0-7a13.56,13.56,0,0,1,10-13.07,3.66,3.66,0,0,1,0-.48,3.61,3.61,0,0,1,3.61-3.61,3.61,3.61,0,0,1,3.61,3.61,3.64,3.64,0,0,1,0,.48,13.56,13.56,0,0,1,10,13.08v7.06a5.41,5.41,0,0,1,2.71,4.69,5.42,5.42,0,0,1-5.43,5.42h-5.42a5.43,5.43,0,0,1-5.42,5.42,5.42,5.42,0,0,1-5.42-5.42Z"/><g class="cls-16"><rect class="cls-7" x="-1317.92" y="-2363.12" width="2026.04" height="3956.4"/><rect class="cls-8" x="-1317.92" y="-2363.12" width="2026.04" height="3956.4"/></g><path class="cls-9" d="M-45.12,461.74v-8.24a9.94,9.94,0,0,0-9.94-9.95A9.94,9.94,0,0,0-65,453.5v8.25a1.91,1.91,0,0,1-1.36,1.75,1.81,1.81,0,0,0-1.35,1.75,1.81,1.81,0,0,0,1.81,1.81h21.68a1.81,1.81,0,0,0,1.81-1.81,1.81,1.81,0,0,0-1.36-1.75A1.91,1.91,0,0,1-45.12,461.74Zm-11.75,8.92h0a1.8,1.8,0,0,0,1.81,1.8,1.81,1.81,0,0,0,1.81-1.81Zm-3.61,0h-5.42a5.43,5.43,0,0,1-5.43-5.42,5.42,5.42,0,0,1,2.72-4.7c0-.55,0-7,0-7a13.56,13.56,0,0,1,10-13.07,3.66,3.66,0,0,1,0-.48,3.61,3.61,0,0,1,3.61-3.61,3.61,3.61,0,0,1,3.61,3.61,3.64,3.64,0,0,1,0,.48,13.56,13.56,0,0,1,10,13.08v7.06a5.41,5.41,0,0,1,2.71,4.69,5.42,5.42,0,0,1-5.43,5.42h-5.42a5.43,5.43,0,0,1-5.42,5.42,5.42,5.42,0,0,1-5.42-5.42Z"/><path class="cls-5" d="M-64.56-72.76l-2-2a2,2,0,0,1,0-2.86,2,2,0,0,1,2.86,0l.6.6,2.61-2.62a2,2,0,0,1,2.86,0,2,2,0,0,1,0,2.86l-4,4A2,2,0,0,1-64.56-72.76Zm0-11.11-2-2a2,2,0,0,1,0-2.86,2,2,0,0,1,2.86,0l.59.59,2.61-2.61a2,2,0,0,1,2.86,0,2,2,0,0,1,0,2.86l-4,4A2,2,0,0,1-64.56-83.87Zm9.51,9.68a2,2,0,0,1,2-2H-45a2,2,0,0,1,2,2,2,2,0,0,1-2,2H-53A2,2,0,0,1-55.06-74.19Zm0-11.11a2,2,0,0,1,2-2H-45a2,2,0,0,1,2,2,2,2,0,0,1-2,2H-53A2,2,0,0,1-55.06-85.3ZM-49-96.41h-4a2,2,0,0,1-2,2,2,2,0,0,1-2-2h-4a2,2,0,0,1-2,2,2,2,0,0,1-2-2h-4s0,32.32,0,32.32h28.28s0-32.33,0-32.33h-4a2,2,0,0,1-2,2,2,2,0,0,1-2-2Zm0-4h0a2,2,0,0,1,2-2,2,2,0,0,1,2,2h4a4,4,0,0,1,4,4v32.33a4,4,0,0,1-4,4H-69.19a4,4,0,0,1-4-4V-96.41a4,4,0,0,1,4-4h4a2,2,0,0,1,2-2,2,2,0,0,1,2,2h4a2,2,0,0,1,2-2,2,2,0,0,1,2,2h4Z"/><g class="cls-17"><rect class="cls-7" x="-788" y="-2746.98" width="2264.82" height="4422.68"/><rect class="cls-8" x="-788" y="-2746.98" width="2264.82" height="4422.68"/></g><path class="cls-9" d="M-64.56-72.76l-2-2a2,2,0,0,1,0-2.86,2,2,0,0,1,2.86,0l.6.6,2.61-2.62a2,2,0,0,1,2.86,0,2,2,0,0,1,0,2.86l-4,4A2,2,0,0,1-64.56-72.76Zm0-11.11-2-2a2,2,0,0,1,0-2.86,2,2,0,0,1,2.86,0l.59.59,2.61-2.61a2,2,0,0,1,2.86,0,2,2,0,0,1,0,2.86l-4,4A2,2,0,0,1-64.56-83.87Zm9.51,9.68a2,2,0,0,1,2-2H-45a2,2,0,0,1,2,2,2,2,0,0,1-2,2H-53A2,2,0,0,1-55.06-74.19Zm0-11.11a2,2,0,0,1,2-2H-45a2,2,0,0,1,2,2,2,2,0,0,1-2,2H-53A2,2,0,0,1-55.06-85.3ZM-49-96.41h-4a2,2,0,0,1-2,2,2,2,0,0,1-2-2h-4a2,2,0,0,1-2,2,2,2,0,0,1-2-2h-4s0,32.32,0,32.32h28.28s0-32.33,0-32.33h-4a2,2,0,0,1-2,2,2,2,0,0,1-2-2Zm0-4h0a2,2,0,0,1,2-2,2,2,0,0,1,2,2h4a4,4,0,0,1,4,4v32.33a4,4,0,0,1-4,4H-69.19a4,4,0,0,1-4-4V-96.41a4,4,0,0,1,4-4h4a2,2,0,0,1,2-2,2,2,0,0,1,2,2h4a2,2,0,0,1,2-2,2,2,0,0,1,2,2h4Z"/><path class="cls-5" d="M-61.29,27.24a2.08,2.08,0,0,0,2.08-2.08,2.08,2.08,0,0,0-2.08-2.08,2.08,2.08,0,0,0-2.08,2.08A2.08,2.08,0,0,0-61.29,27.24Zm0,4.15a6.23,6.23,0,0,1-6.23-6.23,6.23,6.23,0,0,1,6.23-6.23,6.23,6.23,0,0,1,6.23,6.23A6.23,6.23,0,0,1-61.29,31.39Zm-12.35-6.67a1.1,1.1,0,0,0,0,1L-66,36.79a2.54,2.54,0,0,0,1.59.83h28s0-24.93,0-24.93h-28a2.55,2.55,0,0,0-1.59.83Zm4.26,14.49L-77,28a5.19,5.19,0,0,1,0-5.81l7.61-11.11a6.59,6.59,0,0,1,5-2.57h28a4.15,4.15,0,0,1,4.14,4.14V37.63a4.15,4.15,0,0,1-4.14,4.14h-28A6.58,6.58,0,0,1-69.39,39.21Z"/><g class="cls-18"><rect class="cls-7" x="-908.06" y="-3513.1" width="2327.81" height="4545.69"/><rect class="cls-8" x="-908.06" y="-3513.1" width="2327.81" height="4545.69"/></g><path class="cls-9" d="M-61.29,27.24a2.08,2.08,0,0,0,2.08-2.08,2.08,2.08,0,0,0-2.08-2.08,2.08,2.08,0,0,0-2.08,2.08A2.08,2.08,0,0,0-61.29,27.24Zm0,4.15a6.23,6.23,0,0,1-6.23-6.23,6.23,6.23,0,0,1,6.23-6.23,6.23,6.23,0,0,1,6.23,6.23A6.23,6.23,0,0,1-61.29,31.39Zm-12.35-6.67a1.1,1.1,0,0,0,0,1L-66,36.79a2.54,2.54,0,0,0,1.59.83h28s0-24.93,0-24.93h-28a2.55,2.55,0,0,0-1.59.83Zm4.26,14.49L-77,28a5.19,5.19,0,0,1,0-5.81l7.61-11.11a6.59,6.59,0,0,1,5-2.57h28a4.15,4.15,0,0,1,4.14,4.14V37.63a4.15,4.15,0,0,1-4.14,4.14h-28A6.58,6.58,0,0,1-69.39,39.21Z"/><path class="cls-5" d="M-48.73,362.7a9.94,9.94,0,0,0,9.94-9.94,9.94,9.94,0,0,0-9.94-9.94,9.94,9.94,0,0,0-9.94,9.94A9.94,9.94,0,0,0-48.73,362.7Zm6.32-21.93a13.55,13.55,0,0,1,7.23,12,13.55,13.55,0,0,1-13.55,13.55,13.49,13.49,0,0,1-6.77-1.81H-69.3a5.62,5.62,0,0,1-5.63-5.63V334a5.63,5.63,0,0,1,5.63-5.63H-48A5.62,5.62,0,0,1-42.41,334Zm-19.88,12.14a9,9,0,0,1-5.42-8.28v-2.29a3.61,3.61,0,0,1-1.81-3.13,3.61,3.61,0,0,1,3.61-3.61,3.61,3.61,0,0,1,3.61,3.61,3.61,3.61,0,0,1-1.81,3.13v2.29a5.42,5.42,0,0,0,2.32,4.44,13.59,13.59,0,0,1,7-8.45,3.6,3.6,0,0,1-.29-1.42,3.61,3.61,0,0,1,3.61-3.61,3.61,3.61,0,0,1,3.61,3.61v0a13.64,13.64,0,0,1,1.81.24V332h-25.3v28.92h11.75A13.5,13.5,0,0,1-62.28,352.91Zm15.36-2h2.71a1.81,1.81,0,0,1,1.81,1.81,1.81,1.81,0,0,1-1.81,1.81h-2.71v2.71a1.8,1.8,0,0,1-1.81,1.81,1.81,1.81,0,0,1-1.81-1.81v-2.71h-2.71a1.81,1.81,0,0,1-1.81-1.81A1.81,1.81,0,0,1-53.24,351h2.71v-2.71a1.81,1.81,0,0,1,1.81-1.81,1.81,1.81,0,0,1,1.81,1.81Z"/><g class="cls-19"><rect class="cls-7" x="-884.21" y="-1952.4" width="2026.04" height="3956.4"/><rect class="cls-8" x="-884.21" y="-1952.4" width="2026.04" height="3956.4"/></g><path class="cls-9" d="M-48.73,362.7a9.94,9.94,0,0,0,9.94-9.94,9.94,9.94,0,0,0-9.94-9.94,9.94,9.94,0,0,0-9.94,9.94A9.94,9.94,0,0,0-48.73,362.7Zm6.32-21.93a13.55,13.55,0,0,1,7.23,12,13.55,13.55,0,0,1-13.55,13.55,13.49,13.49,0,0,1-6.77-1.81H-69.3a5.62,5.62,0,0,1-5.63-5.63V334a5.63,5.63,0,0,1,5.63-5.63H-48A5.62,5.62,0,0,1-42.41,334Zm-19.88,12.14a9,9,0,0,1-5.42-8.28v-2.29a3.61,3.61,0,0,1-1.81-3.13,3.61,3.61,0,0,1,3.61-3.61,3.61,3.61,0,0,1,3.61,3.61,3.61,3.61,0,0,1-1.81,3.13v2.29a5.42,5.42,0,0,0,2.32,4.44,13.59,13.59,0,0,1,7-8.45,3.6,3.6,0,0,1-.29-1.42,3.61,3.61,0,0,1,3.61-3.61,3.61,3.61,0,0,1,3.61,3.61v0a13.64,13.64,0,0,1,1.81.24V332h-25.3v28.92h11.75A13.5,13.5,0,0,1-62.28,352.91Zm15.36-2h2.71a1.81,1.81,0,0,1,1.81,1.81,1.81,1.81,0,0,1-1.81,1.81h-2.71v2.71a1.8,1.8,0,0,1-1.81,1.81,1.81,1.81,0,0,1-1.81-1.81v-2.71h-2.71a1.81,1.81,0,0,1-1.81-1.81A1.81,1.81,0,0,1-53.24,351h2.71v-2.71a1.81,1.81,0,0,1,1.81-1.81,1.81,1.81,0,0,1,1.81,1.81Z"/><path class="cls-5" d="M-65.91,549.76H-52.7a2.51,2.51,0,0,1,1.54.63l9.93,9.94a2.51,2.51,0,0,1,.63,1.54v20.42a3.61,3.61,0,0,1-3.62,3.61H-65.89a3.62,3.62,0,0,1-3.62-3.61V553.38A3.61,3.61,0,0,1-65.91,549.76Zm12.66,3.61v9h9Zm-3.61,0h-9s0,28.92,0,28.92h21.68s0-10.53,0-16.27H-55.06a1.81,1.81,0,0,1-1.81-1.81Z"/><g class="cls-20"><rect class="cls-7" x="-363.76" y="-2858.74" width="2026.04" height="3956.4"/><rect class="cls-8" x="-363.76" y="-2858.74" width="2026.04" height="3956.4"/></g><path class="cls-9" d="M-65.91,549.76H-52.7a2.51,2.51,0,0,1,1.54.63l9.93,9.94a2.51,2.51,0,0,1,.63,1.54v20.42a3.61,3.61,0,0,1-3.62,3.61H-65.89a3.62,3.62,0,0,1-3.62-3.61V553.38A3.61,3.61,0,0,1-65.91,549.76Zm12.66,3.61v9h9Zm-3.61,0h-9s0,28.92,0,28.92h21.68s0-10.53,0-16.27H-55.06a1.81,1.81,0,0,1-1.81-1.81Z"/><path class="cls-5" d="M-39.85,228.24a7.24,7.24,0,0,0-1.27-1.06,9.45,9.45,0,0,0-5.38-1.58,7,7,0,0,0-5.09,2.29,22.66,22.66,0,0,0-1.56,2v21a16.25,16.25,0,0,1,6.63-1.59,16.3,16.3,0,0,1,6.67,1.5Zm-30.4,0v22.61a16.3,16.3,0,0,1,6.67-1.5A16.25,16.25,0,0,1-57,251v-21a22.67,22.67,0,0,0-1.56-2,7,7,0,0,0-5.09-2.29A9.45,9.45,0,0,0-69,227.18,7.25,7.25,0,0,0-70.26,228.24Zm14,27.37-.52-.33a15.58,15.58,0,0,0-1.66-.87,13.15,13.15,0,0,0-5.2-1.26,13.21,13.21,0,0,0-5.23,1.26,16,16,0,0,0-1.67.88c-.28.17-.47.3-.56.36a1.9,1.9,0,0,1-3-1.54V227.5a1.9,1.9,0,0,1,.37-1.13A10.54,10.54,0,0,1-71.1,224a13.24,13.24,0,0,1,7.49-2.22,10.78,10.78,0,0,1,7.78,3.41c.28.28.53.56.77.83.24-.27.49-.55.77-.83a10.78,10.78,0,0,1,7.78-3.41A13.24,13.24,0,0,1-39,224a10.54,10.54,0,0,1,2.59,2.35,1.9,1.9,0,0,1,.37,1.13v26.61a1.9,1.9,0,0,1-3,1.54c-.08-.06-.27-.19-.56-.36a16,16,0,0,0-1.67-.88,13.21,13.21,0,0,0-5.23-1.26,13.15,13.15,0,0,0-5.2,1.26,15.61,15.61,0,0,0-1.66.87l-.52.33-.13.09a1.86,1.86,0,0,1-1,.3,1.86,1.86,0,0,1-1-.3Z"/><g class="cls-21"><rect class="cls-7" x="-470.89" y="-2908.2" width="2130.48" height="4160.35"/><rect class="cls-8" x="-470.89" y="-2908.2" width="2130.48" height="4160.35"/></g><path class="cls-9" d="M-39.85,228.24a7.24,7.24,0,0,0-1.27-1.06,9.45,9.45,0,0,0-5.38-1.58,7,7,0,0,0-5.09,2.29,22.66,22.66,0,0,0-1.56,2v21a16.25,16.25,0,0,1,6.63-1.59,16.3,16.3,0,0,1,6.67,1.5Zm-30.4,0v22.61a16.3,16.3,0,0,1,6.67-1.5A16.25,16.25,0,0,1-57,251v-21a22.67,22.67,0,0,0-1.56-2,7,7,0,0,0-5.09-2.29A9.45,9.45,0,0,0-69,227.18,7.25,7.25,0,0,0-70.26,228.24Zm14,27.37-.52-.33a15.58,15.58,0,0,0-1.66-.87,13.15,13.15,0,0,0-5.2-1.26,13.21,13.21,0,0,0-5.23,1.26,16,16,0,0,0-1.67.88c-.28.17-.47.3-.56.36a1.9,1.9,0,0,1-3-1.54V227.5a1.9,1.9,0,0,1,.37-1.13A10.54,10.54,0,0,1-71.1,224a13.24,13.24,0,0,1,7.49-2.22,10.78,10.78,0,0,1,7.78,3.41c.28.28.53.56.77.83.24-.27.49-.55.77-.83a10.78,10.78,0,0,1,7.78-3.41A13.24,13.24,0,0,1-39,224a10.54,10.54,0,0,1,2.59,2.35,1.9,1.9,0,0,1,.37,1.13v26.61a1.9,1.9,0,0,1-3,1.54c-.08-.06-.27-.19-.56-.36a16,16,0,0,0-1.67-.88,13.21,13.21,0,0,0-5.23-1.26,13.15,13.15,0,0,0-5.2,1.26,15.61,15.61,0,0,0-1.66.87l-.52.33-.13.09a1.86,1.86,0,0,1-1,.3,1.86,1.86,0,0,1-1-.3Z"/><path class="cls-5" d="M-50.32,685.66a2.84,2.84,0,0,1-2.84-2.84A2.84,2.84,0,0,1-50.32,680a2.84,2.84,0,0,1,2.84,2.84A2.84,2.84,0,0,1-50.32,685.66Zm-9.47,0a2.84,2.84,0,0,1-2.84-2.84A2.84,2.84,0,0,1-59.79,680a2.84,2.84,0,0,1,2.84,2.84A2.84,2.84,0,0,1-59.79,685.66Zm21.78.95v-5.69A1,1,0,0,0-39,680h-.95v7.58H-39A1,1,0,0,0-38,686.61ZM-71.15,680a1,1,0,0,0-.95.94v5.69a1,1,0,0,0,.95.95,1,1,0,0,0,.95-.95V680Zm19.38,18.94a3.79,3.79,0,0,1-3.28,1.89A3.79,3.79,0,0,1-58.84,697a3.79,3.79,0,0,1,3.79-3.79,3.79,3.79,0,0,1,3.28,1.89h4.3a3.79,3.79,0,0,0,3.78-3.79V676.18a11.37,11.37,0,0,0-11.36-11.36,11.36,11.36,0,0,0-11.36,11.36v10.42a4.74,4.74,0,0,1-4.73,4.73,4.73,4.73,0,0,1-4.73-4.73v-5.69a4.74,4.74,0,0,1,4.73-4.73h.95A15.15,15.15,0,0,1-55.05,661,15.15,15.15,0,0,1-39.9,676.18H-39a4.74,4.74,0,0,1,4.73,4.73v5.69A4.73,4.73,0,0,1-39,691.34h-.95a7.58,7.58,0,0,1-7.57,7.58Z"/><g class="cls-22"><rect class="cls-7" x="-1560.4" y="-1728.35" width="2123.37" height="4146.46"/><rect class="cls-23" x="-1560.4" y="-1728.35" width="2123.37" height="4146.46"/></g><path class="cls-24" d="M-50.32,685.66a2.84,2.84,0,0,1-2.84-2.84A2.84,2.84,0,0,1-50.32,680a2.84,2.84,0,0,1,2.84,2.84A2.84,2.84,0,0,1-50.32,685.66Zm-9.47,0a2.84,2.84,0,0,1-2.84-2.84A2.84,2.84,0,0,1-59.79,680a2.84,2.84,0,0,1,2.84,2.84A2.84,2.84,0,0,1-59.79,685.66Zm21.78.95v-5.69A1,1,0,0,0-39,680h-.95v7.58H-39A1,1,0,0,0-38,686.61ZM-71.15,680a1,1,0,0,0-.95.94v5.69a1,1,0,0,0,.95.95,1,1,0,0,0,.95-.95V680Zm19.38,18.94a3.79,3.79,0,0,1-3.28,1.89A3.79,3.79,0,0,1-58.84,697a3.79,3.79,0,0,1,3.79-3.79,3.79,3.79,0,0,1,3.28,1.89h4.3a3.79,3.79,0,0,0,3.78-3.79V676.18a11.37,11.37,0,0,0-11.36-11.36,11.36,11.36,0,0,0-11.36,11.36v10.42a4.74,4.74,0,0,1-4.73,4.73,4.73,4.73,0,0,1-4.73-4.73v-5.69a4.74,4.74,0,0,1,4.73-4.73h.95A15.15,15.15,0,0,1-55.05,661,15.15,15.15,0,0,1-39.9,676.18H-39a4.74,4.74,0,0,1,4.73,4.73v5.69A4.73,4.73,0,0,1-39,691.34h-.95a7.58,7.58,0,0,1-7.57,7.58Z"/><path class="cls-10" d="M29.56,140.08a5.42,5.42,0,1,0-5.42-5.42A5.42,5.42,0,0,0,29.56,140.08Zm0-22.09a1.4,1.4,0,0,1,1.4-1.41h2.63A1.4,1.4,0,0,1,35,118v.8a1.4,1.4,0,0,1-1.4,1.41H31a1.4,1.4,0,0,1-1.4-1.41ZM9.68,128.84a1.4,1.4,0,0,1,1.4-1.41h2.63a1.4,1.4,0,0,1,1.4,1.41v.8a1.4,1.4,0,0,1-1.4,1.41H11.08a1.4,1.4,0,0,1-1.4-1.41Zm27.29,11a5.42,5.42,0,1,0,0-10.35,9,9,0,0,1,0,10.35Zm-16.26-7a9,9,0,0,1,1.63-3.61,5.42,5.42,0,1,1,5-3.34,9.1,9.1,0,0,1,2.22-.27,9,9,0,0,1,4.52,1.21,9,9,0,0,1,2.71-1v-11H7.87v18.07Zm0,3.61H9.89a5.62,5.62,0,0,1-5.63-5.62V116.78a5.62,5.62,0,0,1,5.63-5.62H34.77a5.62,5.62,0,0,1,5.63,5.62v9a9,9,0,1,1-6.32,16.68,9,9,0,0,1-13.37-6Z"/><g class="cls-25"><rect class="cls-12" x="-716.47" y="-2084.65" width="2026.04" height="3956.4"/><rect class="cls-13" x="-716.47" y="-2084.65" width="2026.04" height="3956.4"/></g><path class="cls-14" d="M29.56,140.08a5.42,5.42,0,1,0-5.42-5.42A5.42,5.42,0,0,0,29.56,140.08Zm0-22.09a1.4,1.4,0,0,1,1.4-1.41h2.63A1.4,1.4,0,0,1,35,118v.8a1.4,1.4,0,0,1-1.4,1.41H31a1.4,1.4,0,0,1-1.4-1.41ZM9.68,128.84a1.4,1.4,0,0,1,1.4-1.41h2.63a1.4,1.4,0,0,1,1.4,1.41v.8a1.4,1.4,0,0,1-1.4,1.41H11.08a1.4,1.4,0,0,1-1.4-1.41Zm27.29,11a5.42,5.42,0,1,0,0-10.35,9,9,0,0,1,0,10.35Zm-16.26-7a9,9,0,0,1,1.63-3.61,5.42,5.42,0,1,1,5-3.34,9.1,9.1,0,0,1,2.22-.27,9,9,0,0,1,4.52,1.21,9,9,0,0,1,2.71-1v-11H7.87v18.07Zm0,3.61H9.89a5.62,5.62,0,0,1-5.63-5.62V116.78a5.62,5.62,0,0,1,5.63-5.62H34.77a5.62,5.62,0,0,1,5.63,5.62v9a9,9,0,1,1-6.32,16.68,9,9,0,0,1-13.37-6Z"/><path class="cls-10" d="M35.88,461.74v-8.24a9.94,9.94,0,1,0-19.88,0v8.25a1.91,1.91,0,0,1-1.36,1.75,1.81,1.81,0,0,0,.46,3.56H36.78a1.81,1.81,0,0,0,.46-3.56A1.91,1.91,0,0,1,35.88,461.74Zm-11.75,8.92h0a1.81,1.81,0,0,0,3.61,0Zm-3.61,0H15.11a5.42,5.42,0,0,1-2.71-10.12c0-.55,0-7,0-7a13.56,13.56,0,0,1,10-13.07,3.66,3.66,0,0,1,0-.48,3.61,3.61,0,1,1,7.2.48,13.56,13.56,0,0,1,10,13.08v7.06a5.42,5.42,0,0,1-2.71,10.11H31.37a5.42,5.42,0,0,1-10.84,0Z"/><g class="cls-26"><rect class="cls-12" x="-1236.92" y="-2363.12" width="2026.04" height="3956.4"/><rect class="cls-13" x="-1236.92" y="-2363.12" width="2026.04" height="3956.4"/></g><path class="cls-14" d="M35.88,461.74v-8.24a9.94,9.94,0,1,0-19.88,0v8.25a1.91,1.91,0,0,1-1.36,1.75,1.81,1.81,0,0,0,.46,3.56H36.78a1.81,1.81,0,0,0,.46-3.56A1.91,1.91,0,0,1,35.88,461.74Zm-11.75,8.92h0a1.81,1.81,0,0,0,3.61,0Zm-3.61,0H15.11a5.42,5.42,0,0,1-2.71-10.12c0-.55,0-7,0-7a13.56,13.56,0,0,1,10-13.07,3.66,3.66,0,0,1,0-.48,3.61,3.61,0,1,1,7.2.48,13.56,13.56,0,0,1,10,13.08v7.06a5.42,5.42,0,0,1-2.71,10.11H31.37a5.42,5.42,0,0,1-10.84,0Z"/><path class="cls-10" d="M16.44-72.76l-2-2a2,2,0,0,1,0-2.86,2,2,0,0,1,2.86,0l.6.6,2.61-2.62a2,2,0,0,1,2.86,0,2,2,0,0,1,0,2.86l-4,4A2,2,0,0,1,16.44-72.76Zm0-11.11-2-2a2,2,0,0,1,0-2.86,2,2,0,0,1,2.86,0l.59.59,2.61-2.61a2,2,0,0,1,2.86,0,2,2,0,0,1,0,2.86l-4,4A2,2,0,0,1,16.44-83.87Zm9.51,9.68a2,2,0,0,1,2-2H36a2,2,0,0,1,2,2,2,2,0,0,1-2,2H28A2,2,0,0,1,25.94-74.19Zm0-11.11a2,2,0,0,1,2-2H36a2,2,0,0,1,2,2,2,2,0,0,1-2,2H28A2,2,0,0,1,25.94-85.3ZM32-96.41H28a2,2,0,0,1-2,2,2,2,0,0,1-2-2h-4a2,2,0,0,1-2,2,2,2,0,0,1-2-2h-4s0,32.32,0,32.32H40.09s0-32.33,0-32.33H36a2,2,0,0,1-2,2,2,2,0,0,1-2-2Zm0-4h0a2,2,0,0,1,2-2,2,2,0,0,1,2,2h4a4,4,0,0,1,4,4v32.33a4,4,0,0,1-4,4H11.81a4,4,0,0,1-4-4V-96.41a4,4,0,0,1,4-4h4a2,2,0,0,1,2-2,2,2,0,0,1,2,2h4a2,2,0,0,1,2-2,2,2,0,0,1,2,2h4Z"/><g class="cls-27"><rect class="cls-12" x="-707" y="-2746.98" width="2264.82" height="4422.68"/><rect class="cls-13" x="-707" y="-2746.98" width="2264.82" height="4422.68"/></g><path class="cls-14" d="M16.44-72.76l-2-2a2,2,0,0,1,0-2.86,2,2,0,0,1,2.86,0l.6.6,2.61-2.62a2,2,0,0,1,2.86,0,2,2,0,0,1,0,2.86l-4,4A2,2,0,0,1,16.44-72.76Zm0-11.11-2-2a2,2,0,0,1,0-2.86,2,2,0,0,1,2.86,0l.59.59,2.61-2.61a2,2,0,0,1,2.86,0,2,2,0,0,1,0,2.86l-4,4A2,2,0,0,1,16.44-83.87Zm9.51,9.68a2,2,0,0,1,2-2H36a2,2,0,0,1,2,2,2,2,0,0,1-2,2H28A2,2,0,0,1,25.94-74.19Zm0-11.11a2,2,0,0,1,2-2H36a2,2,0,0,1,2,2,2,2,0,0,1-2,2H28A2,2,0,0,1,25.94-85.3ZM32-96.41H28a2,2,0,0,1-2,2,2,2,0,0,1-2-2h-4a2,2,0,0,1-2,2,2,2,0,0,1-2-2h-4s0,32.32,0,32.32H40.09s0-32.33,0-32.33H36a2,2,0,0,1-2,2,2,2,0,0,1-2-2Zm0-4h0a2,2,0,0,1,2-2,2,2,0,0,1,2,2h4a4,4,0,0,1,4,4v32.33a4,4,0,0,1-4,4H11.81a4,4,0,0,1-4-4V-96.41a4,4,0,0,1,4-4h4a2,2,0,0,1,2-2,2,2,0,0,1,2,2h4a2,2,0,0,1,2-2,2,2,0,0,1,2,2h4Z"/><path class="cls-10" d="M19.71,27.24a2.08,2.08,0,1,0-2.08-2.08A2.08,2.08,0,0,0,19.71,27.24Zm0,4.15a6.23,6.23,0,1,1,6.23-6.23A6.23,6.23,0,0,1,19.71,31.39ZM7.36,24.72a1.1,1.1,0,0,0,0,1L15,36.79a2.54,2.54,0,0,0,1.59.83h28s0-24.93,0-24.93h-28a2.55,2.55,0,0,0-1.59.83Zm4.26,14.49L4,28a5.19,5.19,0,0,1,0-5.81l7.61-11.11a6.59,6.59,0,0,1,5-2.57h28a4.15,4.15,0,0,1,4.14,4.14V37.63a4.15,4.15,0,0,1-4.14,4.14h-28A6.58,6.58,0,0,1,11.61,39.21Z"/><g class="cls-28"><rect class="cls-12" x="-827.06" y="-3513.1" width="2327.81" height="4545.69"/><g class="cls-29"><rect class="cls-4" x="-4.97" y="0.47" width="61.82" height="49.39"/></g><rect class="cls-13" x="-827.06" y="-3513.1" width="2327.81" height="4545.69"/></g><path class="cls-14" d="M19.71,27.24a2.08,2.08,0,1,0-2.08-2.08A2.08,2.08,0,0,0,19.71,27.24Zm0,4.15a6.23,6.23,0,1,1,6.23-6.23A6.23,6.23,0,0,1,19.71,31.39ZM7.36,24.72a1.1,1.1,0,0,0,0,1L15,36.79a2.54,2.54,0,0,0,1.59.83h28s0-24.93,0-24.93h-28a2.55,2.55,0,0,0-1.59.83Zm4.26,14.49L4,28a5.19,5.19,0,0,1,0-5.81l7.61-11.11a6.59,6.59,0,0,1,5-2.57h28a4.15,4.15,0,0,1,4.14,4.14V37.63a4.15,4.15,0,0,1-4.14,4.14h-28A6.58,6.58,0,0,1,11.61,39.21Z"/><path class="cls-10" d="M32.27,362.7a9.94,9.94,0,1,0-9.94-9.94A9.94,9.94,0,0,0,32.27,362.7Zm6.32-21.93A13.56,13.56,0,1,1,25.5,364.51H11.7a5.62,5.62,0,0,1-5.63-5.63V334a5.63,5.63,0,0,1,5.63-5.63H33A5.62,5.62,0,0,1,38.59,334ZM18.72,352.91a9,9,0,0,1-5.42-8.28v-2.29a3.61,3.61,0,1,1,3.61,0v2.29a5.42,5.42,0,0,0,2.32,4.44,13.59,13.59,0,0,1,7-8.45,3.61,3.61,0,1,1,6.94-1.42v0a13.64,13.64,0,0,1,1.81.24V332H9.68v28.92H21.43A13.5,13.5,0,0,1,18.72,352.91Zm15.36-2h2.71a1.81,1.81,0,1,1,0,3.61H34.08v2.71a1.81,1.81,0,1,1-3.61,0v-2.71H27.76a1.81,1.81,0,1,1,0-3.61h2.71v-2.71a1.81,1.81,0,1,1,3.61,0Z"/><g class="cls-30"><rect class="cls-12" x="-803.21" y="-1952.4" width="2026.04" height="3956.4"/><rect class="cls-13" x="-803.21" y="-1952.4" width="2026.04" height="3956.4"/></g><path class="cls-14" d="M32.27,362.7a9.94,9.94,0,1,0-9.94-9.94A9.94,9.94,0,0,0,32.27,362.7Zm6.32-21.93A13.56,13.56,0,1,1,25.5,364.51H11.7a5.62,5.62,0,0,1-5.63-5.63V334a5.63,5.63,0,0,1,5.63-5.63H33A5.62,5.62,0,0,1,38.59,334ZM18.72,352.91a9,9,0,0,1-5.42-8.28v-2.29a3.61,3.61,0,1,1,3.61,0v2.29a5.42,5.42,0,0,0,2.32,4.44,13.59,13.59,0,0,1,7-8.45,3.61,3.61,0,1,1,6.94-1.42v0a13.64,13.64,0,0,1,1.81.24V332H9.68v28.92H21.43A13.5,13.5,0,0,1,18.72,352.91Zm15.36-2h2.71a1.81,1.81,0,1,1,0,3.61H34.08v2.71a1.81,1.81,0,1,1-3.61,0v-2.71H27.76a1.81,1.81,0,1,1,0-3.61h2.71v-2.71a1.81,1.81,0,1,1,3.61,0Z"/><path class="cls-10" d="M15.09,549.76H28.3a2.51,2.51,0,0,1,1.54.63l9.93,9.94a2.51,2.51,0,0,1,.63,1.54v20.42a3.61,3.61,0,0,1-3.62,3.61H15.11a3.62,3.62,0,0,1-3.62-3.61V553.38A3.61,3.61,0,0,1,15.09,549.76Zm12.66,3.61v9h9Zm-3.61,0h-9s0,28.92,0,28.92H36.78s0-10.53,0-16.27H25.94a1.81,1.81,0,0,1-1.81-1.81Z"/><g class="cls-31"><rect class="cls-12" x="-282.76" y="-2858.74" width="2026.04" height="3956.4"/><rect class="cls-13" x="-282.76" y="-2858.74" width="2026.04" height="3956.4"/></g><path class="cls-14" d="M15.09,549.76H28.3a2.51,2.51,0,0,1,1.54.63l9.93,9.94a2.51,2.51,0,0,1,.63,1.54v20.42a3.61,3.61,0,0,1-3.62,3.61H15.11a3.62,3.62,0,0,1-3.62-3.61V553.38A3.61,3.61,0,0,1,15.09,549.76Zm12.66,3.61v9h9Zm-3.61,0h-9s0,28.92,0,28.92H36.78s0-10.53,0-16.27H25.94a1.81,1.81,0,0,1-1.81-1.81Z"/><path class="cls-10" d="M41.15,228.24a7.24,7.24,0,0,0-1.27-1.06,9.45,9.45,0,0,0-5.38-1.58,7,7,0,0,0-5.09,2.29,22.66,22.66,0,0,0-1.56,2v21a16.25,16.25,0,0,1,6.63-1.59,16.3,16.3,0,0,1,6.67,1.5Zm-30.4,0v22.61a16.3,16.3,0,0,1,6.67-1.5A16.25,16.25,0,0,1,24,251v-21a22.67,22.67,0,0,0-1.56-2,7,7,0,0,0-5.09-2.29A9.45,9.45,0,0,0,12,227.18,7.25,7.25,0,0,0,10.74,228.24Zm14,27.37-.52-.33a15.58,15.58,0,0,0-1.66-.87,13.15,13.15,0,0,0-5.2-1.26,13.21,13.21,0,0,0-5.23,1.26,16,16,0,0,0-1.67.88c-.28.17-.47.3-.56.36a1.9,1.9,0,0,1-3-1.54V227.5a1.9,1.9,0,0,1,.37-1.13A10.54,10.54,0,0,1,9.9,224a13.24,13.24,0,0,1,7.49-2.22,10.78,10.78,0,0,1,7.78,3.41c.28.28.53.56.77.83.24-.27.49-.55.77-.83a10.78,10.78,0,0,1,7.78-3.41A13.24,13.24,0,0,1,42,224a10.54,10.54,0,0,1,2.59,2.35,1.9,1.9,0,0,1,.37,1.13v26.61a1.9,1.9,0,0,1-3,1.54c-.08-.06-.27-.19-.56-.36a16,16,0,0,0-1.67-.88,13.21,13.21,0,0,0-5.23-1.26,13.15,13.15,0,0,0-5.2,1.26,15.61,15.61,0,0,0-1.66.87l-.52.33-.13.09a1.88,1.88,0,0,1-2.05,0Z"/><g class="cls-32"><rect class="cls-12" x="-389.89" y="-2908.2" width="2130.48" height="4160.35"/><rect class="cls-13" x="-389.89" y="-2908.2" width="2130.48" height="4160.35"/></g><path class="cls-14" d="M41.15,228.24a7.24,7.24,0,0,0-1.27-1.06,9.45,9.45,0,0,0-5.38-1.58,7,7,0,0,0-5.09,2.29,22.66,22.66,0,0,0-1.56,2v21a16.25,16.25,0,0,1,6.63-1.59,16.3,16.3,0,0,1,6.67,1.5Zm-30.4,0v22.61a16.3,16.3,0,0,1,6.67-1.5A16.25,16.25,0,0,1,24,251v-21a22.67,22.67,0,0,0-1.56-2,7,7,0,0,0-5.09-2.29A9.45,9.45,0,0,0,12,227.18,7.25,7.25,0,0,0,10.74,228.24Zm14,27.37-.52-.33a15.58,15.58,0,0,0-1.66-.87,13.15,13.15,0,0,0-5.2-1.26,13.21,13.21,0,0,0-5.23,1.26,16,16,0,0,0-1.67.88c-.28.17-.47.3-.56.36a1.9,1.9,0,0,1-3-1.54V227.5a1.9,1.9,0,0,1,.37-1.13A10.54,10.54,0,0,1,9.9,224a13.24,13.24,0,0,1,7.49-2.22,10.78,10.78,0,0,1,7.78,3.41c.28.28.53.56.77.83.24-.27.49-.55.77-.83a10.78,10.78,0,0,1,7.78-3.41A13.24,13.24,0,0,1,42,224a10.54,10.54,0,0,1,2.59,2.35,1.9,1.9,0,0,1,.37,1.13v26.61a1.9,1.9,0,0,1-3,1.54c-.08-.06-.27-.19-.56-.36a16,16,0,0,0-1.67-.88,13.21,13.21,0,0,0-5.23-1.26,13.15,13.15,0,0,0-5.2,1.26,15.61,15.61,0,0,0-1.66.87l-.52.33-.13.09a1.88,1.88,0,0,1-2.05,0Z"/><path class="cls-10" d="M30.68,685.66a2.84,2.84,0,1,1,2.84-2.84A2.84,2.84,0,0,1,30.68,685.66Zm-9.47,0a2.84,2.84,0,1,1,2.84-2.84A2.84,2.84,0,0,1,21.21,685.66Zm21.78.95v-5.69A1,1,0,0,0,42,680H41.1v7.58H42A1,1,0,0,0,43,686.61ZM9.85,680a1,1,0,0,0-.95.94v5.69a.95.95,0,0,0,1.89,0V680Zm19.38,18.94a3.79,3.79,0,1,1,0-3.79h4.3a3.79,3.79,0,0,0,3.78-3.79V676.18a11.36,11.36,0,0,0-22.73,0v10.42a4.73,4.73,0,0,1-9.47,0v-5.69a4.74,4.74,0,0,1,4.73-4.73h.95a15.15,15.15,0,0,1,30.3,0H42a4.74,4.74,0,0,1,4.73,4.73v5.69A4.73,4.73,0,0,1,42,691.34H41.1a7.58,7.58,0,0,1-7.57,7.58Z"/><g class="cls-33"><rect class="cls-12" x="-1479.4" y="-1728.35" width="2123.37" height="4146.46"/><rect class="cls-13" x="-1479.4" y="-1728.35" width="2123.37" height="4146.46"/></g><path class="cls-14" d="M30.68,685.66a2.84,2.84,0,1,1,2.84-2.84A2.84,2.84,0,0,1,30.68,685.66Zm-9.47,0a2.84,2.84,0,1,1,2.84-2.84A2.84,2.84,0,0,1,21.21,685.66Zm21.78.95v-5.69A1,1,0,0,0,42,680H41.1v7.58H42A1,1,0,0,0,43,686.61ZM9.85,680a1,1,0,0,0-.95.94v5.69a.95.95,0,0,0,1.89,0V680Zm19.38,18.94a3.79,3.79,0,1,1,0-3.79h4.3a3.79,3.79,0,0,0,3.78-3.79V676.18a11.36,11.36,0,0,0-22.73,0v10.42a4.73,4.73,0,0,1-9.47,0v-5.69a4.74,4.74,0,0,1,4.73-4.73h.95a15.15,15.15,0,0,1,30.3,0H42a4.74,4.74,0,0,1,4.73,4.73v5.69A4.73,4.73,0,0,1,42,691.34H41.1a7.58,7.58,0,0,1-7.57,7.58Z"/></svg>