<svg id="Camada_1" data-name="Camada 1" xmlns="http://www.w3.org/2000/svg" xmlns:xlink="http://www.w3.org/1999/xlink" viewBox="0 0 52.08 50.87"><defs><style>.cls-1,.cls-2,.cls-3,.cls-5,.cls-7{fill:#6b6b6b;}.cls-1,.cls-2,.cls-24,.cls-25,.cls-3,.cls-8,.cls-9{stroke:#fff;}.cls-1,.cls-13,.cls-14,.cls-2,.cls-24,.cls-25,.cls-3,.cls-4,.cls-8,.cls-9{stroke-miterlimit:10;}.cls-1,.cls-3,.cls-4{clip-rule:evenodd;}.cls-24,.cls-25,.cls-3{stroke-width:0.82px;}.cls-10,.cls-12,.cls-4{fill:#fff;}.cls-13,.cls-14,.cls-4{stroke:#579a64;stroke-width:0.7px;}.cls-10,.cls-14,.cls-25,.cls-5,.cls-9{fill-rule:evenodd;}.cls-6{clip-path:url(#clip-path);}.cls-13,.cls-14,.cls-24,.cls-25,.cls-8,.cls-9{fill:none;}.cls-11{clip-path:url(#clip-path-2);}.cls-15{clip-path:url(#clip-path-3);}.cls-16{clip-path:url(#clip-path-4);}.cls-17{clip-path:url(#clip-path-5);}.cls-18{clip-path:url(#clip-path-6);}.cls-19{clip-path:url(#clip-path-7);}.cls-20{clip-path:url(#clip-path-8);}.cls-21{clip-path:url(#clip-path-9);}.cls-22{clip-path:url(#clip-path-10);}.cls-23{clip-path:url(#clip-path-11);}.cls-26{clip-path:url(#clip-path-12);}.cls-27{clip-path:url(#clip-path-13);}.cls-28{clip-path:url(#clip-path-14);}.cls-29{clip-path:url(#clip-path-15);}.cls-30{clip-path:url(#clip-path-16);}.cls-31{clip-path:url(#clip-path-17);}.cls-32{clip-path:url(#clip-path-18);}.cls-33{clip-path:url(#clip-path-19);}</style><clipPath id="clip-path"><path class="cls-1" d="M39.87-182.13H16l-2.42,8.71H42.32Zm-21.64-4.36a13,13,0,0,1-3.33-8.72A13.07,13.07,0,0,1,28-208.28,13.07,13.07,0,0,1,41-195.2a13,13,0,0,1-3.33,8.72H41a3,3,0,0,1,2.75,2.1l3.68,13.23a1.57,1.57,0,0,1-1.6,2.11L10-169a1.57,1.57,0,0,1-1.61-2.1l3.66-13.25a3,3,0,0,1,2.75-2.11Zm1.07-7.92A8.72,8.72,0,0,0,28-186.49a8.72,8.72,0,0,0,8.72-8.72,8.67,8.67,0,0,0-1.28-4.55c-2.66,2.37-8.57,2.37-11.62,2.37A5.48,5.48,0,0,0,19.29-194.4Z"/></clipPath><clipPath id="clip-path-2"><path class="cls-4" d="M120.87-182.13H97l-2.42,8.71h28.74Zm-21.64-4.36a13,13,0,0,1-3.33-8.72A13.07,13.07,0,0,1,109-208.28,13.07,13.07,0,0,1,122-195.2a13,13,0,0,1-3.33,8.72H122a3,3,0,0,1,2.75,2.1l3.68,13.23a1.57,1.57,0,0,1-1.6,2.11L91-169a1.57,1.57,0,0,1-1.61-2.1l3.66-13.25a3,3,0,0,1,2.75-2.11Zm1.07-7.92a8.72,8.72,0,0,0,8.68,7.92,8.72,8.72,0,0,0,8.72-8.72,8.67,8.67,0,0,0-1.28-4.55c-2.66,2.37-8.57,2.37-11.62,2.37A5.48,5.48,0,0,0,100.29-194.4Z"/></clipPath><clipPath id="clip-path-3"><path class="cls-1" d="M31.56,140.08a5.42,5.42,0,1,0-5.42-5.42A5.42,5.42,0,0,0,31.56,140.08Zm0-22.09a1.4,1.4,0,0,1,1.4-1.41h2.63A1.4,1.4,0,0,1,37,118v.8a1.4,1.4,0,0,1-1.4,1.41H33a1.4,1.4,0,0,1-1.4-1.41ZM11.68,128.84a1.4,1.4,0,0,1,1.4-1.41h2.63a1.4,1.4,0,0,1,1.4,1.41v.8a1.4,1.4,0,0,1-1.4,1.41H13.08a1.4,1.4,0,0,1-1.4-1.41Zm27.29,11a5.42,5.42,0,1,0,0-10.35,9,9,0,0,1,0,10.35Zm-16.26-7a9,9,0,0,1,1.63-3.61,5.42,5.42,0,1,1,5-3.34,9.1,9.1,0,0,1,2.22-.27,9,9,0,0,1,4.52,1.21,9,9,0,0,1,2.71-1v-11H9.87v18.07Zm0,3.61H11.89a5.62,5.62,0,0,1-5.63-5.62V116.78a5.62,5.62,0,0,1,5.63-5.62H36.77a5.62,5.62,0,0,1,5.63,5.62v9a9,9,0,1,1-6.32,16.68,9,9,0,0,1-13.37-6Z"/></clipPath><clipPath id="clip-path-4"><path class="cls-1" d="M37.88,461.74v-8.24a9.94,9.94,0,1,0-19.88,0v8.25a1.91,1.91,0,0,1-1.36,1.75,1.81,1.81,0,0,0,.46,3.56H38.78a1.81,1.81,0,0,0,.46-3.56A1.91,1.91,0,0,1,37.88,461.74Zm-11.75,8.92h0a1.81,1.81,0,0,0,3.61,0Zm-3.61,0H17.11a5.42,5.42,0,0,1-2.71-10.12c0-.55,0-7,0-7a13.56,13.56,0,0,1,10-13.07,3.66,3.66,0,0,1,0-.48,3.61,3.61,0,1,1,7.2.48,13.56,13.56,0,0,1,10,13.08v7.06a5.42,5.42,0,0,1-2.71,10.11H33.37a5.42,5.42,0,0,1-10.84,0Z"/></clipPath><clipPath id="clip-path-5"><path class="cls-1" d="M18.44-72.76l-2-2a2,2,0,0,1,0-2.86,2,2,0,0,1,2.86,0l.6.6,2.61-2.62a2,2,0,0,1,2.86,0,2,2,0,0,1,0,2.86l-4,4A2,2,0,0,1,18.44-72.76Zm0-11.11-2-2a2,2,0,0,1,0-2.86,2,2,0,0,1,2.86,0l.59.59,2.61-2.61a2,2,0,0,1,2.86,0,2,2,0,0,1,0,2.86l-4,4A2,2,0,0,1,18.44-83.87Zm9.51,9.68a2,2,0,0,1,2-2H38a2,2,0,0,1,2,2,2,2,0,0,1-2,2H30A2,2,0,0,1,27.94-74.19Zm0-11.11a2,2,0,0,1,2-2H38a2,2,0,0,1,2,2,2,2,0,0,1-2,2H30A2,2,0,0,1,27.94-85.3ZM34-96.41H30a2,2,0,0,1-2,2,2,2,0,0,1-2-2h-4a2,2,0,0,1-2,2,2,2,0,0,1-2-2h-4s0,32.32,0,32.32H42.09s0-32.33,0-32.33H38a2,2,0,0,1-2,2,2,2,0,0,1-2-2Zm0-4h0a2,2,0,0,1,2-2,2,2,0,0,1,2,2h4a4,4,0,0,1,4,4v32.33a4,4,0,0,1-4,4H13.81a4,4,0,0,1-4-4V-96.41a4,4,0,0,1,4-4h4a2,2,0,0,1,2-2,2,2,0,0,1,2,2h4a2,2,0,0,1,2-2,2,2,0,0,1,2,2h4Z"/></clipPath><clipPath id="clip-path-6"><path class="cls-1" d="M21.71,27.24a2.08,2.08,0,1,0-2.08-2.08A2.08,2.08,0,0,0,21.71,27.24Zm0,4.15a6.23,6.23,0,1,1,6.23-6.23A6.23,6.23,0,0,1,21.71,31.39ZM9.36,24.72a1.1,1.1,0,0,0,0,1L17,36.79a2.54,2.54,0,0,0,1.59.83h28s0-24.93,0-24.93h-28a2.55,2.55,0,0,0-1.59.83Zm4.26,14.49L6,28a5.19,5.19,0,0,1,0-5.81l7.61-11.11a6.59,6.59,0,0,1,5-2.57h28a4.15,4.15,0,0,1,4.14,4.14V37.63a4.15,4.15,0,0,1-4.14,4.14h-28A6.58,6.58,0,0,1,13.61,39.21Z"/></clipPath><clipPath id="clip-path-7"><rect class="cls-2" x="-825.06" y="-3513.1" width="2327.81" height="4545.69"/></clipPath><clipPath id="clip-path-8"><path class="cls-1" d="M34.27,362.7a9.94,9.94,0,1,0-9.94-9.94A9.94,9.94,0,0,0,34.27,362.7Zm6.32-21.93A13.56,13.56,0,1,1,27.5,364.51H13.7a5.62,5.62,0,0,1-5.63-5.63V334a5.63,5.63,0,0,1,5.63-5.63H35A5.62,5.62,0,0,1,40.59,334ZM20.72,352.91a9,9,0,0,1-5.42-8.28v-2.29a3.61,3.61,0,1,1,3.61,0v2.29a5.42,5.42,0,0,0,2.32,4.44,13.59,13.59,0,0,1,7-8.45,3.61,3.61,0,1,1,6.94-1.42v0a13.64,13.64,0,0,1,1.81.24V332H11.68v28.92H23.43A13.5,13.5,0,0,1,20.72,352.91Zm15.36-2h2.71a1.81,1.81,0,1,1,0,3.61H36.08v2.71a1.81,1.81,0,1,1-3.61,0v-2.71H29.76a1.81,1.81,0,1,1,0-3.61h2.71v-2.71a1.81,1.81,0,1,1,3.61,0Z"/></clipPath><clipPath id="clip-path-9"><path class="cls-1" d="M17.09,549.76H30.3a2.51,2.51,0,0,1,1.54.63l9.93,9.94a2.51,2.51,0,0,1,.63,1.54v20.42a3.61,3.61,0,0,1-3.62,3.61H17.11a3.62,3.62,0,0,1-3.62-3.61V553.38A3.61,3.61,0,0,1,17.09,549.76Zm12.66,3.61v9h9Zm-3.61,0h-9s0,28.92,0,28.92H38.78s0-10.53,0-16.27H27.94a1.81,1.81,0,0,1-1.81-1.81Z"/></clipPath><clipPath id="clip-path-10"><path class="cls-1" d="M43.15,228.24a7.24,7.24,0,0,0-1.27-1.06,9.45,9.45,0,0,0-5.38-1.58,7,7,0,0,0-5.09,2.29,22.66,22.66,0,0,0-1.56,2v21a16.25,16.25,0,0,1,6.63-1.59,16.3,16.3,0,0,1,6.67,1.5Zm-30.4,0v22.61a16.3,16.3,0,0,1,6.67-1.5A16.25,16.25,0,0,1,26,251v-21a22.67,22.67,0,0,0-1.56-2,7,7,0,0,0-5.09-2.29A9.45,9.45,0,0,0,14,227.18,7.25,7.25,0,0,0,12.74,228.24Zm14,27.37-.52-.33a15.58,15.58,0,0,0-1.66-.87,13.15,13.15,0,0,0-5.2-1.26,13.21,13.21,0,0,0-5.23,1.26,16,16,0,0,0-1.67.88c-.28.17-.47.3-.56.36a1.9,1.9,0,0,1-3-1.54V227.5a1.9,1.9,0,0,1,.37-1.13A10.54,10.54,0,0,1,11.9,224a13.24,13.24,0,0,1,7.49-2.22,10.78,10.78,0,0,1,7.78,3.41c.28.28.53.56.77.83.24-.27.49-.55.77-.83a10.78,10.78,0,0,1,7.78-3.41A13.24,13.24,0,0,1,44,224a10.54,10.54,0,0,1,2.59,2.35,1.9,1.9,0,0,1,.37,1.13v26.61a1.9,1.9,0,0,1-3,1.54c-.08-.06-.27-.19-.56-.36a16,16,0,0,0-1.67-.88,13.21,13.21,0,0,0-5.23-1.26,13.15,13.15,0,0,0-5.2,1.26,15.61,15.61,0,0,0-1.66.87l-.52.33-.13.09a1.88,1.88,0,0,1-2.05,0Z"/></clipPath><clipPath id="clip-path-11"><path class="cls-3" d="M32.68,685.66a2.84,2.84,0,1,1,2.84-2.84A2.84,2.84,0,0,1,32.68,685.66Zm-9.47,0a2.84,2.84,0,1,1,2.84-2.84A2.84,2.84,0,0,1,23.21,685.66Zm21.78.95v-5.69A1,1,0,0,0,44,680H43.1v7.58H44A1,1,0,0,0,45,686.61ZM11.85,680a1,1,0,0,0-.95.94v5.69a.95.95,0,0,0,1.89,0V680Zm19.38,18.94a3.79,3.79,0,1,1,0-3.79h4.3a3.79,3.79,0,0,0,3.78-3.79V676.18a11.36,11.36,0,0,0-22.73,0v10.42a4.73,4.73,0,0,1-9.47,0v-5.69a4.74,4.74,0,0,1,4.73-4.73h.95a15.15,15.15,0,0,1,30.3,0H44a4.74,4.74,0,0,1,4.73,4.73v5.69A4.73,4.73,0,0,1,44,691.34H43.1a7.58,7.58,0,0,1-7.57,7.58Z"/></clipPath><clipPath id="clip-path-12"><path class="cls-4" d="M112.56,140.08a5.42,5.42,0,1,0-5.42-5.42A5.42,5.42,0,0,0,112.56,140.08Zm0-22.09a1.4,1.4,0,0,1,1.4-1.41h2.63A1.4,1.4,0,0,1,118,118v.8a1.4,1.4,0,0,1-1.4,1.41H114a1.4,1.4,0,0,1-1.4-1.41ZM92.68,128.84a1.4,1.4,0,0,1,1.4-1.41h2.63a1.4,1.4,0,0,1,1.4,1.41v.8a1.4,1.4,0,0,1-1.4,1.41H94.08a1.4,1.4,0,0,1-1.4-1.41Zm27.29,11a5.42,5.42,0,1,0,0-10.35,9,9,0,0,1,0,10.35Zm-16.26-7a9,9,0,0,1,1.63-3.61,5.42,5.42,0,1,1,5-3.34,9.1,9.1,0,0,1,2.22-.27,9,9,0,0,1,4.52,1.21,9,9,0,0,1,2.71-1v-11H90.87v18.07Zm0,3.61H92.89a5.62,5.62,0,0,1-5.63-5.62V116.78a5.62,5.62,0,0,1,5.63-5.62h24.89a5.62,5.62,0,0,1,5.63,5.62v9a9,9,0,1,1-6.32,16.68,9,9,0,0,1-13.37-6Z"/></clipPath><clipPath id="clip-path-13"><path class="cls-4" d="M118.88,461.74v-8.24a9.94,9.94,0,1,0-19.88,0v8.25a1.91,1.91,0,0,1-1.36,1.75,1.81,1.81,0,0,0,.46,3.56h21.68a1.81,1.81,0,0,0,.46-3.56A1.91,1.91,0,0,1,118.88,461.74Zm-11.75,8.92h0a1.81,1.81,0,0,0,3.61,0Zm-3.61,0H98.11a5.42,5.42,0,0,1-2.71-10.12c0-.55,0-7,0-7a13.56,13.56,0,0,1,10-13.07,3.66,3.66,0,0,1,0-.48,3.61,3.61,0,1,1,7.2.48,13.56,13.56,0,0,1,10,13.08v7.06a5.42,5.42,0,0,1-2.71,10.11h-5.42a5.42,5.42,0,0,1-10.84,0Z"/></clipPath><clipPath id="clip-path-14"><path class="cls-4" d="M99.44-72.76l-2-2a2,2,0,0,1,0-2.86,2,2,0,0,1,2.86,0l.6.6,2.61-2.62a2,2,0,0,1,2.86,0,2,2,0,0,1,0,2.86l-4,4A2,2,0,0,1,99.44-72.76Zm0-11.11-2-2a2,2,0,0,1,0-2.86,2,2,0,0,1,2.86,0l.59.59,2.61-2.61a2,2,0,0,1,2.86,0,2,2,0,0,1,0,2.86l-4,4A2,2,0,0,1,99.44-83.87Zm9.51,9.68a2,2,0,0,1,2-2H119a2,2,0,0,1,2,2,2,2,0,0,1-2,2H111A2,2,0,0,1,108.94-74.19Zm0-11.11a2,2,0,0,1,2-2H119a2,2,0,0,1,2,2,2,2,0,0,1-2,2H111A2,2,0,0,1,108.94-85.3ZM115-96.41h-4a2,2,0,0,1-2,2,2,2,0,0,1-2-2h-4a2,2,0,0,1-2,2,2,2,0,0,1-2-2h-4s0,32.32,0,32.32h28.28s0-32.33,0-32.33h-4a2,2,0,0,1-2,2,2,2,0,0,1-2-2Zm0-4h0a2,2,0,0,1,2-2,2,2,0,0,1,2,2h4a4,4,0,0,1,4,4v32.33a4,4,0,0,1-4,4H94.81a4,4,0,0,1-4-4V-96.41a4,4,0,0,1,4-4h4a2,2,0,0,1,2-2,2,2,0,0,1,2,2h4a2,2,0,0,1,2-2,2,2,0,0,1,2,2h4Z"/></clipPath><clipPath id="clip-path-15"><path class="cls-4" d="M102.71,27.24a2.08,2.08,0,1,0-2.08-2.08A2.08,2.08,0,0,0,102.71,27.24Zm0,4.15a6.23,6.23,0,1,1,6.23-6.23A6.23,6.23,0,0,1,102.71,31.39ZM90.36,24.72a1.1,1.1,0,0,0,0,1L98,36.79a2.54,2.54,0,0,0,1.59.83h28s0-24.93,0-24.93h-28a2.55,2.55,0,0,0-1.59.83Zm4.26,14.49L87,28a5.19,5.19,0,0,1,0-5.81l7.61-11.11a6.59,6.59,0,0,1,5-2.57h28a4.15,4.15,0,0,1,4.14,4.14V37.63a4.15,4.15,0,0,1-4.14,4.14h-28A6.58,6.58,0,0,1,94.61,39.21Z"/></clipPath><clipPath id="clip-path-16"><path class="cls-4" d="M115.27,362.7a9.94,9.94,0,1,0-9.94-9.94A9.94,9.94,0,0,0,115.27,362.7Zm6.32-21.93a13.56,13.56,0,1,1-13.09,23.74H94.7a5.62,5.62,0,0,1-5.63-5.63V334a5.63,5.63,0,0,1,5.63-5.63H116a5.62,5.62,0,0,1,5.63,5.63Zm-19.88,12.14a9,9,0,0,1-5.42-8.28v-2.29a3.61,3.61,0,1,1,3.61,0v2.29a5.42,5.42,0,0,0,2.32,4.44,13.59,13.59,0,0,1,7-8.45,3.61,3.61,0,1,1,6.94-1.42v0a13.64,13.64,0,0,1,1.81.24V332H92.68v28.92h11.75A13.5,13.5,0,0,1,101.72,352.91Zm15.36-2h2.71a1.81,1.81,0,1,1,0,3.61h-2.71v2.71a1.81,1.81,0,1,1-3.61,0v-2.71h-2.71a1.81,1.81,0,1,1,0-3.61h2.71v-2.71a1.81,1.81,0,1,1,3.61,0Z"/></clipPath><clipPath id="clip-path-17"><path class="cls-4" d="M98.09,549.76H111.3a2.51,2.51,0,0,1,1.54.63l9.93,9.94a2.51,2.51,0,0,1,.63,1.54v20.42a3.61,3.61,0,0,1-3.62,3.61H98.11a3.62,3.62,0,0,1-3.62-3.61V553.38A3.61,3.61,0,0,1,98.09,549.76Zm12.66,3.61v9h9Zm-3.61,0h-9s0,28.92,0,28.92h21.68s0-10.53,0-16.27H108.94a1.81,1.81,0,0,1-1.81-1.81Z"/></clipPath><clipPath id="clip-path-18"><path class="cls-4" d="M124.15,228.24a7.24,7.24,0,0,0-1.27-1.06,9.45,9.45,0,0,0-5.38-1.58,7,7,0,0,0-5.09,2.29,22.66,22.66,0,0,0-1.56,2v21a15.07,15.07,0,0,1,13.3-.09Zm-30.4,0v22.61A15.07,15.07,0,0,1,107,251v-21a22.67,22.67,0,0,0-1.56-2,7,7,0,0,0-5.09-2.29A9.45,9.45,0,0,0,95,227.18,7.25,7.25,0,0,0,93.74,228.24Zm14,27.37-.52-.33a15.58,15.58,0,0,0-1.66-.87,11.45,11.45,0,0,0-10.43,0,16,16,0,0,0-1.67.88c-.28.17-.47.3-.56.36a1.9,1.9,0,0,1-3-1.54V227.5a1.9,1.9,0,0,1,.37-1.13A10.54,10.54,0,0,1,92.9,224a13.24,13.24,0,0,1,7.49-2.22,10.78,10.78,0,0,1,7.78,3.41c.28.28.53.56.77.83.24-.27.49-.55.77-.83a10.78,10.78,0,0,1,7.78-3.41A13.24,13.24,0,0,1,125,224a10.54,10.54,0,0,1,2.59,2.35,1.9,1.9,0,0,1,.37,1.13v26.61a1.9,1.9,0,0,1-3,1.54c-.08-.06-.27-.19-.56-.36a16,16,0,0,0-1.67-.88,11.45,11.45,0,0,0-10.43,0,15.61,15.61,0,0,0-1.66.87l-.52.33-.13.09a1.88,1.88,0,0,1-2.05,0Z"/></clipPath><clipPath id="clip-path-19"><path class="cls-4" d="M113.68,685.66a2.84,2.84,0,1,1,2.84-2.84A2.84,2.84,0,0,1,113.68,685.66Zm-9.47,0a2.84,2.84,0,1,1,2.84-2.84A2.84,2.84,0,0,1,104.21,685.66Zm21.78.95v-5.69A1,1,0,0,0,125,680h-.95v7.58H125A1,1,0,0,0,126,686.61ZM92.85,680a1,1,0,0,0-.95.94v5.69a.95.95,0,0,0,1.89,0V680Zm19.38,18.94a3.79,3.79,0,1,1,0-3.79h4.3a3.79,3.79,0,0,0,3.78-3.79V676.18a11.36,11.36,0,0,0-22.73,0v10.42a4.73,4.73,0,0,1-9.47,0v-5.69a4.74,4.74,0,0,1,4.73-4.73h.95a15.15,15.15,0,0,1,30.3,0H125a4.74,4.74,0,0,1,4.73,4.73v5.69a4.73,4.73,0,0,1-4.73,4.73h-.95a7.58,7.58,0,0,1-7.57,7.58Z"/></clipPath></defs><title>Voucher-black</title><path class="cls-5" d="M39.87-182.13H16l-2.42,8.71H42.32Zm-21.64-4.36a13,13,0,0,1-3.33-8.72A13.07,13.07,0,0,1,28-208.28,13.07,13.07,0,0,1,41-195.2a13,13,0,0,1-3.33,8.72H41a3,3,0,0,1,2.75,2.1l3.68,13.23a1.57,1.57,0,0,1-1.6,2.11L10-169a1.57,1.57,0,0,1-1.61-2.1l3.66-13.25a3,3,0,0,1,2.75-2.11Zm1.07-7.92A8.72,8.72,0,0,0,28-186.49a8.72,8.72,0,0,0,8.72-8.72,8.67,8.67,0,0,0-1.28-4.55c-2.66,2.37-8.57,2.37-11.62,2.37A5.48,5.48,0,0,0,19.29-194.4Z"/><g class="cls-6"><rect class="cls-7" x="-344.25" y="-1182.32" width="2442.87" height="4770.39"/><rect class="cls-8" x="-344.25" y="-1182.32" width="2442.87" height="4770.39"/></g><path class="cls-9" d="M39.87-182.13H16l-2.42,8.71H42.32Zm-21.64-4.36a13,13,0,0,1-3.33-8.72A13.07,13.07,0,0,1,28-208.28,13.07,13.07,0,0,1,41-195.2a13,13,0,0,1-3.33,8.72H41a3,3,0,0,1,2.75,2.1l3.68,13.23a1.57,1.57,0,0,1-1.6,2.11L10-169a1.57,1.57,0,0,1-1.61-2.1l3.66-13.25a3,3,0,0,1,2.75-2.11Zm1.07-7.92A8.72,8.72,0,0,0,28-186.49a8.72,8.72,0,0,0,8.72-8.72,8.67,8.67,0,0,0-1.28-4.55c-2.66,2.37-8.57,2.37-11.62,2.37A5.48,5.48,0,0,0,19.29-194.4Z"/><path class="cls-10" d="M120.87-182.13H97l-2.42,8.71h28.74Zm-21.64-4.36a13,13,0,0,1-3.33-8.72A13.07,13.07,0,0,1,109-208.28,13.07,13.07,0,0,1,122-195.2a13,13,0,0,1-3.33,8.72H122a3,3,0,0,1,2.75,2.1l3.68,13.23a1.57,1.57,0,0,1-1.6,2.11L91-169a1.57,1.57,0,0,1-1.61-2.1l3.66-13.25a3,3,0,0,1,2.75-2.11Zm1.07-7.92a8.72,8.72,0,0,0,8.68,7.92,8.72,8.72,0,0,0,8.72-8.72,8.67,8.67,0,0,0-1.28-4.55c-2.66,2.37-8.57,2.37-11.62,2.37A5.48,5.48,0,0,0,100.29-194.4Z"/><g class="cls-11"><rect class="cls-12" x="-263.25" y="-1182.32" width="2442.87" height="4770.39"/><rect class="cls-13" x="-263.25" y="-1182.32" width="2442.87" height="4770.39"/></g><path class="cls-14" d="M120.87-182.13H97l-2.42,8.71h28.74Zm-21.64-4.36a13,13,0,0,1-3.33-8.72A13.07,13.07,0,0,1,109-208.28,13.07,13.07,0,0,1,122-195.2a13,13,0,0,1-3.33,8.72H122a3,3,0,0,1,2.75,2.1l3.68,13.23a1.57,1.57,0,0,1-1.6,2.11L91-169a1.57,1.57,0,0,1-1.61-2.1l3.66-13.25a3,3,0,0,1,2.75-2.11Zm1.07-7.92a8.72,8.72,0,0,0,8.68,7.92,8.72,8.72,0,0,0,8.72-8.72,8.67,8.67,0,0,0-1.28-4.55c-2.66,2.37-8.57,2.37-11.62,2.37A5.48,5.48,0,0,0,100.29-194.4Z"/><path class="cls-5" d="M31.56,140.08a5.42,5.42,0,1,0-5.42-5.42A5.42,5.42,0,0,0,31.56,140.08Zm0-22.09a1.4,1.4,0,0,1,1.4-1.41h2.63A1.4,1.4,0,0,1,37,118v.8a1.4,1.4,0,0,1-1.4,1.41H33a1.4,1.4,0,0,1-1.4-1.41ZM11.68,128.84a1.4,1.4,0,0,1,1.4-1.41h2.63a1.4,1.4,0,0,1,1.4,1.41v.8a1.4,1.4,0,0,1-1.4,1.41H13.08a1.4,1.4,0,0,1-1.4-1.41Zm27.29,11a5.42,5.42,0,1,0,0-10.35,9,9,0,0,1,0,10.35Zm-16.26-7a9,9,0,0,1,1.63-3.61,5.42,5.42,0,1,1,5-3.34,9.1,9.1,0,0,1,2.22-.27,9,9,0,0,1,4.52,1.21,9,9,0,0,1,2.71-1v-11H9.87v18.07Zm0,3.61H11.89a5.62,5.62,0,0,1-5.63-5.62V116.78a5.62,5.62,0,0,1,5.63-5.62H36.77a5.62,5.62,0,0,1,5.63,5.62v9a9,9,0,1,1-6.32,16.68,9,9,0,0,1-13.37-6Z"/><g class="cls-15"><rect class="cls-7" x="-714.47" y="-2084.65" width="2026.04" height="3956.4"/><rect class="cls-8" x="-714.47" y="-2084.65" width="2026.04" height="3956.4"/></g><path class="cls-9" d="M31.56,140.08a5.42,5.42,0,1,0-5.42-5.42A5.42,5.42,0,0,0,31.56,140.08Zm0-22.09a1.4,1.4,0,0,1,1.4-1.41h2.63A1.4,1.4,0,0,1,37,118v.8a1.4,1.4,0,0,1-1.4,1.41H33a1.4,1.4,0,0,1-1.4-1.41ZM11.68,128.84a1.4,1.4,0,0,1,1.4-1.41h2.63a1.4,1.4,0,0,1,1.4,1.41v.8a1.4,1.4,0,0,1-1.4,1.41H13.08a1.4,1.4,0,0,1-1.4-1.41Zm27.29,11a5.42,5.42,0,1,0,0-10.35,9,9,0,0,1,0,10.35Zm-16.26-7a9,9,0,0,1,1.63-3.61,5.42,5.42,0,1,1,5-3.34,9.1,9.1,0,0,1,2.22-.27,9,9,0,0,1,4.52,1.21,9,9,0,0,1,2.71-1v-11H9.87v18.07Zm0,3.61H11.89a5.62,5.62,0,0,1-5.63-5.62V116.78a5.62,5.62,0,0,1,5.63-5.62H36.77a5.62,5.62,0,0,1,5.63,5.62v9a9,9,0,1,1-6.32,16.68,9,9,0,0,1-13.37-6Z"/><path class="cls-5" d="M37.88,461.74v-8.24a9.94,9.94,0,1,0-19.88,0v8.25a1.91,1.91,0,0,1-1.36,1.75,1.81,1.81,0,0,0,.46,3.56H38.78a1.81,1.81,0,0,0,.46-3.56A1.91,1.91,0,0,1,37.88,461.74Zm-11.75,8.92h0a1.81,1.81,0,0,0,3.61,0Zm-3.61,0H17.11a5.42,5.42,0,0,1-2.71-10.12c0-.55,0-7,0-7a13.56,13.56,0,0,1,10-13.07,3.66,3.66,0,0,1,0-.48,3.61,3.61,0,1,1,7.2.48,13.56,13.56,0,0,1,10,13.08v7.06a5.42,5.42,0,0,1-2.71,10.11H33.37a5.42,5.42,0,0,1-10.84,0Z"/><g class="cls-16"><rect class="cls-7" x="-1234.92" y="-2363.12" width="2026.04" height="3956.4"/><rect class="cls-8" x="-1234.92" y="-2363.12" width="2026.04" height="3956.4"/></g><path class="cls-9" d="M37.88,461.74v-8.24a9.94,9.94,0,1,0-19.88,0v8.25a1.91,1.91,0,0,1-1.36,1.75,1.81,1.81,0,0,0,.46,3.56H38.78a1.81,1.81,0,0,0,.46-3.56A1.91,1.91,0,0,1,37.88,461.74Zm-11.75,8.92h0a1.81,1.81,0,0,0,3.61,0Zm-3.61,0H17.11a5.42,5.42,0,0,1-2.71-10.12c0-.55,0-7,0-7a13.56,13.56,0,0,1,10-13.07,3.66,3.66,0,0,1,0-.48,3.61,3.61,0,1,1,7.2.48,13.56,13.56,0,0,1,10,13.08v7.06a5.42,5.42,0,0,1-2.71,10.11H33.37a5.42,5.42,0,0,1-10.84,0Z"/><path class="cls-5" d="M18.44-72.76l-2-2a2,2,0,0,1,0-2.86,2,2,0,0,1,2.86,0l.6.6,2.61-2.62a2,2,0,0,1,2.86,0,2,2,0,0,1,0,2.86l-4,4A2,2,0,0,1,18.44-72.76Zm0-11.11-2-2a2,2,0,0,1,0-2.86,2,2,0,0,1,2.86,0l.59.59,2.61-2.61a2,2,0,0,1,2.86,0,2,2,0,0,1,0,2.86l-4,4A2,2,0,0,1,18.44-83.87Zm9.51,9.68a2,2,0,0,1,2-2H38a2,2,0,0,1,2,2,2,2,0,0,1-2,2H30A2,2,0,0,1,27.94-74.19Zm0-11.11a2,2,0,0,1,2-2H38a2,2,0,0,1,2,2,2,2,0,0,1-2,2H30A2,2,0,0,1,27.94-85.3ZM34-96.41H30a2,2,0,0,1-2,2,2,2,0,0,1-2-2h-4a2,2,0,0,1-2,2,2,2,0,0,1-2-2h-4s0,32.32,0,32.32H42.09s0-32.33,0-32.33H38a2,2,0,0,1-2,2,2,2,0,0,1-2-2Zm0-4h0a2,2,0,0,1,2-2,2,2,0,0,1,2,2h4a4,4,0,0,1,4,4v32.33a4,4,0,0,1-4,4H13.81a4,4,0,0,1-4-4V-96.41a4,4,0,0,1,4-4h4a2,2,0,0,1,2-2,2,2,0,0,1,2,2h4a2,2,0,0,1,2-2,2,2,0,0,1,2,2h4Z"/><g class="cls-17"><rect class="cls-7" x="-705" y="-2746.98" width="2264.82" height="4422.68"/><rect class="cls-8" x="-705" y="-2746.98" width="2264.82" height="4422.68"/></g><path class="cls-9" d="M18.44-72.76l-2-2a2,2,0,0,1,0-2.86,2,2,0,0,1,2.86,0l.6.6,2.61-2.62a2,2,0,0,1,2.86,0,2,2,0,0,1,0,2.86l-4,4A2,2,0,0,1,18.44-72.76Zm0-11.11-2-2a2,2,0,0,1,0-2.86,2,2,0,0,1,2.86,0l.59.59,2.61-2.61a2,2,0,0,1,2.86,0,2,2,0,0,1,0,2.86l-4,4A2,2,0,0,1,18.44-83.87Zm9.51,9.68a2,2,0,0,1,2-2H38a2,2,0,0,1,2,2,2,2,0,0,1-2,2H30A2,2,0,0,1,27.94-74.19Zm0-11.11a2,2,0,0,1,2-2H38a2,2,0,0,1,2,2,2,2,0,0,1-2,2H30A2,2,0,0,1,27.94-85.3ZM34-96.41H30a2,2,0,0,1-2,2,2,2,0,0,1-2-2h-4a2,2,0,0,1-2,2,2,2,0,0,1-2-2h-4s0,32.32,0,32.32H42.09s0-32.33,0-32.33H38a2,2,0,0,1-2,2,2,2,0,0,1-2-2Zm0-4h0a2,2,0,0,1,2-2,2,2,0,0,1,2,2h4a4,4,0,0,1,4,4v32.33a4,4,0,0,1-4,4H13.81a4,4,0,0,1-4-4V-96.41a4,4,0,0,1,4-4h4a2,2,0,0,1,2-2,2,2,0,0,1,2,2h4a2,2,0,0,1,2-2,2,2,0,0,1,2,2h4Z"/><path class="cls-5" d="M21.71,27.24a2.08,2.08,0,1,0-2.08-2.08A2.08,2.08,0,0,0,21.71,27.24Zm0,4.15a6.23,6.23,0,1,1,6.23-6.23A6.23,6.23,0,0,1,21.71,31.39ZM9.36,24.72a1.1,1.1,0,0,0,0,1L17,36.79a2.54,2.54,0,0,0,1.59.83h28s0-24.93,0-24.93h-28a2.55,2.55,0,0,0-1.59.83Zm4.26,14.49L6,28a5.19,5.19,0,0,1,0-5.81l7.61-11.11a6.59,6.59,0,0,1,5-2.57h28a4.15,4.15,0,0,1,4.14,4.14V37.63a4.15,4.15,0,0,1-4.14,4.14h-28A6.58,6.58,0,0,1,13.61,39.21Z"/><g class="cls-18"><rect class="cls-7" x="-825.06" y="-3513.1" width="2327.81" height="4545.69"/><g class="cls-19"><rect class="cls-2" x="-2.97" y="0.47" width="61.82" height="49.39"/></g><rect class="cls-8" x="-825.06" y="-3513.1" width="2327.81" height="4545.69"/></g><path class="cls-9" d="M21.71,27.24a2.08,2.08,0,1,0-2.08-2.08A2.08,2.08,0,0,0,21.71,27.24Zm0,4.15a6.23,6.23,0,1,1,6.23-6.23A6.23,6.23,0,0,1,21.71,31.39ZM9.36,24.72a1.1,1.1,0,0,0,0,1L17,36.79a2.54,2.54,0,0,0,1.59.83h28s0-24.93,0-24.93h-28a2.55,2.55,0,0,0-1.59.83Zm4.26,14.49L6,28a5.19,5.19,0,0,1,0-5.81l7.61-11.11a6.59,6.59,0,0,1,5-2.57h28a4.15,4.15,0,0,1,4.14,4.14V37.63a4.15,4.15,0,0,1-4.14,4.14h-28A6.58,6.58,0,0,1,13.61,39.21Z"/><path class="cls-5" d="M34.27,362.7a9.94,9.94,0,1,0-9.94-9.94A9.94,9.94,0,0,0,34.27,362.7Zm6.32-21.93A13.56,13.56,0,1,1,27.5,364.51H13.7a5.62,5.62,0,0,1-5.63-5.63V334a5.63,5.63,0,0,1,5.63-5.63H35A5.62,5.62,0,0,1,40.59,334ZM20.72,352.91a9,9,0,0,1-5.42-8.28v-2.29a3.61,3.61,0,1,1,3.61,0v2.29a5.42,5.42,0,0,0,2.32,4.44,13.59,13.59,0,0,1,7-8.45,3.61,3.61,0,1,1,6.94-1.42v0a13.64,13.64,0,0,1,1.81.24V332H11.68v28.92H23.43A13.5,13.5,0,0,1,20.72,352.91Zm15.36-2h2.71a1.81,1.81,0,1,1,0,3.61H36.08v2.71a1.81,1.81,0,1,1-3.61,0v-2.71H29.76a1.81,1.81,0,1,1,0-3.61h2.71v-2.71a1.81,1.81,0,1,1,3.61,0Z"/><g class="cls-20"><rect class="cls-7" x="-801.21" y="-1952.4" width="2026.04" height="3956.4"/><rect class="cls-8" x="-801.21" y="-1952.4" width="2026.04" height="3956.4"/></g><path class="cls-9" d="M34.27,362.7a9.94,9.94,0,1,0-9.94-9.94A9.94,9.94,0,0,0,34.27,362.7Zm6.32-21.93A13.56,13.56,0,1,1,27.5,364.51H13.7a5.62,5.62,0,0,1-5.63-5.63V334a5.63,5.63,0,0,1,5.63-5.63H35A5.62,5.62,0,0,1,40.59,334ZM20.72,352.91a9,9,0,0,1-5.42-8.28v-2.29a3.61,3.61,0,1,1,3.61,0v2.29a5.42,5.42,0,0,0,2.32,4.44,13.59,13.59,0,0,1,7-8.45,3.61,3.61,0,1,1,6.94-1.42v0a13.64,13.64,0,0,1,1.81.24V332H11.68v28.92H23.43A13.5,13.5,0,0,1,20.72,352.91Zm15.36-2h2.71a1.81,1.81,0,1,1,0,3.61H36.08v2.71a1.81,1.81,0,1,1-3.61,0v-2.71H29.76a1.81,1.81,0,1,1,0-3.61h2.71v-2.71a1.81,1.81,0,1,1,3.61,0Z"/><path class="cls-5" d="M17.09,549.76H30.3a2.51,2.51,0,0,1,1.54.63l9.93,9.94a2.51,2.51,0,0,1,.63,1.54v20.42a3.61,3.61,0,0,1-3.62,3.61H17.11a3.62,3.62,0,0,1-3.62-3.61V553.38A3.61,3.61,0,0,1,17.09,549.76Zm12.66,3.61v9h9Zm-3.61,0h-9s0,28.92,0,28.92H38.78s0-10.53,0-16.27H27.94a1.81,1.81,0,0,1-1.81-1.81Z"/><g class="cls-21"><rect class="cls-7" x="-280.76" y="-2858.74" width="2026.04" height="3956.4"/><rect class="cls-8" x="-280.76" y="-2858.74" width="2026.04" height="3956.4"/></g><path class="cls-9" d="M17.09,549.76H30.3a2.51,2.51,0,0,1,1.54.63l9.93,9.94a2.51,2.51,0,0,1,.63,1.54v20.42a3.61,3.61,0,0,1-3.62,3.61H17.11a3.62,3.62,0,0,1-3.62-3.61V553.38A3.61,3.61,0,0,1,17.09,549.76Zm12.66,3.61v9h9Zm-3.61,0h-9s0,28.92,0,28.92H38.78s0-10.53,0-16.27H27.94a1.81,1.81,0,0,1-1.81-1.81Z"/><path class="cls-5" d="M43.15,228.24a7.24,7.24,0,0,0-1.27-1.06,9.45,9.45,0,0,0-5.38-1.58,7,7,0,0,0-5.09,2.29,22.66,22.66,0,0,0-1.56,2v21a16.25,16.25,0,0,1,6.63-1.59,16.3,16.3,0,0,1,6.67,1.5Zm-30.4,0v22.61a16.3,16.3,0,0,1,6.67-1.5A16.25,16.25,0,0,1,26,251v-21a22.67,22.67,0,0,0-1.56-2,7,7,0,0,0-5.09-2.29A9.45,9.45,0,0,0,14,227.18,7.25,7.25,0,0,0,12.74,228.24Zm14,27.37-.52-.33a15.58,15.58,0,0,0-1.66-.87,13.15,13.15,0,0,0-5.2-1.26,13.21,13.21,0,0,0-5.23,1.26,16,16,0,0,0-1.67.88c-.28.17-.47.3-.56.36a1.9,1.9,0,0,1-3-1.54V227.5a1.9,1.9,0,0,1,.37-1.13A10.54,10.54,0,0,1,11.9,224a13.24,13.24,0,0,1,7.49-2.22,10.78,10.78,0,0,1,7.78,3.41c.28.28.53.56.77.83.24-.27.49-.55.77-.83a10.78,10.78,0,0,1,7.78-3.41A13.24,13.24,0,0,1,44,224a10.54,10.54,0,0,1,2.59,2.35,1.9,1.9,0,0,1,.37,1.13v26.61a1.9,1.9,0,0,1-3,1.54c-.08-.06-.27-.19-.56-.36a16,16,0,0,0-1.67-.88,13.21,13.21,0,0,0-5.23-1.26,13.15,13.15,0,0,0-5.2,1.26,15.61,15.61,0,0,0-1.66.87l-.52.33-.13.09a1.88,1.88,0,0,1-2.05,0Z"/><g class="cls-22"><rect class="cls-7" x="-387.89" y="-2908.2" width="2130.48" height="4160.35"/><rect class="cls-8" x="-387.89" y="-2908.2" width="2130.48" height="4160.35"/></g><path class="cls-9" d="M43.15,228.24a7.24,7.24,0,0,0-1.27-1.06,9.45,9.45,0,0,0-5.38-1.58,7,7,0,0,0-5.09,2.29,22.66,22.66,0,0,0-1.56,2v21a16.25,16.25,0,0,1,6.63-1.59,16.3,16.3,0,0,1,6.67,1.5Zm-30.4,0v22.61a16.3,16.3,0,0,1,6.67-1.5A16.25,16.25,0,0,1,26,251v-21a22.67,22.67,0,0,0-1.56-2,7,7,0,0,0-5.09-2.29A9.45,9.45,0,0,0,14,227.18,7.25,7.25,0,0,0,12.74,228.24Zm14,27.37-.52-.33a15.58,15.58,0,0,0-1.66-.87,13.15,13.15,0,0,0-5.2-1.26,13.21,13.21,0,0,0-5.23,1.26,16,16,0,0,0-1.67.88c-.28.17-.47.3-.56.36a1.9,1.9,0,0,1-3-1.54V227.5a1.9,1.9,0,0,1,.37-1.13A10.54,10.54,0,0,1,11.9,224a13.24,13.24,0,0,1,7.49-2.22,10.78,10.78,0,0,1,7.78,3.41c.28.28.53.56.77.83.24-.27.49-.55.77-.83a10.78,10.78,0,0,1,7.78-3.41A13.24,13.24,0,0,1,44,224a10.54,10.54,0,0,1,2.59,2.35,1.9,1.9,0,0,1,.37,1.13v26.61a1.9,1.9,0,0,1-3,1.54c-.08-.06-.27-.19-.56-.36a16,16,0,0,0-1.67-.88,13.21,13.21,0,0,0-5.23-1.26,13.15,13.15,0,0,0-5.2,1.26,15.61,15.61,0,0,0-1.66.87l-.52.33-.13.09a1.88,1.88,0,0,1-2.05,0Z"/><path class="cls-5" d="M32.68,685.66a2.84,2.84,0,1,1,2.84-2.84A2.84,2.84,0,0,1,32.68,685.66Zm-9.47,0a2.84,2.84,0,1,1,2.84-2.84A2.84,2.84,0,0,1,23.21,685.66Zm21.78.95v-5.69A1,1,0,0,0,44,680H43.1v7.58H44A1,1,0,0,0,45,686.61ZM11.85,680a1,1,0,0,0-.95.94v5.69a.95.95,0,0,0,1.89,0V680Zm19.38,18.94a3.79,3.79,0,1,1,0-3.79h4.3a3.79,3.79,0,0,0,3.78-3.79V676.18a11.36,11.36,0,0,0-22.73,0v10.42a4.73,4.73,0,0,1-9.47,0v-5.69a4.74,4.74,0,0,1,4.73-4.73h.95a15.15,15.15,0,0,1,30.3,0H44a4.74,4.74,0,0,1,4.73,4.73v5.69A4.73,4.73,0,0,1,44,691.34H43.1a7.58,7.58,0,0,1-7.57,7.58Z"/><g class="cls-23"><rect class="cls-7" x="-1477.4" y="-1728.35" width="2123.37" height="4146.46"/><rect class="cls-24" x="-1477.4" y="-1728.35" width="2123.37" height="4146.46"/></g><path class="cls-25" d="M32.68,685.66a2.84,2.84,0,1,1,2.84-2.84A2.84,2.84,0,0,1,32.68,685.66Zm-9.47,0a2.84,2.84,0,1,1,2.84-2.84A2.84,2.84,0,0,1,23.21,685.66Zm21.78.95v-5.69A1,1,0,0,0,44,680H43.1v7.58H44A1,1,0,0,0,45,686.61ZM11.85,680a1,1,0,0,0-.95.94v5.69a.95.95,0,0,0,1.89,0V680Zm19.38,18.94a3.79,3.79,0,1,1,0-3.79h4.3a3.79,3.79,0,0,0,3.78-3.79V676.18a11.36,11.36,0,0,0-22.73,0v10.42a4.73,4.73,0,0,1-9.47,0v-5.69a4.74,4.74,0,0,1,4.73-4.73h.95a15.15,15.15,0,0,1,30.3,0H44a4.74,4.74,0,0,1,4.73,4.73v5.69A4.73,4.73,0,0,1,44,691.34H43.1a7.58,7.58,0,0,1-7.57,7.58Z"/><path class="cls-10" d="M112.56,140.08a5.42,5.42,0,1,0-5.42-5.42A5.42,5.42,0,0,0,112.56,140.08Zm0-22.09a1.4,1.4,0,0,1,1.4-1.41h2.63A1.4,1.4,0,0,1,118,118v.8a1.4,1.4,0,0,1-1.4,1.41H114a1.4,1.4,0,0,1-1.4-1.41ZM92.68,128.84a1.4,1.4,0,0,1,1.4-1.41h2.63a1.4,1.4,0,0,1,1.4,1.41v.8a1.4,1.4,0,0,1-1.4,1.41H94.08a1.4,1.4,0,0,1-1.4-1.41Zm27.29,11a5.42,5.42,0,1,0,0-10.35,9,9,0,0,1,0,10.35Zm-16.26-7a9,9,0,0,1,1.63-3.61,5.42,5.42,0,1,1,5-3.34,9.1,9.1,0,0,1,2.22-.27,9,9,0,0,1,4.52,1.21,9,9,0,0,1,2.71-1v-11H90.87v18.07Zm0,3.61H92.89a5.62,5.62,0,0,1-5.63-5.62V116.78a5.62,5.62,0,0,1,5.63-5.62h24.89a5.62,5.62,0,0,1,5.63,5.62v9a9,9,0,1,1-6.32,16.68,9,9,0,0,1-13.37-6Z"/><g class="cls-26"><rect class="cls-12" x="-633.47" y="-2084.65" width="2026.04" height="3956.4"/><rect class="cls-13" x="-633.47" y="-2084.65" width="2026.04" height="3956.4"/></g><path class="cls-14" d="M112.56,140.08a5.42,5.42,0,1,0-5.42-5.42A5.42,5.42,0,0,0,112.56,140.08Zm0-22.09a1.4,1.4,0,0,1,1.4-1.41h2.63A1.4,1.4,0,0,1,118,118v.8a1.4,1.4,0,0,1-1.4,1.41H114a1.4,1.4,0,0,1-1.4-1.41ZM92.68,128.84a1.4,1.4,0,0,1,1.4-1.41h2.63a1.4,1.4,0,0,1,1.4,1.41v.8a1.4,1.4,0,0,1-1.4,1.41H94.08a1.4,1.4,0,0,1-1.4-1.41Zm27.29,11a5.42,5.42,0,1,0,0-10.35,9,9,0,0,1,0,10.35Zm-16.26-7a9,9,0,0,1,1.63-3.61,5.42,5.42,0,1,1,5-3.34,9.1,9.1,0,0,1,2.22-.27,9,9,0,0,1,4.52,1.21,9,9,0,0,1,2.71-1v-11H90.87v18.07Zm0,3.61H92.89a5.62,5.62,0,0,1-5.63-5.62V116.78a5.62,5.62,0,0,1,5.63-5.62h24.89a5.62,5.62,0,0,1,5.63,5.62v9a9,9,0,1,1-6.32,16.68,9,9,0,0,1-13.37-6Z"/><path class="cls-10" d="M118.88,461.74v-8.24a9.94,9.94,0,1,0-19.88,0v8.25a1.91,1.91,0,0,1-1.36,1.75,1.81,1.81,0,0,0,.46,3.56h21.68a1.81,1.81,0,0,0,.46-3.56A1.91,1.91,0,0,1,118.88,461.74Zm-11.75,8.92h0a1.81,1.81,0,0,0,3.61,0Zm-3.61,0H98.11a5.42,5.42,0,0,1-2.71-10.12c0-.55,0-7,0-7a13.56,13.56,0,0,1,10-13.07,3.66,3.66,0,0,1,0-.48,3.61,3.61,0,1,1,7.2.48,13.56,13.56,0,0,1,10,13.08v7.06a5.42,5.42,0,0,1-2.71,10.11h-5.42a5.42,5.42,0,0,1-10.84,0Z"/><g class="cls-27"><rect class="cls-12" x="-1153.92" y="-2363.12" width="2026.04" height="3956.4"/><rect class="cls-13" x="-1153.92" y="-2363.12" width="2026.04" height="3956.4"/></g><path class="cls-14" d="M118.88,461.74v-8.24a9.94,9.94,0,1,0-19.88,0v8.25a1.91,1.91,0,0,1-1.36,1.75,1.81,1.81,0,0,0,.46,3.56h21.68a1.81,1.81,0,0,0,.46-3.56A1.91,1.91,0,0,1,118.88,461.74Zm-11.75,8.92h0a1.81,1.81,0,0,0,3.61,0Zm-3.61,0H98.11a5.42,5.42,0,0,1-2.71-10.12c0-.55,0-7,0-7a13.56,13.56,0,0,1,10-13.07,3.66,3.66,0,0,1,0-.48,3.61,3.61,0,1,1,7.2.48,13.56,13.56,0,0,1,10,13.08v7.06a5.42,5.42,0,0,1-2.71,10.11h-5.42a5.42,5.42,0,0,1-10.84,0Z"/><path class="cls-10" d="M99.44-72.76l-2-2a2,2,0,0,1,0-2.86,2,2,0,0,1,2.86,0l.6.6,2.61-2.62a2,2,0,0,1,2.86,0,2,2,0,0,1,0,2.86l-4,4A2,2,0,0,1,99.44-72.76Zm0-11.11-2-2a2,2,0,0,1,0-2.86,2,2,0,0,1,2.86,0l.59.59,2.61-2.61a2,2,0,0,1,2.86,0,2,2,0,0,1,0,2.86l-4,4A2,2,0,0,1,99.44-83.87Zm9.51,9.68a2,2,0,0,1,2-2H119a2,2,0,0,1,2,2,2,2,0,0,1-2,2H111A2,2,0,0,1,108.94-74.19Zm0-11.11a2,2,0,0,1,2-2H119a2,2,0,0,1,2,2,2,2,0,0,1-2,2H111A2,2,0,0,1,108.94-85.3ZM115-96.41h-4a2,2,0,0,1-2,2,2,2,0,0,1-2-2h-4a2,2,0,0,1-2,2,2,2,0,0,1-2-2h-4s0,32.32,0,32.32h28.28s0-32.33,0-32.33h-4a2,2,0,0,1-2,2,2,2,0,0,1-2-2Zm0-4h0a2,2,0,0,1,2-2,2,2,0,0,1,2,2h4a4,4,0,0,1,4,4v32.33a4,4,0,0,1-4,4H94.81a4,4,0,0,1-4-4V-96.41a4,4,0,0,1,4-4h4a2,2,0,0,1,2-2,2,2,0,0,1,2,2h4a2,2,0,0,1,2-2,2,2,0,0,1,2,2h4Z"/><g class="cls-28"><rect class="cls-12" x="-624" y="-2746.98" width="2264.82" height="4422.68"/><rect class="cls-13" x="-624" y="-2746.98" width="2264.82" height="4422.68"/></g><path class="cls-14" d="M99.44-72.76l-2-2a2,2,0,0,1,0-2.86,2,2,0,0,1,2.86,0l.6.6,2.61-2.62a2,2,0,0,1,2.86,0,2,2,0,0,1,0,2.86l-4,4A2,2,0,0,1,99.44-72.76Zm0-11.11-2-2a2,2,0,0,1,0-2.86,2,2,0,0,1,2.86,0l.59.59,2.61-2.61a2,2,0,0,1,2.86,0,2,2,0,0,1,0,2.86l-4,4A2,2,0,0,1,99.44-83.87Zm9.51,9.68a2,2,0,0,1,2-2H119a2,2,0,0,1,2,2,2,2,0,0,1-2,2H111A2,2,0,0,1,108.94-74.19Zm0-11.11a2,2,0,0,1,2-2H119a2,2,0,0,1,2,2,2,2,0,0,1-2,2H111A2,2,0,0,1,108.94-85.3ZM115-96.41h-4a2,2,0,0,1-2,2,2,2,0,0,1-2-2h-4a2,2,0,0,1-2,2,2,2,0,0,1-2-2h-4s0,32.32,0,32.32h28.28s0-32.33,0-32.33h-4a2,2,0,0,1-2,2,2,2,0,0,1-2-2Zm0-4h0a2,2,0,0,1,2-2,2,2,0,0,1,2,2h4a4,4,0,0,1,4,4v32.33a4,4,0,0,1-4,4H94.81a4,4,0,0,1-4-4V-96.41a4,4,0,0,1,4-4h4a2,2,0,0,1,2-2,2,2,0,0,1,2,2h4a2,2,0,0,1,2-2,2,2,0,0,1,2,2h4Z"/><path class="cls-10" d="M102.71,27.24a2.08,2.08,0,1,0-2.08-2.08A2.08,2.08,0,0,0,102.71,27.24Zm0,4.15a6.23,6.23,0,1,1,6.23-6.23A6.23,6.23,0,0,1,102.71,31.39ZM90.36,24.72a1.1,1.1,0,0,0,0,1L98,36.79a2.54,2.54,0,0,0,1.59.83h28s0-24.93,0-24.93h-28a2.55,2.55,0,0,0-1.59.83Zm4.26,14.49L87,28a5.19,5.19,0,0,1,0-5.81l7.61-11.11a6.59,6.59,0,0,1,5-2.57h28a4.15,4.15,0,0,1,4.14,4.14V37.63a4.15,4.15,0,0,1-4.14,4.14h-28A6.58,6.58,0,0,1,94.61,39.21Z"/><g class="cls-29"><rect class="cls-12" x="-744.06" y="-3513.1" width="2327.81" height="4545.69"/><rect class="cls-13" x="-744.06" y="-3513.1" width="2327.81" height="4545.69"/></g><path class="cls-14" d="M102.71,27.24a2.08,2.08,0,1,0-2.08-2.08A2.08,2.08,0,0,0,102.71,27.24Zm0,4.15a6.23,6.23,0,1,1,6.23-6.23A6.23,6.23,0,0,1,102.71,31.39ZM90.36,24.72a1.1,1.1,0,0,0,0,1L98,36.79a2.54,2.54,0,0,0,1.59.83h28s0-24.93,0-24.93h-28a2.55,2.55,0,0,0-1.59.83Zm4.26,14.49L87,28a5.19,5.19,0,0,1,0-5.81l7.61-11.11a6.59,6.59,0,0,1,5-2.57h28a4.15,4.15,0,0,1,4.14,4.14V37.63a4.15,4.15,0,0,1-4.14,4.14h-28A6.58,6.58,0,0,1,94.61,39.21Z"/><path class="cls-10" d="M115.27,362.7a9.94,9.94,0,1,0-9.94-9.94A9.94,9.94,0,0,0,115.27,362.7Zm6.32-21.93a13.56,13.56,0,1,1-13.09,23.74H94.7a5.62,5.62,0,0,1-5.63-5.63V334a5.63,5.63,0,0,1,5.63-5.63H116a5.62,5.62,0,0,1,5.63,5.63Zm-19.88,12.14a9,9,0,0,1-5.42-8.28v-2.29a3.61,3.61,0,1,1,3.61,0v2.29a5.42,5.42,0,0,0,2.32,4.44,13.59,13.59,0,0,1,7-8.45,3.61,3.61,0,1,1,6.94-1.42v0a13.64,13.64,0,0,1,1.81.24V332H92.68v28.92h11.75A13.5,13.5,0,0,1,101.72,352.91Zm15.36-2h2.71a1.81,1.81,0,1,1,0,3.61h-2.71v2.71a1.81,1.81,0,1,1-3.61,0v-2.71h-2.71a1.81,1.81,0,1,1,0-3.61h2.71v-2.71a1.81,1.81,0,1,1,3.61,0Z"/><g class="cls-30"><rect class="cls-12" x="-720.21" y="-1952.4" width="2026.04" height="3956.4"/><rect class="cls-13" x="-720.21" y="-1952.4" width="2026.04" height="3956.4"/></g><path class="cls-14" d="M115.27,362.7a9.94,9.94,0,1,0-9.94-9.94A9.94,9.94,0,0,0,115.27,362.7Zm6.32-21.93a13.56,13.56,0,1,1-13.09,23.74H94.7a5.62,5.62,0,0,1-5.63-5.63V334a5.63,5.63,0,0,1,5.63-5.63H116a5.62,5.62,0,0,1,5.63,5.63Zm-19.88,12.14a9,9,0,0,1-5.42-8.28v-2.29a3.61,3.61,0,1,1,3.61,0v2.29a5.42,5.42,0,0,0,2.32,4.44,13.59,13.59,0,0,1,7-8.45,3.61,3.61,0,1,1,6.94-1.42v0a13.64,13.64,0,0,1,1.81.24V332H92.68v28.92h11.75A13.5,13.5,0,0,1,101.72,352.91Zm15.36-2h2.71a1.81,1.81,0,1,1,0,3.61h-2.71v2.71a1.81,1.81,0,1,1-3.61,0v-2.71h-2.71a1.81,1.81,0,1,1,0-3.61h2.71v-2.71a1.81,1.81,0,1,1,3.61,0Z"/><path class="cls-10" d="M98.09,549.76H111.3a2.51,2.51,0,0,1,1.54.63l9.93,9.94a2.51,2.51,0,0,1,.63,1.54v20.42a3.61,3.61,0,0,1-3.62,3.61H98.11a3.62,3.62,0,0,1-3.62-3.61V553.38A3.61,3.61,0,0,1,98.09,549.76Zm12.66,3.61v9h9Zm-3.61,0h-9s0,28.92,0,28.92h21.68s0-10.53,0-16.27H108.94a1.81,1.81,0,0,1-1.81-1.81Z"/><g class="cls-31"><rect class="cls-12" x="-199.76" y="-2858.74" width="2026.04" height="3956.4"/><rect class="cls-13" x="-199.76" y="-2858.74" width="2026.04" height="3956.4"/></g><path class="cls-14" d="M98.09,549.76H111.3a2.51,2.51,0,0,1,1.54.63l9.93,9.94a2.51,2.51,0,0,1,.63,1.54v20.42a3.61,3.61,0,0,1-3.62,3.61H98.11a3.62,3.62,0,0,1-3.62-3.61V553.38A3.61,3.61,0,0,1,98.09,549.76Zm12.66,3.61v9h9Zm-3.61,0h-9s0,28.92,0,28.92h21.68s0-10.53,0-16.27H108.94a1.81,1.81,0,0,1-1.81-1.81Z"/><path class="cls-10" d="M124.15,228.24a7.24,7.24,0,0,0-1.27-1.06,9.45,9.45,0,0,0-5.38-1.58,7,7,0,0,0-5.09,2.29,22.66,22.66,0,0,0-1.56,2v21a15.07,15.07,0,0,1,13.3-.09Zm-30.4,0v22.61A15.07,15.07,0,0,1,107,251v-21a22.67,22.67,0,0,0-1.56-2,7,7,0,0,0-5.09-2.29A9.45,9.45,0,0,0,95,227.18,7.25,7.25,0,0,0,93.74,228.24Zm14,27.37-.52-.33a15.58,15.58,0,0,0-1.66-.87,11.45,11.45,0,0,0-10.43,0,16,16,0,0,0-1.67.88c-.28.17-.47.3-.56.36a1.9,1.9,0,0,1-3-1.54V227.5a1.9,1.9,0,0,1,.37-1.13A10.54,10.54,0,0,1,92.9,224a13.24,13.24,0,0,1,7.49-2.22,10.78,10.78,0,0,1,7.78,3.41c.28.28.53.56.77.83.24-.27.49-.55.77-.83a10.78,10.78,0,0,1,7.78-3.41A13.24,13.24,0,0,1,125,224a10.54,10.54,0,0,1,2.59,2.35,1.9,1.9,0,0,1,.37,1.13v26.61a1.9,1.9,0,0,1-3,1.54c-.08-.06-.27-.19-.56-.36a16,16,0,0,0-1.67-.88,11.45,11.45,0,0,0-10.43,0,15.61,15.61,0,0,0-1.66.87l-.52.33-.13.09a1.88,1.88,0,0,1-2.05,0Z"/><g class="cls-32"><rect class="cls-12" x="-306.89" y="-2908.2" width="2130.48" height="4160.35"/><rect class="cls-13" x="-306.89" y="-2908.2" width="2130.48" height="4160.35"/></g><path class="cls-14" d="M124.15,228.24a7.24,7.24,0,0,0-1.27-1.06,9.45,9.45,0,0,0-5.38-1.58,7,7,0,0,0-5.09,2.29,22.66,22.66,0,0,0-1.56,2v21a15.07,15.07,0,0,1,13.3-.09Zm-30.4,0v22.61A15.07,15.07,0,0,1,107,251v-21a22.67,22.67,0,0,0-1.56-2,7,7,0,0,0-5.09-2.29A9.45,9.45,0,0,0,95,227.18,7.25,7.25,0,0,0,93.74,228.24Zm14,27.37-.52-.33a15.58,15.58,0,0,0-1.66-.87,11.45,11.45,0,0,0-10.43,0,16,16,0,0,0-1.67.88c-.28.17-.47.3-.56.36a1.9,1.9,0,0,1-3-1.54V227.5a1.9,1.9,0,0,1,.37-1.13A10.54,10.54,0,0,1,92.9,224a13.24,13.24,0,0,1,7.49-2.22,10.78,10.78,0,0,1,7.78,3.41c.28.28.53.56.77.83.24-.27.49-.55.77-.83a10.78,10.78,0,0,1,7.78-3.41A13.24,13.24,0,0,1,125,224a10.54,10.54,0,0,1,2.59,2.35,1.9,1.9,0,0,1,.37,1.13v26.61a1.9,1.9,0,0,1-3,1.54c-.08-.06-.27-.19-.56-.36a16,16,0,0,0-1.67-.88,11.45,11.45,0,0,0-10.43,0,15.61,15.61,0,0,0-1.66.87l-.52.33-.13.09a1.88,1.88,0,0,1-2.05,0Z"/><path class="cls-10" d="M113.68,685.66a2.84,2.84,0,1,1,2.84-2.84A2.84,2.84,0,0,1,113.68,685.66Zm-9.47,0a2.84,2.84,0,1,1,2.84-2.84A2.84,2.84,0,0,1,104.21,685.66Zm21.78.95v-5.69A1,1,0,0,0,125,680h-.95v7.58H125A1,1,0,0,0,126,686.61ZM92.85,680a1,1,0,0,0-.95.94v5.69a.95.95,0,0,0,1.89,0V680Zm19.38,18.94a3.79,3.79,0,1,1,0-3.79h4.3a3.79,3.79,0,0,0,3.78-3.79V676.18a11.36,11.36,0,0,0-22.73,0v10.42a4.73,4.73,0,0,1-9.47,0v-5.69a4.74,4.74,0,0,1,4.73-4.73h.95a15.15,15.15,0,0,1,30.3,0H125a4.74,4.74,0,0,1,4.73,4.73v5.69a4.73,4.73,0,0,1-4.73,4.73h-.95a7.58,7.58,0,0,1-7.57,7.58Z"/><g class="cls-33"><rect class="cls-12" x="-1396.4" y="-1728.35" width="2123.37" height="4146.46"/><rect class="cls-13" x="-1396.4" y="-1728.35" width="2123.37" height="4146.46"/></g><path class="cls-14" d="M113.68,685.66a2.84,2.84,0,1,1,2.84-2.84A2.84,2.84,0,0,1,113.68,685.66Zm-9.47,0a2.84,2.84,0,1,1,2.84-2.84A2.84,2.84,0,0,1,104.21,685.66Zm21.78.95v-5.69A1,1,0,0,0,125,680h-.95v7.58H125A1,1,0,0,0,126,686.61ZM92.85,680a1,1,0,0,0-.95.94v5.69a.95.95,0,0,0,1.89,0V680Zm19.38,18.94a3.79,3.79,0,1,1,0-3.79h4.3a3.79,3.79,0,0,0,3.78-3.79V676.18a11.36,11.36,0,0,0-22.73,0v10.42a4.73,4.73,0,0,1-9.47,0v-5.69a4.74,4.74,0,0,1,4.73-4.73h.95a15.15,15.15,0,0,1,30.3,0H125a4.74,4.74,0,0,1,4.73,4.73v5.69a4.73,4.73,0,0,1-4.73,4.73h-.95a7.58,7.58,0,0,1-7.57,7.58Z"/></svg>